<svg xmlns="http://www.w3.org/2000/svg" xmlns:xlink="http://www.w3.org/1999/xlink" width="57.199" height="67.976" viewBox="0 0 57.199 67.976">
  <defs>
    <linearGradient id="linear-gradient" x1="0.5" y1="1" x2="0.5" gradientUnits="objectBoundingBox">
      <stop offset="0" stop-color="#e1a637"/>
      <stop offset="0.5" stop-color="#ffde91"/>
      <stop offset="0.612" stop-color="#fedc8c"/>
      <stop offset="0.734" stop-color="#fed67f"/>
      <stop offset="0.863" stop-color="#fccd69"/>
      <stop offset="0.994" stop-color="#fbc14a"/>
      <stop offset="1" stop-color="#fbc149"/>
    </linearGradient>
  </defs>
  <g id="Group_3692" data-name="Group 3692" transform="translate(-515.568 -1119.9)">
    <g id="Group_3676" data-name="Group 3676" transform="translate(515.668 1120)">
      <path id="Path_3722" data-name="Path 3722" d="M1105.51,428.687c0,2.446-2.647,4.511-3.25,6.767-.624,2.334.618,5.443-.565,7.486-1.2,2.073-4.523,2.545-6.206,4.227s-2.154,5.006-4.227,6.206c-2.043,1.182-5.152-.059-7.486.564-2.256.6-4.321,3.25-6.767,3.25s-4.511-2.647-6.767-3.25c-2.334-.624-5.443.618-7.486-.565-2.073-1.2-2.545-4.523-4.227-6.206s-5.007-2.154-6.206-4.227c-1.182-2.044.059-5.152-.565-7.486-.6-2.255-3.25-4.321-3.25-6.766s2.647-4.511,3.25-6.767c.624-2.334-.617-5.443.565-7.486,1.2-2.073,4.523-2.545,6.206-4.227s2.154-5.006,4.227-6.206c2.043-1.182,5.152.06,7.486-.564,2.256-.6,4.321-3.25,6.767-3.25s4.511,2.647,6.767,3.25c2.334.624,5.443-.618,7.486.565,2.073,1.2,2.545,4.523,4.227,6.206s5.006,2.154,6.205,4.227c1.182,2.044-.059,5.152.565,7.486C1102.863,424.176,1105.51,426.241,1105.51,428.687Z" transform="translate(-1048.51 -400.187)" stroke="#e1c057" stroke-width="0.2" fill="url(#linear-gradient)"/>
      <path id="Path_3723" data-name="Path 3723" d="M1105.51,428.687c0,2.446-2.647,4.511-3.25,6.767-.624,2.334.618,5.443-.565,7.486-1.2,2.073-4.523,2.545-6.206,4.227s-2.154,5.006-4.227,6.206c-2.043,1.182-5.152-.059-7.486.564-2.256.6-4.321,3.25-6.767,3.25s-4.511-2.647-6.767-3.25c-2.334-.624-5.443.618-7.486-.565-2.073-1.2-2.545-4.523-4.227-6.206s-5.007-2.154-6.206-4.227c-1.182-2.044.059-5.152-.565-7.486-.6-2.255-3.25-4.321-3.25-6.766s2.647-4.511,3.25-6.767c.624-2.334-.617-5.443.565-7.486,1.2-2.073,4.523-2.545,6.206-4.227s2.154-5.006,4.227-6.206c2.043-1.182,5.152.06,7.486-.564,2.256-.6,4.321-3.25,6.767-3.25s4.511,2.647,6.767,3.25c2.334.624,5.443-.618,7.486.565,2.073,1.2,2.545,4.523,4.227,6.206s5.006,2.154,6.205,4.227c1.182,2.044-.059,5.152.565,7.486C1102.863,424.176,1105.51,426.241,1105.51,428.687Z" transform="translate(-1048.51 -400.187)" fill="rgba(0,0,0,0)" stroke="#e1c057" stroke-linecap="round" stroke-linejoin="round" stroke-width="0.2"/>
    </g>
    <g id="Group_3682" data-name="Group 3682" transform="translate(520.771 1125.103)">
      <g id="Group_3681" data-name="Group 3681" transform="translate(1.909 1.842)">
        <g id="Group_3678" data-name="Group 3678" transform="translate(8.202 35.891)">
          <g id="Group_3677" data-name="Group 3677">
            <path id="Path_3724" data-name="Path 3724" d="M1086.774,504.918a.825.825,0,0,1,.51-.353.864.864,0,0,1,.893.676.823.823,0,0,1-.2.587l-.992,1.311a.935.935,0,0,1-.343.3.092.092,0,0,0,0,.073.285.285,0,0,0,.067.065l.036.027-.267.353-.054-.041a.579.579,0,0,1-.184-.21.352.352,0,0,1-.028-.222,1.037,1.037,0,0,1-.313-.163.732.732,0,0,1-.322-.5.822.822,0,0,1,.2-.587Zm-.615,1.635a.337.337,0,0,0-.09.235.284.284,0,0,0,.3.226.333.333,0,0,0,.2-.15l1.03-1.361a.339.339,0,0,0,.09-.235.255.255,0,0,0-.107-.169.252.252,0,0,0-.192-.057.334.334,0,0,0-.2.15Z" transform="translate(-1085.578 -504.557)" fill="#212838"/>
            <path id="Path_3725" data-name="Path 3725" d="M1092.223,507.266l-1.238,2.1a.324.324,0,0,0-.061.241.255.255,0,0,0,.127.153.258.258,0,0,0,.2.037.327.327,0,0,0,.181-.171l1.238-2.1.4.239-1.221,2.073a.846.846,0,0,1-.46.413.848.848,0,0,1-.953-.561.844.844,0,0,1,.138-.6l1.222-2.073Z" transform="translate(-1088.434 -506.006)" fill="#212838"/>
            <path id="Path_3726" data-name="Path 3726" d="M1096.253,513.251l-.457-.2.156-.559-.557-.248-.312.488-.417-.186,1.752-2.678.664.3Zm-.625-1.378.437.2.434-1.556Z" transform="translate(-1090.936 -507.685)" fill="#212838"/>
            <path id="Path_3727" data-name="Path 3727" d="M1101.261,511.444l.471.157-.856,2.569.775.259-.142.428-1.247-.415Z" transform="translate(-1094.235 -508.617)" fill="#212838"/>
            <path id="Path_3728" data-name="Path 3728" d="M1105.392,512.624l.482.12-.762,3.067-.482-.12Z" transform="translate(-1096.811 -509.313)" fill="#212838"/>
            <path id="Path_3729" data-name="Path 3729" d="M1108.174,513.1l1.512.264-.078.445-.511-.089-.466,2.669-.489-.085.466-2.669-.511-.089Z" transform="translate(-1098.854 -509.594)" fill="#212838"/>
            <path id="Path_3730" data-name="Path 3730" d="M1112.9,515.216l.68.052-.035.45-.68-.052-.071.923.855.066-.035.45-1.35-.1.242-3.151,1.35.1-.034.45-.855-.066Z" transform="translate(-1101.314 -510.036)" fill="#212838"/>
            <path id="Path_3731" data-name="Path 3731" d="M1119.017,514.055l.784-.05a.722.722,0,0,1,.569.163.831.831,0,0,1,.22.569l.1,1.595a.832.832,0,0,1-.146.593.721.721,0,0,1-.543.234l-.784.05Zm.525.419.144,2.252.28-.018a.249.249,0,0,0,.18-.079.335.335,0,0,0,.053-.243l-.105-1.64a.335.335,0,0,0-.083-.234.249.249,0,0,0-.189-.056Z" transform="translate(-1105.292 -510.125)" fill="#212838"/>
            <path id="Path_3732" data-name="Path 3732" d="M1123.652,514.136l-.066-.474.474-.066.06.424-.146.526-.2.028.067-.465Z" transform="translate(-1107.986 -509.886)" fill="#212838"/>
            <path id="Path_3733" data-name="Path 3733" d="M1127.725,516.057l-.491.1-.2-.545-.6.121.03.579-.447.091-.132-3.2.712-.144Zm-1.309-.758.469-.095-.552-1.519Z" transform="translate(-1109.345 -509.57)" fill="#212838"/>
            <path id="Path_3734" data-name="Path 3734" d="M1130.524,511.905a.749.749,0,0,1,.59,0,.758.758,0,0,1,.332.467l.035.108a.92.92,0,0,1,.05.406.487.487,0,0,1-.161.3.5.5,0,0,1,.35.151.977.977,0,0,1,.21.381l.079.245a.671.671,0,0,1-.489.944l-.744.239-.967-3.009Zm-.1.507.255.8.185-.06a.311.311,0,0,0,.187-.136.348.348,0,0,0-.005-.273l-.053-.167a.4.4,0,0,0-.135-.218.23.23,0,0,0-.206-.014Zm.394,1.225.3.924.271-.087a.255.255,0,0,0,.162-.123.35.35,0,0,0-.012-.252l-.084-.262a.453.453,0,0,0-.164-.266.318.318,0,0,0-.259,0Z" transform="translate(-1111.656 -508.854)" fill="#212838"/>
            <path id="Path_3735" data-name="Path 3735" d="M1135.182,511.014a.826.826,0,0,1-.065-.617.865.865,0,0,1,1.021-.461.827.827,0,0,1,.419.457l.676,1.5a.826.826,0,0,1,.065.617.866.866,0,0,1-1.021.46.827.827,0,0,1-.419-.457Zm1.142,1.322a.339.339,0,0,0,.163.192.286.286,0,0,0,.342-.154.335.335,0,0,0-.035-.249l-.7-1.556a.336.336,0,0,0-.163-.191.286.286,0,0,0-.342.154.335.335,0,0,0,.035.249Z" transform="translate(-1114.765 -507.703)" fill="#212838"/>
            <path id="Path_3736" data-name="Path 3736" d="M1141.573,510.25l-.046-.041a.462.462,0,0,1-.048-.05.786.786,0,0,1-.061-.085c-.023-.035-.051-.08-.083-.135l-.254-.427a.486.486,0,0,0-.225-.228.311.311,0,0,0-.26.049l-.148.088.658,1.106-.426.254-1.617-2.715.644-.384a.753.753,0,0,1,.575-.132.762.762,0,0,1,.429.38l.127.213a.636.636,0,0,1,.048.717.445.445,0,0,1,.351.082,1.131,1.131,0,0,1,.276.327l.25.419a1.961,1.961,0,0,0,.113.172.664.664,0,0,0,.13.13Zm-1.851-2.05.5.834.167-.1a.311.311,0,0,0,.151-.174.348.348,0,0,0-.066-.266l-.159-.268a.4.4,0,0,0-.179-.182.23.23,0,0,0-.2.032Z" transform="translate(-1117.112 -506.312)" fill="#212838"/>
            <path id="Path_3737" data-name="Path 3737" d="M1143.361,505.232l.625-.475a.722.722,0,0,1,.564-.179.833.833,0,0,1,.5.353l.967,1.272a.829.829,0,0,1,.206.575.721.721,0,0,1-.324.5l-.625.475Zm.669.059,1.365,1.8.223-.169a.249.249,0,0,0,.107-.166.334.334,0,0,0-.091-.231l-.994-1.309a.335.335,0,0,0-.2-.149.249.249,0,0,0-.188.058Z" transform="translate(-1119.645 -504.564)" fill="#212838"/>
          </g>
        </g>
        <g id="Group_3680" data-name="Group 3680">
          <g id="Group_3679" data-name="Group 3679">
            <path id="Path_3738" data-name="Path 3738" d="M1068.843,463.909l-.041.5-.578.039-.05.607.565.132-.037.454-3.109-.761.059-.725Zm-1.091,1.047.039-.477-1.612.108Z" transform="translate(-1065.593 -444.701)" fill="#212838"/>
            <path id="Path_3739" data-name="Path 3739" d="M1068.564,457.892l.411.084a.844.844,0,0,1,.54.3.848.848,0,0,1-.221,1.084.845.845,0,0,1-.615.066l-1.61-.328a.846.846,0,0,1-.54-.3.848.848,0,0,1,.221-1.084.848.848,0,0,1,.615-.066l.3.061-.094.461-.331-.068a.337.337,0,0,0-.251.02.256.256,0,0,0-.105.17.253.253,0,0,0,.031.2.336.336,0,0,0,.222.117l1.672.341a.328.328,0,0,0,.249-.021.294.294,0,0,0,.075-.367.326.326,0,0,0-.22-.117l-.442-.09Z" transform="translate(-1066.079 -440.994)" fill="#212838"/>
            <path id="Path_3740" data-name="Path 3740" d="M1070.211,452.075l.4.133a.844.844,0,0,1,.5.365.848.848,0,0,1-.352,1.049.846.846,0,0,1-.618-.01l-1.558-.523a.843.843,0,0,1-.5-.365.848.848,0,0,1,.352-1.049.848.848,0,0,1,.618.01l.291.1-.149.445-.321-.108a.336.336,0,0,0-.251-.01.25.25,0,0,0-.126.156.254.254,0,0,0,.007.2.334.334,0,0,0,.207.144l1.617.543a.328.328,0,0,0,.249.01.294.294,0,0,0,.12-.356.332.332,0,0,0-.2-.142l-.428-.144Z" transform="translate(-1067.017 -437.457)" fill="#212838"/>
            <path id="Path_3741" data-name="Path 3741" d="M1073.133,447.436l-.061-.009a.5.5,0,0,1-.068-.015.865.865,0,0,1-.1-.037l-.143-.066-.448-.215a.486.486,0,0,0-.314-.066.309.309,0,0,0-.189.185l-.074.155,1.16.557-.215.447L1069.834,447l.324-.676a.755.755,0,0,1,.406-.429.763.763,0,0,1,.568.08l.224.108a.635.635,0,0,1,.437.57.445.445,0,0,1,.339-.126,1.141,1.141,0,0,1,.411.119l.439.211c.071.034.133.06.189.08a.658.658,0,0,0,.18.036Zm-2.676-.684.875.42.085-.175a.315.315,0,0,0,.029-.229.348.348,0,0,0-.2-.184l-.281-.135a.4.4,0,0,0-.25-.053.228.228,0,0,0-.152.14Z" transform="translate(-1068.093 -434.068)" fill="#212838"/>
            <path id="Path_3742" data-name="Path 3742" d="M1074.216,441.478l.367-.575.381.243-.367.575.78.5.461-.723.381.242-.729,1.142-2.664-1.7.729-1.142.38.243-.461.723Z" transform="translate(-1069.857 -430.628)" fill="#212838"/>
            <path id="Path_3743" data-name="Path 3743" d="M1076.188,436.518l.5-.608a.721.721,0,0,1,.507-.306.834.834,0,0,1,.567.228l1.236,1.013a.831.831,0,0,1,.335.511.722.722,0,0,1-.2.557l-.5.607Zm.665-.1,1.746,1.431.177-.217a.248.248,0,0,0,.064-.186.333.333,0,0,0-.141-.2l-1.272-1.041a.332.332,0,0,0-.228-.1.247.247,0,0,0-.17.1Z" transform="translate(-1071.839 -428.013)" fill="#212838"/>
            <path id="Path_3744" data-name="Path 3744" d="M1080.33,432.562l.351-.352,2.236,2.234-.351.351Z" transform="translate(-1074.281 -426.012)" fill="#212838"/>
            <path id="Path_3745" data-name="Path 3745" d="M1082.311,429.655l1.165-1,.294.343-.394.338,1.764,2.056-.377.323L1083,429.66l-.395.338Z" transform="translate(-1075.449 -423.917)" fill="#212838"/>
            <path id="Path_3746" data-name="Path 3746" d="M1089.93,428.468l-.411.287-.4-.42-.5.349.259.519-.374.262-1.4-2.88.6-.417Zm-1.5-.172.392-.274-1.112-1.172Z" transform="translate(-1078.278 -422.45)" fill="#212838"/>
            <path id="Path_3747" data-name="Path 3747" d="M1090.961,423.536l1.345-.74.218.4-.455.25,1.306,2.373-.435.239-1.306-2.374-.455.25Z" transform="translate(-1080.549 -420.462)" fill="#212838"/>
            <path id="Path_3748" data-name="Path 3748" d="M1096.075,421.649l.454-.2,1.28,2.889-.454.2Z" transform="translate(-1083.564 -419.667)" fill="#212838"/>
            <path id="Path_3749" data-name="Path 3749" d="M1100.315,420.617a.827.827,0,0,1,0-.621.867.867,0,0,1,1.063-.35.829.829,0,0,1,.369.5l.514,1.561a.828.828,0,0,1,0,.621.865.865,0,0,1-1.063.35.825.825,0,0,1-.369-.5Zm1,1.436a.336.336,0,0,0,.142.208.285.285,0,0,0,.356-.117.337.337,0,0,0-.009-.251l-.533-1.621a.334.334,0,0,0-.142-.208.286.286,0,0,0-.356.117.337.337,0,0,0,.009.252Z" transform="translate(-1086.029 -418.562)" fill="#212838"/>
            <path id="Path_3750" data-name="Path 3750" d="M1106.646,418.839l.431,2.248-.439.084-.595-3.1.611-.117.857,1.762-.356-1.858.435-.083.595,3.1-.5.1Z" transform="translate(-1089.441 -417.499)" fill="#212838"/>
            <path id="Path_3751" data-name="Path 3751" d="M1114.633,417.924a.857.857,0,0,1,.167-.594.835.835,0,0,1,1.1-.03.857.857,0,0,1,.2.584l0,.1-.469.013,0-.131a.351.351,0,0,0-.072-.239.237.237,0,0,0-.185-.065.24.24,0,0,0-.181.075.355.355,0,0,0-.058.243.556.556,0,0,0,.08.284,1.2,1.2,0,0,0,.187.23c.074.072.154.143.238.214a2.19,2.19,0,0,1,.239.236,1.232,1.232,0,0,1,.189.292.976.976,0,0,1,.083.391.844.844,0,0,1-.171.594.847.847,0,0,1-1.106.031.845.845,0,0,1-.2-.584l-.005-.194.47-.013.006.226a.33.33,0,0,0,.077.237.293.293,0,0,0,.375-.01.328.328,0,0,0,.063-.241.562.562,0,0,0-.08-.284,1.187,1.187,0,0,0-.187-.23q-.111-.108-.238-.215a2.228,2.228,0,0,1-.239-.235,1.216,1.216,0,0,1-.188-.293A.989.989,0,0,1,1114.633,417.924Z" transform="translate(-1094.505 -417.109)" fill="#212838"/>
            <path id="Path_3752" data-name="Path 3752" d="M1121.426,420.547l-.5-.043-.036-.578-.607-.053-.135.564-.454-.04.778-3.1.724.063Zm-1.042-1.1.477.042-.1-1.613Z" transform="translate(-1097.49 -417.217)" fill="#212838"/>
            <path id="Path_3753" data-name="Path 3753" d="M1126.385,418.876l-.483,2.237-.437-.094.667-3.089.609.131.1,1.957.4-1.849.433.094-.667,3.089-.5-.108Z" transform="translate(-1100.892 -417.593)" fill="#212838"/>
            <path id="Path_3754" data-name="Path 3754" d="M1132.009,420.422a.858.858,0,0,1,.368-.5.835.835,0,0,1,1.035.363.858.858,0,0,1-.022.616l-.033.094-.443-.155.043-.124a.354.354,0,0,0,.018-.249.274.274,0,0,0-.345-.121.35.35,0,0,0-.142.206.559.559,0,0,0-.027.295,1.171,1.171,0,0,0,.093.281c.044.094.092.189.146.286a2.229,2.229,0,0,1,.14.3,1.245,1.245,0,0,1,.071.341.987.987,0,0,1-.062.394.847.847,0,0,1-.371.494.848.848,0,0,1-1.044-.366.845.845,0,0,1,.018-.618l.064-.183.443.156-.075.213a.327.327,0,0,0-.013.249.293.293,0,0,0,.354.124.327.327,0,0,0,.145-.2.561.561,0,0,0,.027-.295,1.192,1.192,0,0,0-.093-.282q-.065-.14-.146-.285a2.145,2.145,0,0,1-.14-.3,1.232,1.232,0,0,1-.072-.341A.986.986,0,0,1,1132.009,420.422Z" transform="translate(-1104.382 -418.729)" fill="#212838"/>
            <path id="Path_3755" data-name="Path 3755" d="M1138.84,424.038l.568.3-.21.4-.567-.3-.608,1.155-.44-.232,1.473-2.8,1.163.612-.211.4-.723-.381Z" transform="translate(-1108.036 -420.325)" fill="#212838"/>
            <path id="Path_3756" data-name="Path 3756" d="M1142.462,428.419c.007-.021.013-.04.018-.058a.465.465,0,0,1,.025-.065.869.869,0,0,1,.051-.091c.023-.036.052-.08.087-.132l.28-.41a.487.487,0,0,0,.112-.3.31.31,0,0,0-.154-.214l-.142-.1-.725,1.063-.41-.28,1.781-2.61.619.422a.635.635,0,0,1,.2,1.015l-.14.205a.635.635,0,0,1-.63.346.444.444,0,0,1,.073.353,1.126,1.126,0,0,1-.18.388l-.275.4a1.959,1.959,0,0,0-.109.175.66.66,0,0,0-.063.173Zm1.079-2.543-.547.8.161.11a.313.313,0,0,0,.222.064.344.344,0,0,0,.213-.172l.176-.257a.4.4,0,0,0,.089-.239.231.231,0,0,0-.115-.172Z" transform="translate(-1110.407 -421.893)" fill="#212838"/>
            <path id="Path_3757" data-name="Path 3757" d="M1148.11,429.985a.826.826,0,0,1,.535-.314.866.866,0,0,1,.84.74.825.825,0,0,1-.244.57l-1.086,1.233a.827.827,0,0,1-.535.314.866.866,0,0,1-.84-.74.826.826,0,0,1,.244-.57Zm-.734,1.585a.338.338,0,0,0-.107.228.285.285,0,0,0,.281.247.336.336,0,0,0,.212-.135l1.128-1.281a.339.339,0,0,0,.107-.227.287.287,0,0,0-.281-.248.338.338,0,0,0-.212.135Z" transform="translate(-1113.458 -424.514)" fill="#212838"/>
            <path id="Path_3758" data-name="Path 3758" d="M1152.221,434.364l-1.718,1.513-.3-.335,2.372-2.089.412.467-1.082,1.633,1.42-1.25.292.332-2.371,2.089-.337-.383Z" transform="translate(-1115.48 -426.745)" fill="#212838"/>
            <path id="Path_3759" data-name="Path 3759" d="M1156.391,437.768l.886,1.254-.369.261-.3-.424-2.212,1.563-.287-.405,2.213-1.563-.3-.424Z" transform="translate(-1117.78 -429.289)" fill="#212838"/>
            <path id="Path_3760" data-name="Path 3760" d="M1158.953,442.523l.251.428-2.726,1.6-.251-.428Z" transform="translate(-1119.028 -432.092)" fill="#212838"/>
            <path id="Path_3761" data-name="Path 3761" d="M1159.722,447.047l.288.618-.41.19-.287-.618-.839.391.362.778-.409.19-.572-1.228,2.865-1.334.572,1.228-.41.19-.362-.778Z" transform="translate(-1119.988 -434.163)" fill="#212838"/>
            <path id="Path_3762" data-name="Path 3762" d="M1160.247,453.542l.05-.035a.436.436,0,0,1,.06-.036.839.839,0,0,1,.1-.041l.149-.051.472-.154a.486.486,0,0,0,.272-.169.308.308,0,0,0,.009-.264l-.053-.163-1.223.4-.154-.472,3-.98.233.712a.751.751,0,0,1,0,.591.762.762,0,0,1-.465.335l-.237.077a.634.634,0,0,1-.71-.11.445.445,0,0,1-.158.325,1.14,1.14,0,0,1-.38.2l-.464.151c-.074.024-.138.048-.192.072a.656.656,0,0,0-.156.1Zm2.407-1.356-.923.3.061.185a.311.311,0,0,0,.137.186.347.347,0,0,0,.273-.007l.3-.1a.4.4,0,0,0,.217-.135.231.231,0,0,0,.014-.206Z" transform="translate(-1121.208 -437.428)" fill="#212838"/>
            <path id="Path_3763" data-name="Path 3763" d="M1163.429,458.575l.132.669-.443.087-.132-.669-.908.179.166.842-.443.087-.263-1.329,3.1-.612.262,1.329-.443.087-.166-.841Z" transform="translate(-1122.16 -441.117)" fill="#212838"/>
            <path id="Path_3764" data-name="Path 3764" d="M1164.827,463.649a.856.856,0,0,1,.6.135.834.834,0,0,1,.087,1.094.858.858,0,0,1-.573.229l-.1.008-.038-.468.131-.01a.353.353,0,0,0,.235-.085.238.238,0,0,0,.055-.188.241.241,0,0,0-.084-.177.353.353,0,0,0-.246-.046.56.56,0,0,0-.28.094,1.208,1.208,0,0,0-.22.2q-.1.116-.2.249a2.207,2.207,0,0,1-.222.252,1.253,1.253,0,0,1-.282.2.994.994,0,0,1-.386.1.846.846,0,0,1-.6-.14.848.848,0,0,1-.088-1.1.844.844,0,0,1,.572-.234l.194-.015.037.467-.225.018a.33.33,0,0,0-.234.089.261.261,0,0,0-.052.192.257.257,0,0,0,.083.181.324.324,0,0,0,.244.051.556.556,0,0,0,.28-.094,1.237,1.237,0,0,0,.22-.2c.068-.078.135-.161.2-.25a2.208,2.208,0,0,1,.223-.251,1.2,1.2,0,0,1,.283-.2A.978.978,0,0,1,1164.827,463.649Z" transform="translate(-1122.698 -444.545)" fill="#212838"/>
          </g>
        </g>
      </g>
      <circle id="Ellipse_24" data-name="Ellipse 24" cx="23.397" cy="23.397" r="23.397" fill="none" stroke="#212838" stroke-miterlimit="10" stroke-width="0.5"/>
      <circle id="Ellipse_25" data-name="Ellipse 25" cx="16.62" cy="16.62" r="16.62" transform="translate(6.777 6.777)" fill="none" stroke="#212838" stroke-miterlimit="10" stroke-width="0.3"/>
    </g>
    <path id="Path_3765" data-name="Path 3765" d="M1101.661,449.749l1.026,2.078a.264.264,0,0,0,.2.144l2.294.333a.263.263,0,0,1,.146.449l-1.659,1.617a.265.265,0,0,0-.076.233l.392,2.284a.263.263,0,0,1-.382.277l-2.051-1.079a.264.264,0,0,0-.245,0l-2.052,1.079a.263.263,0,0,1-.382-.277l.392-2.284a.263.263,0,0,0-.076-.233l-1.66-1.617a.263.263,0,0,1,.146-.449l2.293-.333a.264.264,0,0,0,.2-.144l1.026-2.078A.263.263,0,0,1,1101.661,449.749Z" transform="translate(-577.256 730.679)" fill="#212838"/>
    <path id="Path_3770" data-name="Path 3770" d="M1101.661,449.749l1.026,2.078a.264.264,0,0,0,.2.144l2.294.333a.263.263,0,0,1,.146.449l-1.659,1.617a.265.265,0,0,0-.076.233l.392,2.284a.263.263,0,0,1-.382.277l-2.051-1.079a.264.264,0,0,0-.245,0l-2.052,1.079a.263.263,0,0,1-.382-.277l.392-2.284a.263.263,0,0,0-.076-.233l-1.66-1.617a.263.263,0,0,1,.146-.449l2.293-.333a.264.264,0,0,0,.2-.144l1.026-2.078A.263.263,0,0,1,1101.661,449.749Z" transform="translate(-567.256 730.679)" fill="#212838"/>
    <path id="Path_3771" data-name="Path 3771" d="M1101.661,449.749l1.026,2.078a.264.264,0,0,0,.2.144l2.294.333a.263.263,0,0,1,.146.449l-1.659,1.617a.265.265,0,0,0-.076.233l.392,2.284a.263.263,0,0,1-.382.277l-2.051-1.079a.264.264,0,0,0-.245,0l-2.052,1.079a.263.263,0,0,1-.382-.277l.392-2.284a.263.263,0,0,0-.076-.233l-1.66-1.617a.263.263,0,0,1,.146-.449l2.293-.333a.264.264,0,0,0,.2-.144l1.026-2.078A.263.263,0,0,1,1101.661,449.749Z" transform="translate(-557.256 730.679)" fill="#212838"/>
    <path id="Path_3772" data-name="Path 3772" d="M1101.661,449.749l1.026,2.078a.264.264,0,0,0,.2.144l2.294.333a.263.263,0,0,1,.146.449l-1.659,1.617a.265.265,0,0,0-.076.233l.392,2.284a.263.263,0,0,1-.382.277l-2.051-1.079a.264.264,0,0,0-.245,0l-2.052,1.079a.263.263,0,0,1-.382-.277l.392-2.284a.263.263,0,0,0-.076-.233l-1.66-1.617a.263.263,0,0,1,.146-.449l2.293-.333a.264.264,0,0,0,.2-.144l1.026-2.078A.263.263,0,0,1,1101.661,449.749Z" transform="translate(-547.256 730.679)" fill="#212838"/>
    <path id="Path_3773" data-name="Path 3773" d="M1101.661,449.749l1.026,2.078a.264.264,0,0,0,.2.144l2.294.333a.263.263,0,0,1,.146.449l-1.659,1.617a.265.265,0,0,0-.076.233l.392,2.284a.263.263,0,0,1-.382.277l-2.051-1.079a.264.264,0,0,0-.245,0l-2.052,1.079a.263.263,0,0,1-.382-.277l.392-2.284a.263.263,0,0,0-.076-.233l-1.66-1.617a.263.263,0,0,1,.146-.449l2.293-.333a.264.264,0,0,0,.2-.144l1.026-2.078A.263.263,0,0,1,1101.661,449.749Z" transform="translate(-537.256 730.679)" fill="#212838"/>
    <text id="_5" data-name="5" transform="translate(537 1158)" fill="#212838" font-size="31" font-family="BebasNeue-Regular, Bebas Neue"><tspan x="0" y="0">5</tspan></text>
  </g>
</svg>
