<svg xmlns="http://www.w3.org/2000/svg" width="98.088" height="43.392" viewBox="0 0 98.088 43.392">
  <g id="caraps-medline-logo-geo" transform="translate(0.458 0.375)">
    <path id="Path_259" data-name="Path 259" d="M10.7,67.966A3.511,3.511,0,0,0,6.984,71.1H6.661V69.24c0-1.61,3-2.012,4.046-2.006a5.973,5.973,0,0,1,1.873.267c1.4.472,2.969,1.875,2.969,6.444,0,5.16-1.888,6.751-4.664,6.751-2.955,0-4.512-1.8-4.573-4.269-.07-2.817,1.337-4.576,4.387-4.541a4.982,4.982,0,0,1,3.049,1c0-2.856-.919-4.918-3.047-4.918m3.048,5.786a4.817,4.817,0,0,0-2.937-1.106c-2.08,0-2.8,1.563-2.8,3.781,0,1.832,1.171,3.5,2.872,3.5C12.5,79.924,14.013,78.755,13.75,73.752Z" transform="translate(-6.126 -37.712)" fill="#1c3c74" fill-rule="evenodd"/>
    <path id="Path_260" data-name="Path 260" d="M29.146,71.547a5.418,5.418,0,0,1,.491-2.885,5.01,5.01,0,0,1,4.049-1.431c3.044.053,5.04,1.821,4.963,6.988-.063,4.231-1.635,6.473-5.333,6.408a4.275,4.275,0,0,1-4.368-4.012l.483-.069A3.967,3.967,0,0,0,33,79.908c3.044.053,3.808-2.4,3.858-5.72.083-5.526-1.812-6.2-3.449-6.233-1.97-.034-3.419,1.1-3.9,3.6Z" transform="translate(-18.024 -37.71)" fill="#1c3c74" fill-rule="evenodd"/>
    <path id="Path_261" data-name="Path 261" d="M57.063,88.875a7.318,7.318,0,0,0-3.865.371l.152.348a6.27,6.27,0,0,1,3.29.116c.152.043.305-.129.442-.1Z" transform="translate(-30.771 -49.032)" fill="#1c3c74" fill-rule="evenodd"/>
    <path id="Path_262" data-name="Path 262" d="M57.06,67.425a2.907,2.907,0,0,1,2.383,1.326c.391.55-.065.32-.062,1.33l-.12.887c-.206-1.587-.676-2.8-2.291-2.8-1.9,0-2.3,2.4-2.368,4.035a6.109,6.109,0,0,0,.665,3.527,4.694,4.694,0,0,0,2.36,1.571l2.67.959a2.967,2.967,0,0,1,2.229,2.423h-.49c-.123-.6-.809-.875-1.56-1.078l-3.464-.938a5.494,5.494,0,0,1-2.967-1.874,7.013,7.013,0,0,1-1.166-4.674c.176-2.736,1.429-4.691,4.182-4.691" transform="translate(-30.593 -37.813)" fill="#1c3c74" fill-rule="evenodd"/>
    <path id="Path_263" data-name="Path 263" d="M71.1,72.138c0,2.342-1.131,4.175-2.829,4.175s-2.829-1.833-2.829-4.175,1.132-4.175,2.829-4.175S71.1,69.8,71.1,72.138m-7.384,0c0,2.7,1.656,4.9,4.556,4.9s4.556-2.2,4.556-4.9-1.657-4.9-4.556-4.9S63.715,69.438,63.715,72.138Z" transform="translate(-36.299 -37.714)" fill="#1c3c74" fill-rule="evenodd"/>
    <path id="Path_264" data-name="Path 264" d="M123.885,69.541a2.583,2.583,0,0,1-.606-2.364h-.392c-.653,3.281,1.246,4.658,2.587,5.7a5.462,5.462,0,0,1,2.169,3.159,3.283,3.283,0,0,1-1.589,3.553,3.179,3.179,0,0,1-1.319.259c-2.014,0-3.22-1.065-3.615-3.662H120.8v2.073c0,1.453,2.141,2.364,4.1,2.364a4.959,4.959,0,0,0,1.76-.3,4.473,4.473,0,0,0,2.639-4.4,5.52,5.52,0,0,0-2.392-4.305,27.436,27.436,0,0,1-3.019-2.081" transform="translate(-66.303 -37.682)" fill="#1c3c74" fill-rule="evenodd"/>
    <path id="Path_265" data-name="Path 265" d="M174.609,69.246c.686,0,1.372-.492,1.372-1.724h-.458c-.19.5-.15.673-.716.586a19.335,19.335,0,0,0-3.593-.6c-4.006-.078-4.123,2.823-4.123,6.58,0,5.187,1.9,6.786,4.688,6.786,2.97,0,4.535-1.814,4.6-4.291.07-2.832-1.344-4.6-4.409-4.564a5.011,5.011,0,0,0-3.065,1c0-.157,0-.843.009-1,.05-1.258.245-3.514,1.7-3.756,1.562-.26,2.95.979,4,.979M168.9,73.891a4.839,4.839,0,0,1,2.953-1.112c2.09,0,2.812,1.571,2.812,3.8,0,1.842-1.176,3.516-2.887,3.516C170.159,80.094,168.636,78.919,168.9,73.891Z" transform="translate(-90.637 -37.853)" fill="#1c3c74" fill-rule="evenodd"/>
    <path id="Path_266" data-name="Path 266" d="M195.755,67.907c1.828,0,2.822,1.376,3.056,3.294a34.236,34.236,0,0,1,.119,4.463c0,2.326-.556,4.245-1.727,4.245V80.3c2.61,0,3.528-1.777,3.528-4.684a26.5,26.5,0,0,0-.191-4.874c-.363-2.053-1.748-3.587-4.786-3.587s-4.341,1.534-4.7,3.587a26.5,26.5,0,0,0-.191,4.874c0,2.908.919,4.684,3.528,4.684V79.91c-1.17,0-1.727-1.919-1.727-4.245a34.232,34.232,0,0,1,.119-4.463c.233-1.918,1.147-3.294,2.975-3.294" transform="translate(-103.121 -37.669)" fill="#1c3c74" fill-rule="evenodd"/>
    <path id="Path_267" data-name="Path 267" d="M147.228,67.907c1.827,0,2.822,1.376,3.056,3.294a34.328,34.328,0,0,1,.119,4.463c0,2.326-.556,4.245-1.727,4.245V80.3c2.61,0,3.528-1.777,3.528-4.684a26.455,26.455,0,0,0-.191-4.874c-.363-2.053-1.747-3.587-4.785-3.587s-4.341,1.534-4.7,3.587a26.541,26.541,0,0,0-.191,4.874c0,2.908.918,4.684,3.528,4.684V79.91c-1.171,0-1.727-1.919-1.727-4.245a34.321,34.321,0,0,1,.119-4.463c.234-1.918,1.148-3.294,2.975-3.294" transform="translate(-77.614 -37.669)" fill="#1c3c74" fill-rule="evenodd"/>
    <path id="Path_268" data-name="Path 268" d="M88.849,77.818a7.313,7.313,0,0,0-1.854.447l.153.346a8.132,8.132,0,0,1,3.381-.052c.158.035.321.065.488.087l4.57.611c.771.1,1.319.438,1.444,1.036h.492a2.358,2.358,0,0,0-2.006-2.34l-3.882-.663a3.47,3.47,0,0,1-2.36-1.453c-.962-1.438-1.1-5.174-.533-6.792A1.634,1.634,0,0,1,90.1,67.871a1.082,1.082,0,0,1,.959.481,3.968,3.968,0,0,1,.482,2.257v2.928h1.619V71.1a10.191,10.191,0,0,0-.072-1.831l-.005-.027c.245-1.175,1.775-2,2.443-.763a4.688,4.688,0,0,1,.345,2.127v2.927h1.62V70.61a6.4,6.4,0,0,0-.09-1.357c.353-.659.973-1.385,1.693-1.385.574,0,1,.328,1.236,1.068a9.975,9.975,0,0,1-.166,5.683,1.965,1.965,0,0,1-1.214,1.091l-.2.424a3.564,3.564,0,0,0,2.765-1.049c1.036-1.633.872-5.068.35-6.476a2.148,2.148,0,0,0-2.229-1.489,2.76,2.76,0,0,0-2.42,1.437,2.55,2.55,0,0,0-2.446-1.437,2.368,2.368,0,0,0-1.933,1.4,2.184,2.184,0,0,0-.943-1.07,3.841,3.841,0,0,0-3-.108,3.364,3.364,0,0,0-1.474,1.292c-1.318,2.093-.826,7.562,1.431,9.185" transform="translate(-48.379 -37.635)" fill="#1c3c74" fill-rule="evenodd"/>
    <path id="Path_269" data-name="Path 269" d="M103.756,57.929V56.783H6.311v1.5h97.445Z" transform="translate(-6.126 -32.219)" fill="#ec2027" fill-rule="evenodd"/>
    <path id="Path_270" data-name="Path 270" d="M42.733,8.494A3.637,3.637,0,0,1,41.769,5h-.624c-1.039,4.849,1.983,6.886,4.119,8.432a8.086,8.086,0,0,1,3.453,4.67,4.733,4.733,0,0,1-2.53,5.252,5.4,5.4,0,0,1-2.1.383c-3.207,0-5.126-1.575-5.756-5.413h-.515v3.064c0,2.148,3.408,3.494,6.529,3.494a8.453,8.453,0,0,0,2.8-.44,6.576,6.576,0,0,0,4.2-6.507c-.024-2.736-1.684-4.825-3.808-6.364C45.946,10.416,44.236,9.883,42.733,8.494Z" transform="translate(-22.686 -5)" fill="#1b3c73" fill-rule="evenodd"/>
    <path id="Path_271" data-name="Path 271" d="M42.733,8.494A3.637,3.637,0,0,1,41.769,5h-.624c-1.039,4.849,1.983,6.886,4.119,8.432a8.086,8.086,0,0,1,3.453,4.67,4.733,4.733,0,0,1-2.53,5.252,5.4,5.4,0,0,1-2.1.383c-3.207,0-5.126-1.575-5.756-5.413h-.515v3.064c0,2.148,3.408,3.494,6.529,3.494a8.453,8.453,0,0,0,2.8-.44,6.576,6.576,0,0,0,4.2-6.507c-.024-2.736-1.684-4.825-3.808-6.364C45.946,10.416,44.236,9.883,42.733,8.494Z" transform="translate(-22.686 -5)" fill="none" stroke="#1c3c74" stroke-miterlimit="2.613" stroke-width="0.75"/>
    <path id="Path_272" data-name="Path 272" d="M71.835,15.8c-.17-4.457,2.239-7.384,6.523-8.084l5.522-.9c1.222-.2,2.257-.647,2.454-1.53h.626a3.691,3.691,0,0,1-3.192,3.456l-4.426.98c-1.589.352-4.173,1.111-4.795,3.754a5.328,5.328,0,0,1,3.589-1.3,3.385,3.385,0,0,1,3.437,2,5.576,5.576,0,0,1,4.3-2c2.148,0,4.009,1,4.009,5.154v1.217c0,4.109-1.048,5.99-4.773,6.146v-.625c1.5-.376,2.2-2.426,2.2-5.521V17.324c0-2.864-.859-3.866-2.291-3.866A4.234,4.234,0,0,0,82,15.319a8.806,8.806,0,0,1,.143,2.005v2.956H79.567V17.324c0-2.863-.859-3.866-2.291-3.866a4.021,4.021,0,0,0-2.864,1.518v3.565c0,3.095.7,5.145,2.2,5.521v.625c-3.631-.152-4.719-1.944-4.771-5.84Z" transform="translate(-40.563 -5.149)" fill="#1b3c73" fill-rule="evenodd"/>
    <path id="Path_273" data-name="Path 273" d="M71.835,15.8c-.17-4.457,2.239-7.384,6.523-8.084l5.522-.9c1.222-.2,2.257-.647,2.454-1.53h.626a3.691,3.691,0,0,1-3.192,3.456l-4.426.98c-1.589.352-4.173,1.111-4.795,3.754a5.328,5.328,0,0,1,3.589-1.3,3.385,3.385,0,0,1,3.437,2,5.576,5.576,0,0,1,4.3-2c2.148,0,4.009,1,4.009,5.154v1.217c0,4.109-1.048,5.99-4.773,6.146v-.625c1.5-.376,2.2-2.426,2.2-5.521V17.324c0-2.864-.859-3.866-2.291-3.866A4.234,4.234,0,0,0,82,15.319a8.806,8.806,0,0,1,.143,2.005v2.956H79.567V17.324c0-2.863-.859-3.866-2.291-3.866a4.021,4.021,0,0,0-2.864,1.518v3.565c0,3.095.7,5.145,2.2,5.521v.625c-3.631-.152-4.719-1.944-4.771-5.84Z" transform="translate(-40.563 -5.149)" fill="none" stroke="#1c3c74" stroke-miterlimit="2.613" stroke-width="0.75"/>
    <path id="Path_274" data-name="Path 274" d="M120.129,8.494A3.634,3.634,0,0,1,119.165,5h-.624c-1.039,4.849,1.983,6.886,4.119,8.432a8.086,8.086,0,0,1,3.453,4.67,4.733,4.733,0,0,1-2.53,5.252,5.4,5.4,0,0,1-2.1.383c-3.208,0-5.126-1.575-5.756-5.413h-.516v3.064c0,2.148,3.408,3.494,6.529,3.494a8.453,8.453,0,0,0,2.8-.44,6.576,6.576,0,0,0,4.2-6.507c-.024-2.736-1.684-4.825-3.808-6.364C123.342,10.416,121.632,9.883,120.129,8.494Z" transform="translate(-63.368 -5)" fill="#1b3c73" fill-rule="evenodd"/>
    <path id="Path_275" data-name="Path 275" d="M120.129,8.494A3.634,3.634,0,0,1,119.165,5h-.624c-1.039,4.849,1.983,6.886,4.119,8.432a8.086,8.086,0,0,1,3.453,4.67,4.733,4.733,0,0,1-2.53,5.252,5.4,5.4,0,0,1-2.1.383c-3.208,0-5.126-1.575-5.756-5.413h-.516v3.064c0,2.148,3.408,3.494,6.529,3.494a8.453,8.453,0,0,0,2.8-.44,6.576,6.576,0,0,0,4.2-6.507c-.024-2.736-1.684-4.825-3.808-6.364C123.342,10.416,121.632,9.883,120.129,8.494Z" transform="translate(-63.368 -5)" fill="none" stroke="#1c3c74" stroke-miterlimit="2.613" stroke-width="0.75"/>
    <path id="Path_276" data-name="Path 276" d="M188.2,14.119a2.539,2.539,0,0,1-1.018-1.529h-.648a5.744,5.744,0,0,0,1.651,3.947c1.463,1.573,2.859,3.936,1.3,6.078a4.512,4.512,0,0,1-3.729,1.753c-.277,0,.116-.009-.143-.029-2.591-.2-4.265-1.451-4.265-5.1V9.474c0-2.864-.573-3.436-2.577-3.436H176.2v.573h.573c1.718,0,2.005,1.146,2.005,2.864v8.911c0,5.318,2.455,6.9,6.787,7.033.215.007-.225.01,0,.01,2.874,0,5.277-.85,6.48-3.6a4.894,4.894,0,0,0-.619-5.084C190.27,15.335,189.452,15.175,188.2,14.119Z" transform="translate(-95.423 -5.546)" fill="#1b3c73" fill-rule="evenodd"/>
    <path id="Path_277" data-name="Path 277" d="M188.2,14.119a2.539,2.539,0,0,1-1.018-1.529h-.648a5.744,5.744,0,0,0,1.651,3.947c1.463,1.573,2.859,3.936,1.3,6.078a4.512,4.512,0,0,1-3.729,1.753c-.277,0,.116-.009-.143-.029-2.591-.2-4.265-1.451-4.265-5.1V9.474c0-2.864-.573-3.436-2.577-3.436H176.2v.573h.573c1.718,0,2.005,1.146,2.005,2.864v8.911c0,5.318,2.455,6.9,6.787,7.033.215.007-.225.01,0,.01,2.874,0,5.277-.85,6.48-3.6a4.894,4.894,0,0,0-.619-5.084C190.27,15.335,189.452,15.175,188.2,14.119Z" transform="translate(-95.423 -5.546)" fill="none" stroke="#1c3c74" stroke-miterlimit="2.613" stroke-width="0.75"/>
    <path id="Path_278" data-name="Path 278" d="M9.281,15.485h2.07c3.294,0,4.213,2.135,4.337,4.516.01.205.016.356.016.574,0,2.288-.974,3.812-3.981,3.812a6.05,6.05,0,0,1-5.229-2.864l-.573.429a6.008,6.008,0,0,0,5.627,3.58c3.15,0,7.019-1.029,7.019-5.1,0-.162,0-.083,0-.24-.02-2.224-.863-4.681-3.9-5.288a4.038,4.038,0,0,0,3.19-4.095c0-4.341-3.086-4.644-6.1-4.737v.8c2.172.023,3.378,1.8,3.378,3.79,0,2.72-1.205,3.674-3.78,3.674H9.281v1.146Z" transform="translate(-5.921 -5.564)" fill="#1b3c73" fill-rule="evenodd"/>
    <path id="Path_279" data-name="Path 279" d="M9.281,15.485h2.07c3.294,0,4.213,2.135,4.337,4.516.01.205.016.356.016.574,0,2.288-.974,3.812-3.981,3.812a6.05,6.05,0,0,1-5.229-2.864l-.573.429a6.008,6.008,0,0,0,5.627,3.58c3.15,0,7.019-1.029,7.019-5.1,0-.162,0-.083,0-.24-.02-2.224-.863-4.681-3.9-5.288a4.038,4.038,0,0,0,3.19-4.095c0-4.341-3.086-4.644-6.1-4.737v.8c2.172.023,3.378,1.8,3.378,3.79,0,2.72-1.205,3.674-3.78,3.674H9.281v1.146Z" transform="translate(-5.921 -5.564)" fill="none" stroke="#1c3c74" stroke-miterlimit="2.613" stroke-width="0.75"/>
    <path id="Path_280" data-name="Path 280" d="M150.94,15.743H152.4c3.294,0,4.212,1.463,4.338,3.844.01.207.016.356.016.574,0,2.288-.974,3.812-3.981,3.812a6.05,6.05,0,0,1-5.229-2.864l-.573.429a5.755,5.755,0,0,0,5.627,3.58c3.15,0,7.019-1.029,7.019-5.1,0-.162,0-.083,0-.24-.021-2.224-.863-4.008-3.9-4.616,2.222-.628,3.191-1.853,3.191-3.715,0-4.383-3.091-4.238-6.187-4.675A2.879,2.879,0,0,1,150.4,5.284h-.871a2.867,2.867,0,0,0,2.457,2.4c1.468.348,3.053.247,3.822,1.824a4.089,4.089,0,0,1,.369,1.793c0,2.721-1.2,3.294-3.78,3.294H150.94v1.146Z" transform="translate(-80.06 -5.149)" fill="#1b3c73" fill-rule="evenodd"/>
    <path id="Path_281" data-name="Path 281" d="M150.94,15.743H152.4c3.294,0,4.212,1.463,4.338,3.844.01.207.016.356.016.574,0,2.288-.974,3.812-3.981,3.812a6.05,6.05,0,0,1-5.229-2.864l-.573.429a5.755,5.755,0,0,0,5.627,3.58c3.15,0,7.019-1.029,7.019-5.1,0-.162,0-.083,0-.24-.021-2.224-.863-4.008-3.9-4.616,2.222-.628,3.191-1.853,3.191-3.715,0-4.383-3.091-4.238-6.187-4.675A2.879,2.879,0,0,1,150.4,5.284h-.871a2.867,2.867,0,0,0,2.457,2.4c1.468.348,3.053.247,3.822,1.824a4.089,4.089,0,0,1,.369,1.793c0,2.721-1.2,3.294-3.78,3.294H150.94v1.146Z" transform="translate(-80.06 -5.149)" fill="none" stroke="#1c3c74" stroke-miterlimit="2.613" stroke-width="0.75"/>
  </g>
</svg>
