<svg id="logo_ka" xmlns="http://www.w3.org/2000/svg" width="98.193" height="45.693" viewBox="0 0 98.193 45.693">
  <path id="Path_252" data-name="Path 252" d="M1.417,1H61.634A1.524,1.524,0,0,1,63.15,2.516V29.821a1.524,1.524,0,0,1-1.516,1.516H1.426A1.516,1.516,0,0,1-.09,29.821V2.507A1.516,1.516,0,0,1,1.417,1" transform="translate(0.09 -1)" fill="#00a550" fill-rule="evenodd"/>
  <path id="Path_253" data-name="Path 253" d="M105.707,31.336H74.986A1.516,1.516,0,0,1,73.47,29.83V2.507A1.516,1.516,0,0,1,74.986,1h30.722a1.516,1.516,0,0,1,1.516,1.507V29.83a1.516,1.516,0,0,1-1.516,1.507" transform="translate(-9.03 -1)" fill="#05509e" fill-rule="evenodd"/>
  <path id="Path_254" data-name="Path 254" d="M53.839,11.342a.955.955,0,0,0-.272-.78,1.971,1.971,0,0,0-1.2-.272h-3.5v-4.2h3.5a5.4,5.4,0,0,1,2.356.526,5.948,5.948,0,0,1,1.3.876,5.046,5.046,0,0,1,1.139-.876,4.38,4.38,0,0,1,2.146-.552h1.936c3.215,0,4.818,1.612,4.818,4.818V21.644a5.554,5.554,0,0,1-1.682,4.38,6.947,6.947,0,0,1-4.792,1.48H55.3a6.92,6.92,0,0,1-4.783-1.48,5.528,5.528,0,0,1-1.691-4.38h0l.149-2.873.053-.806H53.97v.876l-.166,2.83h0a1.752,1.752,0,0,0,.368,1.279,1.559,1.559,0,0,0,1.156.359h4.24a1.568,1.568,0,0,0,1.165-.359,1.752,1.752,0,0,0,.359-1.279V11.342a4.38,4.38,0,0,0-.061-.753.315.315,0,0,0-.333-.3H59.489c-.385,0-.666-.044-.753.272a3.216,3.216,0,0,0-.061.78v3.311H53.839Z" transform="translate(-5.973 -1.627)" fill="#fff"/>
  <path id="Path_255" data-name="Path 255" d="M14.384,23.249a1.559,1.559,0,0,0,1.174-.368,1.848,1.848,0,0,0,.368-1.305V18.422c0-1.121-.517-1.682-1.542-1.682h-4.31a1.6,1.6,0,0,0-1.183.359,1.91,1.91,0,0,0-.368,1.323v3.154a1.848,1.848,0,0,0,.368,1.305,1.568,1.568,0,0,0,1.183.368ZM3.548,11.125A4.547,4.547,0,0,1,5.2,7.323,7.271,7.271,0,0,1,9.758,6.088h9.5v4.231H9.723a1.752,1.752,0,0,0-1.025.219.71.71,0,0,0-.193.578v1.621s.07-.105.105-.114a4.836,4.836,0,0,1,1.463-.114H14.4A7.008,7.008,0,0,1,19.237,14a5.642,5.642,0,0,1,1.7,4.424,17.259,17.259,0,0,1-.587,6.132c-.683,1.84-2.575,2.978-5.948,2.978H10.074q-6.544,0-6.544-5.922Z" transform="translate(-0.359 -1.629)" fill="#fff"/>
  <path id="Path_256" data-name="Path 256" d="M43.443,11.872h0a8.406,8.406,0,0,0-.053-1.069Q42.839,6.1,37.1,6.09H32.852q-5.729,0-6.29,4.713a10.4,10.4,0,0,0-.053,1.069h0V27.438h4.985V11.872a3.441,3.441,0,0,1,0-.552,1.235,1.235,0,0,1,.3-.666,1.375,1.375,0,0,1,1.016-.324h4.257a1.41,1.41,0,0,1,1.016.324,1.305,1.305,0,0,1,.289.666,3.444,3.444,0,0,1,0,.552V27.438h4.985Z" transform="translate(-3.208 -1.631)" fill="#fff"/>
  <path id="Path_257" data-name="Path 257" d="M91.143,26.083a1.641,1.641,0,0,1,.105-.158h0s.079-.088.1-.114v-.937l-.219.228v.981Zm.131-2.865-.149.079v1.034l.237-.2v-.972a.359.359,0,0,0-.088.061Zm0-7.1-.193.079v1.121l.324-.1V16.053Zm.088,3.548h-.088l-.166.07v1.007l.289-.14v-.955Zm-.237,2.873s.1-.088.131-.088h0l.114-.061V21.274l-.272.149v1.113Zm0-3.583.28-.079V18l-.324.088v.876Zm.131,7.98h0l-.105.175v1.314c0,.105.166.105.175,0v-.99h0v-.666Zm-.184-11.616.359-.149L91.476,7H91l.053,8.208ZM82.217,9.535a26.64,26.64,0,0,0,3-.815c.517-.184,1.016-.4,1.516-.622s1.007-.456,1.507-.7a1.91,1.91,0,0,1,.543-.193.823.823,0,0,1,.561.061h0c0-.254-.3-.35-.517-.359a1.41,1.41,0,0,0-.657.175c-.456.21-.876.429-1.367.631a23.285,23.285,0,0,1-3.145,1.156c-.394.105-.788.21-1.183.289a8.839,8.839,0,0,1-1.174.184H81.06c.079.228.342.272.552.289a2.111,2.111,0,0,0,.6-.1Zm.78.491a25.222,25.222,0,0,0,2.628-.876,13.886,13.886,0,0,0,1.542-.745c.4-.21.8-.447,1.218-.631a1.069,1.069,0,0,1,.876-.149V7.6a.462.462,0,0,1,.053-.166h0c0-.088-.184-.1-.263-.105a1.086,1.086,0,0,0-.412.053,3.189,3.189,0,0,0-.613.272l-1.165.534c-.429.184-.876.377-1.288.543a14.726,14.726,0,0,1-1.524.491l-1.235.324a5.852,5.852,0,0,1-1.156.219.8.8,0,0,0,.561.359,1.507,1.507,0,0,0,.771-.1Zm1.375.412A18.246,18.246,0,0,0,86.737,9.4c.412-.228.823-.456,1.226-.71a2,2,0,0,1,1.077-.447c.061-.175.14-.35.21-.534a.876.876,0,0,0-.692.088c-.193.088-.377.175-.552.272-.5.263-1,.552-1.507.8a19.272,19.272,0,0,1-3.136,1.165,4.722,4.722,0,0,1-.578.158,1.069,1.069,0,0,0,.7.377,1.8,1.8,0,0,0,.876-.131Zm2.777-.473c.394-.245.78-.508,1.165-.78a3.949,3.949,0,0,1,.666-.491h0a.709.709,0,0,1,0-.193.368.368,0,0,1,0-.105,1.524,1.524,0,0,0-.876.35c-.342.21-.683.412-1.034.6a17,17,0,0,1-2.628,1.209,2.005,2.005,0,0,1-.324.105.937.937,0,0,0,.78.315,2.085,2.085,0,0,0,.683-.219,14.262,14.262,0,0,0,1.559-.8Zm.981.114c.21-.166.412-.333.6-.508s.315-.324.491-.473a.8.8,0,0,1-.175-.21.219.219,0,0,1,0-.079h0a1.568,1.568,0,0,0-.368.263,5.135,5.135,0,0,1-.438.324c-.3.21-.6.412-.876.6a8.706,8.706,0,0,1-1.148.578c-.307.14-.631.3-.955.412a.92.92,0,0,0,.745.245,1.953,1.953,0,0,0,.657-.228,8.322,8.322,0,0,0,1.454-.929Zm-.158,1.13a5.624,5.624,0,0,0,.99-.78,5.493,5.493,0,0,0,.92-1.078,1.148,1.148,0,0,1-.578-.175c-.158.14-.3.3-.456.438a7.941,7.941,0,0,1-.657.561,7.884,7.884,0,0,1-1.612,1,.771.771,0,0,0,.675.245A1.577,1.577,0,0,0,87.972,11.208Zm2.4-1.323h0c.131-.219.272-.438.385-.666a3.5,3.5,0,0,1-.438.1h-.307a4.319,4.319,0,0,1-.7.876,8.225,8.225,0,0,1-1.016.876l-.21.14a.929.929,0,0,0,.92,0,1.27,1.27,0,0,0,.377-.228,4.993,4.993,0,0,0,.981-1.1Zm-1.086,1.533a1.209,1.209,0,0,0,.587-.14,1.752,1.752,0,0,0,.464-.447A5.255,5.255,0,0,0,90.881,9.8V9.22a6.851,6.851,0,0,1-.946,1.428,2.374,2.374,0,0,1-.876.727A.6.6,0,0,0,89.286,11.419Zm.631-2.339c-.21,0-.464-.105-.482-.35s.175-.359.272-.517a1.559,1.559,0,0,0,.28-.78.937.937,0,0,0-.263-.71,1.27,1.27,0,0,0-1.156-.342,2.856,2.856,0,0,0-.534.219l-.692.324-1.516.7c-.438.193-.876.4-1.323.569a23.759,23.759,0,0,1-2.663.745l-.666.149-.28.061c-.044,0-.175,0-.184.088a.166.166,0,0,0,.228,0,.307.307,0,0,1,.14-.07,7.639,7.639,0,0,0,1.1-.14,22.356,22.356,0,0,0,5.738-2.015,2.628,2.628,0,0,1,.753-.289c.272,0,.657,0,.762.333a.255.255,0,0,1,0,.079h0a.194.194,0,0,1,0,.07v.184h0a.4.4,0,0,1-.07.272h0c-.061.175-.14.359-.21.534a.736.736,0,0,0-.061.473.17.17,0,0,0,.079.166A.6.6,0,0,0,89.33,9a1.007,1.007,0,0,0,.526.166,3.154,3.154,0,0,0,.99-.149h0v-.1A2.427,2.427,0,0,1,89.917,9.08Zm.955-2.5h.745a.945.945,0,1,0-.745,0Zm.666.307h.088V6.723h-.71v.193h.622Zm9.934,2.462h-.245a7.009,7.009,0,0,1-.876-.123,19.089,19.089,0,0,1-3.416-.99c-.491-.193-.981-.394-1.463-.613s-.806-.385-1.218-.578a1.244,1.244,0,0,0-.666-.123.456.456,0,0,0-.42.324.218.218,0,0,0,0,.079,1.016,1.016,0,0,1,.753,0,2.848,2.848,0,0,1,.377.158c.289.149.587.289.876.429a24.344,24.344,0,0,0,2.435.92c.736.228,1.472.42,2.216.6a6.335,6.335,0,0,0,.876.184c.263,0,.683,0,.78-.28Zm-.683.42a3.154,3.154,0,0,1-.639-.114l-.692-.166c-.473-.114-.955-.237-1.428-.377a19.211,19.211,0,0,1-2.505-.964L94.385,7.6a3.031,3.031,0,0,0-.543-.245,1.3,1.3,0,0,0-.412,0c-.07,0-.237,0-.263.105h0l.061.14h0a.552.552,0,0,1,.228,0,1.945,1.945,0,0,1,.78.254c.228.105.438.228.657.35.517.28,1.034.561,1.568.806a16.056,16.056,0,0,0,1.638.613c.552.184.99.342,1.489.473a1.5,1.5,0,0,0,.71,0,.815.815,0,0,0,.526-.35Zm-1.2.429c-.438-.114-.876-.254-1.305-.4s-1.1-.377-1.647-.6a17.021,17.021,0,0,1-1.551-.771l-.692-.377a3.653,3.653,0,0,0-.71-.315.657.657,0,0,0-.228,0,.6.6,0,0,0-.21.044h0c.053.175.131.35.2.526h0a1.577,1.577,0,0,1,.876.342c.333.21.666.412,1.007.6.491.272.99.534,1.515.762a12.161,12.161,0,0,0,1.454.561h.131a1.3,1.3,0,0,0,.683,0,.99.99,0,0,0,.552-.342Zm-1.375.42a19.965,19.965,0,0,1-2.865-1.27c-.342-.193-.675-.394-1.007-.6a1.524,1.524,0,0,0-.876-.35h0V8.51a1.41,1.41,0,0,1,0,.193h0a2.033,2.033,0,0,1,.42.3l.3.228a14.36,14.36,0,0,0,1.27.876,13.877,13.877,0,0,0,1.41.675,2.269,2.269,0,0,0,.622.21,1.025,1.025,0,0,0,.727-.193.649.649,0,0,0,.105-.114Zm-.99.394c-.368-.14-.727-.307-1.078-.464a8.8,8.8,0,0,1-1.016-.561c-.324-.2-.648-.42-.964-.639l-.272-.21a1.97,1.97,0,0,0-.412-.3.316.316,0,0,1,0,.079.666.666,0,0,1-.175.21c.14.114.254.254.385.377l.377.333a9.635,9.635,0,0,0,1.086.8,6.9,6.9,0,0,0,.972.517,1.016,1.016,0,0,0,1.148-.131ZM95.76,11.1a8.76,8.76,0,0,1-1.384-.876c-.21-.166-.42-.333-.622-.508a5.13,5.13,0,0,1-.526-.552,1.042,1.042,0,0,1-.552.166h0a4.38,4.38,0,0,0,.657.8,6.57,6.57,0,0,0,.876.78,2.4,2.4,0,0,0,.666.385c.333.114.876.14,1.1-.175ZM91.809,9.351a6.552,6.552,0,0,0,1.183,1.594,2.171,2.171,0,0,0,.315.245c.3.166.815.315,1.1.07l-.21-.158a5.87,5.87,0,0,1-1.042-.876,3.793,3.793,0,0,1-.675-.876,2.435,2.435,0,0,1-.5-.061l-.245-.061Zm-.105,0c0-.053-.061-.114-.1-.175v.578a5.255,5.255,0,0,0,.543,1.034,1.752,1.752,0,0,0,.464.447,1.209,1.209,0,0,0,.587.14h0a.526.526,0,0,0,.21,0,2.137,2.137,0,0,1-.692-.526,6.848,6.848,0,0,1-.692-.876c-.114-.21-.228-.385-.324-.578Zm.876-.315a2.427,2.427,0,0,1-.964-.158V9.01h0a1.752,1.752,0,0,0,.342.088,2.882,2.882,0,0,0,.543.07A1.016,1.016,0,0,0,93.141,9a.561.561,0,0,0,.254-.4h0a.972.972,0,0,0-.105-.464l-.184-.464h0a1.549,1.549,0,0,0-.07-.272c-.018-.088,0-.061,0-.1h0V7.258a.392.392,0,0,1,0-.1c.123-.543.876-.447,1.253-.28s.815.4,1.235.587a24.976,24.976,0,0,0,3.25,1.218,13.963,13.963,0,0,0,2.628.508.263.263,0,0,1,.14.07.166.166,0,0,0,.228,0c0-.079-.385-.131-.438-.14l-.753-.175c-.543-.123-1.1-.254-1.638-.412a10.512,10.512,0,0,1-1.332-.508l-1.218-.543-2.076-.964a1.358,1.358,0,0,0-1.1-.053A1.235,1.235,0,0,0,92.7,6.9a.876.876,0,0,0-.123.771,2.252,2.252,0,0,0,.456.876.333.333,0,0,1,0,.412.631.631,0,0,1-.464.123Zm-1.1,17.538h0v.5a.394.394,0,0,1,0,.158.6.6,0,0,1-.053.219v.42a1.358,1.358,0,0,0,.237-.648,1.752,1.752,0,0,0-.2-.683A.129.129,0,0,1,91.476,26.574ZM90.267,15.606l.683-.245v-.114c-.666-.315-1.34-.622-1.98-.99a5.58,5.58,0,0,1-.482-.307c-.114-.1-.3-.228-.219-.394a.858.858,0,0,1,.456-.342,3.642,3.642,0,0,1,.438-.14h0a1.55,1.55,0,0,0,.561-.219,4.284,4.284,0,0,0,.631-.438h-.447c0-.044.219-.088.254-.1l.158-.061c.053,0,.061,0,.053-.105,0-.219-.272-.158-.438-.166l-.613-.009c-.324,0-.534.272-.762.456s-.6.447-.876.657h0a.6.6,0,0,0,0,.876,3.093,3.093,0,0,0,.718.675,9.908,9.908,0,0,0,1.866.964Zm1.8,5.65-.263-.158h-.061l-.149.053-.1.053v.14a2.874,2.874,0,0,1,.578.377.237.237,0,0,1,.079.131h0c0,.184-.272.324-.4.412a4.383,4.383,0,0,1-.438.254c-.175.114-.359.237-.526.368h0a3.713,3.713,0,0,0-.456.377c-.1.088-.272.237-.272.385s.237.385.377.5l.245.193s.131.105.175.105h0l.061-.053.053-.044v-.237l-.3-.272c-.061-.07-.166-.149-.184-.245s.333-.359.482-.438h0a5.554,5.554,0,0,0,1.235-.876c.158-.158.315-.342.254-.569A1.086,1.086,0,0,0,92.072,21.256ZM93.158,18a1.84,1.84,0,0,0-.675-.28,8.1,8.1,0,0,1-.8.184h-.158l.692.21.315.123a.213.213,0,0,1,.184.158c.009.088-.228.193-.324.228a4.758,4.758,0,0,1-.464.149c-.289.088-.587.149-.876.245a5.879,5.879,0,0,0-.876.35,1.594,1.594,0,0,0-.675.552c-.131.254.131.473.333.6a3.7,3.7,0,0,0,.8.377l.315-.158v-.123l-.491-.228a1.27,1.27,0,0,1-.377-.228.053.053,0,0,1,0-.044c0-.105.14-.184.219-.219a2.277,2.277,0,0,1,.3-.026c.254-.114.517-.21.78-.307h0a12.5,12.5,0,0,0,1.524-.569,1.069,1.069,0,0,0,.491-.385A.53.53,0,0,0,93.158,18Zm-1.577,6.675-.105.1v.289a.631.631,0,0,1,.219.342,1.051,1.051,0,0,1-.333.578h0a3.268,3.268,0,0,0-.473.92.8.8,0,0,0,0,.473,1.437,1.437,0,0,0,.21.491v-.42a.876.876,0,0,1-.053-.219.64.64,0,0,1,.123-.3c.07-.131.158-.263.237-.394h0v-.053a5.256,5.256,0,0,0,.534-.972c.1-.315-.14-.613-.359-.832Zm1.857-8.454a9.014,9.014,0,0,0-1.218-.491l-.683.28v.105l1.428.569h0c.105.105.061.184-.061.237l-.35.1-.876.228-1.752.464h0a2.2,2.2,0,0,0-.526.184.666.666,0,0,0-.42.534c0,.254.3.4.491.5s.517.228.78.324c.21-.1.42-.184.639-.263h0l-.666-.193a1.533,1.533,0,0,1-.28-.105c-.088,0-.245-.088-.245-.193s.272-.193.359-.228.377-.131.569-.184l.946-.272h0a7.332,7.332,0,0,0,1.647-.464c.219-.088.6-.245.657-.508S93.631,16.359,93.438,16.219ZM92.2,23.368a4.258,4.258,0,0,0-.464-.4,2.54,2.54,0,0,1-.254.166v.131h0c.131.079.517.228.482.438a.631.631,0,0,1-.166.21l-.245.237-.447.385h0c-.228.193-.561.508-.534.876a1.165,1.165,0,0,0,.175.447c.088.175.193.342.3.508V25.89a.8.8,0,0,1-.219-.447.429.429,0,0,1,.14-.263l.228-.245.245-.237.105-.088a.385.385,0,0,0,.1-.088h0a2.628,2.628,0,0,0,.613-.473.552.552,0,0,0,.184-.324A.472.472,0,0,0,92.2,23.368Zm.526-3.592a2.488,2.488,0,0,0-.587-.359l-.666.184v.07h0L92,19.89c.1.044.368.14.359.289a.1.1,0,0,1,0,.044,1.218,1.218,0,0,1-.385.228l-.482.228h0a3.785,3.785,0,0,0-1.375.876.631.631,0,0,0-.149.35.578.578,0,0,0,.14.307,2.865,2.865,0,0,0,.666.587l.254-.184v-.123c-.131-.079-.272-.158-.394-.245s-.263-.184-.272-.324h0c0-.105.131-.184.21-.237l.359-.228.639-.342h0a.99.99,0,0,1,.21-.07l.245-.1a4.381,4.381,0,0,0,.543-.263.946.946,0,0,0,.412-.394.561.561,0,0,0-.254-.552Zm2.1-6.631h0l-.727-.552c-.158-.123-.289-.254-.447-.385a.806.806,0,0,0-.429-.228,3.416,3.416,0,0,0-.517,0h-.359c-.088,0-.158,0-.184.114a.2.2,0,0,0,0,.14.876.876,0,0,0,.149.088l.184.088s.079,0,.088.061-.429-.114-.429-.1a3.583,3.583,0,0,0,.823.534,1.4,1.4,0,0,0,.324.105h0a3.1,3.1,0,0,1,.482.158c.166.07.42.193.438.4s-.105.2-.175.263a3.174,3.174,0,0,1-.333.228c-.228.14-.473.28-.718.4-.473.245-.955.464-1.428.692a15.289,15.289,0,0,1-1.445.552c-.272.1-.552.2-.815.315a2.383,2.383,0,0,0-.657.394.342.342,0,0,0-.131.4.972.972,0,0,0,.394.333,5.2,5.2,0,0,0,1.069.385l.955-.263h0L89.908,17l-.3-.079a.745.745,0,0,1-.149-.053c-.07-.061,0-.149,0-.2h0c.99-.412,2-.78,2.978-1.2a8.3,8.3,0,0,0,1.34-.666,3.171,3.171,0,0,0,1.069-.946.578.578,0,0,0-.018-.745Z" transform="translate(-9.928 -1.467)" fill="#fff"/>
  <path id="Path_258" data-name="Path 258" d="M59.268,44.58a.7.7,0,0,0-.158-.2.876.876,0,0,0-.263-.14h0a.876.876,0,0,0-.342-.061h-.079V47.1H56.553V44.185h-.088a.823.823,0,0,0-.324.061h0a.543.543,0,0,0-.254.131h0a.666.666,0,0,0-.175.21.5.5,0,0,0-.061.254V49.45a.508.508,0,0,0,.053.228h0a.5.5,0,0,0,.166.193.674.674,0,0,0,.254.149h0a.954.954,0,0,0,.35.061h2.015a.876.876,0,0,0,.342-.061h0a.744.744,0,0,0,.254-.149.569.569,0,0,0,.158-.193h0a.517.517,0,0,0,.061-.228V44.86a.683.683,0,0,0-.061-.263m33.543,6.9a3.11,3.11,0,0,1-.876-.473h0a2.523,2.523,0,0,1-.569-.727,1.849,1.849,0,0,1-.228-.876v-7.7h1.857v7.744a.508.508,0,0,0,.053.228h0a.5.5,0,0,0,.166.193.745.745,0,0,0,.254.149h0a.955.955,0,0,0,.35.061h1.3a.955.955,0,0,0,.35-.061.648.648,0,0,0,.254-.158h0a.455.455,0,0,0,.149-.193h0a.42.42,0,0,0,.053-.21,1.594,1.594,0,0,0-.079-.491c-.061-.175-.131-.35-.2-.517s-.166-.394-.245-.587h0a2.5,2.5,0,0,1-.1-.718c0-.219,0-.429,0-.639h0a.931.931,0,0,1,.079-.456,1.91,1.91,0,0,1,.14-.394l.061-.149H97.4l-.105.324a1.919,1.919,0,0,1-.105.429,1.9,1.9,0,0,1-.07.438,4.273,4.273,0,0,0,0,.473.753.753,0,0,0,.079.368h0c.061.149.123.3.2.447h0c.088.184.149.377.228.569h0a2.847,2.847,0,0,1,.105.815,2.1,2.1,0,0,1-.21.876,2.785,2.785,0,0,1-.587.727h0a2.786,2.786,0,0,1-.876.473,2.952,2.952,0,0,1-1.034.184H93.713a2.856,2.856,0,0,1-.9-.149ZM84.9,49.284a2.313,2.313,0,0,1,.745.42,1.871,1.871,0,0,1,.71,1.437v.447h-1.84v-.526a.166.166,0,0,0,0-.114h0a.2.2,0,0,0-.07-.1h0a.3.3,0,0,0-.123-.079h0a.578.578,0,0,0-.21,0H77.481a3.372,3.372,0,0,1-1.244-.333,3.057,3.057,0,0,1-.964-.631,2.742,2.742,0,0,1-.6-.929,2.873,2.873,0,0,1-.219-1.121V43.94a1.752,1.752,0,0,1,.237-.876,2.2,2.2,0,0,1,.561-.736h0a3.381,3.381,0,0,1,.876-.482h0a2.978,2.978,0,0,1,1.034-.175h.3a2.9,2.9,0,0,1,1.086.193,2.855,2.855,0,0,1,.7.377,3.057,3.057,0,0,1,.71-.377,2.786,2.786,0,0,1,1.069-.193h.315a2.812,2.812,0,0,1,1.069.193,2.944,2.944,0,0,1,.692.377,3.188,3.188,0,0,1,.7-.377,2.9,2.9,0,0,1,1.086-.193H85.2a3.031,3.031,0,0,1,1.042.175h0a3.136,3.136,0,0,1,.876.482h0a2.532,2.532,0,0,1,.587.736,2.032,2.032,0,0,1,.21.876V48.6H86V43.853a.482.482,0,0,0-.061-.245h0a.377.377,0,0,0-.149-.184h0a.6.6,0,0,0-.245-.131h0a1.174,1.174,0,0,0-.342-.061h-.333a.78.78,0,0,0-.315.061h0a.666.666,0,0,0-.245.131h0a.569.569,0,0,0-.158.193h0a.5.5,0,0,0-.07.245v3.3H82.132V43.853a.5.5,0,0,0-.07-.245h0a.377.377,0,0,0-.149-.184h0a.631.631,0,0,0-.237-.131h0a1.121,1.121,0,0,0-.342-.061h-.368a1.121,1.121,0,0,0-.342.061h0a.631.631,0,0,0-.237.131h0a.57.57,0,0,0-.158.193h0a.5.5,0,0,0-.07.245v3.3H78.269V43.853a.5.5,0,0,0-.07-.245h0a.377.377,0,0,0-.149-.184h0a.569.569,0,0,0-.237-.131h0a1.121,1.121,0,0,0-.342-.061h-.359a.876.876,0,0,0-.324.061h0a.6.6,0,0,0-.263.149.587.587,0,0,0-.166.193h0a.6.6,0,0,0-.061.245v4.03a1.612,1.612,0,0,0,.079.5,1.034,1.034,0,0,0,.228.377h0a.876.876,0,0,0,.342.245,1.419,1.419,0,0,0,.543.1h6.526a2.435,2.435,0,0,1,.9.158ZM66.5,49.9a.683.683,0,0,0,.245.14h0a.955.955,0,0,0,.35.061h1.314a1.226,1.226,0,0,0,.35-.061h0a.745.745,0,0,0,.254-.149.5.5,0,0,0,.166-.193h0a.508.508,0,0,0,.053-.228V46.227a2.153,2.153,0,0,0,0-.237v-.123h0a2.7,2.7,0,0,0-.438-.324c-.315-.2-.657-.377-.981-.552h0c-.228-.131-.456-.245-.675-.377l-.526-.28h0a4.617,4.617,0,0,1-.394-.263h0a2.033,2.033,0,0,1-.307-.307,1.6,1.6,0,0,1-.245-.385h0a3.066,3.066,0,0,1-.123-.4h0a3.5,3.5,0,0,1,0-.429v-.858H67.4v.622a.876.876,0,0,0,0,.21v.149h0a2.391,2.391,0,0,0,.412.307c.315.2.648.377.981.552h0l.675.342c.184.1.359.2.534.307a2.811,2.811,0,0,1,.42.3,3.038,3.038,0,0,1,.315.272h0a1.436,1.436,0,0,1,.237.4,3.4,3.4,0,0,1,.123.394h0v.4h0v3.241a2.033,2.033,0,0,1-.21.876h0a2.9,2.9,0,0,1-.578.727h0a2.988,2.988,0,0,1-.876.473,2.768,2.768,0,0,1-1.034.184H67.083a3.04,3.04,0,0,1-1.042-.184,3.294,3.294,0,0,1-.876-.473h0a2.339,2.339,0,0,1-.569-.736,1.752,1.752,0,0,1-.228-.876v-2.19h1.857v2.444a.508.508,0,0,0,.053.228h0a.762.762,0,0,0,.324.237ZM59.5,51.5a2.768,2.768,0,0,1-1.034.184H56.448a2.812,2.812,0,0,1-1.042-.184,3.294,3.294,0,0,1-.876-.473h0a2.523,2.523,0,0,1-.569-.727,1.848,1.848,0,0,1-.228-.876V44.948a1.848,1.848,0,0,1,.228-.876,2.269,2.269,0,0,1,.587-.736,3.136,3.136,0,0,1,.876-.482h0a3.25,3.25,0,0,1,1.042-.166h.079v-.876h1.848v.876h.079a3.25,3.25,0,0,1,1.042.166h0a3.136,3.136,0,0,1,.876.482h0a2.505,2.505,0,0,1,.578.736,1.91,1.91,0,0,1,.219.876V49.38a1.936,1.936,0,0,1-.219.876h0a3.11,3.11,0,0,1-.578.727h0a2.935,2.935,0,0,1-.876.517ZM44.026,43a2.313,2.313,0,0,1,.561-.736h0a3.136,3.136,0,0,1,.876-.482h0A3.031,3.031,0,0,1,46.5,41.61h1.323a3.11,3.11,0,0,1,1.025.175h0a3.084,3.084,0,0,1,.876.482h0a2.505,2.505,0,0,1,.578.736,1.936,1.936,0,0,1,.219.876v7.709H48.651v-7.77a.6.6,0,0,0-.061-.245h0a.508.508,0,0,0-.149-.184h0a.534.534,0,0,0-.228-.131h0a.876.876,0,0,0-.342-.061H46.5a.876.876,0,0,0-.342.061h0a.631.631,0,0,0-.237.131h0a.456.456,0,0,0-.158.184h0a.5.5,0,0,0-.07.245v7.77H43.824V43.905a1.8,1.8,0,0,1,.2-.9Zm-4.065,2.689a1.822,1.822,0,0,1-.324.447h.053a2.094,2.094,0,0,1,.333.4,1.814,1.814,0,0,1,.254.543,1.884,1.884,0,0,1,.1.622v1.612a2.032,2.032,0,0,1-.21.876,2.505,2.505,0,0,1-.587.736h0a3,3,0,0,1-.876.473,3.093,3.093,0,0,1-1.051.184H36.361a2.952,2.952,0,0,1-1.034-.184,2.786,2.786,0,0,1-.876-.473,2.111,2.111,0,0,1-.587-.745,1.752,1.752,0,0,1-.237-.876V48.084h1.857v1.41a.421.421,0,0,0,.061.228h0a.6.6,0,0,0,.166.2.683.683,0,0,0,.245.14h0a.876.876,0,0,0,.342.061h1.393a.937.937,0,0,0,.342-.061h0a.789.789,0,0,0,.263-.149,1.016,1.016,0,0,0,.175-.21.824.824,0,0,0,.053-.245V47.707a.771.771,0,0,0-.053-.245.876.876,0,0,0-.175-.21.587.587,0,0,0-.263-.14h0a.955.955,0,0,0-.35-.061H36.352V45.456h1.183a.876.876,0,0,0,.342-.061h0a.745.745,0,0,0,.254-.149.569.569,0,0,0,.158-.193h0a.42.42,0,0,0,.061-.228,1.148,1.148,0,0,0-.061-.385h0a.385.385,0,0,0-.158-.175,1.919,1.919,0,0,0-.385-.175l-.648-.184-.639-.2h0l-.464-.166a3.113,3.113,0,0,1-.377-.2h0a2.05,2.05,0,0,1-.569-.78h0a2.452,2.452,0,0,1-.07-.508V41.8h1.84v.377h.07l.272.114.473.14h0l.771.219a5.711,5.711,0,0,1,.876.315h0a1.752,1.752,0,0,1,.569.447h0a1.673,1.673,0,0,1,.3.631,3.855,3.855,0,0,1,.07.78h0A1.752,1.752,0,0,1,39.961,45.692ZM25.279,51.5a3.11,3.11,0,0,1-.876-.473h0a2.523,2.523,0,0,1-.569-.727,1.848,1.848,0,0,1-.228-.876v-7.7h1.857v7.744a.508.508,0,0,0,.053.228h0a.5.5,0,0,0,.166.193.745.745,0,0,0,.254.149h0a.954.954,0,0,0,.35.061h1.3a.954.954,0,0,0,.35-.061.648.648,0,0,0,.254-.158h0a.456.456,0,0,0,.149-.193h0a.42.42,0,0,0,.053-.21,1.594,1.594,0,0,0-.079-.491c-.061-.175-.131-.35-.2-.517s-.166-.394-.245-.587h0a2.5,2.5,0,0,1-.1-.718c0-.219,0-.429,0-.639h0a2.07,2.07,0,0,1,.079-.456,1.91,1.91,0,0,1,.14-.394l.061-.149H29.9l-.105.324a1.919,1.919,0,0,1-.105.429c-.035.14-.044.3-.07.438a4.282,4.282,0,0,0,0,.473.753.753,0,0,0,.079.368h0c.061.149.123.3.2.447h0c.088.184.149.377.228.569h0a2.847,2.847,0,0,1,.105.815,2.1,2.1,0,0,1-.21.876,2.785,2.785,0,0,1-.587.727h0a2.785,2.785,0,0,1-.876.473,2.953,2.953,0,0,1-1.034.184H26.3A2.856,2.856,0,0,1,25.279,51.5ZM10.387,42.985a2.286,2.286,0,0,1,.561-.736h0a3.057,3.057,0,0,1,.876-.473h0a3.25,3.25,0,0,1,1.042-.166h.648a3,3,0,0,1,1.077.184,3.057,3.057,0,0,1,.71.377,2.838,2.838,0,0,1,.7-.377,2.952,2.952,0,0,1,1.069-.184h.648a3.259,3.259,0,0,1,1.051.166h0a2.917,2.917,0,0,1,.876.482h0a2.689,2.689,0,0,1,.587.745,1.98,1.98,0,0,1,.21.876v7.709H18.525V43.8a.508.508,0,0,0-.061-.245h0a.4.4,0,0,0-.149-.193h0a.429.429,0,0,0-.237-.131h0a.955.955,0,0,0-.35-.061H17.08a.876.876,0,0,0-.342.061h0a.5.5,0,0,0-.237.14h0a.543.543,0,0,0-.149.193h0a.5.5,0,0,0-.07.245v4.529H14.32V43.8a.482.482,0,0,0-.061-.245h0a.42.42,0,0,0-.149-.184h0a.429.429,0,0,0-.237-.131h0a.955.955,0,0,0-.35-.061h-.648a.876.876,0,0,0-.342.061h0a.5.5,0,0,0-.237.14h0a.6.6,0,0,0-.149.184h0a.526.526,0,0,0-.07.245v7.779H10.115V43.9a1.752,1.752,0,0,1,.237-.911Zm-4.135,5.16.14.14a1.892,1.892,0,0,1,.368.5,1.752,1.752,0,0,1,.166.753,1.586,1.586,0,0,1-.245.876,2.365,2.365,0,0,1-.622.666,2.961,2.961,0,0,1-.832.456,2.628,2.628,0,0,1-.99.193H2.914a2.856,2.856,0,0,1-1.051-.184,2.891,2.891,0,0,1-.876-.473h0a2.628,2.628,0,0,1-.561-.727,1.857,1.857,0,0,1-.237-.876v-.359H2.065v.447a.42.42,0,0,0,.061.228h0a.569.569,0,0,0,.158.193.745.745,0,0,0,.254.149h0a.876.876,0,0,0,.342.061H4.22a1.1,1.1,0,0,0,.333-.053A1.394,1.394,0,0,0,4.807,50a.876.876,0,0,0,.184-.228.412.412,0,0,0,.079-.193.368.368,0,0,0-.079-.21h0a.8.8,0,0,0-.175-.21,1.226,1.226,0,0,0-.263-.131,1.112,1.112,0,0,0-.342-.07H2.9V47.339H4.018a1.324,1.324,0,0,0,.368,0,1.253,1.253,0,0,0,.3-.131.753.753,0,0,0,.175-.158.377.377,0,0,0,.053-.193.28.28,0,0,0,0-.166.473.473,0,0,0-.158-.131h0a1.033,1.033,0,0,0-.237-.1H2.949V44.878H4.115a1.051,1.051,0,0,0,.289,0,1.034,1.034,0,0,0,.245-.105.876.876,0,0,0,.14-.193h0a.561.561,0,0,0,.07-.123.315.315,0,0,0-.07-.131h0a.727.727,0,0,0-.184-.14l-.368-.14a5.256,5.256,0,0,1-.561-.158L3,43.7H3l-.456-.166h0a2.726,2.726,0,0,1-.35-.193h0l-.272-.272h0a1.393,1.393,0,0,1-.272-.5,1.6,1.6,0,0,1-.158-.622v-.245H3.37v.368a.272.272,0,0,0,.079.061h0a1.394,1.394,0,0,0,.237.105h0a3.866,3.866,0,0,0,.482.14l.771.219a3.4,3.4,0,0,1,1.323.648,1.551,1.551,0,0,1,.482,1.174,1.323,1.323,0,0,1-.158.631,1.664,1.664,0,0,1-.307.429l-.07.061.1.07a1.41,1.41,0,0,1,.35.447,1.437,1.437,0,0,1,.175.762,1.463,1.463,0,0,1-.166.753,1.507,1.507,0,0,1-.359.456Z" transform="translate(0.055 -6.035)" fill="#05509e" fill-rule="evenodd"/>
</svg>
