<svg id="facebook_10_" data-name="facebook (10)" xmlns="http://www.w3.org/2000/svg" width="25.006" height="25.006" viewBox="0 0 25.006 25.006">
  <path id="Path_3056" data-name="Path 3056" d="M23.626,0H1.379A1.38,1.38,0,0,0,0,1.38V23.627a1.38,1.38,0,0,0,1.38,1.379H23.626a1.38,1.38,0,0,0,1.38-1.38h0V1.379A1.38,1.38,0,0,0,23.626,0Zm0,0" transform="translate(0 0)" fill="#4267b2"/>
  <path id="Path_3057" data-name="Path 3057" d="M214.155,98.554v-9.67h3.26L217.9,85.1h-3.749V82.688c0-1.093.3-1.838,1.871-1.838h1.987V77.473a26.709,26.709,0,0,0-2.912-.149c-2.882,0-4.854,1.758-4.854,4.989V85.1H207v3.785h3.248v9.67Zm0,0" transform="translate(-196.89 -73.548)" fill="#fff"/>
</svg>
