<svg xmlns="http://www.w3.org/2000/svg" xmlns:xlink="http://www.w3.org/1999/xlink" width="79.905" height="95.015" viewBox="0 0 79.905 95.015">
  <defs>
    <linearGradient id="linear-gradient" x1="0.5" y1="1" x2="0.5" gradientUnits="objectBoundingBox">
      <stop offset="0" stop-color="#e1a637"/>
      <stop offset="0.5" stop-color="#ffde91"/>
      <stop offset="0.612" stop-color="#fedc8c"/>
      <stop offset="0.734" stop-color="#fed67f"/>
      <stop offset="0.863" stop-color="#fccd69"/>
      <stop offset="0.994" stop-color="#fbc14a"/>
      <stop offset="1" stop-color="#fbc149"/>
    </linearGradient>
  </defs>
  <g id="Group_3946" data-name="Group 3946" transform="translate(-515.569 -1119.9)">
    <g id="Group_3676" data-name="Group 3676" transform="translate(515.668 1120)">
      <path id="Path_3722" data-name="Path 3722" d="M1128.216,440.04c0,3.42-3.7,6.308-4.544,9.462-.873,3.263.864,7.611-.79,10.468-1.677,2.9-6.325,3.558-8.678,5.911s-3.012,7-5.911,8.678c-2.858,1.653-7.2-.083-10.468.789-3.155.843-6.043,4.545-9.463,4.545s-6.308-3.7-9.462-4.545c-3.264-.872-7.611.864-10.468-.79-2.9-1.677-3.558-6.325-5.91-8.678s-7-3.012-8.678-5.91c-1.653-2.858.082-7.2-.79-10.468-.843-3.154-4.544-6.042-4.544-9.462s3.7-6.309,4.544-9.463c.872-3.263-.863-7.611.79-10.468,1.677-2.9,6.325-3.558,8.678-5.911s3.012-7,5.911-8.678c2.857-1.653,7.2.083,10.468-.789,3.154-.843,6.042-4.545,9.462-4.545s6.308,3.7,9.463,4.545c3.264.872,7.611-.864,10.468.79,2.9,1.677,3.558,6.325,5.911,8.678s7,3.012,8.677,5.91c1.653,2.858-.083,7.2.79,10.468C1124.514,433.732,1128.216,436.62,1128.216,440.04Z" transform="translate(-1048.51 -400.187)" stroke="#e1c057" stroke-width="0.2" fill="url(#linear-gradient)"/>
      <path id="Path_3723" data-name="Path 3723" d="M1128.216,440.04c0,3.42-3.7,6.308-4.544,9.462-.873,3.263.864,7.611-.79,10.468-1.677,2.9-6.325,3.558-8.678,5.911s-3.012,7-5.911,8.678c-2.858,1.653-7.2-.083-10.468.789-3.155.843-6.043,4.545-9.463,4.545s-6.308-3.7-9.462-4.545c-3.264-.872-7.611.864-10.468-.79-2.9-1.677-3.558-6.325-5.91-8.678s-7-3.012-8.678-5.91c-1.653-2.858.082-7.2-.79-10.468-.843-3.154-4.544-6.042-4.544-9.462s3.7-6.309,4.544-9.463c.872-3.263-.863-7.611.79-10.468,1.677-2.9,6.325-3.558,8.678-5.911s3.012-7,5.911-8.678c2.857-1.653,7.2.083,10.468-.789,3.154-.843,6.042-4.545,9.462-4.545s6.308,3.7,9.463,4.545c3.264.872,7.611-.864,10.468.79,2.9,1.677,3.558,6.325,5.911,8.678s7,3.012,8.677,5.91c1.653,2.858-.083,7.2.79,10.468C1124.514,433.732,1128.216,436.62,1128.216,440.04Z" transform="translate(-1048.51 -400.187)" fill="rgba(0,0,0,0)" stroke="#e1c057" stroke-linecap="round" stroke-linejoin="round" stroke-width="0.2"/>
    </g>
    <g id="Group_3682" data-name="Group 3682" transform="translate(522.804 1127.136)">
      <g id="Group_3681" data-name="Group 3681" transform="translate(2.669 2.576)">
        <g id="Group_3678" data-name="Group 3678" transform="translate(11.47 50.189)">
          <g id="Group_3677" data-name="Group 3677">
            <path id="Path_3724" data-name="Path 3724" d="M1087.25,505.061a1.155,1.155,0,0,1,.714-.493,1.209,1.209,0,0,1,1.248.945,1.15,1.15,0,0,1-.28.821l-1.387,1.833a1.307,1.307,0,0,1-.479.414.128.128,0,0,0,.005.1.4.4,0,0,0,.094.091l.05.038-.373.494-.075-.057a.808.808,0,0,1-.257-.293.491.491,0,0,1-.039-.31,1.49,1.49,0,0,1-.217-.089,1.509,1.509,0,0,1-.22-.138,1.023,1.023,0,0,1-.45-.7,1.149,1.149,0,0,1,.281-.821Zm-.86,2.286a.472.472,0,0,0-.126.329.4.4,0,0,0,.418.316.465.465,0,0,0,.282-.21l1.44-1.9a.473.473,0,0,0,.126-.328.4.4,0,0,0-.418-.316.467.467,0,0,0-.282.21Z" transform="translate(-1085.578 -504.557)" fill="#212838"/>
            <path id="Path_3725" data-name="Path 3725" d="M1092.94,507.366l-1.731,2.938a.453.453,0,0,0-.085.337.356.356,0,0,0,.177.214.361.361,0,0,0,.274.052.458.458,0,0,0,.254-.239l1.731-2.937.565.333-1.708,2.9a1.182,1.182,0,0,1-.644.577,1.185,1.185,0,0,1-1.333-.785,1.18,1.18,0,0,1,.192-.843l1.708-2.9Z" transform="translate(-1087.642 -505.604)" fill="#212838"/>
            <path id="Path_3726" data-name="Path 3726" d="M1096.885,514.6l-.64-.286.218-.782-.778-.347-.436.682-.583-.26,2.449-3.745.928.414Zm-.874-1.927.611.273.606-2.176Z" transform="translate(-1089.45 -506.818)" fill="#212838"/>
            <path id="Path_3727" data-name="Path 3727" d="M1101.659,511.444l.659.22-1.2,3.593,1.084.361-.2.6-1.743-.58Z" transform="translate(-1091.834 -507.492)" fill="#212838"/>
            <path id="Path_3728" data-name="Path 3728" d="M1105.7,512.624l.674.167-1.066,4.288-.674-.167Z" transform="translate(-1093.696 -507.994)" fill="#212838"/>
            <path id="Path_3729" data-name="Path 3729" d="M1108.2,513.1l2.115.369-.109.622-.715-.125-.651,3.732-.684-.119.651-3.732-.715-.125Z" transform="translate(-1095.172 -508.197)" fill="#212838"/>
            <path id="Path_3730" data-name="Path 3730" d="M1113.156,515.76l.951.073-.048.63-.951-.073-.1,1.29,1.2.092-.049.63-1.888-.145.339-4.407,1.888.145-.048.63-1.2-.092Z" transform="translate(-1096.95 -508.517)" fill="#212838"/>
            <path id="Path_3731" data-name="Path 3731" d="M1119.017,514.076l1.1-.07a1.009,1.009,0,0,1,.8.228,1.161,1.161,0,0,1,.308.8l.143,2.23a1.162,1.162,0,0,1-.2.829,1.008,1.008,0,0,1-.759.327l-1.1.07Zm.733.586.2,3.15.391-.025a.348.348,0,0,0,.252-.111.467.467,0,0,0,.074-.34l-.148-2.293a.467.467,0,0,0-.116-.328.347.347,0,0,0-.264-.078Z" transform="translate(-1099.825 -508.581)" fill="#212838"/>
            <path id="Path_3732" data-name="Path 3732" d="M1123.678,514.351l-.092-.663.663-.093.083.594-.2.736-.281.039.094-.65Z" transform="translate(-1101.772 -508.408)" fill="#212838"/>
            <path id="Path_3733" data-name="Path 3733" d="M1128.456,517.251l-.687.139-.276-.762-.835.169.042.81-.625.127-.184-4.472,1-.2Zm-1.831-1.059.655-.133-.771-2.125Z" transform="translate(-1102.754 -508.18)" fill="#212838"/>
            <path id="Path_3734" data-name="Path 3734" d="M1130.808,511.929a1.048,1.048,0,0,1,.826,0,1.062,1.062,0,0,1,.465.653l.049.15a1.289,1.289,0,0,1,.069.568.68.68,0,0,1-.224.417.7.7,0,0,1,.489.211,1.367,1.367,0,0,1,.293.533l.11.343a.938.938,0,0,1-.683,1.32l-1.04.334-1.352-4.207Zm-.143.709.357,1.112.258-.083a.435.435,0,0,0,.261-.19.486.486,0,0,0-.007-.382l-.074-.234a.56.56,0,0,0-.188-.3.321.321,0,0,0-.288-.02Zm.55,1.713.415,1.292.379-.122a.356.356,0,0,0,.226-.172.49.49,0,0,0-.017-.353l-.118-.366a.635.635,0,0,0-.229-.371.445.445,0,0,0-.362,0Z" transform="translate(-1104.424 -507.662)" fill="#212838"/>
            <path id="Path_3735" data-name="Path 3735" d="M1135.222,511.461a1.155,1.155,0,0,1-.091-.862,1.21,1.21,0,0,1,1.427-.644,1.156,1.156,0,0,1,.587.639l.945,2.095a1.156,1.156,0,0,1,.091.863,1.211,1.211,0,0,1-1.427.644,1.157,1.157,0,0,1-.586-.639Zm1.6,1.849a.475.475,0,0,0,.229.268.4.4,0,0,0,.477-.216.468.468,0,0,0-.049-.348l-.981-2.176a.47.47,0,0,0-.228-.267.4.4,0,0,0-.478.215.468.468,0,0,0,.049.348Z" transform="translate(-1106.671 -506.83)" fill="#212838"/>
            <path id="Path_3736" data-name="Path 3736" d="M1142.572,511.333l-.064-.058a.62.62,0,0,1-.067-.07,1.063,1.063,0,0,1-.085-.118c-.032-.049-.071-.112-.115-.188l-.356-.6a.678.678,0,0,0-.315-.319.434.434,0,0,0-.363.069l-.207.123.921,1.546-.6.355-2.261-3.8.9-.537a1.053,1.053,0,0,1,.8-.185,1.065,1.065,0,0,1,.6.532l.178.3a.89.89,0,0,1,.068,1,.621.621,0,0,1,.491.115,1.582,1.582,0,0,1,.386.457l.349.586a2.7,2.7,0,0,0,.158.241.925.925,0,0,0,.181.182Zm-2.589-2.867.694,1.166.233-.139a.435.435,0,0,0,.212-.243.488.488,0,0,0-.092-.371l-.223-.374a.565.565,0,0,0-.25-.255.321.321,0,0,0-.286.045Z" transform="translate(-1108.367 -505.825)" fill="#212838"/>
            <path id="Path_3737" data-name="Path 3737" d="M1143.361,505.5l.875-.665a1.009,1.009,0,0,1,.789-.25,1.165,1.165,0,0,1,.7.494l1.352,1.779a1.161,1.161,0,0,1,.289.8,1.008,1.008,0,0,1-.453.693l-.874.665Zm.935.083,1.909,2.514.312-.237a.347.347,0,0,0,.149-.232.466.466,0,0,0-.128-.324l-1.389-1.83a.47.47,0,0,0-.278-.209.349.349,0,0,0-.263.081Z" transform="translate(-1110.198 -504.562)" fill="#212838"/>
          </g>
        </g>
        <g id="Group_3680" data-name="Group 3680">
          <g id="Group_3679" data-name="Group 3679">
            <path id="Path_3738" data-name="Path 3738" d="M1070.138,463.909l-.058.7-.808.055-.069.849.79.185-.052.635-4.347-1.064.083-1.014Zm-1.526,1.465.055-.667-2.254.152Z" transform="translate(-1065.593 -437.049)" fill="#212838"/>
            <path id="Path_3739" data-name="Path 3739" d="M1069.419,458l.575.117a1.179,1.179,0,0,1,.755.421,1.186,1.186,0,0,1-.309,1.516,1.182,1.182,0,0,1-.86.092l-2.251-.459a1.182,1.182,0,0,1-.755-.421,1.186,1.186,0,0,1,.308-1.516,1.186,1.186,0,0,1,.86-.092l.42.085-.131.644-.463-.095a.471.471,0,0,0-.351.028.4.4,0,0,0-.1.514.469.469,0,0,0,.311.163l2.338.477a.459.459,0,0,0,.348-.029.412.412,0,0,0,.1-.513.457.457,0,0,0-.308-.163l-.619-.126Z" transform="translate(-1065.944 -434.37)" fill="#212838"/>
            <path id="Path_3740" data-name="Path 3740" d="M1071.088,452.256l.556.186a1.18,1.18,0,0,1,.7.511,1.186,1.186,0,0,1-.492,1.466,1.183,1.183,0,0,1-.864-.014l-2.179-.732a1.178,1.178,0,0,1-.7-.511,1.186,1.186,0,0,1,.492-1.466,1.186,1.186,0,0,1,.865.014l.407.137-.209.622-.449-.151a.47.47,0,0,0-.351-.014.351.351,0,0,0-.177.218.355.355,0,0,0,.01.279.467.467,0,0,0,.29.2l2.261.759a.459.459,0,0,0,.348.014.41.41,0,0,0,.167-.5.463.463,0,0,0-.286-.2l-.6-.2Z" transform="translate(-1066.622 -431.814)" fill="#212838"/>
            <path id="Path_3741" data-name="Path 3741" d="M1074.447,448.058l-.085-.012a.684.684,0,0,1-.095-.021,1.2,1.2,0,0,1-.137-.052c-.054-.024-.121-.055-.2-.092l-.626-.3a.678.678,0,0,0-.44-.092.432.432,0,0,0-.264.258l-.1.216,1.622.779-.3.626-3.984-1.912.454-.945a.887.887,0,0,1,1.361-.488l.313.15a.889.889,0,0,1,.611.8.622.622,0,0,1,.474-.176,1.6,1.6,0,0,1,.574.167l.615.3c.1.047.186.084.265.112a.918.918,0,0,0,.252.051Zm-3.742-.956,1.223.588.119-.245a.443.443,0,0,0,.041-.32.486.486,0,0,0-.282-.258l-.393-.188a.555.555,0,0,0-.35-.073.319.319,0,0,0-.213.2Z" transform="translate(-1067.4 -429.365)" fill="#212838"/>
            <path id="Path_3742" data-name="Path 3742" d="M1074.77,442.051l.513-.8.532.34-.513.8,1.09.7.645-1.011.532.339-1.019,1.6-3.726-2.376,1.019-1.6.531.339-.645,1.011Z" transform="translate(-1068.675 -426.879)" fill="#212838"/>
            <path id="Path_3743" data-name="Path 3743" d="M1076.188,436.883l.7-.85a1.009,1.009,0,0,1,.709-.428,1.166,1.166,0,0,1,.792.319l1.729,1.416a1.161,1.161,0,0,1,.468.715,1.01,1.01,0,0,1-.279.779l-.7.849Zm.929-.138,2.442,2,.248-.3a.347.347,0,0,0,.09-.26.465.465,0,0,0-.2-.285l-1.778-1.456a.465.465,0,0,0-.319-.138.345.345,0,0,0-.238.14Z" transform="translate(-1070.107 -424.989)" fill="#212838"/>
            <path id="Path_3744" data-name="Path 3744" d="M1080.33,432.7l.491-.492,3.127,3.123-.491.491Z" transform="translate(-1071.872 -423.543)" fill="#212838"/>
            <path id="Path_3745" data-name="Path 3745" d="M1082.311,430.053l1.629-1.4.411.479-.551.472,2.466,2.875-.527.452-2.466-2.875-.552.472Z" transform="translate(-1072.716 -422.029)" fill="#212838"/>
            <path id="Path_3746" data-name="Path 3746" d="M1091.054,429.384l-.574.4-.558-.588-.7.488.362.725-.522.366-1.955-4.027.833-.583Zm-2.1-.24.548-.383-1.556-1.639Z" transform="translate(-1074.76 -420.969)" fill="#212838"/>
            <path id="Path_3747" data-name="Path 3747" d="M1090.961,423.831l1.881-1.035.3.553-.637.35,1.826,3.319-.608.335-1.826-3.319-.637.35Z" transform="translate(-1076.402 -419.532)" fill="#212838"/>
            <path id="Path_3748" data-name="Path 3748" d="M1096.075,421.729l.635-.281,1.79,4.04-.635.281Z" transform="translate(-1078.581 -418.958)" fill="#212838"/>
            <path id="Path_3749" data-name="Path 3749" d="M1100.339,421.032a1.156,1.156,0,0,1,0-.868,1.212,1.212,0,0,1,1.487-.49,1.16,1.16,0,0,1,.516.7l.718,2.183a1.155,1.155,0,0,1,0,.868,1.21,1.21,0,0,1-1.487.489,1.155,1.155,0,0,1-.516-.7Zm1.392,2.008a.471.471,0,0,0,.2.29.4.4,0,0,0,.5-.164.471.471,0,0,0-.012-.351l-.746-2.266a.467.467,0,0,0-.2-.29.4.4,0,0,0-.5.164.472.472,0,0,0,.012.352Z" transform="translate(-1080.362 -418.159)" fill="#212838"/>
            <path id="Path_3750" data-name="Path 3750" d="M1106.886,419.265l.6,3.143-.614.118-.832-4.34.855-.164,1.2,2.463-.5-2.6.608-.117.832,4.34-.7.135Z" transform="translate(-1082.828 -417.391)" fill="#212838"/>
            <path id="Path_3751" data-name="Path 3751" d="M1114.633,418.248a1.2,1.2,0,0,1,.233-.831,1.168,1.168,0,0,1,1.533-.042,1.2,1.2,0,0,1,.278.817l0,.139-.656.018-.005-.183a.49.49,0,0,0-.1-.335.33.33,0,0,0-.258-.091.335.335,0,0,0-.253.1.5.5,0,0,0-.081.34.776.776,0,0,0,.112.4,1.683,1.683,0,0,0,.261.321c.1.1.215.2.333.3a3.055,3.055,0,0,1,.335.329,1.732,1.732,0,0,1,.264.409,1.362,1.362,0,0,1,.116.547,1.179,1.179,0,0,1-.239.831,1.184,1.184,0,0,1-1.546.043,1.181,1.181,0,0,1-.285-.817l-.008-.271.657-.018.008.316a.46.46,0,0,0,.107.332.409.409,0,0,0,.524-.014.458.458,0,0,0,.088-.337.783.783,0,0,0-.112-.4,1.665,1.665,0,0,0-.262-.321q-.155-.151-.333-.3a3.111,3.111,0,0,1-.334-.329,1.693,1.693,0,0,1-.264-.41A1.387,1.387,0,0,1,1114.633,418.248Z" transform="translate(-1086.488 -417.109)" fill="#212838"/>
            <path id="Path_3752" data-name="Path 3752" d="M1122.116,421.844l-.7-.061-.05-.809-.849-.075-.189.789-.635-.056,1.088-4.341,1.013.088Zm-1.457-1.534.666.058-.139-2.255Z" transform="translate(-1088.644 -417.187)" fill="#212838"/>
            <path id="Path_3753" data-name="Path 3753" d="M1126.752,419.253l-.676,3.128-.611-.132.933-4.32.852.184.138,2.737.559-2.586.6.131-.933,4.319-.7-.151Z" transform="translate(-1091.103 -417.459)" fill="#212838"/>
            <path id="Path_3754" data-name="Path 3754" d="M1132.257,420.647a1.2,1.2,0,0,1,.514-.693,1.168,1.168,0,0,1,1.448.507,1.2,1.2,0,0,1-.031.862l-.047.131-.619-.217.061-.173a.5.5,0,0,0,.026-.348.383.383,0,0,0-.483-.169.491.491,0,0,0-.2.288.781.781,0,0,0-.037.412,1.634,1.634,0,0,0,.13.393c.061.131.129.264.2.4a3.141,3.141,0,0,1,.2.426,1.745,1.745,0,0,1,.1.477,1.377,1.377,0,0,1-.086.551,1.186,1.186,0,0,1-.519.691,1.187,1.187,0,0,1-1.46-.512,1.182,1.182,0,0,1,.026-.864l.089-.256.62.218-.1.3a.457.457,0,0,0-.018.348.41.41,0,0,0,.495.173.458.458,0,0,0,.2-.283.78.78,0,0,0,.038-.412,1.666,1.666,0,0,0-.13-.394q-.091-.2-.2-.4a3.016,3.016,0,0,1-.2-.426,1.732,1.732,0,0,1-.1-.476A1.384,1.384,0,0,1,1132.257,420.647Z" transform="translate(-1093.625 -418.28)" fill="#212838"/>
            <path id="Path_3755" data-name="Path 3755" d="M1139.341,424.625l.794.418-.294.558-.793-.418-.85,1.615-.615-.324,2.059-3.91,1.626.856-.294.558-1.011-.533Z" transform="translate(-1096.266 -419.433)" fill="#212838"/>
            <path id="Path_3756" data-name="Path 3756" d="M1142.8,429.692c.01-.029.018-.056.025-.082a.656.656,0,0,1,.035-.091,1.214,1.214,0,0,1,.071-.127c.032-.05.073-.111.122-.184l.391-.573a.681.681,0,0,0,.157-.421.434.434,0,0,0-.215-.3l-.2-.135-1.014,1.486-.574-.391,2.49-3.65.866.59a.888.888,0,0,1,.277,1.42l-.2.287a.889.889,0,0,1-.88.484.622.622,0,0,1,.1.494,1.576,1.576,0,0,1-.251.542l-.384.564a2.687,2.687,0,0,0-.152.245.923.923,0,0,0-.088.242Zm1.509-3.556-.765,1.121.224.153a.437.437,0,0,0,.31.089.482.482,0,0,0,.3-.24l.246-.36a.559.559,0,0,0,.125-.335.323.323,0,0,0-.161-.24Z" transform="translate(-1097.979 -420.566)" fill="#212838"/>
            <path id="Path_3757" data-name="Path 3757" d="M1148.64,430.111a1.155,1.155,0,0,1,.748-.439,1.21,1.21,0,0,1,1.175,1.035,1.152,1.152,0,0,1-.341.8l-1.518,1.725a1.158,1.158,0,0,1-.749.438,1.21,1.21,0,0,1-1.175-1.035,1.156,1.156,0,0,1,.341-.8Zm-1.027,2.216a.472.472,0,0,0-.15.318.4.4,0,0,0,.393.346.47.47,0,0,0,.3-.189l1.577-1.791a.474.474,0,0,0,.15-.318.4.4,0,0,0-.394-.347.472.472,0,0,0-.3.189Z" transform="translate(-1100.184 -422.46)" fill="#212838"/>
            <path id="Path_3758" data-name="Path 3758" d="M1153.023,434.727l-2.4,2.115-.413-.469,3.316-2.921.576.653-1.514,2.284,1.985-1.748.408.464-3.316,2.921-.471-.535Z" transform="translate(-1101.645 -424.073)" fill="#212838"/>
            <path id="Path_3759" data-name="Path 3759" d="M1157.3,437.768l1.239,1.753-.515.364-.419-.593-3.094,2.186-.4-.567,3.094-2.186-.419-.593Z" transform="translate(-1103.307 -425.911)" fill="#212838"/>
            <path id="Path_3760" data-name="Path 3760" d="M1160.039,442.523l.351.6-3.812,2.234-.351-.6Z" transform="translate(-1104.21 -427.937)" fill="#212838"/>
            <path id="Path_3761" data-name="Path 3761" d="M1160.466,447.45l.4.864-.573.266-.4-.864-1.174.546.506,1.088-.572.266-.8-1.717,4.007-1.865.8,1.717-.573.266-.505-1.087Z" transform="translate(-1104.903 -429.434)" fill="#212838"/>
            <path id="Path_3762" data-name="Path 3762" d="M1160.375,454.325l.07-.049a.616.616,0,0,1,.084-.051,1.18,1.18,0,0,1,.134-.057c.055-.02.125-.044.209-.071l.661-.216a.679.679,0,0,0,.38-.237.431.431,0,0,0,.012-.369l-.074-.228-1.71.558-.216-.661,4.2-1.371.325,1a1.05,1.05,0,0,1,0,.826,1.066,1.066,0,0,1-.65.468l-.331.107a.887.887,0,0,1-.993-.154.624.624,0,0,1-.221.454,1.6,1.6,0,0,1-.531.276l-.648.212c-.1.034-.193.068-.269.1a.921.921,0,0,0-.217.138Zm3.366-1.9-1.291.421.085.258a.435.435,0,0,0,.191.26.486.486,0,0,0,.382-.009l.413-.135a.563.563,0,0,0,.3-.189.323.323,0,0,0,.019-.288Z" transform="translate(-1105.786 -431.794)" fill="#212838"/>
            <path id="Path_3763" data-name="Path 3763" d="M1164.182,458.872l.184.936-.619.122-.185-.935-1.269.25.233,1.177-.62.122-.367-1.858,4.336-.855.366,1.858-.619.122-.232-1.177Z" transform="translate(-1106.473 -434.459)" fill="#212838"/>
            <path id="Path_3764" data-name="Path 3764" d="M1165.774,463.651a1.2,1.2,0,0,1,.842.189,1.167,1.167,0,0,1,.122,1.53,1.2,1.2,0,0,1-.8.32l-.138.011-.052-.654.183-.014a.494.494,0,0,0,.329-.118.333.333,0,0,0,.078-.263.337.337,0,0,0-.118-.247.494.494,0,0,0-.344-.064.783.783,0,0,0-.392.132,1.691,1.691,0,0,0-.307.278c-.095.109-.189.225-.282.348a3.11,3.11,0,0,1-.31.352,1.762,1.762,0,0,1-.4.285,1.392,1.392,0,0,1-.54.145,1.184,1.184,0,0,1-.843-.2,1.185,1.185,0,0,1-.123-1.542,1.18,1.18,0,0,1,.8-.327l.271-.021.052.654-.315.025a.46.46,0,0,0-.327.125.367.367,0,0,0-.074.269.359.359,0,0,0,.116.254.453.453,0,0,0,.341.071.777.777,0,0,0,.392-.132,1.727,1.727,0,0,0,.307-.278c.094-.11.188-.226.281-.35a3.093,3.093,0,0,1,.311-.351,1.683,1.683,0,0,1,.4-.285A1.366,1.366,0,0,1,1165.774,463.651Z" transform="translate(-1106.862 -436.936)" fill="#212838"/>
          </g>
        </g>
      </g>
      <circle id="Ellipse_24" data-name="Ellipse 24" cx="32.717" cy="32.717" r="32.717" fill="none" stroke="#212838" stroke-miterlimit="10" stroke-width="0.5"/>
      <circle id="Ellipse_25" data-name="Ellipse 25" cx="23.241" cy="23.241" r="23.241" transform="translate(9.476 9.476)" fill="none" stroke="#212838" stroke-miterlimit="10" stroke-width="0.3"/>
    </g>
    <path id="Path_3765" data-name="Path 3765" d="M1103.34,449.807l1.434,2.906a.369.369,0,0,0,.277.2l3.207.466a.368.368,0,0,1,.2.628l-2.32,2.262a.37.37,0,0,0-.106.326l.548,3.195a.368.368,0,0,1-.534.388l-2.869-1.508a.37.37,0,0,0-.343,0l-2.869,1.508a.368.368,0,0,1-.534-.388l.548-3.195a.368.368,0,0,0-.106-.326l-2.321-2.262a.368.368,0,0,1,.2-.628l3.207-.466a.368.368,0,0,0,.277-.2l1.434-2.906A.368.368,0,0,1,1103.34,449.807Z" transform="translate(-575.455 754.693)" fill="#e9b95f"/>
    <path id="Path_3770" data-name="Path 3770" d="M1103.34,449.807l1.434,2.906a.369.369,0,0,0,.277.2l3.207.466a.368.368,0,0,1,.2.628l-2.32,2.262a.37.37,0,0,0-.106.326l.548,3.195a.368.368,0,0,1-.534.388l-2.869-1.508a.37.37,0,0,0-.343,0l-2.869,1.508a.368.368,0,0,1-.534-.388l.548-3.195a.368.368,0,0,0-.106-.326l-2.321-2.262a.368.368,0,0,1,.2-.628l3.207-.466a.368.368,0,0,0,.277-.2l1.434-2.906A.368.368,0,0,1,1103.34,449.807Z" transform="translate(-561.472 754.693)" fill="#e9b95f"/>
    <path id="Path_3771" data-name="Path 3771" d="M1103.34,449.807l1.434,2.906a.369.369,0,0,0,.277.2l3.207.466a.368.368,0,0,1,.2.628l-2.32,2.262a.37.37,0,0,0-.106.326l.548,3.195a.368.368,0,0,1-.534.388l-2.869-1.508a.37.37,0,0,0-.343,0l-2.869,1.508a.368.368,0,0,1-.534-.388l.548-3.195a.368.368,0,0,0-.106-.326l-2.321-2.262a.368.368,0,0,1,.2-.628l3.207-.466a.368.368,0,0,0,.277-.2l1.434-2.906A.368.368,0,0,1,1103.34,449.807Z" transform="translate(-547.488 754.693)" fill="#e9b95f"/>
    <path id="Path_3772" data-name="Path 3772" d="M1103.34,449.807l1.434,2.906a.369.369,0,0,0,.277.2l3.207.466a.368.368,0,0,1,.2.628l-2.32,2.262a.37.37,0,0,0-.106.326l.548,3.195a.368.368,0,0,1-.534.388l-2.869-1.508a.37.37,0,0,0-.343,0l-2.869,1.508a.368.368,0,0,1-.534-.388l.548-3.195a.368.368,0,0,0-.106-.326l-2.321-2.262a.368.368,0,0,1,.2-.628l3.207-.466a.368.368,0,0,0,.277-.2l1.434-2.906A.368.368,0,0,1,1103.34,449.807Z" transform="translate(-533.505 754.693)" fill="#e9b95f"/>
    <path id="Path_3773" data-name="Path 3773" d="M1103.34,449.807l1.434,2.906a.369.369,0,0,0,.277.2l3.207.466a.368.368,0,0,1,.2.628l-2.32,2.262a.37.37,0,0,0-.106.326l.548,3.195a.368.368,0,0,1-.534.388l-2.869-1.508a.37.37,0,0,0-.343,0l-2.869,1.508a.368.368,0,0,1-.534-.388l.548-3.195a.368.368,0,0,0-.106-.326l-2.321-2.262a.368.368,0,0,1,.2-.628l3.207-.466a.368.368,0,0,0,.277-.2l1.434-2.906A.368.368,0,0,1,1103.34,449.807Z" transform="translate(-519.521 754.693)" fill="#e9b95f"/>
    <text id="_5" data-name="5" transform="translate(544.521 1172.913)" fill="#212838" font-size="39" font-family="Helvetica-Bold, Helvetica" font-weight="700"><tspan x="0" y="0">5</tspan></text>
  </g>
</svg>
