<svg id="search" xmlns="http://www.w3.org/2000/svg" width="26.926" height="26.926" viewBox="0 0 26.926 26.926">
  <path id="Path_3052" data-name="Path 3052" d="M5.967,147.268l-.937,3.5L1.6,150.84a13.487,13.487,0,0,1-.1-12.572h0l3.05.559,1.336,3.031a8.035,8.035,0,0,0,.076,5.41Z" transform="translate(0 -130.996)" fill="#fbbb00"/>
  <path id="Path_3053" data-name="Path 3053" d="M274.56,208.176a13.458,13.458,0,0,1-4.8,13.014h0l-3.841-.2-.544-3.394a8.024,8.024,0,0,0,3.452-4.1h-7.2v-5.326H274.56Z" transform="translate(-247.869 -197.228)" fill="#518ef8"/>
  <path id="Path_3054" data-name="Path 3054" d="M50.8,317.1h0a13.467,13.467,0,0,1-20.287-4.119l4.363-3.571a8.007,8.007,0,0,0,11.538,4.1Z" transform="translate(-28.905 -293.137)" fill="#28b446"/>
  <path id="Path_3055" data-name="Path 3055" d="M49.175,3.1,44.814,6.67a8.006,8.006,0,0,0-11.8,4.192L28.625,7.272h0A13.466,13.466,0,0,1,49.175,3.1Z" transform="translate(-27.119)" fill="#f14336"/>
</svg>
