<svg xmlns="http://www.w3.org/2000/svg" width="41.743" height="47.062" viewBox="0 0 41.743 47.062">
  <g id="Group_4000" data-name="Group 4000" transform="translate(-584.619 -440.338)">
    <g id="Group_3999" data-name="Group 3999">
      <g id="Group_3998" data-name="Group 3998">
        <g id="hand" transform="translate(584.619 462.959)">
          <path id="Path_4201" data-name="Path 4201" d="M9.892,236.518a.815.815,0,0,0,1.151.007L15,232.631a2.464,2.464,0,0,0,.58-2.53l.85-.82a2.432,2.432,0,0,1,1.7-.686H28.963a7.3,7.3,0,0,0,5.118-2.079c.057-.055-.43.519,7.394-8.833a3.261,3.261,0,0,0-4.963-4.233L31.7,218.394a3.277,3.277,0,0,0-2.535-1.214H20.075a10.518,10.518,0,0,0-4.083-.815A10.087,10.087,0,0,0,6.8,221.578a2.435,2.435,0,0,0-2.181.676l-3.879,3.89a.815.815,0,0,0,0,1.15ZM15.992,218a8.9,8.9,0,0,1,3.589.747.813.813,0,0,0,.327.068h9.259a1.631,1.631,0,1,1,0,3.261H22.515a.815.815,0,1,0,0,1.63h6.652a3.256,3.256,0,0,0,3.233-3.687c4.654-4.784,5.31-5.456,5.338-5.49a1.631,1.631,0,1,1,2.49,2.107l-7.313,8.742a5.677,5.677,0,0,1-3.952,1.589H18.124a4.054,4.054,0,0,0-2.83,1.143l-.693.669-6.387-6.387A8.418,8.418,0,0,1,15.992,218Zm-10.22,5.411a.813.813,0,0,1,1.01-.115c.141.086-.264-.283,7.062,7.033a.817.817,0,0,1,0,1.149l-3.37,3.32-8.011-8.072Zm0,0" transform="translate(-0.501 -212.319)" fill="#436592"/>
        </g>
        <g id="Ellipse_33" data-name="Ellipse 33" transform="translate(603.252 451.457)" fill="#fff" stroke="#436592" stroke-width="1.3">
          <ellipse cx="6.73" cy="6.73" rx="6.73" ry="6.73" stroke="none"/>
          <ellipse cx="6.73" cy="6.73" rx="6.08" ry="6.08" fill="none"/>
        </g>
        <g id="Ellipse_34" data-name="Ellipse 34" transform="translate(603.252 445.604)" fill="#fff" stroke="#436592" stroke-width="1.3">
          <ellipse cx="6.73" cy="7.023" rx="6.73" ry="7.023" stroke="none"/>
          <ellipse cx="6.73" cy="7.023" rx="6.08" ry="6.373" fill="none"/>
        </g>
        <g id="Ellipse_35" data-name="Ellipse 35" transform="translate(603.252 440.338)" fill="#fff" stroke="#436592" stroke-width="1.3">
          <ellipse cx="6.73" cy="7.023" rx="6.73" ry="7.023" stroke="none"/>
          <ellipse cx="6.73" cy="7.023" rx="6.08" ry="6.373" fill="none"/>
        </g>
      </g>
    </g>
  </g>
</svg>
