<svg xmlns="http://www.w3.org/2000/svg" width="264.806" height="94.358" viewBox="0 0 264.806 94.358">
  <g id="Group_3945" data-name="Group 3945" transform="translate(-7761.5 -3241.427)">
    <g id="Group_3741" data-name="Group 3741" transform="translate(7865.447 3268.573)">
      <path id="Path_4060" data-name="Path 4060" d="M171.443,85.32a6.172,6.172,0,0,1-3.005-.713,5.011,5.011,0,0,1-2.038-2.056,6.578,6.578,0,0,1-.731-3.192,7.7,7.7,0,0,1,.365-2.353,6.5,6.5,0,0,1,1.1-2.08,5.355,5.355,0,0,1,1.852-1.487,5.764,5.764,0,0,1,2.59-.551,7.131,7.131,0,0,1,1.239.11,7.3,7.3,0,0,1,1.215.322,6.075,6.075,0,0,1,1.062.5l-.069-.815h.935V76.9h-.612a3.568,3.568,0,0,0-.568-1.808,3.3,3.3,0,0,0-1.3-1.13,4.007,4.007,0,0,0-1.784-.391,3.691,3.691,0,0,0-1.69.4,4.37,4.37,0,0,0-1.393,1.122,5.349,5.349,0,0,0-.943,1.706,6.635,6.635,0,0,0-.339,2.174,6.767,6.767,0,0,0,.577,2.853,4.746,4.746,0,0,0,1.605,1.971,4.051,4.051,0,0,0,2.369.714,5.751,5.751,0,0,0,.96-.085,5.211,5.211,0,0,0,1.944-.765V79.937l-.595.034L173.6,80v-.747h3.838v.56a1.006,1.006,0,0,0-.73.246,1.319,1.319,0,0,0-.357.594,2.868,2.868,0,0,0-.119.68c-.012.221-.018.388-.018.5v2.6h-.458a3.789,3.789,0,0,0-.747.1,7.247,7.247,0,0,0-1.088.34,6.506,6.506,0,0,1-1.223.323A7.626,7.626,0,0,1,171.443,85.32Z" transform="translate(-164.768 -72.837)" fill="#fff"/>
      <path id="Path_4061" data-name="Path 4061" d="M185.412,80.666a2.085,2.085,0,0,0-.2-1.071.877.877,0,0,0-.645-.391,6.172,6.172,0,0,0-1.173-.033l-1.239.05v3.89c0,.306,0,.567-.009.781a4.244,4.244,0,0,1-.043.544l3.245-.051a3.513,3.513,0,0,0,1.29-.246,1.694,1.694,0,0,0,.849-.807,3.4,3.4,0,0,0,.306-1.579h.578l-.1,3.311H179.5V84.5a1.261,1.261,0,0,0,.884-.3,1.149,1.149,0,0,0,.263-.731c.018-.311.025-.665.025-1.061V75.078q0-.338.017-.653c.012-.21.023-.4.034-.569l-.611.034-.612.034v-.747h8.169l.085,2.972h-.56a3.037,3.037,0,0,0-.306-1.52,1.51,1.51,0,0,0-.824-.7,3.281,3.281,0,0,0-1.162-.161l-1.462.034a1.5,1.5,0,0,0-.9.238.974.974,0,0,0-.331.653,8.675,8.675,0,0,0-.059,1.13v2.717l3.193.017-.119-1.461h.747v3.567Z" transform="translate(-165.54 -72.853)" fill="#fff"/>
      <path id="Path_4062" data-name="Path 4062" d="M196.575,85.32a6.471,6.471,0,0,1-2.769-.543,5.162,5.162,0,0,1-1.876-1.452,6.067,6.067,0,0,1-1.061-2.013,7.468,7.468,0,0,1-.34-2.209,6.957,6.957,0,0,1,.356-2.165,6.284,6.284,0,0,1,1.1-2.012,5.52,5.52,0,0,1,1.852-1.478,5.719,5.719,0,0,1,2.606-.561,6.05,6.05,0,0,1,2.7.561,5.443,5.443,0,0,1,1.877,1.485,6.581,6.581,0,0,1,1.1,2.013,6.74,6.74,0,0,1,.365,2.157,6.915,6.915,0,0,1-.357,2.149,6.4,6.4,0,0,1-1.1,2.022,5.51,5.51,0,0,1-1.843,1.486A5.715,5.715,0,0,1,196.575,85.32Zm.034-.7a3.606,3.606,0,0,0,1.834-.45,3.954,3.954,0,0,0,1.3-1.206,5.678,5.678,0,0,0,.781-1.682,6.728,6.728,0,0,0,.264-1.86,7.78,7.78,0,0,0-.289-2.089,6.652,6.652,0,0,0-.849-1.886,4.57,4.57,0,0,0-1.384-1.367,3.452,3.452,0,0,0-1.877-.518,3.6,3.6,0,0,0-1.843.459,4.021,4.021,0,0,0-1.308,1.214,5.7,5.7,0,0,0-.781,1.682,6.791,6.791,0,0,0-.264,1.877,7.769,7.769,0,0,0,.264,1.954,6.863,6.863,0,0,0,.806,1.9,4.479,4.479,0,0,0,1.376,1.427A3.519,3.519,0,0,0,196.609,84.625Z" transform="translate(-166.155 -72.837)" fill="#fff"/>
      <path id="Path_4063" data-name="Path 4063" d="M204.811,85.062V84.5a1.259,1.259,0,0,0,.883-.3,1.149,1.149,0,0,0,.263-.731q.026-.466.025-1.061V75.075q0-.339.017-.653t.034-.569l-.612.034-.611.034v-.747l1.928-.034q.976-.017,1.961.017a8.269,8.269,0,0,1,2.658.381,3.014,3.014,0,0,1,1.487,1.037,2.743,2.743,0,0,1,.474,1.622,3.476,3.476,0,0,1-.245,1.349,2.906,2.906,0,0,1-.951,1.232,4.76,4.76,0,0,1-1.979.815,2.386,2.386,0,0,1,.595.612q.255.374.577.866l1.155,1.818q.289.459.561.823a2.151,2.151,0,0,0,.629.578,1.7,1.7,0,0,0,.883.212v.56H212.4a6.078,6.078,0,0,1-.824-.883q-.331-.442-.688-1l-1.138-1.818c-.146-.238-.314-.512-.5-.824a3.46,3.46,0,0,0-.637-.789c-.18.011-.371.017-.569.017s-.394-.006-.585-.017v3.3c0,.306,0,.568-.009.789a4.484,4.484,0,0,1-.043.552c.136-.011.272-.02.407-.025s.272-.014.408-.026.272-.017.409-.017v.747Zm3.7-5.945a5.032,5.032,0,0,0,1.638-.305,2.329,2.329,0,0,0,1.113-.867,2.715,2.715,0,0,0,.407-1.562,3.264,3.264,0,0,0-.178-1.13,1.921,1.921,0,0,0-.551-.806,2.449,2.449,0,0,0-.952-.484,5.073,5.073,0,0,0-1.358-.161,1.2,1.2,0,0,0-.875.255,1.063,1.063,0,0,0-.272.705c-.017.3-.025.653-.025,1.061v3.26l.517.034A3.908,3.908,0,0,0,208.514,79.117Z" transform="translate(-166.952 -72.851)" fill="#fff"/>
      <path id="Path_4064" data-name="Path 4064" d="M221.737,85.32a6.172,6.172,0,0,1-3.005-.713,5.011,5.011,0,0,1-2.038-2.056,6.578,6.578,0,0,1-.731-3.192,7.7,7.7,0,0,1,.365-2.353,6.5,6.5,0,0,1,1.1-2.08,5.355,5.355,0,0,1,1.852-1.487,5.764,5.764,0,0,1,2.59-.551,7.139,7.139,0,0,1,1.239.11,7.267,7.267,0,0,1,1.214.322,6.012,6.012,0,0,1,1.062.5l-.068-.815h.934V76.9h-.611a3.559,3.559,0,0,0-.569-1.808,3.288,3.288,0,0,0-1.3-1.13,4,4,0,0,0-1.783-.391,3.691,3.691,0,0,0-1.69.4,4.371,4.371,0,0,0-1.393,1.122,5.348,5.348,0,0,0-.943,1.706,6.633,6.633,0,0,0-.339,2.174,6.767,6.767,0,0,0,.577,2.853,4.745,4.745,0,0,0,1.605,1.971,4.051,4.051,0,0,0,2.369.714,5.751,5.751,0,0,0,.96-.085,5.211,5.211,0,0,0,1.944-.765V79.937l-.595.034-.594.034v-.747h3.839v.56a1.01,1.01,0,0,0-.731.246,1.325,1.325,0,0,0-.356.594,2.871,2.871,0,0,0-.119.68c-.012.221-.018.388-.018.5v2.6h-.458a3.79,3.79,0,0,0-.747.1,7.244,7.244,0,0,0-1.088.34,6.507,6.507,0,0,1-1.223.323A7.625,7.625,0,0,1,221.737,85.32Z" transform="translate(-167.574 -72.837)" fill="#fff"/>
      <path id="Path_4065" data-name="Path 4065" d="M233.618,73.736a1.2,1.2,0,0,0-.875.289,1.151,1.151,0,0,0-.272.73q-.024.459-.025,1.071v7.218c0,.306,0,.568-.009.789a4.473,4.473,0,0,1-.042.552l.611-.034.613-.034v.747H229.8V84.5a1.261,1.261,0,0,0,.884-.3,1.149,1.149,0,0,0,.263-.731q.025-.466.025-1.061V75.078q0-.338.017-.653c.012-.21.023-.4.034-.569l-.611.034-.612.034v-.747h3.822Z" transform="translate(-168.346 -72.853)" fill="#fff"/>
      <path id="Path_4066" data-name="Path 4066" d="M234.724,85.045v-.56a1.058,1.058,0,0,0,.782-.272,2.072,2.072,0,0,0,.449-.747q.178-.476.416-1.1l3.5-9.528h.408l3.786,9.664c.092.238.193.544.307.917a2.571,2.571,0,0,1,.135.952l.578-.034.578-.034v.747h-3.889v-.56a1.064,1.064,0,0,0,.849-.289.843.843,0,0,0,.152-.646,2.942,2.942,0,0,0-.17-.679l-.593-1.6-4.417.1L237,83.194q-.119.409-.213.646c-.061.16-.132.334-.212.527l.671-.034.653-.034v.747Zm3.125-4.4h3.924L240.567,77.4q-.187-.527-.382-1.044t-.382-1.045h-.034q-.171.476-.348.952t-.364.968Z" transform="translate(-168.621 -72.834)" fill="#fff"/>
      <path id="Path_4067" data-name="Path 4067" d="M256.375,85.336l-6.778-9.1c-.1-.135-.2-.268-.3-.4l-.3-.4h-.017l.051,7.269v.849q0,.425-.034.833l.612-.034.611-.034v.747h-3.108V84.5a1.043,1.043,0,0,0,.756-.229,1.083,1.083,0,0,0,.3-.544,2.774,2.774,0,0,0,.068-.568l.016-8.17V73.855c-.181.012-.367.023-.56.034l-.578.034v-.747h2.022l6.369,8.526q.221.289.433.577c.141.193.286.385.433.578h.017l.017-7.779q0-.338.017-.653t.034-.569l-.612.034-.611.034v-.747h3.125v.56a1.167,1.167,0,0,0-.867.289,1.137,1.137,0,0,0-.255.73q-.017.459-.017,1.071l-.034,9.511Z" transform="translate(-169.312 -72.853)" fill="#fff"/>
      <path id="Path_4068" data-name="Path 4068" d="M274.9,76.947a3.817,3.817,0,0,0-1.112-2.479,3.4,3.4,0,0,0-2.42-.884,3.838,3.838,0,0,0-1.69.382,4.146,4.146,0,0,0-1.384,1.1,5.3,5.3,0,0,0-.934,1.716,6.99,6.99,0,0,0-.341,2.259,6.211,6.211,0,0,0,.613,2.819,4.747,4.747,0,0,0,1.647,1.9,4.091,4.091,0,0,0,2.294.68,5.077,5.077,0,0,0,2.174-.5,4.408,4.408,0,0,0,1.75-1.452l.442.357a5.989,5.989,0,0,1-1.58,1.546,5.4,5.4,0,0,1-1.69.738,6.842,6.842,0,0,1-1.537.2,5.842,5.842,0,0,1-2.336-.458,5.452,5.452,0,0,1-1.834-1.283,5.742,5.742,0,0,1-1.189-1.919,6.617,6.617,0,0,1-.416-2.37,7.65,7.65,0,0,1,.365-2.344,6.43,6.43,0,0,1,1.1-2.055,5.27,5.27,0,0,1,1.844-1.461,5.83,5.83,0,0,1,2.59-.544,6.224,6.224,0,0,1,1.8.255,6.016,6.016,0,0,1,1.632.781l-.085-.917h.916v3.94Z" transform="translate(-170.33 -72.837)" fill="#fff"/>
      <path id="Path_4069" data-name="Path 4069" d="M278.093,85.065V84.5a1.257,1.257,0,0,0,.883-.3,1.149,1.149,0,0,0,.263-.731q.026-.466.026-1.061V75.078q0-.338.017-.653t.034-.569l-.612.034-.611.034v-.747h3.822v.56a1.2,1.2,0,0,0-.875.289,1.152,1.152,0,0,0-.272.73q-.025.459-.025,1.071v7.286c0,.306,0,.567-.009.781a4.432,4.432,0,0,1-.043.544l3.176-.051a2.037,2.037,0,0,0,1.622-.68,3.362,3.362,0,0,0,.552-2.157h.577l-.1,3.515Z" transform="translate(-171.041 -72.853)" fill="#fff"/>
      <path id="Path_4070" data-name="Path 4070" d="M292.311,73.736a1.2,1.2,0,0,0-.874.289,1.152,1.152,0,0,0-.273.73q-.024.459-.025,1.071v7.218c0,.306,0,.568-.009.789a4.315,4.315,0,0,1-.042.552l.612-.034.612-.034v.747h-3.822V84.5a1.261,1.261,0,0,0,.884-.3,1.143,1.143,0,0,0,.263-.731q.027-.466.026-1.061V75.078c0-.226.006-.444.016-.653s.024-.4.034-.569l-.611.034-.612.034v-.747h3.822Z" transform="translate(-171.621 -72.853)" fill="#fff"/>
      <path id="Path_4071" data-name="Path 4071" d="M303.809,85.336l-6.777-9.1q-.153-.2-.3-.4l-.3-.4h-.018l.051,7.269v.849q0,.425-.033.833l.611-.034.612-.034v.747h-3.108V84.5a1.043,1.043,0,0,0,.756-.229,1.082,1.082,0,0,0,.3-.544,2.71,2.71,0,0,0,.068-.568l.017-8.17V73.855c-.181.012-.368.023-.561.034l-.577.034v-.747h2.022l6.369,8.526c.147.193.291.385.433.577s.285.385.433.578h.016l.018-7.779c0-.226.006-.444.016-.653s.023-.4.034-.569l-.611.034-.611.034v-.747H305.8v.56a1.169,1.169,0,0,0-.867.289,1.131,1.131,0,0,0-.254.73q-.017.459-.017,1.071l-.034,9.511Z" transform="translate(-171.959 -72.853)" fill="#fff"/>
      <path id="Path_4072" data-name="Path 4072" d="M312.044,73.736a1.2,1.2,0,0,0-.875.289,1.146,1.146,0,0,0-.272.73q-.026.459-.026,1.071v7.218c0,.306,0,.568-.009.789a4.482,4.482,0,0,1-.042.552l.611-.034.613-.034v.747h-3.822V84.5a1.259,1.259,0,0,0,.883-.3,1.149,1.149,0,0,0,.263-.731q.025-.466.025-1.061V75.078q0-.338.017-.653t.034-.569l-.612.034-.611.034v-.747h3.822Z" transform="translate(-172.722 -72.853)" fill="#fff"/>
      <path id="Path_4073" data-name="Path 4073" d="M323.469,76.947a3.816,3.816,0,0,0-1.111-2.479,3.4,3.4,0,0,0-2.421-.884,3.841,3.841,0,0,0-1.69.382,4.155,4.155,0,0,0-1.384,1.1,5.3,5.3,0,0,0-.934,1.716,7.015,7.015,0,0,0-.34,2.259,6.223,6.223,0,0,0,.612,2.819,4.76,4.76,0,0,0,1.647,1.9,4.093,4.093,0,0,0,2.294.68,5.082,5.082,0,0,0,2.175-.5,4.4,4.4,0,0,0,1.749-1.452l.442.357a5.975,5.975,0,0,1-1.58,1.546,5.385,5.385,0,0,1-1.69.738,6.843,6.843,0,0,1-1.537.2,5.841,5.841,0,0,1-2.335-.458,5.457,5.457,0,0,1-1.835-1.283,5.744,5.744,0,0,1-1.189-1.919,6.618,6.618,0,0,1-.416-2.37,7.623,7.623,0,0,1,.365-2.344,6.41,6.41,0,0,1,1.1-2.055,5.274,5.274,0,0,1,1.843-1.461,5.83,5.83,0,0,1,2.59-.544,6.22,6.22,0,0,1,1.8.255,6.017,6.017,0,0,1,1.632.781l-.085-.917h.917v3.94Z" transform="translate(-173.04 -72.837)" fill="#fff"/>
      <path id="Path_4074" data-name="Path 4074" d="M333.339,76.76a4.263,4.263,0,0,0-.391-1.546,2.97,2.97,0,0,0-.985-1.189,2.776,2.776,0,0,0-1.648-.459,2.111,2.111,0,0,0-1.614.595,1.965,1.965,0,0,0-.56,1.393,1.793,1.793,0,0,0,.407,1.2,3.78,3.78,0,0,0,1.061.85q.654.365,1.384.7.646.289,1.291.62a6.817,6.817,0,0,1,1.173.755,3.29,3.29,0,0,1,.84,1.011,2.923,2.923,0,0,1,.314,1.4,3.019,3.019,0,0,1-.467,1.664,3.143,3.143,0,0,1-1.35,1.147,5.05,5.05,0,0,1-2.157.415,6.078,6.078,0,0,1-1.58-.22,4.8,4.8,0,0,1-1.443-.646l.085.73h-.884l-.1-3.617h.663a2.98,2.98,0,0,0,1.036,2.267,3.52,3.52,0,0,0,2.294.773,3.007,3.007,0,0,0,1.223-.246,2.085,2.085,0,0,0,.891-.722,2.19,2.19,0,0,0-.076-2.429,3.688,3.688,0,0,0-1.053-.883q-.646-.374-1.376-.714-.646-.289-1.274-.611a6.7,6.7,0,0,1-1.146-.739,3.264,3.264,0,0,1-.833-.993,2.887,2.887,0,0,1-.314-1.393,3.312,3.312,0,0,1,.153-.951,2.826,2.826,0,0,1,.535-.977,2.777,2.777,0,0,1,1.053-.764,4.232,4.232,0,0,1,1.707-.3,6.792,6.792,0,0,1,1.452.178,3.986,3.986,0,0,1,1.5.687l-.067-.73h.866V76.76Z" transform="translate(-173.753 -72.837)" fill="#fff"/>
      <path id="Path_4075" data-name="Path 4075" d="M164.715,112.027v-.56a1.058,1.058,0,0,0,.782-.272,2.068,2.068,0,0,0,.45-.748q.178-.474.415-1.1l3.5-9.528h.408l3.787,9.664q.136.357.306.917a2.57,2.57,0,0,1,.135.952l.579-.034.577-.034v.747h-3.889v-.56a1.063,1.063,0,0,0,.849-.289.84.84,0,0,0,.152-.646,2.94,2.94,0,0,0-.169-.679l-.594-1.6-4.417.1-.594,1.817c-.079.272-.15.488-.212.646s-.133.334-.212.527l.671-.034.653-.034v.747Zm3.126-4.4h3.923l-1.207-3.244c-.124-.351-.252-.7-.382-1.044s-.257-.694-.381-1.045h-.034q-.17.476-.347.952t-.365.968Z" transform="translate(-164.715 -74.339)" fill="#fff"/>
      <path id="Path_4076" data-name="Path 4076" d="M188.345,103.929a3.816,3.816,0,0,0-1.111-2.479,3.4,3.4,0,0,0-2.421-.884,3.828,3.828,0,0,0-1.69.382,4.146,4.146,0,0,0-1.384,1.1,5.3,5.3,0,0,0-.934,1.716,7.012,7.012,0,0,0-.34,2.259,6.2,6.2,0,0,0,.612,2.818,4.757,4.757,0,0,0,1.647,1.9,4.093,4.093,0,0,0,2.294.68,5.081,5.081,0,0,0,2.174-.5,4.4,4.4,0,0,0,1.749-1.452l.442.357a5.989,5.989,0,0,1-1.58,1.546,5.386,5.386,0,0,1-1.69.738,6.844,6.844,0,0,1-1.537.2,5.841,5.841,0,0,1-2.335-.458,5.457,5.457,0,0,1-1.835-1.283,5.738,5.738,0,0,1-1.189-1.92,6.609,6.609,0,0,1-.416-2.369,7.618,7.618,0,0,1,.365-2.344,6.424,6.424,0,0,1,1.1-2.056,5.275,5.275,0,0,1,1.843-1.46,5.83,5.83,0,0,1,2.59-.544,6.253,6.253,0,0,1,1.8.254,6.049,6.049,0,0,1,1.632.782l-.085-.917h.917v3.94Z" transform="translate(-165.501 -74.342)" fill="#fff"/>
      <path id="Path_4077" data-name="Path 4077" d="M202.9,103.929a3.817,3.817,0,0,0-1.112-2.479,3.4,3.4,0,0,0-2.42-.884,3.825,3.825,0,0,0-1.69.382,4.146,4.146,0,0,0-1.384,1.1,5.3,5.3,0,0,0-.934,1.716,7.011,7.011,0,0,0-.341,2.259,6.2,6.2,0,0,0,.613,2.818,4.757,4.757,0,0,0,1.647,1.9,4.091,4.091,0,0,0,2.293.68,5.075,5.075,0,0,0,2.174-.5,4.4,4.4,0,0,0,1.75-1.452l.442.357a5.99,5.99,0,0,1-1.58,1.546,5.4,5.4,0,0,1-1.69.738,6.844,6.844,0,0,1-1.537.2,5.845,5.845,0,0,1-2.336-.458,5.453,5.453,0,0,1-1.834-1.283,5.739,5.739,0,0,1-1.189-1.92,6.608,6.608,0,0,1-.416-2.369,7.646,7.646,0,0,1,.364-2.344,6.427,6.427,0,0,1,1.1-2.056,5.275,5.275,0,0,1,1.843-1.46,5.83,5.83,0,0,1,2.59-.544,6.253,6.253,0,0,1,1.8.254,6.048,6.048,0,0,1,1.632.782l-.085-.917h.917v3.94Z" transform="translate(-166.313 -74.342)" fill="#fff"/>
      <path id="Path_4078" data-name="Path 4078" d="M208.067,112.044v-.56a1.259,1.259,0,0,0,.883-.3,1.143,1.143,0,0,0,.262-.731q.027-.466.026-1.061v-7.337c0-.227.006-.444.016-.653s.024-.4.035-.569l-.612.034-.611.034v-.747l1.928-.034q.976-.017,1.961.016a8.265,8.265,0,0,1,2.658.382,3.012,3.012,0,0,1,1.486,1.037,2.737,2.737,0,0,1,.475,1.622,3.48,3.48,0,0,1-.245,1.349,2.907,2.907,0,0,1-.951,1.232,4.779,4.779,0,0,1-1.979.815,2.387,2.387,0,0,1,.595.612c.17.248.362.538.577.866l1.155,1.818q.289.459.561.823a2.164,2.164,0,0,0,.629.578,1.7,1.7,0,0,0,.883.212v.56h-2.14a6.08,6.08,0,0,1-.824-.883q-.331-.442-.688-1l-1.138-1.818c-.146-.238-.314-.513-.5-.824a3.486,3.486,0,0,0-.637-.789q-.272.017-.569.017t-.585-.017v3.3c0,.3,0,.568-.009.789a4.333,4.333,0,0,1-.042.552c.136-.011.272-.02.407-.025s.272-.014.408-.025.272-.017.408-.017v.747Zm3.7-5.945a5.033,5.033,0,0,0,1.639-.3,2.334,2.334,0,0,0,1.113-.867,2.716,2.716,0,0,0,.407-1.563,3.262,3.262,0,0,0-.178-1.129,1.93,1.93,0,0,0-.551-.806,2.449,2.449,0,0,0-.952-.484,5.076,5.076,0,0,0-1.359-.161,1.194,1.194,0,0,0-.874.255,1.063,1.063,0,0,0-.272.705c-.017.3-.025.653-.025,1.061v3.26l.517.034A3.887,3.887,0,0,0,211.769,106.1Z" transform="translate(-167.134 -74.356)" fill="#fff"/>
      <path id="Path_4079" data-name="Path 4079" d="M227.252,107.648a2.1,2.1,0,0,0-.2-1.071.879.879,0,0,0-.646-.391,6.159,6.159,0,0,0-1.172-.033l-1.239.05v3.889c0,.307,0,.567-.009.782a4.424,4.424,0,0,1-.042.544l3.244-.051a3.515,3.515,0,0,0,1.291-.246,1.7,1.7,0,0,0,.849-.807,3.4,3.4,0,0,0,.306-1.579h.578l-.1,3.311h-8.764v-.56a1.261,1.261,0,0,0,.884-.3,1.148,1.148,0,0,0,.262-.731q.026-.466.026-1.061V102.06c0-.227.006-.444.017-.653s.023-.4.034-.569l-.612.034-.611.034v-.747h8.169l.085,2.971h-.561a3.036,3.036,0,0,0-.3-1.519,1.517,1.517,0,0,0-.824-.7,3.282,3.282,0,0,0-1.162-.161l-1.462.034a1.5,1.5,0,0,0-.9.238.974.974,0,0,0-.331.653,8.675,8.675,0,0,0-.059,1.13v2.717l3.192.017-.119-1.461h.748v3.567Z" transform="translate(-167.874 -74.358)" fill="#fff"/>
      <path id="Path_4080" data-name="Path 4080" d="M234.509,111.486a1.262,1.262,0,0,0,.884-.3,1.154,1.154,0,0,0,.262-.731q.025-.466.025-1.061v-7.337c0-.227.006-.444.017-.653s.023-.4.034-.569l-.612.034-.611.034v-.747l4.008-.018a10.371,10.371,0,0,1,2.8.357,6.135,6.135,0,0,1,2.2,1.1,4.887,4.887,0,0,1,1.427,1.869,6.517,6.517,0,0,1,.5,2.657,6.239,6.239,0,0,1-.408,2.243,5.365,5.365,0,0,1-1.223,1.893,5.863,5.863,0,0,1-2.029,1.309,7.569,7.569,0,0,1-2.811.483h-4.467Zm2.65-1.444c0,.306,0,.566-.009.781a4.426,4.426,0,0,1-.043.544q.459.017.841.025c.254.006.47.008.645.008h.331a4.747,4.747,0,0,0,2-.408,4.513,4.513,0,0,0,1.528-1.129,5.139,5.139,0,0,0,.986-1.7,6.806,6.806,0,0,0-.238-4.909,4.162,4.162,0,0,0-1.791-1.834,6.414,6.414,0,0,0-3.074-.654,1.2,1.2,0,0,0-.875.255,1.079,1.079,0,0,0-.272.713c-.017.306-.025.663-.025,1.071Z" transform="translate(-168.609 -74.357)" fill="#fff"/>
      <path id="Path_4081" data-name="Path 4081" d="M253.53,100.718a1.2,1.2,0,0,0-.875.289,1.151,1.151,0,0,0-.272.73q-.024.459-.025,1.071v7.218c0,.3,0,.568-.009.789a4.3,4.3,0,0,1-.042.552l.612-.034.612-.034v.747h-3.822v-.56a1.261,1.261,0,0,0,.884-.3,1.149,1.149,0,0,0,.262-.731c.018-.311.026-.665.026-1.061V102.06c0-.227.006-.444.017-.653s.023-.4.034-.569l-.611.034-.612.034v-.747h3.822Z" transform="translate(-169.457 -74.358)" fill="#fff"/>
      <path id="Path_4082" data-name="Path 4082" d="M257.713,111.486a1.262,1.262,0,0,0,.884-.3,1.149,1.149,0,0,0,.262-.731q.025-.466.026-1.061v-7.337c0-.227.006-.444.017-.653s.023-.4.034-.569l-.611.034-.612.034v-.747l4.008-.018a10.366,10.366,0,0,1,2.8.357,6.135,6.135,0,0,1,2.2,1.1,4.889,4.889,0,0,1,1.427,1.869,6.518,6.518,0,0,1,.5,2.657,6.239,6.239,0,0,1-.408,2.243,5.366,5.366,0,0,1-1.223,1.893,5.862,5.862,0,0,1-2.029,1.309,7.567,7.567,0,0,1-2.81.483h-4.468Zm2.65-1.444c0,.306,0,.566-.009.781a4.434,4.434,0,0,1-.042.544q.459.017.841.025c.254.006.47.008.645.008h.331a4.747,4.747,0,0,0,2-.408,4.513,4.513,0,0,0,1.528-1.129,5.139,5.139,0,0,0,.986-1.7,6.806,6.806,0,0,0-.238-4.909,4.162,4.162,0,0,0-1.791-1.834,6.413,6.413,0,0,0-3.074-.654,1.2,1.2,0,0,0-.875.255,1.08,1.08,0,0,0-.272.713q-.025.459-.025,1.071Z" transform="translate(-169.904 -74.357)" fill="#fff"/>
      <path id="Path_4083" data-name="Path 4083" d="M271.707,112.027v-.56a1.057,1.057,0,0,0,.782-.272,2.069,2.069,0,0,0,.45-.748q.178-.474.415-1.1l3.5-9.528h.408l3.787,9.664q.136.357.306.917a2.6,2.6,0,0,1,.136.952l.578-.034.577-.034v.747h-3.889v-.56a1.063,1.063,0,0,0,.849-.289.844.844,0,0,0,.153-.646,2.991,2.991,0,0,0-.17-.679l-.594-1.6-4.417.1-.594,1.817c-.079.272-.15.488-.212.646s-.133.334-.212.527l.671-.034.653-.034v.747Zm3.126-4.4h3.923l-1.206-3.244q-.187-.527-.383-1.044t-.382-1.045h-.034q-.17.476-.347.952t-.365.968Z" transform="translate(-170.684 -74.339)" fill="#fff"/>
      <path id="Path_4084" data-name="Path 4084" d="M294.479,103.741a6.621,6.621,0,0,0-.2-1.665,1.745,1.745,0,0,0-.653-.993,2.244,2.244,0,0,0-1.351-.314h-1.443l-.017,9.257q0,.457-.009.789a4.507,4.507,0,0,1-.042.552l.705-.034.7-.034v.747h-3.992v-.56a1.2,1.2,0,0,0,.875-.306,1.217,1.217,0,0,0,.255-.738q.025-.467.026-1.045l.017-8.611-1.75.017a1.633,1.633,0,0,0-1.511.713,4.336,4.336,0,0,0-.442,2.226h-.629l.1-3.583h9.9l.1,3.583Z" transform="translate(-171.427 -74.358)" fill="#fff"/>
      <path id="Path_4085" data-name="Path 4085" d="M302.926,100.718a1.2,1.2,0,0,0-.875.289,1.146,1.146,0,0,0-.272.73q-.025.459-.025,1.071v7.218c0,.3,0,.568-.009.789a4.489,4.489,0,0,1-.042.552l.611-.034.613-.034v.747H299.1v-.56a1.259,1.259,0,0,0,.883-.3,1.149,1.149,0,0,0,.263-.731q.026-.466.026-1.061V102.06c0-.227.006-.444.016-.653s.024-.4.035-.569l-.612.034-.611.034v-.747h3.822Z" transform="translate(-172.213 -74.358)" fill="#fff"/>
      <path id="Path_4086" data-name="Path 4086" d="M312.832,112.3a6.467,6.467,0,0,1-2.769-.543,5.154,5.154,0,0,1-1.876-1.452,6.066,6.066,0,0,1-1.061-2.013,7.437,7.437,0,0,1-.341-2.209,6.96,6.96,0,0,1,.357-2.165,6.3,6.3,0,0,1,1.1-2.012,5.539,5.539,0,0,1,1.852-1.478,5.724,5.724,0,0,1,2.607-.561,6.044,6.044,0,0,1,2.7.561,5.439,5.439,0,0,1,1.878,1.485,6.582,6.582,0,0,1,1.1,2.013,6.739,6.739,0,0,1,.364,2.157,6.915,6.915,0,0,1-.357,2.149,6.365,6.365,0,0,1-1.1,2.021,5.511,5.511,0,0,1-1.843,1.487A5.716,5.716,0,0,1,312.832,112.3Zm.034-.7a3.609,3.609,0,0,0,1.834-.45,3.955,3.955,0,0,0,1.3-1.206,5.7,5.7,0,0,0,.781-1.682,6.725,6.725,0,0,0,.264-1.86,7.777,7.777,0,0,0-.289-2.089,6.651,6.651,0,0,0-.849-1.886,4.569,4.569,0,0,0-1.384-1.367,3.453,3.453,0,0,0-1.878-.518,3.6,3.6,0,0,0-1.842.459,4.034,4.034,0,0,0-1.309,1.214,5.747,5.747,0,0,0-.781,1.682,6.828,6.828,0,0,0-.263,1.877,7.811,7.811,0,0,0,.263,1.954,6.892,6.892,0,0,0,.807,1.9,4.479,4.479,0,0,0,1.376,1.427A3.519,3.519,0,0,0,312.866,111.607Z" transform="translate(-172.641 -74.342)" fill="#fff"/>
      <path id="Path_4087" data-name="Path 4087" d="M332.339,112.318l-6.778-9.1c-.1-.135-.2-.268-.3-.4l-.3-.4h-.017l.05,7.269v.849c0,.283-.01.561-.033.833l.612-.034.611-.034v.747h-3.108v-.56a1.043,1.043,0,0,0,.756-.229,1.074,1.074,0,0,0,.3-.544,2.711,2.711,0,0,0,.069-.568l.016-8.17v-1.138l-.56.034-.578.034v-.747H325.1l6.369,8.526q.221.289.433.577c.141.193.286.385.433.578h.016l.018-7.779c0-.227.006-.444.017-.653s.022-.4.034-.569l-.612.034-.611.034v-.747h3.124v.56a1.165,1.165,0,0,0-.867.289,1.137,1.137,0,0,0-.254.73q-.017.459-.017,1.071l-.034,9.511Z" transform="translate(-173.551 -74.358)" fill="#fff"/>
    </g>
    <g id="Ellipse_26" data-name="Ellipse 26" transform="translate(7761.5 3241.427)" fill="none" stroke="#fff" stroke-miterlimit="10" stroke-width="1">
      <circle cx="47.179" cy="47.179" r="47.179" stroke="none"/>
      <circle cx="47.179" cy="47.179" r="46.679" fill="none"/>
    </g>
    <g id="Ellipse_27" data-name="Ellipse 27" transform="translate(7770.936 3250.863)" fill="none" stroke="#fff" stroke-miterlimit="10" stroke-width="0.75">
      <circle cx="37.743" cy="37.743" r="37.743" stroke="none"/>
      <circle cx="37.743" cy="37.743" r="37.368" fill="none"/>
    </g>
    <g id="Ellipse_28" data-name="Ellipse 28" transform="translate(7773.295 3253.222)" fill="none" stroke="#fff" stroke-miterlimit="10" stroke-width="0.25">
      <circle cx="35.384" cy="35.384" r="35.384" stroke="none"/>
      <circle cx="35.384" cy="35.384" r="35.259" fill="none"/>
    </g>
    <path id="Path_4088" data-name="Path 4088" d="M73.252,64.487a.86.86,0,0,1-.414.256.831.831,0,0,1-.465-.02,1.213,1.213,0,0,1-.454-.279l-.033-.03a1.168,1.168,0,0,1-.3-.431.872.872,0,0,1-.048-.457.8.8,0,0,1,.207-.4,1.1,1.1,0,0,1,.294-.232.94.94,0,0,1,.292-.1l.268.251-.1.1-.225-.192a.628.628,0,0,0-.206.076.951.951,0,0,0-.217.18.61.61,0,0,0-.163.33.724.724,0,0,0,.046.382,1.012,1.012,0,0,0,.259.367l.034.032a1.122,1.122,0,0,0,.386.246.7.7,0,0,0,.388.029.671.671,0,0,0,.343-.208.92.92,0,0,0,.166-.23,1.034,1.034,0,0,0,.084-.211l-.381-.358-.281.293-.1-.091.389-.415.529.495a1.069,1.069,0,0,1-.305.612Z" transform="translate(7705.931 3196.299)" fill="#fff"/>
    <path id="Path_4089" data-name="Path 4089" d="M74.548,63.093l-.081-.086.148-.163L73.453,61.6l-.175.138-.081-.087,1.034-.971.3.315-.1.094-.214-.209-.644.6.512.546.58-.545.093.1-.581.545.566.6.674-.633-.2-.229.1-.093.3.315Z" transform="translate(7705.837 3196.417)" fill="#fff"/>
    <path id="Path_4090" data-name="Path 4090" d="M77.225,60.77a.783.783,0,0,1-.309.161.736.736,0,0,1-.33.008.971.971,0,0,1-.33-.138,1.377,1.377,0,0,1-.306-.279l-.016-.02a1.372,1.372,0,0,1-.214-.352.932.932,0,0,1-.073-.35.726.726,0,0,1,.069-.324.794.794,0,0,1,.216-.271.814.814,0,0,1,.312-.163.741.741,0,0,1,.331-.007.939.939,0,0,1,.329.141,1.411,1.411,0,0,1,.3.279l.016.02a1.409,1.409,0,0,1,.216.351.911.911,0,0,1,.075.348.732.732,0,0,1-.069.324A.817.817,0,0,1,77.225,60.77Zm-.091-.11a.605.605,0,0,0,.211-.312.654.654,0,0,0-.019-.374,1.2,1.2,0,0,0-.229-.4l-.018-.023a1.232,1.232,0,0,0-.346-.3.665.665,0,0,0-.364-.09.6.6,0,0,0-.347.146.589.589,0,0,0-.2.308.676.676,0,0,0,.017.376,1.152,1.152,0,0,0,.224.4l.019.022a1.179,1.179,0,0,0,.347.3.688.688,0,0,0,.368.088A.591.591,0,0,0,77.134,60.661Z" transform="translate(7705.701 3196.51)" fill="#fff"/>
    <path id="Path_4091" data-name="Path 4091" d="M78.8,59.475l-.069-.1.169-.144-.99-1.383-.191.114-.068-.1.677-.484a.906.906,0,0,1,.327-.158.488.488,0,0,1,.289.018.552.552,0,0,1,.233.195.5.5,0,0,1,.1.279.484.484,0,0,1-.077.274.879.879,0,0,1-.237.245l-.379.276.448.627.191-.114.069.1ZM78.508,58.4l.352-.252a.582.582,0,0,0,.251-.313.359.359,0,0,0-.065-.3.371.371,0,0,0-.274-.17.565.565,0,0,0-.364.131l-.364.262Zm1.374.3-.915-.55.131-.1.8.472.137-.085.07.1Z" transform="translate(7705.588 3196.61)" fill="#fff"/>
    <path id="Path_4092" data-name="Path 4092" d="M81.938,57.4a.845.845,0,0,1-.466.139.815.815,0,0,1-.443-.14,1.191,1.191,0,0,1-.366-.388l-.023-.037a1.138,1.138,0,0,1-.178-.495.844.844,0,0,1,.072-.452.786.786,0,0,1,.3-.335,1.109,1.109,0,0,1,.344-.149,1.006,1.006,0,0,1,.308-.017l.194.313-.119.074-.168-.245a.65.65,0,0,0-.218.022.941.941,0,0,0-.256.116.616.616,0,0,0-.244.277.726.726,0,0,0-.055.382,1,1,0,0,0,.154.422l.024.039a1.119,1.119,0,0,0,.311.339.68.68,0,0,0,.366.128.665.665,0,0,0,.384-.11,1,1,0,0,0,.222-.178,1.116,1.116,0,0,0,.135-.183l-.275-.445-.348.209-.069-.111.484-.3.38.616a1.083,1.083,0,0,1-.153.255A1.127,1.127,0,0,1,81.938,57.4Z" transform="translate(7705.432 3196.705)" fill="#fff"/>
    <path id="Path_4093" data-name="Path 4093" d="M83.545,56.428l-.058-.1.186-.122-.821-1.492-.2.091-.057-.1.531-.291.057.1L83,54.633l.819,1.492.2-.092.057.1Z" transform="translate(7705.313 3196.767)" fill="#fff"/>
    <path id="Path_4094" data-name="Path 4094" d="M85.009,55.648l-.052-.107.127-.071L84.914,53.5l.14-.067L86.481,54.8l.136-.054.05.1-.438.212-.051-.106.151-.087-.342-.33-.8.384.045.474.161-.064.051.106Zm.166-.878.7-.337-.742-.719-.059-.06-.008,0,.009.084Z" transform="translate(7705.184 3196.821)" fill="#fff"/>
    <path id="Path_4095" data-name="Path 4095" d="M87.72,54.346l-.044-.11.2-.1-.628-1.581-.211.065-.044-.111.2-.082.152-.06,1.677,1.162.007-.006-.576-1.448-.22.069-.043-.11.355-.143.206-.081.044.111-.2.1.676,1.707-.141.056-1.688-1.163-.007.006.578,1.456.221-.07.044.11Z" transform="translate(7705.068 3196.912)" fill="#fff"/>
    <path id="Path_4096" data-name="Path 4096" d="M93.034,52.557a.894.894,0,0,1-.509.01.812.812,0,0,1-.388-.26,1.23,1.23,0,0,1-.238-.472l-.007-.025a1.179,1.179,0,0,1-.039-.531.834.834,0,0,1,.195-.423.818.818,0,0,1,.406-.247.982.982,0,0,1,.353-.04.879.879,0,0,1,.294.079l.1.37-.132.037-.1-.3a.882.882,0,0,0-.142-.04.687.687,0,0,0-.154-.006.85.85,0,0,0-.186.034.65.65,0,0,0-.33.206.717.717,0,0,0-.154.357,1.1,1.1,0,0,0,.039.455l.009.027a1.1,1.1,0,0,0,.207.416.681.681,0,0,0,.324.22.728.728,0,0,0,.412,0,.882.882,0,0,0,.222-.1.64.64,0,0,0,.166-.132l-.067-.29.131-.038.107.379a.9.9,0,0,1-.229.188A1.214,1.214,0,0,1,93.034,52.557Z" transform="translate(7704.797 3196.981)" fill="#fff"/>
    <path id="Path_4097" data-name="Path 4097" d="M94.762,52.086l-.025-.115.213-.063-.36-1.664-.22.029-.025-.117.216-.046.16-.034.215-.047.026.117-.212.063.358,1.666.811-.176-.054-.314.13-.028.1.443Z" transform="translate(7704.657 3197.011)" fill="#fff"/>
    <path id="Path_4098" data-name="Path 4098" d="M97.267,51.586l-.019-.116.214-.053-.276-1.68-.221.019-.02-.118.6-.1.02.118-.216.053.278,1.68.222-.019.019.116Z" transform="translate(7704.512 3197.039)" fill="#fff"/>
    <path id="Path_4099" data-name="Path 4099" d="M98.952,51.312l-.013-.117.218-.041-.184-1.692-.221.007-.013-.119.22-.025.163-.017,1.3,1.566.008,0-.167-1.548-.232.008-.013-.119.381-.041.221-.025.011.118-.217.042.2,1.827-.15.016-1.318-1.571-.008,0,.17,1.557.231-.008.012.117Z" transform="translate(7704.413 3197.061)" fill="#fff"/>
    <path id="Path_4100" data-name="Path 4100" d="M102.016,51.039l-.006-.117.218-.03-.089-1.7-.223,0-.006-.119.6-.033.006.119-.221.029.092,1.7.221.006.007.118Z" transform="translate(7704.235 3197.067)" fill="#fff"/>
    <path id="Path_4101" data-name="Path 4101" d="M104.67,50.99a.9.9,0,0,1-.494-.127.792.792,0,0,1-.3-.354,1.238,1.238,0,0,1-.1-.519v-.026a1.208,1.208,0,0,1,.107-.52.806.806,0,0,1,.758-.484.978.978,0,0,1,.351.057.893.893,0,0,1,.261.156v.384h-.139l-.014-.315a.733.733,0,0,0-.126-.075.626.626,0,0,0-.145-.048.931.931,0,0,0-.188-.017.654.654,0,0,0-.375.11.71.71,0,0,0-.244.3,1.1,1.1,0,0,0-.084.448v.029a1.133,1.133,0,0,0,.087.457.683.683,0,0,0,.254.3.722.722,0,0,0,.4.1.92.92,0,0,0,.241-.031.734.734,0,0,0,.2-.083l.013-.3h.137v.394a.983.983,0,0,1-.272.119A1.3,1.3,0,0,1,104.67,50.99Z" transform="translate(7704.132 3197.071)" fill="#fff"/>
    <path id="Path_4102" data-name="Path 4102" d="M107.175,51.067a1.157,1.157,0,0,1-.65-.251l.022-.381.136.008,0,.309a.977.977,0,0,0,.241.126.962.962,0,0,0,.258.052.72.72,0,0,0,.275-.031.42.42,0,0,0,.187-.124.326.326,0,0,0,.076-.195.343.343,0,0,0-.041-.193.43.43,0,0,0-.161-.155,1.5,1.5,0,0,0-.31-.133,1.524,1.524,0,0,1-.344-.151.508.508,0,0,1-.19-.191.471.471,0,0,1-.049-.254.443.443,0,0,1,.094-.255.512.512,0,0,1,.23-.165.826.826,0,0,1,.332-.044.981.981,0,0,1,.351.081.855.855,0,0,1,.257.169l-.022.351-.134-.008,0-.28a.632.632,0,0,0-.2-.12.827.827,0,0,0-.262-.056.62.62,0,0,0-.252.033.393.393,0,0,0-.168.12.315.315,0,0,0-.067.18.325.325,0,0,0,.035.178.368.368,0,0,0,.145.142,1.609,1.609,0,0,0,.3.129,1.22,1.22,0,0,1,.47.251.459.459,0,0,1,.141.378.44.44,0,0,1-.1.268.57.57,0,0,1-.249.168A.9.9,0,0,1,107.175,51.067Z" transform="translate(7703.978 3197.067)" fill="#fff"/>
    <path id="Path_4103" data-name="Path 4103" d="M110.591,51.376l.02-.116.144.014.99-1.71.152.025.388,1.935.142.033-.019.116-.481-.079.02-.115.173.016-.091-.466-.872-.144-.236.414.168.04-.018.116Zm.641-.623.77.126-.2-1.014-.014-.083-.009,0-.04.075Z" transform="translate(7703.751 3197.037)" fill="#fff"/>
    <path id="Path_4104" data-name="Path 4104" d="M114.358,52.117a.9.9,0,0,1-.452-.236.805.805,0,0,1-.214-.414,1.246,1.246,0,0,1,.016-.529l.006-.025a1.221,1.221,0,0,1,.221-.483.837.837,0,0,1,.374-.278.809.809,0,0,1,.476-.022.949.949,0,0,1,.328.134.875.875,0,0,1,.219.21l-.086.374-.135-.03.058-.31a.667.667,0,0,0-.1-.1.623.623,0,0,0-.132-.08.881.881,0,0,0-.178-.058.63.63,0,0,0-.389.022.71.71,0,0,0-.306.24,1.056,1.056,0,0,0-.183.417l-.008.028a1.072,1.072,0,0,0-.016.465.663.663,0,0,0,.178.348.723.723,0,0,0,.364.193.955.955,0,0,0,.241.023.683.683,0,0,0,.21-.036l.08-.288.133.03-.088.383a.915.915,0,0,1-.292.055A1.219,1.219,0,0,1,114.358,52.117Z" transform="translate(7703.58 3197.007)" fill="#fff"/>
    <path id="Path_4105" data-name="Path 4105" d="M117.02,52.831a.893.893,0,0,1-.435-.264.8.8,0,0,1-.188-.426,1.263,1.263,0,0,1,.05-.528l.008-.025a1.23,1.23,0,0,1,.252-.468.856.856,0,0,1,.39-.253.828.828,0,0,1,.476.009.954.954,0,0,1,.32.155.832.832,0,0,1,.2.224l-.11.368-.131-.04.077-.3a.857.857,0,0,0-.1-.11.637.637,0,0,0-.127-.088,1,1,0,0,0-.175-.07.637.637,0,0,0-.389,0,.7.7,0,0,0-.321.22,1.088,1.088,0,0,0-.211.4l-.009.027a1.092,1.092,0,0,0-.045.464.67.67,0,0,0,.155.359.7.7,0,0,0,.349.214.884.884,0,0,0,.239.04.7.7,0,0,0,.212-.023l.1-.282.131.04-.113.377a.959.959,0,0,1-.295.036A1.268,1.268,0,0,1,117.02,52.831Z" transform="translate(7703.428 3196.966)" fill="#fff"/>
    <path id="Path_4106" data-name="Path 4106" d="M118.722,53.343l.042-.112.213.06.593-1.595-.2-.093.041-.11.782.29a.929.929,0,0,1,.313.183.489.489,0,0,1,.145.248.535.535,0,0,1-.03.3.473.473,0,0,1-.445.33.887.887,0,0,1-.337-.059l-.44-.16-.269.721.2.094-.042.111Zm.723-.844.405.151a.574.574,0,0,0,.4.033.358.358,0,0,0,.215-.226.373.373,0,0,0-.011-.32.572.572,0,0,0-.312-.229l-.423-.156Zm.52,1.306-.054-1.066.151.055.057.928.149.067-.042.113Z" transform="translate(7703.297 3196.93)" fill="#fff"/>
    <path id="Path_4107" data-name="Path 4107" d="M121.358,54.362l.048-.108.209.074.695-1.553-.195-.106.048-.11,1.295.58-.176.395-.127-.057.11-.278-.805-.361-.3.683.726.325-.056.124-.726-.326-.338.754.845.378.134-.27.126.057-.177.395Z" transform="translate(7703.15 3196.87)" fill="#fff"/>
    <path id="Path_4108" data-name="Path 4108" d="M123.8,55.5l.055-.1.2.088.792-1.505-.187-.119.056-.106.2.1.478.253a.774.774,0,0,1,.334.318.848.848,0,0,1,.1.444,1.1,1.1,0,0,1-.137.494l-.015.029a1.126,1.126,0,0,1-.327.393.858.858,0,0,1-.426.166.776.776,0,0,1-.448-.094Zm.4.059.336.178a.607.607,0,0,0,.37.07.745.745,0,0,0,.354-.152,1.015,1.015,0,0,0,.276-.335l.015-.032a.983.983,0,0,0,.121-.417.711.711,0,0,0-.076-.375.605.605,0,0,0-.268-.264L125,54.049Z" transform="translate(7703.014 3196.804)" fill="#fff"/>
    <path id="Path_4109" data-name="Path 4109" d="M126.257,56.838l.059-.1.2.1.87-1.462-.179-.128.059-.1.52.31-.06.1-.2-.1-.871,1.463.181.128-.06.1Z" transform="translate(7702.877 3196.726)" fill="#fff"/>
    <path id="Path_4110" data-name="Path 4110" d="M127.744,57.744l.066-.1.194.108.946-1.414-.174-.137.066-.1.183.123.451.3a.8.8,0,0,1,.3.351.868.868,0,0,1,.058.453,1.092,1.092,0,0,1-.189.476l-.018.027a1.094,1.094,0,0,1-.367.355.843.843,0,0,1-.439.122.777.777,0,0,1-.436-.141Zm.395.1.314.212a.607.607,0,0,0,.361.109.741.741,0,0,0,.368-.114,1,1,0,0,0,.31-.3l.02-.029a1.012,1.012,0,0,0,.165-.4.727.727,0,0,0-.038-.381.611.611,0,0,0-.238-.291l-.317-.211Z" transform="translate(7702.794 3196.672)" fill="#fff"/>
    <path id="Path_4111" data-name="Path 4111" d="M129.941,59.279l.071-.093.122.08,1.678-1.041.124.094-.571,1.889.11.1-.073.093-.385-.3.071-.093.145.1.141-.454-.7-.538-.4.254.13.115-.071.094Zm.859-.247.618.473.306-.987.028-.079-.007,0-.072.046Z" transform="translate(7702.67 3196.554)" fill="#fff"/>
    <path id="Path_4112" data-name="Path 4112" d="M132.505,61.271l.076-.09.179.131,1.115-1.29-.418-.363-.211.216-.1-.087.283-.329,1.189,1.029-.284.328-.1-.086.183-.24L134,60.13l-1.116,1.29.156.158-.077.09Z" transform="translate(7702.529 3196.485)" fill="#fff"/>
    <path id="Path_4113" data-name="Path 4113" d="M134.175,62.794l.081-.085.172.14,1.178-1.227-.147-.166.082-.086.436.419-.082.086-.172-.141-1.178,1.227.147.165-.082.085Z" transform="translate(7702.436 3196.379)" fill="#fff"/>
    <path id="Path_4114" data-name="Path 4114" d="M135.974,64.648a.775.775,0,0,1-.178-.3.731.731,0,0,1-.028-.33.921.921,0,0,1,.117-.338,1.315,1.315,0,0,1,.259-.321l.019-.018a1.363,1.363,0,0,1,.337-.238.957.957,0,0,1,.346-.094.738.738,0,0,1,.328.049.776.776,0,0,1,.284.2.787.787,0,0,1,.183.3.763.763,0,0,1,.027.33.937.937,0,0,1-.12.336,1.448,1.448,0,0,1-.26.32l-.019.018a1.432,1.432,0,0,1-.337.238.95.95,0,0,1-.343.1.756.756,0,0,1-.328-.05A.8.8,0,0,1,135.974,64.648Zm.1-.1a.6.6,0,0,0,.325.191.662.662,0,0,0,.372-.042,1.235,1.235,0,0,0,.381-.253l.022-.019a1.238,1.238,0,0,0,.276-.364.683.683,0,0,0,.066-.369.646.646,0,0,0-.487-.521.688.688,0,0,0-.375.041,1.155,1.155,0,0,0-.382.249l-.021.02a1.2,1.2,0,0,0-.277.365.676.676,0,0,0-.063.372A.581.581,0,0,0,136.079,64.552Z" transform="translate(7702.346 3196.287)" fill="#fff"/>
    <path id="Path_4115" data-name="Path 4115" d="M137.328,66.111l.092-.075.153.161,1.321-1.073-.126-.183.092-.075.141.172.1.127-.605,1.946.007,0,1.21-.983-.132-.19.093-.076.241.3.14.173-.093.075-.154-.161-1.425,1.159-.1-.118.6-1.959-.008,0-1.216.988.132.19-.092.075Z" transform="translate(7702.259 3196.184)" fill="#fff"/>
    <path id="Path_4116" data-name="Path 4116" d="M68.765,118.811l.076-.053a.516.516,0,0,1-.16.608l-.855.592a.528.528,0,0,1-.78-.176c-.227-.327-.209-.628,0-.771a.545.545,0,0,1,.332-.09l.09.128a.75.75,0,0,0-.294.107.377.377,0,0,0-.073.585.387.387,0,0,0,.539.139l.582-.4a.446.446,0,0,0,.031-.59c-.136-.2-.288-.21-.406-.127a.34.34,0,0,0-.091.1l-.1-.144a.384.384,0,0,1,.091-.093c.179-.124.418.015.55.2a.689.689,0,0,1,.122.511l.218-.152A.368.368,0,0,0,68.765,118.811Z" transform="translate(7706.189 3193.187)" fill="#fff"/>
    <path id="Path_4117" data-name="Path 4117" d="M68.578,121.867a.56.56,0,0,1,.049-.807.654.654,0,0,1,.417-.125l.089.113a.772.772,0,0,0-.375.153.459.459,0,0,0-.093.667.36.36,0,0,0,.53.088l.439-.342c.313-.243.051-.9.325-1.115a.643.643,0,0,1,.091-.052l.088.113-.041.033c-.351.272-.017.889-.36,1.156l-.366.285A.555.555,0,0,1,68.578,121.867Z" transform="translate(7706.104 3193.083)" fill="#fff"/>
    <path id="Path_4118" data-name="Path 4118" d="M70.26,123.137l.364-.325c.591-.526,1.343.54,1.628.285l.128.144-.036.031c-.364.325-.944-.915-1.605-.328a.545.545,0,0,1,.427.19.5.5,0,0,1,.085.568.524.524,0,0,1,.568.166.612.612,0,0,1-.048.851.593.593,0,0,1-.774.042l.062-.058a.38.38,0,0,0,.449-.008l.225-.2a.415.415,0,0,0-.551-.619l-.244.217-.114-.129.245-.219a.392.392,0,0,0,.049-.563.429.429,0,0,0-.594-.048l-.232.207a.377.377,0,0,0-.064.44l-.057.052A.52.52,0,0,1,70.26,123.137Z" transform="translate(7706.012 3192.959)" fill="#fff"/>
    <path id="Path_4119" data-name="Path 4119" d="M72.841,125.718l.5-.53a.635.635,0,0,1,1.1.548.546.546,0,0,1,.573.128.591.591,0,0,1-.033.889l-.5.53a.59.59,0,0,1-.886.076l-.024-.022.047-.049.025.024a.427.427,0,0,0,.621-.047l.692-.727a.419.419,0,1,0-.6-.575l-.6.629a.633.633,0,1,1-.914-.873Zm.7.855.692-.727a.462.462,0,0,0-.669-.638l-.693.728a.462.462,0,0,0,.669.637Z" transform="translate(7705.869 3192.831)" fill="#fff"/>
    <path id="Path_4120" data-name="Path 4120" d="M75.981,128.673a.647.647,0,0,1,.365-.211l.114.094a.993.993,0,0,0-.339.248.479.479,0,0,0,.094.682.445.445,0,0,0,.653-.073l.736-.917a.282.282,0,0,0-.042-.393.285.285,0,0,0-.4.04l-.28.347-.131-.107.3-.379c.1-.121.112-.218.051-.267-.167-.133-.527.295-.838.045a.241.241,0,0,1-.05-.366.407.407,0,0,1,.363-.144l.194.156a.53.53,0,0,0-.5.127.092.092,0,0,0,.014.145c.18.145.574-.245.807-.057a.283.283,0,0,1,.091.351.385.385,0,0,1,.409.05.435.435,0,0,1,.073.642l-.649.805a.566.566,0,0,1-.847.048A.632.632,0,0,1,75.981,128.673Z" transform="translate(7705.688 3192.702)" fill="#fff"/>
    <path id="Path_4121" data-name="Path 4121" d="M78.714,130.642a2.381,2.381,0,0,0-.523-.273l.079-.117.482.324a.775.775,0,0,1-.026-.9.555.555,0,0,1,.788-.164.45.45,0,0,1,.206.514.464.464,0,0,1,.723.5.468.468,0,0,1,.559-.015.529.529,0,0,1,.157.755.629.629,0,0,1-.8.2l.044-.066a.4.4,0,0,0,.506-.112l.148-.221a.366.366,0,1,0-.607-.409l-.152.226-.14-.094.159-.237a.352.352,0,1,0-.584-.393l-.159.237-.141-.094.146-.218a.374.374,0,1,0-.621-.418l-.143.214c-.239.353.114.739.484,1.136.546.581.695.866.576,1.18l-.195-.13C79.884,131.728,79.324,131.051,78.714,130.642Z" transform="translate(7705.559 3192.583)" fill="#fff"/>
    <path id="Path_4122" data-name="Path 4122" d="M81.928,132.8l.4-.707a.634.634,0,1,1,1.1.619l-.389.693a.6.6,0,0,1-.651.328l.042-.074a.435.435,0,0,0,.393-.218l.523-.931a.463.463,0,1,0-.807-.452l-.53.944a.416.416,0,0,0-.008.4l-.049.086A.594.594,0,0,1,81.928,132.8Z" transform="translate(7705.356 3192.453)" fill="#fff"/>
    <path id="Path_4123" data-name="Path 4123" d="M87.441,134.009l.026-.066c.278.157.364.375.28.564a.424.424,0,0,1-.47.25.374.374,0,0,1,.177.489l-.142.33a.534.534,0,0,1-.742.222c-.369-.159-.495-.448-.372-.73a.812.812,0,0,1,.263-.315l.153.066a1.047,1.047,0,0,0-.231.307.435.435,0,0,0,.22.613.387.387,0,0,0,.529-.17l.18-.418a.285.285,0,0,0-.168-.411l-.172-.074.026-.058.166.073a.285.285,0,0,0,.382-.175l.053-.122C87.674,134.207,87.573,134.093,87.441,134.009Z" transform="translate(7705.114 3192.33)" fill="#fff"/>
    <path id="Path_4124" data-name="Path 4124" d="M89.261,136.131A2.382,2.382,0,0,0,88.68,136l.046-.134.553.186a.773.773,0,0,1-.263-.86.556.556,0,0,1,.72-.368.452.452,0,0,1,.335.443.466.466,0,0,1,.834.3.47.47,0,0,1,.539-.162.531.531,0,0,1,.351.689.629.629,0,0,1-.72.41l.025-.075a.4.4,0,0,0,.46-.244l.084-.253a.367.367,0,1,0-.7-.234l-.087.258L90.7,135.9l.092-.27a.353.353,0,1,0-.669-.227l-.091.271-.161-.053.083-.251a.377.377,0,0,0-.237-.478.374.374,0,0,0-.474.239l-.083.244c-.137.406.308.688.77.972.683.42.9.656.871.992l-.224-.076C90.682,136.872,89.96,136.366,89.261,136.131Z" transform="translate(7704.974 3192.282)" fill="#fff"/>
    <path id="Path_4125" data-name="Path 4125" d="M92.943,137.377l.2-.784a.631.631,0,1,1,1.222.308l-.193.767a.592.592,0,0,1-.538.485l.021-.082a.432.432,0,0,0,.32-.313l.26-1.031a.461.461,0,0,0-.894-.225l-.262,1.048a.413.413,0,0,0,.1.385l-.025.1A.591.591,0,0,1,92.943,137.377Z" transform="translate(7704.737 3192.21)" fill="#fff"/>
    <path id="Path_4126" data-name="Path 4126" d="M95.524,137.954l.177-.931a.431.431,0,0,1,.551-.382l.7.134-.126.1c-.374-.033-.371-.127-.568-.165a.274.274,0,0,0-.373.241l-.124.655a.53.53,0,0,1,.479-.12.6.6,0,0,1,.495.7.617.617,0,0,1-1.212-.23Zm1,.305.038-.2a.435.435,0,0,0-.852-.178l-.041.214a.435.435,0,0,0,.855.162Z" transform="translate(7704.592 3192.18)" fill="#fff"/>
    <path id="Path_4127" data-name="Path 4127" d="M98.125,138.438l.1-.8a.633.633,0,1,1,1.253.164l-.1.787a.6.6,0,0,1-.48.545l.011-.085a.431.431,0,0,0,.282-.348l.139-1.056a.461.461,0,0,0-.915-.12l-.142,1.074a.417.417,0,0,0,.143.372l-.013.1A.592.592,0,0,1,98.125,138.438Z" transform="translate(7704.447 3192.156)" fill="#fff"/>
    <path id="Path_4128" data-name="Path 4128" d="M101.544,137.387l0-.071c.314.056.465.233.451.441a.424.424,0,0,1-.362.392.373.373,0,0,1,.33.4l-.025.359a.534.534,0,0,1-.627.456c-.4-.028-.615-.259-.594-.566a.819.819,0,0,1,.143-.385l.167.011a1.041,1.041,0,0,0-.116.367.434.434,0,0,0,.41.5.386.386,0,0,0,.443-.336l.032-.453a.285.285,0,0,0-.295-.333l-.186-.012,0-.062.18.012a.283.283,0,0,0,.3-.291l.009-.132C101.831,137.5,101.7,137.424,101.544,137.387Z" transform="translate(7704.301 3192.141)" fill="#fff"/>
    <path id="Path_4129" data-name="Path 4129" d="M103.532,138.955a.423.423,0,0,0,.419.458.4.4,0,0,0,.412-.433l.017-1.135a.361.361,0,0,0-.389-.36.338.338,0,0,0-.38.312.459.459,0,0,0,.034.179l-.195,0a.3.3,0,0,1-.008-.088.5.5,0,0,1,.554-.468.511.511,0,0,1,.551.5l-.015,1.026a.526.526,0,0,1-.586.536.552.552,0,0,1-.607-.559.867.867,0,0,1,.214-.542l.154,0A1.184,1.184,0,0,0,103.532,138.955Z" transform="translate(7704.155 3192.136)" fill="#fff"/>
    <path id="Path_4130" data-name="Path 4130" d="M105.962,138.866a.626.626,0,0,1,.621-.635l-.016-.353c-.007-.15-.17-.194-.308-.218a.479.479,0,0,1-.387.333l0-.06a.34.34,0,0,0,.245-.321.416.416,0,0,0-.072-.19l.188-.008a.5.5,0,0,1,.031.129c.244.042.465.134.477.368l.016.334a.608.608,0,0,1,.5.558.647.647,0,0,1-1.29.061Zm1.1.029-.008-.163a.453.453,0,1,0-.9.042l.008.164a.453.453,0,0,0,.9-.043Z" transform="translate(7704.015 3192.136)" fill="#fff"/>
    <path id="Path_4131" data-name="Path 4131" d="M108.656,138.72l-.086-.805a.632.632,0,1,1,1.255-.133l.084.787a.6.6,0,0,1-.338.643l-.009-.085a.432.432,0,0,0,.193-.4l-.112-1.058a.461.461,0,1,0-.918.1l.116,1.075a.414.414,0,0,0,.225.329l.011.1A.591.591,0,0,1,108.656,138.72Z" transform="translate(7703.864 3192.149)" fill="#fff"/>
    <path id="Path_4132" data-name="Path 4132" d="M112.221,137.954a.528.528,0,0,1,.16-.406l.15-.025c-.16.161-.209.253-.2.323.024.137.3.166.34.427.051.311-.219.533-.526.585a.555.555,0,0,1-.7-.434l-.184-1.094a.338.338,0,0,0-.294-.286l-.014-.079a.449.449,0,0,1,.477.341l.2,1.2a.407.407,0,0,0,.495.292.4.4,0,0,0,.367-.432C112.45,138.1,112.249,138.123,112.221,137.954Z" transform="translate(7703.731 3192.161)" fill="#fff"/>
    <path id="Path_4133" data-name="Path 4133" d="M116.865,137.807a.561.561,0,0,1-.728-.352.661.661,0,0,1,.043-.435l.139-.039a.774.774,0,0,0,0,.405.46.46,0,0,0,.581.341.362.362,0,0,0,.285-.457l-.149-.537c-.106-.381-.816-.391-.908-.725a.412.412,0,0,1-.014-.1l.138-.039.015.052c.119.428.817.354.934.774l.125.448A.559.559,0,0,1,116.865,137.807Z" transform="translate(7703.443 3192.223)" fill="#fff"/>
    <path id="Path_4134" data-name="Path 4134" d="M118.8,135.111l-.025-.068c.312-.07.521.034.588.229a.425.425,0,0,1-.181.5.374.374,0,0,1,.46.244l.117.339a.533.533,0,0,1-.4.664.541.541,0,0,1-.766-.29.809.809,0,0,1-.018-.41l.158-.054a1.082,1.082,0,0,0,.035.381.436.436,0,0,0,.575.307.387.387,0,0,0,.279-.482l-.148-.431a.285.285,0,0,0-.4-.192l-.177.06-.019-.059.17-.059a.284.284,0,0,0,.167-.386l-.043-.126C119.109,135.1,118.958,135.083,118.8,135.111Z" transform="translate(7703.307 3192.27)" fill="#fff"/>
    <path id="Path_4135" data-name="Path 4135" d="M121.08,135.818l-.19-.449c-.308-.728.943-1.1.794-1.448l.178-.075.019.044c.19.449-1.172.6-.828,1.414a.544.544,0,0,1,.317-.344.5.5,0,0,1,.566.1.521.521,0,0,1,.34-.484.61.61,0,0,1,.788.318.59.59,0,0,1-.21.747l-.032-.078a.379.379,0,0,0,.136-.427l-.117-.276a.413.413,0,1,0-.761.321l.126.3-.16.067-.127-.3a.393.393,0,0,0-.518-.228.428.428,0,0,0-.236.547l.121.286a.375.375,0,0,0,.4.2l.03.071A.52.52,0,0,1,121.08,135.818Z" transform="translate(7703.179 3192.335)" fill="#fff"/>
    <path id="Path_4136" data-name="Path 4136" d="M124.537,134.287a.424.424,0,0,0,.585.209.4.4,0,0,0,.16-.575l-.515-1.011a.362.362,0,0,0-.513-.136.337.337,0,0,0-.189.453.447.447,0,0,0,.113.143l-.174.089a.342.342,0,0,1-.047-.075.5.5,0,0,1,.271-.672.509.509,0,0,1,.721.184l.466.915a.526.526,0,0,1-.267.748.553.553,0,0,1-.8-.21.868.868,0,0,1-.063-.579l.136-.071A1.2,1.2,0,0,0,124.537,134.287Z" transform="translate(7703.008 3192.403)" fill="#fff"/>
    <path id="Path_4137" data-name="Path 4137" d="M126.53,132.894a1.091,1.091,0,0,1-.121-.592l.13-.079a1.216,1.216,0,0,0,.151.571.856.856,0,0,0,1.483-.81.566.566,0,0,0-.828-.127c-.185.11-.33.282-.222.462a.335.335,0,0,0,.378.129l-.007.079c-.212.085-.423.078-.517-.079s0-.349.147-.485a.4.4,0,0,1-.448-.15.438.438,0,0,1,.214-.576.443.443,0,0,1,.612.082.376.376,0,0,1-.043.416.684.684,0,0,1,.885.166c.242.4-.042.888-.482,1.149A.932.932,0,0,1,126.53,132.894Zm.828-1.488a.312.312,0,1,0-.535.321.285.285,0,0,0,.427.109A.288.288,0,0,0,127.358,131.406Z" transform="translate(7702.869 3192.485)" fill="#fff"/>
    <path id="Path_4138" data-name="Path 4138" d="M129.61,131.26l-.46-.664a.632.632,0,1,1,1.037-.719l.45.651a.6.6,0,0,1,.009.725l-.048-.07a.434.434,0,0,0-.025-.449l-.6-.872a.461.461,0,1,0-.758.524l.614.888a.416.416,0,0,0,.355.18l.057.081A.589.589,0,0,1,129.61,131.26Z" transform="translate(7702.723 3192.573)" fill="#fff"/>
    <path id="Path_4139" data-name="Path 4139" d="M131.953,129.371a1.95,1.95,0,0,0-.241.246l-.069-.085.3-.241a.69.69,0,0,1-.626-.211l-.093-.116a.552.552,0,0,1,.084-.793.515.515,0,0,1,.5-.089.652.652,0,0,1,.246-.513.628.628,0,0,1,.883.071.615.615,0,0,1-.129.867.628.628,0,0,1-.877-.059.542.542,0,0,1-.1-.2.335.335,0,0,0-.477-.026.366.366,0,0,0-.056.534l.208.261c.426.529,1.575-.5,1.986.011l-.15.121C133.142,128.9,132.342,129.058,131.953,129.371Zm.889-1.548-.1-.126a.452.452,0,1,0-.7.566l.1.127a.453.453,0,0,0,.706-.567Z" transform="translate(7702.607 3192.694)" fill="#fff"/>
    <path id="Path_4140" data-name="Path 4140" d="M135.4,127.443a.561.561,0,0,1-.808.018.662.662,0,0,1-.159-.407l.106-.1a.767.767,0,0,0,.183.362.459.459,0,0,0,.671.039.362.362,0,0,0,.044-.537l-.376-.41c-.267-.29-.9.025-1.138-.23a.518.518,0,0,1-.06-.089l.107-.1.036.04c.3.327.888-.056,1.182.264l.313.341A.557.557,0,0,1,135.4,127.443Z" transform="translate(7702.453 3192.773)" fill="#fff"/>
    <path id="Path_4141" data-name="Path 4141" d="M136.962,124.235a.507.507,0,0,1,.65.059.755.755,0,0,1-.1,1.044.975.975,0,0,1-1.441-.044,1.467,1.467,0,0,1-.422-.959l.1-.1a1.465,1.465,0,0,0,.474.933c.369.352.877.512,1.235.136a.6.6,0,0,0,.021-.877.455.455,0,0,0-.668,0l-.079.081-.042-.041.177-.185a.259.259,0,0,0,0-.382c-.248-.237-.576.257-.818.027l.118-.124.006.007c.2.2.6-.264.837-.04C137.088,123.857,137.149,124.022,136.962,124.235Z" transform="translate(7702.354 3192.901)" fill="#fff"/>
    <path id="Path_4142" data-name="Path 4142" d="M138.6,123.284l-.618-.52a.631.631,0,1,1,.811-.965l.605.509a.593.593,0,0,1,.2.7l-.065-.054a.433.433,0,0,0-.142-.426l-.814-.684a.461.461,0,0,0-.593.705l.827.695a.413.413,0,0,0,.39.08l.076.064A.593.593,0,0,1,138.6,123.284Z" transform="translate(7702.237 3193.017)" fill="#fff"/>
    <path id="Path_4143" data-name="Path 4143" d="M141.1,121.1a.561.561,0,0,1-.791.172.669.669,0,0,1-.234-.369l.086-.116a.76.76,0,0,0,.249.321.462.462,0,0,0,.669-.091.362.362,0,0,0-.06-.536l-.448-.33c-.32-.236-.885.2-1.165-.01a.71.71,0,0,1-.076-.074l.086-.117.043.032c.358.263.863-.225,1.213.033l.374.277A.556.556,0,0,1,141.1,121.1Z" transform="translate(7702.148 3193.111)" fill="#fff"/>
    <path id="Path_4144" data-name="Path 4144" d="M60.276,79.631l1.3-.207.568-1.189.6,1.173,1.306.172-.931.932.241,1.3-1.174-.6-1.157.629.2-1.3Z" transform="translate(7706.558 3195.438)" fill="none" stroke="#fff" stroke-miterlimit="10" stroke-width="0.25"/>
    <path id="Path_4145" data-name="Path 4145" d="M58.809,85.862l1.26-.386.4-1.257.756,1.079,1.317-.012-.792,1.053.419,1.249-1.246-.428-1.058.784.021-1.318Z" transform="translate(7706.64 3195.104)" fill="none" stroke="#fff" stroke-miterlimit="10" stroke-width="0.25"/>
    <path id="Path_4146" data-name="Path 4146" d="M58.2,92.225l1.193-.558.218-1.3.9.963,1.3-.2-.638,1.153.588,1.179-1.293-.25-.939.924-.163-1.308Z" transform="translate(7706.674 3194.761)" fill="none" stroke="#fff" stroke-miterlimit="10" stroke-width="0.25"/>
    <path id="Path_4147" data-name="Path 4147" d="M58.509,98.617l1.1-.719.035-1.317,1.024.828,1.263-.374-.471,1.231.747,1.086L60.9,99.283l-.8,1.046-.343-1.272Z" transform="translate(7706.657 3194.414)" fill="none" stroke="#fff" stroke-miterlimit="10" stroke-width="0.25"/>
    <path id="Path_4148" data-name="Path 4148" d="M59.707,104.914l.993-.865-.148-1.309,1.129.678,1.2-.547-.3,1.284.891.971-1.312.116-.648,1.147L61,105.177Z" transform="translate(7706.59 3194.071)" fill="none" stroke="#fff" stroke-miterlimit="10" stroke-width="0.25"/>
    <path id="Path_4149" data-name="Path 4149" d="M148.68,80.467l-1.3-.2-.572-1.187-.594,1.175-1.305.176.934.929-.236,1.3,1.172-.6,1.159.625-.209-1.3Z" transform="translate(7701.836 3195.391)" fill="none" stroke="#fff" stroke-miterlimit="10" stroke-width="0.25"/>
    <path id="Path_4150" data-name="Path 4150" d="M150.172,86.692l-1.261-.382-.4-1.255-.752,1.081-1.317-.007.8,1.05-.414,1.251L148.066,88l1.061.78-.025-1.318Z" transform="translate(7701.75 3195.057)" fill="none" stroke="#fff" stroke-miterlimit="10" stroke-width="0.25"/>
    <path id="Path_4151" data-name="Path 4151" d="M150.806,93.054l-1.2-.554-.223-1.3-.9.966-1.3-.19.642,1.151-.584,1.181,1.292-.255.942.921.158-1.308Z" transform="translate(7701.709 3194.714)" fill="none" stroke="#fff" stroke-miterlimit="10" stroke-width="0.25"/>
    <path id="Path_4152" data-name="Path 4152" d="M150.519,99.446l-1.107-.715-.04-1.317-1.021.832-1.264-.37.476,1.229-.743,1.088,1.315-.072.8,1.043.339-1.274Z" transform="translate(7701.73 3194.368)" fill="none" stroke="#fff" stroke-miterlimit="10" stroke-width="0.25"/>
    <path id="Path_4153" data-name="Path 4153" d="M149.339,105.748l-1-.862.144-1.31-1.127.682-1.2-.542.3,1.283-.887.974,1.313.111.652,1.145.513-1.214Z" transform="translate(7701.8 3194.024)" fill="none" stroke="#fff" stroke-miterlimit="10" stroke-width="0.25"/>
    <path id="Path_4154" data-name="Path 4154" d="M127.352,76.234a3.238,3.238,0,0,1-1.244.913c-1.066.482-1.2,2.819-3.276,2.882a3.88,3.88,0,0,0-3.279,1.575,7.357,7.357,0,0,1-2.11-2.795,4.724,4.724,0,0,1,.046-2.558Z" transform="translate(7703.377 3195.549)" fill="#fff"/>
    <g id="Path_4155" data-name="Path 4155" transform="translate(7703.521 3193.496)" stroke-miterlimit="10">
      <path d="M115.03,124.788h-.208s-.058-4.825-.07-5.829c-.012-.963-.049-5.079-.049-5.918h.307c-.009,2.681,0,5.363.01,7.4Z" stroke="none"/>
      <path d="M 115.0297012329102 124.7878875732422 L 114.8219680786133 124.7878875732422 C 114.8219680786133 124.7878875732422 114.7643814086914 119.9629974365234 114.7520751953125 118.9592971801758 C 114.7398071289062 117.9961853027344 114.702995300293 113.8804016113281 114.702995300293 113.0410003662109 L 115.0098648071289 113.0410003662109 C 115.0004119873047 115.7216033935547 115.0098648071289 118.4040908813477 115.0202484130859 120.4426422119141 L 115.0297012329102 124.7878875732422 Z" stroke="none" fill="#fff"/>
    </g>
    <path id="Path_4156" data-name="Path 4156" d="M101.708,71.2a6.328,6.328,0,0,1-1.224-2.528,5.809,5.809,0,0,1-.008-2.914,4.174,4.174,0,0,1,1.88-2.373,5.731,5.731,0,0,1,5.8.043,4.176,4.176,0,0,1,1.85,2.4,5.568,5.568,0,0,1-.1,2.916,6.765,6.765,0,0,1-1.274,2.5,8.387,8.387,0,0,0,.77-2.6,5.428,5.428,0,0,0-.189-2.554,4.533,4.533,0,0,0-7.958-.056,5.728,5.728,0,0,0-.271,2.555A7.69,7.69,0,0,0,101.708,71.2Z" transform="translate(7704.325 3196.309)" fill="#fff"/>
    <path id="Path_4157" data-name="Path 4157" d="M101.865,69.613c-.008-3.738,4.538-4.829,6.2-2.317" transform="translate(7704.238 3196.124)" fill="none" stroke="#fff" stroke-miterlimit="10" stroke-width="0.5"/>
    <g id="Path_4158" data-name="Path 4158" transform="translate(7704.585 3193.449)" fill="#fff" stroke-miterlimit="10">
      <path d="M95.929,113.882c-.094,5.146-.04,10.934-.04,10.934h-.253s.028-5.646.028-10.934Z" stroke="none"/>
      <path d="M 95.66432189941406 113.8820037841797 L 95.92868804931641 113.8820037841797 C 95.83428192138672 119.027946472168 95.8890380859375 124.8159027099609 95.8890380859375 124.8159027099609 L 95.63599395751953 124.8159027099609 C 95.63599395751953 124.8159027099609 95.66432189941406 119.1695404052734 95.66432189941406 113.8820037841797 Z" stroke="none" fill="#fff"/>
    </g>
    <g id="Path_4159" data-name="Path 4159" transform="translate(7705.132 3195.626)" fill="#fff" stroke-miterlimit="10">
      <path d="M102.293,75.353c0,.028-.009.047-.009.076a7.793,7.793,0,0,0-.066,1.473c.019,3.258-.6,3.078-1.3,3.456A5.613,5.613,0,0,0,98.431,81.9a2.633,2.633,0,0,0-2.021-.113c-1.851.34-2.087,1.973-2.483,3.833a9.582,9.582,0,0,1-2.03,4.06,9.551,9.551,0,0,0-2.266,4.542,5.424,5.424,0,0,0-2.644,3.909c-.378,1.549.009,8.451.009,8.451s-.585,3.3-.708,4.249c-.17,1.539.878,1.785,1.5,1.785,1.218,0,1.605-.368,1.662-1.142a16.63,16.63,0,0,0-.585-4.749c.009-1.237,3.248-8.781,2.351-9.461a46.971,46.971,0,0,0,5.2-7.119c.727-1.048.378-3.862.321-4.306a59.848,59.848,0,0,1,1.284,7.336,14.778,14.778,0,0,1-.179,4.91v.009a10.454,10.454,0,0,1-.434,1.058c-.009.019-.009.028-.019.047a23.088,23.088,0,0,1-1.01,2.276c-.736,1.426-.765,2.927-.85,5.033-.019.463-.038.973-.057,1.52h-.368c0-.538-.009-1.058-.009-1.548-.019-4.513,1.218-5.9,1.992-7.629a3.441,3.441,0,0,0,.132-.33,6.554,6.554,0,0,0,.453-2.483,25.679,25.679,0,0,0-.425-6.175c-.009-.094-.161-.1-.208-.019-.651,1.416-4.438,6.288-5,7.516-.009,0-.009,0-.009.009a12.04,12.04,0,0,1-1.01,3.89c-.472,1.246-1.4,4.9-1.473,5.193a.1.1,0,0,0-.009.047,36.665,36.665,0,0,1,.453,4.457v.255a2.169,2.169,0,0,1-.028.245,1.8,1.8,0,0,1-1.9,1.464h-.482a1.66,1.66,0,0,1-1.737-1.237c-.009-.132-.019-.274-.019-.434a27.2,27.2,0,0,1,.614-4.778V99.95a8.544,8.544,0,0,1,2.512-6.506c.009-.009.009-.009.009-.028a27.167,27.167,0,0,1,3-5.033,7.125,7.125,0,0,0,1.218-2.918,6.385,6.385,0,0,1,1.907-3.758A5.224,5.224,0,0,1,98,81.056a.981.981,0,0,0,.33-.066l2.313-1.133a1.946,1.946,0,0,0,1.114-1.747l.028-3.248S102.114,75.192,102.293,75.353Z" stroke="none"/>
      <path d="M 101.7830963134766 74.86199951171875 C 101.7830963134766 74.86199951171875 102.1135711669922 75.19246673583984 102.2929534912109 75.35298919677734 C 102.2929534912109 75.38131713867188 102.2835464477539 75.40020751953125 102.2835464477539 75.42852783203125 C 102.2268600463867 75.83454132080078 102.189094543457 76.32551574707031 102.2174224853516 76.90148162841797 C 102.2363204956055 80.15901184082031 101.613151550293 79.97960662841797 100.914421081543 80.35727691650391 C 100.2912521362305 80.68775177001953 99.31871032714844 80.81050109863281 98.43115997314453 81.89633941650391 C 98.06703186035156 81.69693756103516 97.73468017578125 81.63285827636719 97.42509460449219 81.63285827636719 C 97.06035614013672 81.63285827636719 96.72720336914062 81.72174835205078 96.41054534912109 81.78302764892578 C 94.55989074707031 82.12296295166016 94.32384490966797 83.75643920898438 93.92728424072266 85.61651611328125 C 93.5118408203125 87.48604583740234 92.37879180908203 89.23282623291016 91.89723205566406 89.67662048339844 C 91.41570281982422 90.11093139648438 89.95217132568359 92.1409912109375 89.63115692138672 94.21824645996094 C 87.95044708251953 95.13413238525391 87.36505126953125 96.56932067871094 86.98736572265625 98.12726593017578 C 86.60966491699219 99.67576599121094 86.99681091308594 106.5779266357422 86.99681091308594 106.5779266357422 C 86.99681091308594 106.5779266357422 86.41139221191406 109.8826370239258 86.28866577148438 110.8268661499023 C 86.11869049072266 112.3659210205078 87.16677093505859 112.6114120483398 87.78993988037109 112.6114120483398 C 89.00798034667969 112.6114120483398 89.39510345458984 112.2431869506836 89.45175170898438 111.4689254760742 C 89.56504058837891 110.4491729736328 89.20626068115234 107.6448822021484 88.86634063720703 106.7195587158203 C 88.87578582763672 105.4826507568359 92.11441040039062 97.93844604492188 91.21742248535156 97.25859069824219 C 91.88780975341797 96.65431213378906 95.66463470458984 91.79164123535156 96.41999053955078 90.13926696777344 C 97.14703369140625 89.09120941162109 96.79767608642578 86.2774658203125 96.74102020263672 85.83368682861328 C 96.87320709228516 86.34355926513672 97.81744384765625 90.51696014404297 98.02517700195312 93.170166015625 C 98.15734100341797 94.94528961181641 98.26119995117188 96.33328247070312 97.84574127197266 98.08006286621094 L 97.84574127197266 98.08949279785156 C 97.7513427734375 98.43885803222656 97.56248474121094 98.76933288574219 97.41139984130859 99.14701843261719 C 97.40196990966797 99.16590118408203 97.40196990966797 99.17534637451172 97.39253234863281 99.19420623779297 C 97.12815093994141 99.89295196533203 96.80712127685547 100.6294326782227 96.38223266601562 101.4697494506836 C 95.645751953125 102.8955154418945 95.617431640625 104.3968200683594 95.53244018554688 106.5023803710938 C 95.5135498046875 106.9650497436523 95.49467468261719 107.4749221801758 95.47577667236328 108.0225677490234 L 95.1075439453125 108.0225677490234 C 95.1075439453125 107.4843597412109 95.09810638427734 106.9650497436523 95.09810638427734 106.4740829467773 C 95.0792236328125 101.9607467651367 96.31613159179688 100.5727767944336 97.09038543701172 98.84485626220703 C 97.13760375976562 98.74099731445312 97.18482208251953 98.62770080566406 97.22257995605469 98.51439666748047 C 97.48696136474609 97.83455657958984 97.67580413818359 97.06975555419922 97.67580413818359 96.03111267089844 C 97.67580413818359 92.55644226074219 97.53415679931641 90.82855224609375 97.25090026855469 89.85600280761719 C 97.24581909179688 89.80508422851562 97.19951629638672 89.77886962890625 97.15054321289062 89.77886962890625 C 97.10870361328125 89.77886962890625 97.06492614746094 89.79798126220703 97.04318237304688 89.83714294433594 C 96.39168548583984 91.25344085693359 92.60538482666016 96.12555694580078 92.03886413574219 97.35301208496094 C 92.02945709228516 97.35301208496094 92.02945709228516 97.35301208496094 92.02945709228516 97.36245727539062 C 92.02945709228516 98.66546630859375 91.48179626464844 99.95905303955078 91.01912689208984 101.2525863647461 C 90.54701995849609 102.4989395141602 89.62171173095703 106.1530227661133 89.54618072509766 106.4457321166992 C 89.53672027587891 106.4646224975586 89.53672027587891 106.483512878418 89.53672027587891 106.4929580688477 C 89.58395385742188 106.7195587158203 89.95217132568359 109.1367263793945 89.98995208740234 110.9496154785156 L 89.98995208740234 111.2045364379883 C 89.98995208740234 111.2800827026367 89.97106170654297 111.3744964599609 89.96161651611328 111.4500274658203 C 89.84831237792969 112.3470230102539 89.00798034667969 112.9135589599609 88.06376647949219 112.9135589599609 L 87.58222198486328 112.9135589599609 C 86.76074981689453 112.9135589599609 85.98650360107422 112.4603271484375 85.84486389160156 111.6766357421875 C 85.83542633056641 111.5444488525391 85.82598114013672 111.4028167724609 85.82598114013672 111.242317199707 C 85.82598114013672 109.3538970947266 86.40196228027344 106.5779266357422 86.43972015380859 106.4646224975586 L 86.43972015380859 99.94959259033203 C 86.43972015380859 96.05001068115234 87.93156433105469 94.73755645751953 88.95133209228516 93.44399261474609 C 88.96074676513672 93.43454742431641 88.96074676513672 93.43454742431641 88.96074676513672 93.41567230224609 C 89.58395385742188 91.82940673828125 90.97194671630859 89.76158905029297 91.96333312988281 88.38304901123047 C 92.58650970458984 87.52381896972656 92.99252319335938 86.51352691650391 93.18136596679688 85.46544647216797 C 93.4835205078125 83.74698638916016 94.28608703613281 82.34011077880859 95.08867645263672 81.70749664306641 C 95.85652160644531 81.11882019042969 97.19484710693359 81.05435180664062 97.82195281982422 81.05434417724609 C 97.88887786865234 81.05434417724609 97.94766235351562 81.05507659912109 97.99683380126953 81.05599212646484 C 98.11011505126953 81.05599212646484 98.22343444824219 81.02765655517578 98.32730102539062 80.98989105224609 L 100.6406021118164 79.85684967041016 C 101.320426940918 79.53581237792969 101.7547836303711 78.84654998779297 101.7547836303711 78.11007690429688 L 101.7830963134766 74.86199951171875 Z" stroke="none" fill="#fff"/>
    </g>
    <g id="Path_4160" data-name="Path 4160" transform="translate(7703.928 3195.633)" fill="#fff" stroke-miterlimit="10">
      <path d="M126.979,80.4c-.491.831-2.88,3.871-5.052,3.928a.076.076,0,0,0-.085.066c.028,1.388.548,5.977.548,7.733,0,1.775-.614,6.251-1.615,6.251s-7.138-3.39-8.045-8.356A.116.116,0,0,0,112.5,90a1.215,1.215,0,0,0-.038.179,33.825,33.825,0,0,0-.236,5.892,6.609,6.609,0,0,0,.425,2.445c.047.113.085.227.132.321.736,1.728,1.926,3.1,1.907,7.629v1.549h-.444c-.009-3.475-.208-5.6-.954-7.11a17.887,17.887,0,0,1-.925-1.652,8.7,8.7,0,0,1-.34-1.171,8.811,8.811,0,0,1-.264-2.106c-.057-7.393,1.029-9.829,1.161-10.1a10.97,10.97,0,0,0,.991,6.071,11.921,11.921,0,0,0,5.373,5.429c1.331.623,1.8.519,2.181-1.029a21.525,21.525,0,0,0,.5-4.4,82.221,82.221,0,0,0-1.048-9.074c.066.123.746,1.331,1.709.821a8.917,8.917,0,0,0,2.691-1.926,10.28,10.28,0,0,0,1.586-2.134c.406-.8.179-1.416-.245-1.312a2.069,2.069,0,0,0-1.2.9c-1.983,2.682-2.814,2.228-4.447,2.313-1.5.085-1.926,2.266-1.945,2.785-.038.925-.038,7.412.718,8.743a17.433,17.433,0,0,1-2.274-3.828,12.225,12.225,0,0,1-1.506-3.9c-.17-1.142-1.47-4.521-4.765-3.662-1.02-.708-1.7-.869-2.606-1.53-1.605-1.152-1.086-3.012-1.067-4.655v-.019a.905.905,0,0,0-.17-.491v-.009a2.259,2.259,0,0,0,.208-.217l.349-.009a.122.122,0,0,1,.123.085.057.057,0,0,1,.009.038v3.248a1.911,1.911,0,0,0,1.1,1.756l2.323,1.1a.586.586,0,0,0,.3.085,5.3,5.3,0,0,1,2.88.652,6.327,6.327,0,0,1,1.926,3.805,44.785,44.785,0,0,0,2.068,5.1.05.05,0,0,0,.094-.028V84.326s0-3.39,3.059-3.324c3.078.076,3.031-3.154,5.136-3.2C128.207,77.782,127.414,79.661,126.979,80.4Z" stroke="none"/>
      <path d="M 107.9630889892578 74.74200439453125 C 108.0197448730469 74.74200439453125 108.0669555664062 74.77032470703125 108.0858306884766 74.82697296142578 C 108.0952835083008 74.83642578125 108.0952835083008 74.85530090332031 108.0952835083008 74.86474609375 L 108.0952835083008 78.11281585693359 C 108.0952835083008 78.86818695068359 108.5107345581055 79.55747222900391 109.190544128418 79.86904144287109 L 111.5133056640625 80.96433258056641 C 111.6171722412109 81.02098083496094 111.7021408081055 81.04930114746094 111.8154296875 81.04930114746094 C 111.8509902954102 81.04863739013672 111.8921279907227 81.04820251464844 111.9379730224609 81.04820251464844 C 112.5373764038086 81.04819488525391 113.9584808349609 81.12189483642578 114.6952743530273 81.7008056640625 C 115.5261688232422 82.33343505859375 116.3193206787109 83.76863098144531 116.6214752197266 85.50595092773438 C 116.7725296020508 86.33687591552734 118.2643737792969 89.69825744628906 118.6893005371094 90.60469818115234 C 118.6971588134766 90.62436676025391 118.7148590087891 90.63420104980469 118.7328338623047 90.63420104980469 C 118.7579956054688 90.63420104980469 118.7836990356445 90.61492919921875 118.7836990356445 90.57636260986328 L 118.7836990356445 84.32570648193359 C 118.7836990356445 84.32570648193359 118.7841491699219 81.00148010253906 121.7551879882812 81.00113677978516 C 121.7843017578125 81.00113677978516 121.8132553100586 81.00144958496094 121.8429412841797 81.00209808349609 C 121.8784484863281 81.00296783447266 121.9137496948242 81.00340270996094 121.9484329223633 81.00340270996094 C 124.9204711914062 81.00340270996094 124.8981323242188 77.847900390625 126.9794311523438 77.80123138427734 C 126.9855041503906 77.80113983154297 126.9917068481445 77.80109405517578 126.9976806640625 77.80109405517578 C 128.1992492675781 77.80109405517578 127.4116058349609 79.66497802734375 126.9794311523438 80.39779663085938 C 126.4884490966797 81.22869110107422 124.0995941162109 84.26905059814453 121.9279022216797 84.32570648193359 C 121.8807220458984 84.32570648193359 121.8429412841797 84.35404205322266 121.8429412841797 84.39180755615234 C 121.8712692260742 85.77979278564453 122.3905639648438 90.36863708496094 122.3905639648438 92.1248779296875 C 122.3905639648438 93.89996337890625 121.7768249511719 98.37551116943359 120.7759857177734 98.37551116943359 C 119.7845611572266 98.37551116943359 113.6377792358398 94.98581695556641 112.731330871582 90.019287109375 C 112.7211685180664 89.95321655273438 112.6644973754883 89.91724395751953 112.6099166870117 89.91724395751953 C 112.5630874633789 89.91724395751953 112.5177993774414 89.94371032714844 112.5047225952148 90.00038146972656 C 112.4858322143555 90.05703735351562 112.4764251708984 90.12314605712891 112.4669647216797 90.17979431152344 C 112.2309036254883 91.19953155517578 112.2309036254883 92.96521759033203 112.2309036254883 96.0716552734375 C 112.2309036254883 97.09138488769531 112.4008636474609 97.84675598144531 112.6558151245117 98.51715087890625 C 112.7030029296875 98.63044738769531 112.7407608032227 98.74376678466797 112.7879943847656 98.83819580078125 C 113.5244522094727 100.5660858154297 114.7141494750977 101.9351806640625 114.6952743530273 106.4673614501953 L 114.6952743530273 108.0158843994141 L 114.2514953613281 108.0158843994141 C 114.2420654296875 104.5411911010742 114.0437850952148 102.4167327880859 113.2978591918945 100.9059906005859 C 113.0523529052734 100.396125793457 112.5519485473633 99.78239440917969 112.3725204467773 99.25364685058594 C 112.2309036254883 98.86649322509766 112.1176147460938 98.47937774658203 112.0326232910156 98.08280181884766 C 111.862663269043 97.39353179931641 111.7682189941406 96.68538665771484 111.7682189941406 95.97723388671875 C 111.7115783691406 88.58408355712891 112.7974090576172 86.14802551269531 112.9296188354492 85.87420654296875 C 112.9012832641602 86.17635345458984 112.4480743408203 88.63130187988281 113.9210357666016 91.94546508789062 C 115.0729446411133 94.52314758300781 117.5373458862305 96.55318450927734 119.2935791015625 97.37465667724609 C 119.7773132324219 97.60108184814453 120.1477508544922 97.7315673828125 120.441291809082 97.7315673828125 C 120.9556503295898 97.7315673828125 121.2342300415039 97.33132934570312 121.4746856689453 96.34545135498047 C 121.7673950195312 95.20298767089844 121.9845733642578 93.12572479248047 121.9751358032227 91.94546508789062 C 121.9656829833984 89.16004180908203 120.9837036132812 83.23043060302734 120.9270629882812 82.87162780761719 C 120.9817199707031 82.97318267822266 121.4565277099609 83.81793975830078 122.1641616821289 83.81793975830078 C 122.3119125366211 83.81793975830078 122.4697036743164 83.78115844726562 122.6360626220703 83.69308471679688 C 123.8729705810547 83.22098541259766 125.0721130371094 82.0218505859375 125.3270416259766 81.76690673828125 C 125.8180389404297 81.22869110107422 126.5545501708984 80.37892150878906 126.9132995605469 79.63299560546875 C 127.2891006469727 78.89016723632812 127.1229095458984 78.30905914306641 126.7592239379883 78.30905914306641 C 126.7299575805664 78.30905914306641 126.6994781494141 78.31281280517578 126.667839050293 78.32054138183594 C 126.1296234130859 78.45273590087891 125.7991638183594 78.77378082275391 125.4687042236328 79.21754455566406 C 123.4858551025391 81.89909362792969 122.6549758911133 81.44586181640625 121.021484375 81.53085327148438 C 119.5201950073242 81.61582183837891 119.0952758789062 83.79695129394531 119.0763854980469 84.31626129150391 C 119.0386199951172 85.24159240722656 119.0386199951172 91.72829437255859 119.7939987182617 93.05963134765625 C 119.2935791015625 92.5875244140625 118.2662887573242 90.83696746826172 117.5203552246094 89.2318115234375 C 116.7177658081055 87.55112457275391 116.1937408447266 86.72210693359375 116.0143356323242 85.33412170410156 C 115.8631973266602 84.31819152832031 114.8181457519531 81.53413391113281 112.2715301513672 81.53413391113281 C 111.9542770385742 81.53413391113281 111.6139602661133 81.57729339599609 111.248908996582 81.67247772216797 C 110.2291793823242 80.96433258056641 109.5493545532227 80.80381774902344 108.6429138183594 80.14286804199219 C 107.0377655029297 78.99092102050781 107.5570755004883 77.13085174560547 107.5759429931641 75.48792266845703 L 107.5759429931641 75.46903228759766 C 107.5759429931641 75.31795501708984 107.5193023681641 75.14801788330078 107.4059906005859 74.97805786132812 L 107.4059906005859 74.9686279296875 C 107.4815292358398 74.90252685546875 107.5476226806641 74.82697296142578 107.6137237548828 74.75144195556641 L 107.9630889892578 74.74200439453125 Z" stroke="none" fill="#fff"/>
    </g>
    <path id="Path_4161" data-name="Path 4161" d="M101.865,69.83" transform="translate(7704.238 3195.907)" stroke="#020202" stroke-miterlimit="10" stroke-width="0.25" opacity="0.31"/>
    <path id="Path_4162" data-name="Path 4162" d="M101.693,71.183" transform="translate(7704.247 3195.831)" fill="#fff" stroke="#000" stroke-miterlimit="10" stroke-width="0.25" opacity="0.31"/>
    <path id="Path_4163" data-name="Path 4163" d="M103.5,75.54c-.073-.045-.145-.1-.218-.155v-.008Z" transform="translate(7704.159 3195.597)" fill="#fff"/>
    <path id="Path_4164" data-name="Path 4164" d="M98.846,86.54a2.427,2.427,0,0,0,4.842,0,2.38,2.38,0,0,1-.538,1.909,2.446,2.446,0,0,1-3.765,0A2.384,2.384,0,0,1,98.846,86.54Z" transform="translate(7704.408 3194.974)" fill="#fff"/>
    <path id="Path_4165" data-name="Path 4165" d="M107.045,86.54a2.428,2.428,0,0,0,4.843,0,2.385,2.385,0,0,1-.539,1.909,2.446,2.446,0,0,1-3.765,0A2.388,2.388,0,0,1,107.045,86.54Z" transform="translate(7703.951 3194.974)" fill="#fff"/>
    <g id="Path_4166" data-name="Path 4166" transform="translate(7704.19 3196.008)" stroke-miterlimit="10">
      <path d="M108.85,71.008a6.18,6.18,0,0,1-1.027,3.448,4.47,4.47,0,0,1-.51.636,2.857,2.857,0,0,1-2.02,1.038,3.3,3.3,0,0,1-2.066-1.083,3.7,3.7,0,0,1-.5-.564,4.415,4.415,0,0,0,.519.482,3.112,3.112,0,0,0,1.765.773A3.014,3.014,0,0,0,107.15,74.6a2.29,2.29,0,0,0,.2-.228,5.844,5.844,0,0,0,1.22-3.594,2.789,2.789,0,0,0-1.4-2.766C108.122,68.4,108.85,69.234,108.85,71.008Z" stroke="none"/>
      <path d="M 107.1676025390625 68.01500701904297 C 108.1221923828125 68.39740753173828 108.8501892089844 69.23398590087891 108.8501892089844 71.00814819335938 C 108.8501892089844 72.33666229248047 108.4413375854492 73.54618072509766 107.8228912353516 74.45639801025391 C 107.6680221557617 74.69245147705078 107.4952392578125 74.90206146240234 107.3130111694336 75.09279632568359 C 106.7124862670898 75.74806976318359 105.9845123291016 76.13047027587891 105.2933502197266 76.13047027587891 C 104.6475067138672 76.13047027587891 103.8553161621094 75.67536163330078 103.2274322509766 75.04745483398438 C 103.0366897583008 74.87467956542969 102.8733367919922 74.68395233154297 102.7269897460938 74.48377990722656 C 102.8818511962891 74.65655517578125 103.064079284668 74.81990814208984 103.2463226318359 74.96625518798828 C 103.8099975585938 75.42041778564453 104.4747161865234 75.73955535888672 105.0110397338867 75.73955535888672 C 105.7484664916992 75.73955535888672 106.5123291015625 75.31183624267578 107.1496658325195 74.60179138183594 C 107.2223663330078 74.52909088134766 107.2856292724609 74.45639801025391 107.3488922119141 74.37425231933594 C 108.0683822631836 73.4649658203125 108.5688323974609 72.19123077392578 108.5688323974609 70.78058624267578 C 108.5688323974609 69.24341583251953 107.9767990112305 68.43331146240234 107.1676025390625 68.01500701904297 Z" stroke="none" fill="#fff"/>
    </g>
    <path id="Path_4167" data-name="Path 4167" d="M107.787,113.882l-.028,10.953h-.227l-.236-10.953Z" transform="translate(7703.935 3193.449)" fill="#fff"/>
    <path id="Path_4168" data-name="Path 4168" d="M112.777,100.211c-.142.142-.283.274-.415.415a20.715,20.715,0,0,0-3.38,4.419,9.11,9.11,0,0,0-1.067,2.9l-.076.755-.009.689h-.6l-.019-.689c0-.274.028-.567.038-.85a9.887,9.887,0,0,1,1.02-3.182,21.738,21.738,0,0,1,3.758-5.212,1.131,1.131,0,0,1,.1-.113l.519.548C112.692,100,112.73,100.116,112.777,100.211Z" transform="translate(7703.94 3194.26)" fill="#fff"/>
    <path id="Path_4169" data-name="Path 4169" d="M103.547,113.882l-.236,10.943h-.236l-.028-10.943Z" transform="translate(7704.172 3193.449)" fill="#fff"/>
    <path id="Path_4170" data-name="Path 4170" d="M103.337,108.7l-.019.689h-.6l-.019-.689-.076-.765a8.87,8.87,0,0,0-1.057-2.9,21.605,21.605,0,0,0-3.38-4.419l-.1-.1c-.1-.094-.208-.2-.312-.3.038-.1.085-.208.123-.33l.529-.548a1,1,0,0,1,.094.113v.009c.009-.009.009,0,.009,0a22,22,0,0,1,3.758,5.212,9.507,9.507,0,0,1,1.01,3.182C103.308,108.132,103.327,108.415,103.337,108.7Z" transform="translate(7704.466 3194.261)" fill="#fff"/>
    <path id="Path_4171" data-name="Path 4171" d="M122.335,110.567l-1.086-.132H90.676v-.33a.125.125,0,0,1,.142-.123h30.545a.226.226,0,0,1,.085.019Z" transform="translate(7704.862 3193.667)" fill="#fff"/>
    <path id="Path_4172" data-name="Path 4172" d="M124.12,111.992l-2.672,1.7a.132.132,0,0,1-.085.028H90.818a.139.139,0,0,1-.142-.142v-2.606h32.207l1.237.793A.142.142,0,0,1,124.12,111.992Z" transform="translate(7704.862 3193.611)" fill="#fff"/>
    <path id="Path_4173" data-name="Path 4173" d="M95.776,74.9" transform="translate(7704.578 3195.624)" stroke="#020202" stroke-miterlimit="10" stroke-width="1"/>
    <path id="Path_4174" data-name="Path 4174" d="M85.143,109.413V110.6l-3.195.57Z" transform="translate(7705.349 3193.698)" fill="#fff"/>
    <path id="Path_4175" data-name="Path 4175" d="M80.639,111.944l4.415-.634v2.962l-4.64-2.031a.093.093,0,0,1-.008-.168Z" transform="translate(7705.438 3193.593)" fill="#fff"/>
    <path id="Path_4176" data-name="Path 4176" d="M97.912,81.227l3.625-9.234L98.42,81.411Z" transform="translate(7704.458 3195.786)" fill="#fff"/>
    <path id="Path_4177" data-name="Path 4177" d="M112.138,81.289l-2.991-9.3,3.668,9.051Z" transform="translate(7703.832 3195.786)" fill="#fff"/>
  </g>
</svg>
