<svg xmlns="http://www.w3.org/2000/svg" width="41.168" height="48.388" viewBox="0 0 41.168 48.388">
  <g id="Group_4001" data-name="Group 4001" transform="translate(0.475 0.659)">
    <path id="Path_4190" data-name="Path 4190" d="M40.172,12.814v-.037c-.021-.454-.034-.934-.043-1.468a5.006,5.006,0,0,0-4.713-4.9A19.424,19.424,0,0,1,22.194.833L22.164.8a3.023,3.023,0,0,0-4.108,0l-.031.029A19.426,19.426,0,0,1,4.805,6.406a5.005,5.005,0,0,0-4.713,4.9C.084,11.84.07,12.32.05,12.777l0,.085C-.058,18.4-.189,25.291,2.116,31.546a23.784,23.784,0,0,0,5.706,8.888,29.848,29.848,0,0,0,11.166,6.6,3.458,3.458,0,0,0,.458.125,3.38,3.38,0,0,0,1.329,0,3.469,3.469,0,0,0,.459-.125,29.868,29.868,0,0,0,11.154-6.608,23.817,23.817,0,0,0,5.706-8.89C40.408,25.266,40.277,18.361,40.172,12.814ZM35.494,30.58c-2.431,6.593-7.4,11.12-15.174,13.841a.7.7,0,0,1-.088.024.622.622,0,0,1-.244,0,.689.689,0,0,1-.087-.023c-7.787-2.715-12.754-7.24-15.184-13.833-2.125-5.766-2-12.092-1.9-17.672v-.031c.022-.48.036-.982.044-1.534a2.225,2.225,0,0,1,2.1-2.178,24.315,24.315,0,0,0,8.253-1.815,21.592,21.592,0,0,0,6.726-4.519.256.256,0,0,1,.343,0,21.6,21.6,0,0,0,6.726,4.519A24.316,24.316,0,0,0,35.26,9.173a2.224,2.224,0,0,1,2.1,2.178c.008.555.023,1.057.044,1.534C37.507,18.472,37.625,24.8,35.494,30.58Zm0,0" transform="translate(0)" fill="#436592" stroke="#fff" stroke-width="1"/>
    <path id="Path_4191" data-name="Path 4191" d="M102.169,128.41a11.77,11.77,0,1,0,11.77,11.77A11.784,11.784,0,0,0,102.169,128.41Zm0,20.769a9,9,0,1,1,9-9A9.009,9.009,0,0,1,102.169,149.179Zm0,0" transform="translate(-82.06 -116.564)" fill="#436592" stroke="#fff" stroke-width="1"/>
    <path id="Path_4192" data-name="Path 4192" d="M162.989,212.4l-5.467,5.467-1.484-1.484a1.386,1.386,0,0,0-1.96,1.959l2.464,2.464a1.386,1.386,0,0,0,1.959,0l6.447-6.447a1.386,1.386,0,0,0-1.96-1.959Zm0,0" transform="translate(-139.497 -192.436)" fill="#436592" stroke="#fff" stroke-width="1"/>
  </g>
</svg>
