<svg xmlns="http://www.w3.org/2000/svg" width="45.709" height="45.604" viewBox="0 0 45.709 45.604">
  <g id="witness" transform="translate(0.303 0.25)">
    <path id="Path_4205" data-name="Path 4205" d="M44.8,133.93c-4.1-4.995-12.779-10.823-22.251-10.823-9.506,0-18.186,5.868-22.251,10.823a1.327,1.327,0,0,0,0,1.683c4.2,5.115,12.9,10.823,22.251,10.823,9.687,0,18.33-6.045,22.251-10.823A1.327,1.327,0,0,0,44.8,133.93Zm-13.24.841a9.011,9.011,0,1,1-9.011-9.011A9.022,9.022,0,0,1,31.563,134.772Zm-28.445,0a32.041,32.041,0,0,1,10.147-7.05,11.635,11.635,0,0,0,0,14.1,31.457,31.457,0,0,1-10.146-7.048Zm28.72,7.05a11.635,11.635,0,0,0,0-14.1,31.462,31.462,0,0,1,10.146,7.048A32.04,32.04,0,0,1,31.838,141.822Z" transform="translate(0 -112.22)" fill="#436592" stroke="#fff" stroke-width="0.5"/>
    <path id="Path_4206" data-name="Path 4206" d="M204,208.51a4.51,4.51,0,1,0,4.51-4.51A4.515,4.515,0,0,0,204,208.51Zm6.368,0a1.857,1.857,0,1,1-1.857-1.857A1.859,1.859,0,0,1,210.368,208.51Z" transform="translate(-185.959 -185.958)" fill="#436592" stroke="#fff" stroke-width="0.5"/>
    <path id="Path_4207" data-name="Path 4207" d="M241.327,5.749a1.327,1.327,0,0,0,1.327-1.327v-3.1a1.327,1.327,0,1,0-2.653,0v3.1A1.327,1.327,0,0,0,241.327,5.749Z" transform="translate(-218.775)" fill="#436592" stroke="#fff" stroke-width="0.5"/>
    <path id="Path_4208" data-name="Path 4208" d="M337.6,27.6a1.327,1.327,0,0,0,1.81-.5l1.765-3.1a1.327,1.327,0,1,0-2.3-1.314l-1.765,3.1A1.327,1.327,0,0,0,337.6,27.6Z" transform="translate(-307.132 -20.081)" fill="#436592" stroke="#fff" stroke-width="0.5"/>
    <path id="Path_4209" data-name="Path 4209" d="M125.044,27.109a1.327,1.327,0,0,0,2.3-1.314l-1.765-3.1a1.327,1.327,0,0,0-2.3,1.314Z" transform="translate(-112.217 -20.081)" fill="#436592" stroke="#fff" stroke-width="0.5"/>
    <path id="Path_4210" data-name="Path 4210" d="M241.327,445A1.327,1.327,0,0,0,240,446.327v3.1a1.327,1.327,0,0,0,2.653,0v-3.1A1.327,1.327,0,0,0,241.327,445Z" transform="translate(-218.775 -405.645)" fill="#436592" stroke="#fff" stroke-width="0.5"/>
    <path id="Path_4211" data-name="Path 4211" d="M126.854,423.141a1.327,1.327,0,0,0-1.81.5l-1.765,3.1a1.327,1.327,0,1,0,2.3,1.314l1.765-3.1A1.327,1.327,0,0,0,126.854,423.141Z" transform="translate(-112.217 -385.56)" fill="#436592" stroke="#fff" stroke-width="0.5"/>
    <path id="Path_4212" data-name="Path 4212" d="M339.408,423.636a1.327,1.327,0,1,0-2.3,1.314l1.765,3.1a1.327,1.327,0,1,0,2.3-1.314Z" transform="translate(-307.132 -385.559)" fill="#436592" stroke="#fff" stroke-width="0.5"/>
  </g>
</svg>
