<svg xmlns="http://www.w3.org/2000/svg" width="364.854" height="130.009" viewBox="0 0 364.854 130.009">
  <g id="Group_3750" data-name="Group 3750" transform="translate(-7761.5 -3241.427)">
    <g id="Group_3741" data-name="Group 3741" transform="translate(7904.72 3278.829)">
      <path id="Path_4060" data-name="Path 4060" d="M173.624,90.018a8.5,8.5,0,0,1-4.141-.982,6.9,6.9,0,0,1-2.807-2.832,9.063,9.063,0,0,1-1.007-4.4,10.609,10.609,0,0,1,.5-3.242,8.961,8.961,0,0,1,1.521-2.866,7.378,7.378,0,0,1,2.551-2.049,7.941,7.941,0,0,1,3.569-.76,9.826,9.826,0,0,1,1.707.152,10.058,10.058,0,0,1,1.674.444,8.37,8.37,0,0,1,1.464.691l-.095-1.123h1.288v5.359h-.843a4.915,4.915,0,0,0-.783-2.491,4.548,4.548,0,0,0-1.79-1.557,5.521,5.521,0,0,0-2.457-.539,5.085,5.085,0,0,0-2.329.55,6.022,6.022,0,0,0-1.919,1.546,7.37,7.37,0,0,0-1.3,2.351,9.141,9.141,0,0,0-.467,2.995,9.324,9.324,0,0,0,.795,3.931,6.539,6.539,0,0,0,2.212,2.715,5.582,5.582,0,0,0,3.264.984,7.921,7.921,0,0,0,1.323-.117,7.178,7.178,0,0,0,2.679-1.054V82.6l-.82.047-.817.047V81.664h5.288v.771a1.385,1.385,0,0,0-1.006.34,1.816,1.816,0,0,0-.492.818,3.949,3.949,0,0,0-.164.937c-.017.3-.025.535-.025.69V88.8h-.631a5.221,5.221,0,0,0-1.029.141,9.987,9.987,0,0,0-1.5.468,8.964,8.964,0,0,1-1.685.445A10.507,10.507,0,0,1,173.624,90.018Z" transform="translate(-164.428 -72.818)" fill="#fff"/>
      <path id="Path_4061" data-name="Path 4061" d="M187.645,83.5a2.874,2.874,0,0,0-.281-1.475,1.208,1.208,0,0,0-.889-.539,8.5,8.5,0,0,0-1.616-.046l-1.707.069v5.36c0,.422-.005.781-.013,1.076a5.853,5.853,0,0,1-.059.749l4.471-.07a4.84,4.84,0,0,0,1.777-.34,2.334,2.334,0,0,0,1.17-1.112,4.679,4.679,0,0,0,.422-2.175h.8l-.141,4.562H179.5v-.771a1.738,1.738,0,0,0,1.218-.41,1.582,1.582,0,0,0,.362-1.007c.025-.428.035-.916.035-1.462V75.8q0-.466.023-.9c.017-.289.031-.55.047-.784-.281.017-.562.031-.842.047l-.843.047V73.176h11.256l.117,4.1H190.1a4.184,4.184,0,0,0-.421-2.095,2.081,2.081,0,0,0-1.136-.96,4.521,4.521,0,0,0-1.6-.222l-2.014.047a2.073,2.073,0,0,0-1.24.328,1.342,1.342,0,0,0-.457.9,11.951,11.951,0,0,0-.081,1.557v3.744l4.4.023-.164-2.013h1.029V83.5Z" transform="translate(-160.265 -72.731)" fill="#fff"/>
      <path id="Path_4062" data-name="Path 4062" d="M198.859,90.018a8.915,8.915,0,0,1-3.816-.748,7.113,7.113,0,0,1-2.585-2A8.358,8.358,0,0,1,191,84.5a10.289,10.289,0,0,1-.468-3.043,9.585,9.585,0,0,1,.49-2.983,8.66,8.66,0,0,1,1.51-2.772,7.606,7.606,0,0,1,2.551-2.036,7.88,7.88,0,0,1,3.591-.773,8.337,8.337,0,0,1,3.722.773,7.5,7.5,0,0,1,2.586,2.046,9.067,9.067,0,0,1,1.521,2.774,9.285,9.285,0,0,1,.5,2.971,9.528,9.528,0,0,1-.492,2.961A8.818,8.818,0,0,1,205,87.2a7.593,7.593,0,0,1-2.539,2.048A7.875,7.875,0,0,1,198.859,90.018Zm.047-.959a4.969,4.969,0,0,0,2.526-.621,5.448,5.448,0,0,0,1.79-1.661A7.824,7.824,0,0,0,204.3,84.46a9.269,9.269,0,0,0,.364-2.563,10.717,10.717,0,0,0-.4-2.878,9.162,9.162,0,0,0-1.17-2.6,6.3,6.3,0,0,0-1.907-1.884,4.757,4.757,0,0,0-2.586-.714,4.964,4.964,0,0,0-2.539.632,5.54,5.54,0,0,0-1.8,1.673,7.854,7.854,0,0,0-1.076,2.317,9.358,9.358,0,0,0-.364,2.586,10.7,10.7,0,0,0,.364,2.692,9.457,9.457,0,0,0,1.111,2.62,6.171,6.171,0,0,0,1.9,1.966A4.849,4.849,0,0,0,198.906,89.059Z" transform="translate(-156.947 -72.818)" fill="#fff"/>
      <path id="Path_4063" data-name="Path 4063" d="M204.811,89.569V88.8a1.734,1.734,0,0,0,1.216-.41,1.583,1.583,0,0,0,.363-1.007q.035-.642.035-1.462V75.809q0-.466.023-.9t.047-.784c-.281.017-.562.031-.843.047l-.842.047V73.189l2.657-.047q1.345-.023,2.7.023a11.394,11.394,0,0,1,3.662.526,4.153,4.153,0,0,1,2.049,1.428,3.779,3.779,0,0,1,.653,2.235,4.79,4.79,0,0,1-.338,1.859,4,4,0,0,1-1.31,1.7,6.559,6.559,0,0,1-2.727,1.123,3.288,3.288,0,0,1,.82.843q.351.515.795,1.193l1.591,2.5q.4.632.773,1.134a2.963,2.963,0,0,0,.866.8,2.34,2.34,0,0,0,1.216.293v.771h-2.948a8.377,8.377,0,0,1-1.136-1.216q-.457-.609-.948-1.38l-1.568-2.5c-.2-.328-.433-.705-.69-1.136a4.769,4.769,0,0,0-.878-1.088c-.249.016-.511.023-.784.023s-.543-.008-.807-.023v4.54c0,.422-.005.783-.012,1.088a6.18,6.18,0,0,1-.059.761c.187-.016.375-.027.561-.035s.375-.02.562-.035.375-.023.563-.023v1.029Zm5.1-8.191a6.933,6.933,0,0,0,2.257-.42,3.209,3.209,0,0,0,1.534-1.194,3.741,3.741,0,0,0,.561-2.152,4.5,4.5,0,0,0-.246-1.557,2.647,2.647,0,0,0-.76-1.111,3.374,3.374,0,0,0-1.311-.667,6.991,6.991,0,0,0-1.871-.222,1.647,1.647,0,0,0-1.206.351,1.465,1.465,0,0,0-.375.972c-.023.414-.035.9-.035,1.462v4.492l.713.047A5.38,5.38,0,0,0,209.913,81.378Z" transform="translate(-152.648 -72.744)" fill="#fff"/>
      <path id="Path_4064" data-name="Path 4064" d="M223.918,90.018a8.5,8.5,0,0,1-4.141-.982A6.9,6.9,0,0,1,216.97,86.2a9.063,9.063,0,0,1-1.007-4.4,10.609,10.609,0,0,1,.5-3.242,8.961,8.961,0,0,1,1.521-2.866,7.378,7.378,0,0,1,2.551-2.049,7.941,7.941,0,0,1,3.569-.76,9.837,9.837,0,0,1,1.707.152,10.01,10.01,0,0,1,1.673.444,8.283,8.283,0,0,1,1.464.691l-.094-1.123h1.287v5.359H229.3a4.9,4.9,0,0,0-.784-2.491,4.53,4.53,0,0,0-1.79-1.557,5.512,5.512,0,0,0-2.456-.539,5.085,5.085,0,0,0-2.329.55,6.022,6.022,0,0,0-1.919,1.546,7.37,7.37,0,0,0-1.3,2.351,9.14,9.14,0,0,0-.467,2.995,9.324,9.324,0,0,0,.795,3.931,6.539,6.539,0,0,0,2.212,2.715,5.582,5.582,0,0,0,3.264.984,7.922,7.922,0,0,0,1.323-.117,7.179,7.179,0,0,0,2.679-1.054V82.6l-.82.047-.818.047V81.664h5.29v.771a1.391,1.391,0,0,0-1.007.34,1.826,1.826,0,0,0-.49.818,3.95,3.95,0,0,0-.164.937c-.017.3-.025.535-.025.69V88.8h-.631a5.222,5.222,0,0,0-1.029.141,9.986,9.986,0,0,0-1.5.468,8.965,8.965,0,0,1-1.685.445A10.507,10.507,0,0,1,223.918,90.018Z" transform="translate(-149.292 -72.818)" fill="#fff"/>
      <path id="Path_4065" data-name="Path 4065" d="M235.062,73.947a1.655,1.655,0,0,0-1.206.4,1.586,1.586,0,0,0-.375,1.006q-.033.632-.034,1.475v9.946c0,.422-.005.783-.013,1.088a6.181,6.181,0,0,1-.059.761l.842-.047.844-.047v1.029H229.8v-.771a1.738,1.738,0,0,0,1.218-.41,1.582,1.582,0,0,0,.362-1.007q.035-.642.035-1.462V75.8q0-.466.023-.9c.017-.289.031-.55.047-.784-.281.017-.562.031-.842.047l-.843.047V73.176h5.266Z" transform="translate(-145.129 -72.731)" fill="#fff"/>
      <path id="Path_4066" data-name="Path 4066" d="M234.724,89.659v-.771a1.458,1.458,0,0,0,1.077-.375,2.855,2.855,0,0,0,.619-1.029q.246-.656.574-1.522l4.821-13.128h.562l5.217,13.315c.126.328.265.749.423,1.263a3.542,3.542,0,0,1,.186,1.311l.8-.047.8-.047v1.029h-5.359v-.771a1.465,1.465,0,0,0,1.17-.4,1.162,1.162,0,0,0,.209-.89,4.051,4.051,0,0,0-.234-.935l-.817-2.2-6.086.14-.818,2.5q-.164.564-.294.89c-.085.22-.182.461-.291.726l.925-.047.9-.047v1.029Zm4.306-6.06h5.407l-1.663-4.47q-.258-.726-.527-1.439t-.526-1.44h-.047q-.236.656-.48,1.311t-.5,1.333Z" transform="translate(-143.646 -72.834)" fill="#fff"/>
      <path id="Path_4067" data-name="Path 4067" d="M259.872,89.931l-9.338-12.544c-.139-.186-.277-.369-.409-.549s-.269-.363-.41-.55h-.023l.07,10.016v1.17q0,.585-.047,1.147l.843-.047.842-.047v1.029h-4.283v-.771a1.437,1.437,0,0,0,1.042-.316,1.492,1.492,0,0,0,.41-.749,3.821,3.821,0,0,0,.094-.783l.022-11.257V74.111c-.25.017-.506.031-.771.047l-.8.047V73.176H249.9l8.775,11.748q.3.4.6.795c.194.265.394.531.6.8h.023l.023-10.719q0-.466.023-.9t.047-.784c-.281.017-.562.031-.843.047l-.842.047V73.176h4.306v.771a1.608,1.608,0,0,0-1.194.4,1.567,1.567,0,0,0-.351,1.006q-.023.632-.023,1.475L261,89.931Z" transform="translate(-139.916 -72.731)" fill="#fff"/>
      <path id="Path_4068" data-name="Path 4068" d="M278.509,78.481a5.259,5.259,0,0,0-1.533-3.416,4.681,4.681,0,0,0-3.334-1.218,5.288,5.288,0,0,0-2.329.527,5.712,5.712,0,0,0-1.907,1.509,7.3,7.3,0,0,0-1.287,2.364,9.629,9.629,0,0,0-.47,3.113,8.557,8.557,0,0,0,.844,3.885,6.54,6.54,0,0,0,2.269,2.62,5.637,5.637,0,0,0,3.16.937,7,7,0,0,0,2.995-.691,6.074,6.074,0,0,0,2.411-2l.609.492a8.252,8.252,0,0,1-2.177,2.13,7.445,7.445,0,0,1-2.329,1.017,9.428,9.428,0,0,1-2.118.269,8.049,8.049,0,0,1-3.219-.631,7.512,7.512,0,0,1-2.526-1.768,7.912,7.912,0,0,1-1.638-2.644,9.117,9.117,0,0,1-.574-3.265,10.539,10.539,0,0,1,.5-3.229,8.859,8.859,0,0,1,1.509-2.831,7.262,7.262,0,0,1,2.541-2.013,8.032,8.032,0,0,1,3.569-.749,8.576,8.576,0,0,1,2.48.351,8.291,8.291,0,0,1,2.248,1.076l-.117-1.263h1.262v5.429Z" transform="translate(-134.427 -72.818)" fill="#fff"/>
      <path id="Path_4069" data-name="Path 4069" d="M278.093,89.556v-.771a1.732,1.732,0,0,0,1.216-.41,1.583,1.583,0,0,0,.363-1.007q.035-.642.035-1.462V75.8q0-.466.023-.9t.047-.784c-.281.017-.562.031-.843.047l-.842.047V73.176h5.266v.771a1.653,1.653,0,0,0-1.206.4,1.586,1.586,0,0,0-.375,1.006c-.023.422-.034.913-.034,1.475V86.866c0,.422-.005.781-.013,1.076a6.1,6.1,0,0,1-.059.749l4.376-.07a2.806,2.806,0,0,0,2.235-.937,4.632,4.632,0,0,0,.761-2.971h.795l-.141,4.843Z" transform="translate(-130.594 -72.731)" fill="#fff"/>
      <path id="Path_4070" data-name="Path 4070" d="M293.755,73.947a1.649,1.649,0,0,0-1.2.4,1.587,1.587,0,0,0-.376,1.006q-.033.632-.034,1.475v9.946c0,.422-.005.783-.013,1.088a5.949,5.949,0,0,1-.059.761l.843-.047.843-.047v1.029h-5.266v-.771a1.738,1.738,0,0,0,1.218-.41,1.575,1.575,0,0,0,.362-1.007q.037-.642.036-1.462V75.8q0-.466.022-.9t.047-.784c-.28.017-.561.031-.842.047l-.843.047V73.176h5.266Z" transform="translate(-127.465 -72.731)" fill="#fff"/>
      <path id="Path_4071" data-name="Path 4071" d="M307.306,89.931l-9.338-12.544q-.211-.279-.41-.549l-.409-.55h-.025L297.2,86.3v1.17q0,.585-.046,1.147l.842-.047.843-.047v1.029h-4.283v-.771a1.437,1.437,0,0,0,1.042-.316,1.49,1.49,0,0,0,.409-.749,3.734,3.734,0,0,0,.094-.783l.023-11.257V74.111c-.25.017-.507.031-.773.047l-.795.047V73.176h2.785l8.775,11.748c.2.265.4.531.6.795s.393.531.6.8h.022l.025-10.719q0-.466.022-.9t.047-.784c-.28.017-.561.031-.842.047l-.842.047V73.176h4.3v.771a1.611,1.611,0,0,0-1.194.4,1.559,1.559,0,0,0-.35,1.006q-.024.632-.023,1.475l-.047,13.1Z" transform="translate(-125.641 -72.731)" fill="#fff"/>
      <path id="Path_4072" data-name="Path 4072" d="M313.488,73.947a1.653,1.653,0,0,0-1.206.4,1.579,1.579,0,0,0-.375,1.006q-.035.632-.035,1.475v9.946c0,.422,0,.783-.012,1.088a6.193,6.193,0,0,1-.059.761l.842-.047.844-.047v1.029h-5.266v-.771a1.734,1.734,0,0,0,1.216-.41,1.583,1.583,0,0,0,.363-1.007q.035-.642.035-1.462V75.8q0-.466.023-.9t.047-.784c-.281.017-.562.031-.843.047l-.842.047V73.176h5.266Z" transform="translate(-121.527 -72.731)" fill="#fff"/>
      <path id="Path_4073" data-name="Path 4073" d="M327.075,78.481a5.258,5.258,0,0,0-1.531-3.416,4.684,4.684,0,0,0-3.336-1.218,5.292,5.292,0,0,0-2.329.527,5.725,5.725,0,0,0-1.907,1.509,7.3,7.3,0,0,0-1.287,2.364,9.666,9.666,0,0,0-.468,3.113,8.574,8.574,0,0,0,.843,3.885,6.559,6.559,0,0,0,2.269,2.62,5.64,5.64,0,0,0,3.16.937,7,7,0,0,0,3-.691,6.062,6.062,0,0,0,2.409-2l.609.492a8.233,8.233,0,0,1-2.177,2.13A7.419,7.419,0,0,1,324,89.748a9.429,9.429,0,0,1-2.118.269,8.048,8.048,0,0,1-3.217-.631,7.518,7.518,0,0,1-2.528-1.768,7.913,7.913,0,0,1-1.638-2.644,9.116,9.116,0,0,1-.574-3.265,10.5,10.5,0,0,1,.5-3.229,8.832,8.832,0,0,1,1.509-2.831,7.268,7.268,0,0,1,2.539-2.013,8.032,8.032,0,0,1,3.568-.749,8.57,8.57,0,0,1,2.48.351,8.291,8.291,0,0,1,2.248,1.076l-.117-1.263h1.263v5.429Z" transform="translate(-119.811 -72.818)" fill="#fff"/>
      <path id="Path_4074" data-name="Path 4074" d="M335.841,78.223a5.872,5.872,0,0,0-.539-2.13,4.093,4.093,0,0,0-1.357-1.638,3.825,3.825,0,0,0-2.27-.632,2.908,2.908,0,0,0-2.223.82,2.707,2.707,0,0,0-.771,1.919,2.471,2.471,0,0,0,.561,1.65,5.208,5.208,0,0,0,1.462,1.171q.9.5,1.907.971.89.4,1.778.855a9.4,9.4,0,0,1,1.616,1.041,4.533,4.533,0,0,1,1.158,1.393,4.027,4.027,0,0,1,.433,1.931,4.159,4.159,0,0,1-.644,2.292,4.33,4.33,0,0,1-1.86,1.581,6.958,6.958,0,0,1-2.973.572,8.374,8.374,0,0,1-2.176-.3,6.611,6.611,0,0,1-1.988-.89l.117,1.006h-1.218l-.141-4.984h.913a4.107,4.107,0,0,0,1.427,3.124,4.85,4.85,0,0,0,3.16,1.065,4.143,4.143,0,0,0,1.685-.34,2.873,2.873,0,0,0,1.228-1,3.018,3.018,0,0,0-.105-3.346,5.08,5.08,0,0,0-1.451-1.216q-.89-.515-1.9-.984-.89-.4-1.755-.842a9.232,9.232,0,0,1-1.579-1.019,4.5,4.5,0,0,1-1.147-1.369,3.978,3.978,0,0,1-.433-1.919,4.564,4.564,0,0,1,.211-1.31,3.893,3.893,0,0,1,.738-1.346A3.826,3.826,0,0,1,329.16,73.3a5.831,5.831,0,0,1,2.352-.41,9.358,9.358,0,0,1,2,.246,5.492,5.492,0,0,1,2.07.947l-.092-1.006h1.193v5.148Z" transform="translate(-115.962 -72.818)" fill="#fff"/>
      <path id="Path_4075" data-name="Path 4075" d="M164.715,116.641v-.771a1.458,1.458,0,0,0,1.077-.375,2.85,2.85,0,0,0,.621-1.03q.246-.654.572-1.521l4.821-13.128h.562l5.218,13.315q.187.492.422,1.263a3.541,3.541,0,0,1,.186,1.311l.8-.047.795-.047v1.029h-5.359v-.771a1.465,1.465,0,0,0,1.17-.4,1.157,1.157,0,0,0,.209-.89,4.053,4.053,0,0,0-.233-.935l-.818-2.2-6.086.141-.818,2.5c-.109.375-.207.673-.293.89s-.183.461-.293.726l.925-.047.9-.047v1.029Zm4.307-6.06h5.405l-1.663-4.47c-.17-.484-.347-.964-.527-1.439s-.354-.956-.526-1.44h-.047q-.234.656-.479,1.311t-.5,1.333Z" transform="translate(-164.715 -64.714)" fill="#fff"/>
      <path id="Path_4076" data-name="Path 4076" d="M191.951,105.463a5.258,5.258,0,0,0-1.531-3.416,4.684,4.684,0,0,0-3.336-1.218,5.274,5.274,0,0,0-2.329.527,5.712,5.712,0,0,0-1.907,1.509,7.3,7.3,0,0,0-1.287,2.364,9.662,9.662,0,0,0-.468,3.113,8.547,8.547,0,0,0,.843,3.883,6.554,6.554,0,0,0,2.269,2.621,5.64,5.64,0,0,0,3.16.937,7,7,0,0,0,3-.691,6.062,6.062,0,0,0,2.409-2l.609.492a8.251,8.251,0,0,1-2.176,2.13,7.419,7.419,0,0,1-2.329,1.017,9.428,9.428,0,0,1-2.118.269,8.048,8.048,0,0,1-3.217-.631,7.518,7.518,0,0,1-2.528-1.768,7.906,7.906,0,0,1-1.638-2.645,9.105,9.105,0,0,1-.574-3.264,10.5,10.5,0,0,1,.5-3.229,8.851,8.851,0,0,1,1.509-2.832,7.268,7.268,0,0,1,2.539-2.011,8.032,8.032,0,0,1,3.569-.749,8.615,8.615,0,0,1,2.48.35,8.333,8.333,0,0,1,2.248,1.077l-.117-1.263h1.263v5.429Z" transform="translate(-160.476 -64.698)" fill="#fff"/>
      <path id="Path_4077" data-name="Path 4077" d="M206.5,105.463a5.259,5.259,0,0,0-1.533-3.416,4.681,4.681,0,0,0-3.334-1.218,5.27,5.27,0,0,0-2.329.527,5.712,5.712,0,0,0-1.907,1.509,7.3,7.3,0,0,0-1.287,2.364,9.661,9.661,0,0,0-.47,3.113,8.547,8.547,0,0,0,.844,3.883,6.554,6.554,0,0,0,2.269,2.621,5.637,5.637,0,0,0,3.16.937,6.992,6.992,0,0,0,2.995-.691,6.066,6.066,0,0,0,2.411-2l.609.492a8.252,8.252,0,0,1-2.177,2.13,7.432,7.432,0,0,1-2.329,1.017,9.428,9.428,0,0,1-2.118.269,8.054,8.054,0,0,1-3.219-.631,7.513,7.513,0,0,1-2.526-1.768,7.906,7.906,0,0,1-1.638-2.645,9.1,9.1,0,0,1-.574-3.264,10.534,10.534,0,0,1,.5-3.229,8.855,8.855,0,0,1,1.51-2.832,7.268,7.268,0,0,1,2.539-2.011,8.032,8.032,0,0,1,3.568-.749,8.615,8.615,0,0,1,2.48.35A8.333,8.333,0,0,1,206.2,101.3l-.117-1.263h1.263v5.429Z" transform="translate(-156.097 -64.698)" fill="#fff"/>
      <path id="Path_4078" data-name="Path 4078" d="M208.067,116.551v-.771a1.734,1.734,0,0,0,1.216-.41,1.575,1.575,0,0,0,.362-1.007q.037-.642.036-1.462v-10.11c0-.312.008-.611.022-.9s.033-.55.048-.784l-.843.047-.842.047v-1.029l2.657-.047q1.345-.023,2.7.022a11.389,11.389,0,0,1,3.662.527,4.149,4.149,0,0,1,2.048,1.428,3.771,3.771,0,0,1,.654,2.235,4.794,4.794,0,0,1-.338,1.859,4,4,0,0,1-1.31,1.7,6.585,6.585,0,0,1-2.727,1.123,3.289,3.289,0,0,1,.82.843c.234.342.5.742.795,1.193l1.591,2.5q.4.632.773,1.134a2.981,2.981,0,0,0,.866.8,2.339,2.339,0,0,0,1.216.293v.771h-2.948a8.377,8.377,0,0,1-1.136-1.216q-.457-.609-.948-1.38l-1.568-2.5c-.2-.328-.433-.706-.689-1.136a4.8,4.8,0,0,0-.878-1.088q-.375.023-.784.023t-.807-.023v4.54c0,.42-.005.783-.013,1.088a5.967,5.967,0,0,1-.057.761c.187-.016.375-.027.561-.035s.375-.02.562-.035.375-.023.562-.023v1.029Zm5.1-8.191a6.934,6.934,0,0,0,2.258-.42,3.215,3.215,0,0,0,1.534-1.194,3.742,3.742,0,0,0,.561-2.153,4.494,4.494,0,0,0-.246-1.556,2.659,2.659,0,0,0-.76-1.111,3.374,3.374,0,0,0-1.311-.667,7,7,0,0,0-1.872-.222,1.645,1.645,0,0,0-1.2.351,1.465,1.465,0,0,0-.375.972c-.023.414-.035.9-.035,1.462v4.492l.713.047A5.356,5.356,0,0,0,213.168,108.36Z" transform="translate(-151.668 -64.624)" fill="#fff"/>
      <path id="Path_4079" data-name="Path 4079" d="M229.485,110.478A2.887,2.887,0,0,0,229.2,109a1.211,1.211,0,0,0-.89-.539,8.488,8.488,0,0,0-1.614-.046l-1.707.069v5.359c0,.423-.005.782-.013,1.077a6.1,6.1,0,0,1-.059.749l4.47-.07a4.843,4.843,0,0,0,1.778-.34,2.34,2.34,0,0,0,1.17-1.112,4.679,4.679,0,0,0,.422-2.175h.8l-.141,4.562H221.341v-.771a1.738,1.738,0,0,0,1.218-.41,1.582,1.582,0,0,0,.362-1.007q.035-.642.035-1.462v-10.11c0-.312.008-.611.023-.9s.031-.55.047-.784l-.843.047-.842.047v-1.029H232.6l.117,4.094h-.773a4.184,4.184,0,0,0-.42-2.093,2.09,2.09,0,0,0-1.136-.96,4.522,4.522,0,0,0-1.6-.222l-2.014.047a2.07,2.07,0,0,0-1.24.328,1.342,1.342,0,0,0-.457.9,11.946,11.946,0,0,0-.081,1.557v3.744l4.4.023-.164-2.013h1.03v4.915Z" transform="translate(-147.674 -64.611)" fill="#fff"/>
      <path id="Path_4080" data-name="Path 4080" d="M234.509,115.772a1.738,1.738,0,0,0,1.218-.41,1.59,1.59,0,0,0,.362-1.007q.035-.642.035-1.462v-10.11c0-.312.008-.611.023-.9s.031-.55.047-.784l-.843.047-.842.047v-1.029l5.523-.025a14.288,14.288,0,0,1,3.861.492,8.453,8.453,0,0,1,3.031,1.51,6.734,6.734,0,0,1,1.966,2.575,8.98,8.98,0,0,1,.689,3.661,8.6,8.6,0,0,1-.562,3.09,7.392,7.392,0,0,1-1.685,2.608,8.077,8.077,0,0,1-2.8,1.8,10.429,10.429,0,0,1-3.873.666h-6.155Zm3.652-1.989c0,.421-.005.779-.013,1.076a6.1,6.1,0,0,1-.059.749q.632.023,1.159.035c.35.008.648.012.889.012h.457a6.541,6.541,0,0,0,2.75-.562,6.218,6.218,0,0,0,2.1-1.556,7.081,7.081,0,0,0,1.358-2.34,9.378,9.378,0,0,0-.328-6.764,5.734,5.734,0,0,0-2.468-2.526,8.837,8.837,0,0,0-4.236-.9,1.647,1.647,0,0,0-1.206.351,1.487,1.487,0,0,0-.375.982c-.023.422-.034.913-.034,1.475Z" transform="translate(-143.711 -64.617)" fill="#fff"/>
      <path id="Path_4081" data-name="Path 4081" d="M254.974,100.929a1.65,1.65,0,0,0-1.206.4,1.586,1.586,0,0,0-.375,1.006q-.033.632-.034,1.475v9.946c0,.42-.005.783-.013,1.088a5.939,5.939,0,0,1-.059.761l.843-.047.843-.047v1.029h-5.266v-.771a1.738,1.738,0,0,0,1.218-.41,1.583,1.583,0,0,0,.362-1.007c.025-.428.035-.916.035-1.462v-10.11c0-.312.008-.611.023-.9s.031-.55.047-.784l-.842.047-.843.047v-1.029h5.266Z" transform="translate(-139.137 -64.611)" fill="#fff"/>
      <path id="Path_4082" data-name="Path 4082" d="M257.713,115.772a1.738,1.738,0,0,0,1.218-.41,1.583,1.583,0,0,0,.362-1.007q.035-.642.035-1.462v-10.11c0-.312.008-.611.023-.9s.031-.55.047-.784l-.842.047-.843.047v-1.029l5.523-.025a14.281,14.281,0,0,1,3.861.492,8.453,8.453,0,0,1,3.031,1.51,6.735,6.735,0,0,1,1.966,2.575,8.98,8.98,0,0,1,.689,3.661,8.6,8.6,0,0,1-.562,3.09,7.391,7.391,0,0,1-1.685,2.608,8.076,8.076,0,0,1-2.8,1.8,10.426,10.426,0,0,1-3.872.666h-6.156Zm3.652-1.989c0,.421-.005.779-.013,1.076a6.108,6.108,0,0,1-.059.749q.632.023,1.159.035c.35.008.648.012.889.012h.457a6.541,6.541,0,0,0,2.75-.562,6.218,6.218,0,0,0,2.1-1.556,7.08,7.08,0,0,0,1.358-2.34,9.378,9.378,0,0,0-.328-6.764,5.735,5.735,0,0,0-2.468-2.526,8.837,8.837,0,0,0-4.236-.9,1.649,1.649,0,0,0-1.206.351,1.487,1.487,0,0,0-.375.982q-.035.632-.034,1.475Z" transform="translate(-136.727 -64.617)" fill="#fff"/>
      <path id="Path_4083" data-name="Path 4083" d="M271.707,116.641v-.771a1.456,1.456,0,0,0,1.077-.375,2.851,2.851,0,0,0,.621-1.03q.246-.654.572-1.521L278.8,99.816h.562l5.218,13.315q.187.492.422,1.263a3.575,3.575,0,0,1,.187,1.311l.8-.047.795-.047v1.029H281.42v-.771a1.465,1.465,0,0,0,1.17-.4,1.163,1.163,0,0,0,.211-.89,4.122,4.122,0,0,0-.234-.935l-.818-2.2-6.086.141-.818,2.5c-.109.375-.207.673-.293.89s-.183.461-.293.726l.925-.047.9-.047v1.029Zm4.307-6.06h5.405l-1.661-4.47q-.258-.726-.528-1.439t-.526-1.44h-.047q-.234.656-.479,1.311t-.5,1.333Z" transform="translate(-132.516 -64.714)" fill="#fff"/>
      <path id="Path_4084" data-name="Path 4084" d="M298.053,105.1a9.128,9.128,0,0,0-.281-2.294,2.4,2.4,0,0,0-.9-1.369A3.091,3.091,0,0,0,295.01,101h-1.988L293,113.754q0,.63-.012,1.088a6.207,6.207,0,0,1-.058.761l.972-.047.971-.047v1.029h-5.5v-.771a1.655,1.655,0,0,0,1.206-.421,1.677,1.677,0,0,0,.351-1.017q.035-.644.035-1.44l.023-11.865-2.411.023a2.251,2.251,0,0,0-2.081.982,5.975,5.975,0,0,0-.609,3.066h-.866l.141-4.937H298.8l.14,4.937Z" transform="translate(-128.51 -64.611)" fill="#fff"/>
      <path id="Path_4085" data-name="Path 4085" d="M304.37,100.929a1.647,1.647,0,0,0-1.206.4,1.579,1.579,0,0,0-.375,1.006q-.035.632-.035,1.475v9.946c0,.42-.005.783-.012,1.088a6.186,6.186,0,0,1-.059.761l.842-.047.844-.047v1.029H299.1v-.771a1.734,1.734,0,0,0,1.216-.41,1.583,1.583,0,0,0,.363-1.007q.035-.642.035-1.462v-10.11c0-.312.008-.611.022-.9s.033-.55.048-.784l-.843.047-.842.047v-1.029h5.266Z" transform="translate(-124.271 -64.611)" fill="#fff"/>
      <path id="Path_4086" data-name="Path 4086" d="M315.117,117a8.911,8.911,0,0,1-3.816-.748,7.1,7.1,0,0,1-2.585-2,8.358,8.358,0,0,1-1.462-2.774,10.248,10.248,0,0,1-.47-3.043,9.589,9.589,0,0,1,.492-2.983,8.683,8.683,0,0,1,1.509-2.772,7.632,7.632,0,0,1,2.551-2.036,7.887,7.887,0,0,1,3.592-.773,8.327,8.327,0,0,1,3.721.773,7.494,7.494,0,0,1,2.588,2.046,9.067,9.067,0,0,1,1.521,2.774,9.285,9.285,0,0,1,.5,2.971,9.528,9.528,0,0,1-.492,2.961,8.771,8.771,0,0,1-1.509,2.784,7.594,7.594,0,0,1-2.539,2.049A7.875,7.875,0,0,1,315.117,117Zm.047-.959a4.972,4.972,0,0,0,2.526-.621,5.449,5.449,0,0,0,1.79-1.661,7.854,7.854,0,0,0,1.076-2.317,9.267,9.267,0,0,0,.364-2.563,10.718,10.718,0,0,0-.4-2.878,9.162,9.162,0,0,0-1.17-2.6,6.3,6.3,0,0,0-1.907-1.884,4.758,4.758,0,0,0-2.588-.714,4.963,4.963,0,0,0-2.538.632,5.557,5.557,0,0,0-1.8,1.673,7.918,7.918,0,0,0-1.076,2.317,9.407,9.407,0,0,0-.363,2.586,10.763,10.763,0,0,0,.363,2.692,9.5,9.5,0,0,0,1.112,2.62,6.171,6.171,0,0,0,1.9,1.966A4.849,4.849,0,0,0,315.163,116.041Z" transform="translate(-121.96 -64.698)" fill="#fff"/>
      <path id="Path_4087" data-name="Path 4087" d="M335.836,116.913,326.5,104.369c-.139-.186-.277-.369-.409-.549s-.269-.363-.41-.55h-.023l.069,10.016v1.17c0,.39-.014.773-.046,1.147l.843-.047.842-.047v1.029h-4.283v-.771a1.437,1.437,0,0,0,1.042-.316,1.48,1.48,0,0,0,.409-.749,3.738,3.738,0,0,0,.095-.783l.022-11.257v-1.568l-.771.047-.8.047v-1.029h2.785l8.775,11.748q.3.4.6.795c.194.265.394.531.6.8h.022l.025-10.719c0-.312.008-.611.023-.9s.03-.55.047-.784l-.843.047-.842.047v-1.029h4.3v.771a1.605,1.605,0,0,0-1.194.4,1.566,1.566,0,0,0-.35,1.006q-.023.632-.023,1.475l-.047,13.1Z" transform="translate(-117.055 -64.611)" fill="#fff"/>
    </g>
    <g id="Ellipse_26" data-name="Ellipse 26" transform="translate(7761.5 3241.427)" fill="none" stroke="#fff" stroke-miterlimit="10" stroke-width="1">
      <circle cx="65.004" cy="65.004" r="65.004" stroke="none"/>
      <circle cx="65.004" cy="65.004" r="64.504" fill="none"/>
    </g>
    <g id="Ellipse_27" data-name="Ellipse 27" transform="translate(7774.501 3254.428)" fill="none" stroke="#fff" stroke-miterlimit="10" stroke-width="0.75">
      <circle cx="52.004" cy="52.004" r="52.004" stroke="none"/>
      <circle cx="52.004" cy="52.004" r="51.629" fill="none"/>
    </g>
    <g id="Ellipse_28" data-name="Ellipse 28" transform="translate(7777.751 3257.678)" fill="none" stroke="#fff" stroke-miterlimit="10" stroke-width="0.25">
      <circle cx="48.753" cy="48.753" r="48.753" stroke="none"/>
      <circle cx="48.753" cy="48.753" r="48.628" fill="none"/>
    </g>
    <path id="Path_4088" data-name="Path 4088" d="M73.9,65.127a1.185,1.185,0,0,1-.57.353,1.145,1.145,0,0,1-.64-.027,1.671,1.671,0,0,1-.626-.385l-.046-.042a1.61,1.61,0,0,1-.414-.593,1.2,1.2,0,0,1-.066-.63,1.1,1.1,0,0,1,.285-.554,1.511,1.511,0,0,1,.4-.32,1.3,1.3,0,0,1,.4-.134L73,63.14l-.131.141-.31-.264a.865.865,0,0,0-.284.105,1.311,1.311,0,0,0-.3.248.841.841,0,0,0-.225.455,1,1,0,0,0,.064.527,1.4,1.4,0,0,0,.356.506l.047.044a1.546,1.546,0,0,0,.532.34.961.961,0,0,0,.535.04A.924.924,0,0,0,73.761,65a1.268,1.268,0,0,0,.229-.317,1.426,1.426,0,0,0,.116-.291l-.526-.493-.388.4-.133-.125L73.6,63.6l.729.682a1.473,1.473,0,0,1-.42.843Z" transform="translate(7711.959 3202.974)" fill="#fff"/>
    <path id="Path_4089" data-name="Path 4089" d="M75.059,64l-.112-.118.2-.225-1.6-1.709-.241.19-.112-.12,1.425-1.337.409.435-.138.13-.3-.288-.887.833.705.752.8-.751.127.135-.8.751.779.83.929-.872-.269-.315.138-.129.408.435Z" transform="translate(7712.462 3202.339)" fill="#fff"/>
    <path id="Path_4090" data-name="Path 4090" d="M77.821,61.432a1.079,1.079,0,0,1-.425.221,1.014,1.014,0,0,1-.455.01,1.338,1.338,0,0,1-.454-.19,1.9,1.9,0,0,1-.422-.385l-.022-.027a1.89,1.89,0,0,1-.3-.485,1.283,1.283,0,0,1-.1-.483,1,1,0,0,1,.095-.446,1.094,1.094,0,0,1,.3-.373,1.122,1.122,0,0,1,.429-.225,1.02,1.02,0,0,1,.457-.009,1.293,1.293,0,0,1,.453.194,1.945,1.945,0,0,1,.418.385l.022.027a1.942,1.942,0,0,1,.3.484,1.256,1.256,0,0,1,.1.48,1.009,1.009,0,0,1-.095.446A1.125,1.125,0,0,1,77.821,61.432Zm-.125-.151a.834.834,0,0,0,.29-.429.9.9,0,0,0-.026-.515,1.659,1.659,0,0,0-.315-.548l-.025-.031a1.7,1.7,0,0,0-.476-.411.917.917,0,0,0-.5-.124.827.827,0,0,0-.477.2.811.811,0,0,0-.281.424.932.932,0,0,0,.023.518,1.588,1.588,0,0,0,.308.548l.026.03a1.623,1.623,0,0,0,.479.412.948.948,0,0,0,.507.121A.815.815,0,0,0,77.7,61.281Z" transform="translate(7713.2 3201.838)" fill="#fff"/>
    <path id="Path_4091" data-name="Path 4091" d="M79.237,60.33l-.095-.134.233-.2L78.01,58.092l-.263.157-.094-.133.933-.667a1.248,1.248,0,0,1,.45-.217.672.672,0,0,1,.4.025.761.761,0,0,1,.321.268.688.688,0,0,1,.139.384.667.667,0,0,1-.107.377,1.211,1.211,0,0,1-.327.338l-.522.38.617.864.263-.157.095.134Zm-.406-1.477.485-.347a.8.8,0,0,0,.346-.432.494.494,0,0,0-.09-.419.511.511,0,0,0-.377-.234.778.778,0,0,0-.5.181l-.5.36Zm1.893.411-1.261-.758.181-.131,1.1.65.189-.117.1.134Z" transform="translate(7713.803 3201.294)" fill="#fff"/>
    <path id="Path_4092" data-name="Path 4092" d="M82.5,58.107a1.165,1.165,0,0,1-.641.191,1.123,1.123,0,0,1-.61-.193,1.641,1.641,0,0,1-.5-.535l-.031-.051a1.568,1.568,0,0,1-.246-.682,1.163,1.163,0,0,1,.1-.623,1.083,1.083,0,0,1,.419-.462,1.528,1.528,0,0,1,.474-.206,1.385,1.385,0,0,1,.424-.023l.267.431-.164.1-.232-.337a.9.9,0,0,0-.3.03,1.3,1.3,0,0,0-.353.16.848.848,0,0,0-.336.381,1,1,0,0,0-.075.527,1.38,1.38,0,0,0,.212.582l.033.053a1.542,1.542,0,0,0,.428.467.938.938,0,0,0,.5.177.916.916,0,0,0,.529-.152A1.378,1.378,0,0,0,82.7,57.7a1.54,1.54,0,0,0,.186-.252l-.379-.613-.48.288-.095-.154.667-.412.523.848a1.493,1.493,0,0,1-.211.351A1.553,1.553,0,0,1,82.5,58.107Z" transform="translate(7714.647 3200.784)" fill="#fff"/>
    <path id="Path_4093" data-name="Path 4093" d="M83.9,57.191l-.079-.142.256-.168-1.131-2.055-.28.125-.078-.143.731-.4.078.143-.254.168,1.128,2.055.278-.126.078.143Z" transform="translate(7715.29 3200.45)" fill="#fff"/>
    <path id="Path_4094" data-name="Path 4094" d="M85.045,56.484l-.072-.147.176-.1-.235-2.711.193-.092,1.967,1.876.187-.074.069.144-.6.291-.07-.146.208-.12-.471-.455-1.1.529.062.653.222-.088.07.146Zm.229-1.21.969-.464-1.023-.991-.082-.083-.01.005.013.116Z" transform="translate(7715.988 3200.157)" fill="#fff"/>
    <path id="Path_4095" data-name="Path 4095" d="M88,55.3l-.061-.151.273-.135-.865-2.178-.291.09-.061-.154.282-.113.209-.083,2.31,1.6.009-.008-.794-2-.3.095-.06-.152.489-.2.284-.112.061.154-.273.135.931,2.352-.194.077-2.326-1.6-.009.008.8,2.006.3-.1L88.77,55Z" transform="translate(7716.613 3199.669)" fill="#fff"/>
    <path id="Path_4096" data-name="Path 4096" d="M93.486,53.309a1.231,1.231,0,0,1-.7.014,1.119,1.119,0,0,1-.535-.358,1.694,1.694,0,0,1-.328-.65l-.009-.034a1.625,1.625,0,0,1-.053-.731,1.149,1.149,0,0,1,.268-.583,1.127,1.127,0,0,1,.559-.341,1.353,1.353,0,0,1,.487-.055,1.211,1.211,0,0,1,.4.109l.142.51-.182.051L93.4,50.83a1.217,1.217,0,0,0-.2-.055A.947.947,0,0,0,93,50.767a1.17,1.17,0,0,0-.256.047.9.9,0,0,0-.454.284.987.987,0,0,0-.212.492,1.516,1.516,0,0,0,.053.627l.012.038a1.521,1.521,0,0,0,.285.574.938.938,0,0,0,.446.3,1,1,0,0,0,.567-.007,1.215,1.215,0,0,0,.306-.133.882.882,0,0,0,.229-.182l-.092-.4.181-.052.147.522a1.243,1.243,0,0,1-.316.259A1.673,1.673,0,0,1,93.486,53.309Z" transform="translate(7718.072 3199.294)" fill="#fff"/>
    <path id="Path_4097" data-name="Path 4097" d="M94.92,52.864l-.034-.159.294-.087-.5-2.292-.3.04-.035-.161.3-.064.22-.047.3-.065.035.161-.291.087.493,2.295,1.118-.242-.074-.433.18-.039.131.61Z" transform="translate(7718.827 3199.132)" fill="#fff"/>
    <path id="Path_4098" data-name="Path 4098" d="M97.388,52.359l-.026-.16.3-.073-.38-2.314-.3.026-.027-.163.822-.135.027.163-.3.073.382,2.314.306-.026.026.16Z" transform="translate(7719.609 3198.985)" fill="#fff"/>
    <path id="Path_4099" data-name="Path 4099" d="M99.033,52.131l-.018-.161.3-.056-.254-2.331-.3.009-.018-.164.3-.034.225-.023,1.8,2.157.01-.005-.23-2.134-.32.01-.018-.164.526-.056.3-.034.016.163-.3.057.273,2.517-.207.022L99.3,49.74l-.012.005.234,2.145.319-.01.017.161Z" transform="translate(7720.149 3198.866)" fill="#fff"/>
    <path id="Path_4100" data-name="Path 4100" d="M102.055,51.8l-.008-.161.3-.042-.122-2.342-.307-.007-.008-.164.833-.046.008.164-.3.04.126,2.342.3.008.009.163Z" transform="translate(7721.104 3198.833)" fill="#fff"/>
    <path id="Path_4101" data-name="Path 4101" d="M105.01,51.758a1.242,1.242,0,0,1-.68-.176,1.092,1.092,0,0,1-.416-.488,1.705,1.705,0,0,1-.142-.716v-.036a1.664,1.664,0,0,1,.147-.717,1.11,1.11,0,0,1,1.045-.667,1.348,1.348,0,0,1,.484.078,1.231,1.231,0,0,1,.359.215v.529h-.191l-.02-.435a1.011,1.011,0,0,0-.173-.1.863.863,0,0,0-.2-.066,1.283,1.283,0,0,0-.259-.023.9.9,0,0,0-.516.151.979.979,0,0,0-.336.418,1.52,1.52,0,0,0-.116.617v.04a1.562,1.562,0,0,0,.12.63.941.941,0,0,0,.35.412,1,1,0,0,0,.546.144,1.267,1.267,0,0,0,.332-.043,1.011,1.011,0,0,0,.269-.114L105.63,51h.189v.543a1.354,1.354,0,0,1-.375.164A1.794,1.794,0,0,1,105.01,51.758Z" transform="translate(7721.663 3198.81)" fill="#fff"/>
    <path id="Path_4102" data-name="Path 4102" d="M107.42,51.834a1.594,1.594,0,0,1-.9-.346l.03-.526.187.012,0,.425a1.347,1.347,0,0,0,.332.173,1.326,1.326,0,0,0,.355.072.993.993,0,0,0,.379-.043.579.579,0,0,0,.258-.17.449.449,0,0,0,.105-.268.473.473,0,0,0-.056-.265.593.593,0,0,0-.221-.213,2.062,2.062,0,0,0-.427-.183,2.1,2.1,0,0,1-.474-.208.7.7,0,0,1-.262-.263.648.648,0,0,1-.068-.35.61.61,0,0,1,.13-.351.7.7,0,0,1,.317-.228,1.138,1.138,0,0,1,.458-.061,1.351,1.351,0,0,1,.484.112,1.178,1.178,0,0,1,.354.233l-.03.484-.185-.01,0-.386a.871.871,0,0,0-.269-.165,1.14,1.14,0,0,0-.36-.077.854.854,0,0,0-.347.046.541.541,0,0,0-.232.165.434.434,0,0,0-.092.248.448.448,0,0,0,.048.245.507.507,0,0,0,.2.2,2.217,2.217,0,0,0,.416.178,1.68,1.68,0,0,1,.648.346.632.632,0,0,1,.194.52.607.607,0,0,1-.14.369.785.785,0,0,1-.343.232A1.24,1.24,0,0,1,107.42,51.834Z" transform="translate(7722.492 3198.834)" fill="#fff"/>
    <path id="Path_4103" data-name="Path 4103" d="M110.591,52.061l.027-.16.2.02,1.365-2.356.209.035.535,2.666.2.046-.026.16-.662-.109.027-.159.238.022-.125-.643-1.2-.2-.325.57.232.055-.025.16Zm.883-.859,1.06.173-.269-1.4-.02-.114-.012,0-.055.1Z" transform="translate(7723.716 3198.992)" fill="#fff"/>
    <path id="Path_4104" data-name="Path 4104" d="M114.618,52.877a1.244,1.244,0,0,1-.623-.325,1.109,1.109,0,0,1-.3-.57,1.717,1.717,0,0,1,.022-.729l.008-.035a1.682,1.682,0,0,1,.3-.666,1.154,1.154,0,0,1,.515-.382,1.115,1.115,0,0,1,.656-.03,1.307,1.307,0,0,1,.451.185,1.205,1.205,0,0,1,.3.289l-.118.515-.186-.042.079-.427a.921.921,0,0,0-.144-.141.859.859,0,0,0-.182-.111,1.214,1.214,0,0,0-.246-.079.868.868,0,0,0-.536.03.979.979,0,0,0-.422.33,1.455,1.455,0,0,0-.252.575l-.01.039a1.477,1.477,0,0,0-.022.64.913.913,0,0,0,.245.48,1,1,0,0,0,.5.265,1.316,1.316,0,0,0,.332.031.941.941,0,0,0,.289-.049l.111-.4.183.042-.121.528a1.261,1.261,0,0,1-.4.075A1.679,1.679,0,0,1,114.618,52.877Z" transform="translate(7724.643 3199.155)" fill="#fff"/>
    <path id="Path_4105" data-name="Path 4105" d="M117.259,53.585a1.231,1.231,0,0,1-.6-.364,1.107,1.107,0,0,1-.259-.587,1.741,1.741,0,0,1,.069-.727l.01-.034a1.694,1.694,0,0,1,.347-.645,1.179,1.179,0,0,1,.537-.349,1.14,1.14,0,0,1,.656.013,1.315,1.315,0,0,1,.441.213,1.147,1.147,0,0,1,.281.308l-.151.507-.181-.055.107-.42a1.181,1.181,0,0,0-.137-.151.879.879,0,0,0-.174-.121,1.381,1.381,0,0,0-.241-.1.877.877,0,0,0-.536,0,.962.962,0,0,0-.442.3,1.5,1.5,0,0,0-.291.557l-.012.038a1.5,1.5,0,0,0-.062.639.923.923,0,0,0,.213.494.971.971,0,0,0,.481.3,1.219,1.219,0,0,0,.329.055.962.962,0,0,0,.293-.031l.135-.389.181.055-.156.519a1.322,1.322,0,0,1-.406.049A1.746,1.746,0,0,1,117.259,53.585Z" transform="translate(7725.46 3199.375)" fill="#fff"/>
    <path id="Path_4106" data-name="Path 4106" d="M118.722,54.042l.057-.155.294.083.817-2.2-.277-.129.056-.152,1.077.4a1.28,1.28,0,0,1,.432.252.674.674,0,0,1,.2.342.737.737,0,0,1-.042.416.651.651,0,0,1-.613.454,1.222,1.222,0,0,1-.464-.082l-.606-.22-.371.994.277.13-.057.154Zm1-1.163.558.208a.791.791,0,0,0,.553.046.493.493,0,0,0,.3-.311.514.514,0,0,0-.016-.441.788.788,0,0,0-.429-.315l-.583-.215Zm.717,1.8-.074-1.469.208.075.078,1.279.206.092-.059.156Z" transform="translate(7726.162 3199.573)" fill="#fff"/>
    <path id="Path_4107" data-name="Path 4107" d="M121.358,55.044l.066-.148.288.1.958-2.14-.268-.146.066-.151,1.784.8-.242.544-.174-.078.151-.382-1.11-.5-.42.941,1,.448-.077.17-1-.449-.466,1.039,1.164.52.185-.372.173.078-.243.544Z" transform="translate(7726.956 3199.894)" fill="#fff"/>
    <path id="Path_4108" data-name="Path 4108" d="M123.8,56.156l.075-.144.281.121,1.092-2.074-.258-.164.077-.146.272.142.658.349a1.067,1.067,0,0,1,.461.438,1.169,1.169,0,0,1,.144.611,1.522,1.522,0,0,1-.189.68l-.021.04a1.551,1.551,0,0,1-.45.541,1.182,1.182,0,0,1-.587.229,1.069,1.069,0,0,1-.617-.13Zm.555.081.463.245a.836.836,0,0,0,.51.1,1.026,1.026,0,0,0,.488-.209,1.4,1.4,0,0,0,.38-.462l.021-.044a1.354,1.354,0,0,0,.167-.575.979.979,0,0,0-.1-.516.834.834,0,0,0-.369-.364l-.463-.243Z" transform="translate(7727.692 3200.252)" fill="#fff"/>
    <path id="Path_4109" data-name="Path 4109" d="M126.257,57.479l.082-.139.275.134,1.2-2.014-.247-.177.082-.142.717.427-.083.142-.275-.135-1.2,2.015.25.177-.083.138Z" transform="translate(7728.431 3200.671)" fill="#fff"/>
    <path id="Path_4110" data-name="Path 4110" d="M127.744,58.364l.091-.135.267.148,1.3-1.949-.239-.189.091-.137.252.169.622.416a1.1,1.1,0,0,1,.412.484,1.2,1.2,0,0,1,.079.624,1.5,1.5,0,0,1-.26.656l-.025.038a1.506,1.506,0,0,1-.506.489,1.162,1.162,0,0,1-.6.168,1.07,1.07,0,0,1-.6-.194Zm.544.138.433.291a.836.836,0,0,0,.5.15,1.021,1.021,0,0,0,.507-.157,1.379,1.379,0,0,0,.427-.42l.027-.04a1.394,1.394,0,0,0,.228-.554,1,1,0,0,0-.052-.526.842.842,0,0,0-.328-.4l-.437-.291Z" transform="translate(7728.878 3200.96)" fill="#fff"/>
    <path id="Path_4111" data-name="Path 4111" d="M129.941,59.677l.1-.129.168.111,2.312-1.434.17.13-.787,2.6.152.131-.1.129-.531-.407.1-.129.2.131.194-.626-.968-.742-.555.35.18.159-.1.13Zm1.184-.341.851.652.422-1.359.039-.109-.009-.007-.1.064Z" transform="translate(7729.539 3201.599)" fill="#fff"/>
    <path id="Path_4112" data-name="Path 4112" d="M132.505,61.955l.105-.124.247.181,1.536-1.777-.576-.5-.29.3-.138-.12.39-.453,1.638,1.418-.392.451-.138-.118.252-.33-.578-.5-1.538,1.777.215.217-.107.124Z" transform="translate(7730.311 3201.971)" fill="#fff"/>
    <path id="Path_4113" data-name="Path 4113" d="M134.175,63.332l.112-.117.237.193,1.624-1.69-.2-.229.113-.118.6.578-.113.118-.237-.194-1.624,1.691.2.228-.113.117Z" transform="translate(7730.813 3202.545)" fill="#fff"/>
    <path id="Path_4114" data-name="Path 4114" d="M136.055,65.267a1.068,1.068,0,0,1-.246-.408,1.007,1.007,0,0,1-.039-.454,1.269,1.269,0,0,1,.161-.466,1.812,1.812,0,0,1,.356-.442l.026-.025a1.876,1.876,0,0,1,.464-.328,1.319,1.319,0,0,1,.476-.13,1.016,1.016,0,0,1,.451.068,1.07,1.07,0,0,1,.392.275,1.085,1.085,0,0,1,.252.414,1.051,1.051,0,0,1,.038.455,1.291,1.291,0,0,1-.165.463,2,2,0,0,1-.358.441l-.026.025a1.974,1.974,0,0,1-.464.328,1.309,1.309,0,0,1-.472.134,1.042,1.042,0,0,1-.451-.069A1.1,1.1,0,0,1,136.055,65.267Zm.144-.133a.824.824,0,0,0,.448.263.913.913,0,0,0,.513-.059,1.7,1.7,0,0,0,.526-.349l.03-.026a1.706,1.706,0,0,0,.38-.5.94.94,0,0,0,.091-.509.89.89,0,0,0-.671-.718.948.948,0,0,0-.516.056,1.591,1.591,0,0,0-.527.343l-.029.027a1.646,1.646,0,0,0-.381.5.932.932,0,0,0-.087.513A.8.8,0,0,0,136.2,65.134Z" transform="translate(7731.29 3203.039)" fill="#fff"/>
    <path id="Path_4115" data-name="Path 4115" d="M137.328,66.582l.127-.1.211.221,1.82-1.478-.173-.252.126-.1.194.237.142.174-.834,2.681.009.007,1.667-1.354-.182-.261.129-.1.332.41.193.238-.128.1-.212-.221-1.963,1.6-.133-.163.833-2.7-.01-.007L137.8,66.864l.182.261-.126.1Z" transform="translate(7731.762 3203.598)" fill="#fff"/>
    <path id="Path_4116" data-name="Path 4116" d="M69.476,118.9l.105-.073a.711.711,0,0,1-.22.838l-1.179.816a.728.728,0,0,1-1.075-.242c-.312-.45-.288-.865,0-1.063a.751.751,0,0,1,.458-.124l.124.177a1.033,1.033,0,0,0-.4.147.519.519,0,0,0-.1.807.533.533,0,0,0,.743.191l.8-.552a.614.614,0,0,0,.043-.813c-.187-.272-.4-.289-.559-.176a.468.468,0,0,0-.125.143l-.138-.2a.53.53,0,0,1,.125-.127c.247-.17.576.021.757.28a.949.949,0,0,1,.168.7l.3-.209A.506.506,0,0,0,69.476,118.9Z" transform="translate(7710.562 3219.763)" fill="#fff"/>
    <path id="Path_4117" data-name="Path 4117" d="M68.634,122.4a.771.771,0,0,1,.068-1.112.9.9,0,0,1,.575-.172l.122.156a1.064,1.064,0,0,0-.516.211.632.632,0,0,0-.129.918.5.5,0,0,0,.73.121l.6-.471c.431-.334.07-1.241.448-1.536a.887.887,0,0,1,.125-.072l.121.156-.056.046c-.484.375-.023,1.226-.5,1.592l-.5.393A.765.765,0,0,1,68.634,122.4Z" transform="translate(7711.028 3220.324)" fill="#fff"/>
    <path id="Path_4118" data-name="Path 4118" d="M70.329,123.316l.5-.448c.814-.725,1.85.744,2.243.393l.177.2-.049.043c-.5.448-1.3-1.261-2.212-.451a.751.751,0,0,1,.588.262.683.683,0,0,1,.117.783.722.722,0,0,1,.783.229.843.843,0,0,1-.066,1.172.817.817,0,0,1-1.067.057l.086-.079a.523.523,0,0,0,.619-.01l.31-.274a.571.571,0,0,0-.76-.853l-.336.3-.157-.178.338-.3a.54.54,0,0,0,.068-.775.591.591,0,0,0-.818-.066l-.32.285a.519.519,0,0,0-.088.606l-.078.072A.716.716,0,0,1,70.329,123.316Z" transform="translate(7711.524 3220.992)" fill="#fff"/>
    <path id="Path_4119" data-name="Path 4119" d="M72.918,126l.695-.73a.875.875,0,0,1,1.517.755.753.753,0,0,1,.79.177.815.815,0,0,1-.046,1.226l-.695.73a.813.813,0,0,1-1.22.1l-.033-.03.065-.068.034.033a.588.588,0,0,0,.856-.065l.954-1a.577.577,0,1,0-.831-.792l-.826.866a.872.872,0,1,1-1.259-1.2Zm.961,1.177.954-1a.637.637,0,1,0-.921-.879l-.955,1a.637.637,0,0,0,.922.878Z" transform="translate(7712.294 3221.683)" fill="#fff"/>
    <path id="Path_4120" data-name="Path 4120" d="M76.02,129.2a.892.892,0,0,1,.5-.29l.157.129a1.369,1.369,0,0,0-.467.342.66.66,0,0,0,.13.939.613.613,0,0,0,.9-.1l1.015-1.263a.388.388,0,0,0-.057-.541.393.393,0,0,0-.549.055l-.386.479-.181-.147.42-.522c.135-.167.155-.3.07-.368-.23-.183-.726.406-1.154.062a.332.332,0,0,1-.069-.5.561.561,0,0,1,.5-.2l.267.215a.73.73,0,0,0-.689.174.127.127,0,0,0,.02.2c.248.2.791-.337,1.112-.078a.39.39,0,0,1,.125.484.531.531,0,0,1,.563.069.6.6,0,0,1,.1.885l-.894,1.11a.78.78,0,0,1-1.167.066A.871.871,0,0,1,76.02,129.2Z" transform="translate(7713.269 3222.378)" fill="#fff"/>
    <path id="Path_4121" data-name="Path 4121" d="M78.912,131.1a3.279,3.279,0,0,0-.721-.376l.109-.161.663.446a1.068,1.068,0,0,1-.036-1.236.764.764,0,0,1,1.086-.226.619.619,0,0,1,.284.708.64.64,0,0,1,1,.693.645.645,0,0,1,.77-.021.729.729,0,0,1,.216,1.041.866.866,0,0,1-1.1.282l.061-.091a.555.555,0,0,0,.7-.155l.2-.3a.5.5,0,1,0-.836-.563l-.209.311-.193-.13.219-.327a.485.485,0,1,0-.805-.541l-.219.327-.194-.13.2-.3a.516.516,0,1,0-.856-.576l-.2.3c-.329.487.157,1.019.667,1.565.752.8.957,1.193.794,1.626l-.268-.18C80.524,132.6,79.752,131.669,78.912,131.1Z" transform="translate(7713.965 3223.024)" fill="#fff"/>
    <path id="Path_4122" data-name="Path 4122" d="M81.965,133.207l.548-.974a.873.873,0,1,1,1.521.853l-.536.955a.821.821,0,0,1-.9.451l.057-.1a.6.6,0,0,0,.541-.3l.721-1.283a.637.637,0,1,0-1.112-.623l-.73,1.3a.574.574,0,0,0-.01.552l-.068.118A.818.818,0,0,1,81.965,133.207Z" transform="translate(7715.061 3223.723)" fill="#fff"/>
    <path id="Path_4123" data-name="Path 4123" d="M87.928,134.034l.036-.091c.382.216.5.516.386.777a.585.585,0,0,1-.648.345.515.515,0,0,1,.243.674l-.2.454a.736.736,0,0,1-1.023.306c-.509-.219-.682-.617-.513-1.006a1.119,1.119,0,0,1,.362-.435l.211.091a1.442,1.442,0,0,0-.319.423.6.6,0,0,0,.3.844.533.533,0,0,0,.729-.234l.248-.576a.393.393,0,0,0-.232-.566l-.237-.1.035-.079.229.1a.393.393,0,0,0,.527-.241l.073-.168C88.249,134.307,88.11,134.15,87.928,134.034Z" transform="translate(7716.361 3224.386)" fill="#fff"/>
    <path id="Path_4124" data-name="Path 4124" d="M89.48,136.635a3.282,3.282,0,0,0-.8-.176l.064-.185.762.256a1.065,1.065,0,0,1-.363-1.185.766.766,0,0,1,.993-.507.622.622,0,0,1,.462.61.642.642,0,0,1,1.149.407.648.648,0,0,1,.743-.224.731.731,0,0,1,.484.95.866.866,0,0,1-.993.565l.035-.1a.553.553,0,0,0,.634-.336l.116-.349a.506.506,0,1,0-.959-.323l-.12.355-.222-.075.126-.372a.487.487,0,1,0-.922-.312l-.125.373-.222-.073.114-.346a.52.52,0,0,0-.327-.658.515.515,0,0,0-.653.329l-.114.336c-.189.559.424.948,1.062,1.339.941.579,1.242.9,1.2,1.367l-.308-.105C91.438,137.657,90.444,136.959,89.48,136.635Z" transform="translate(7717.122 3224.643)" fill="#fff"/>
    <path id="Path_4125" data-name="Path 4125" d="M92.953,137.867l.271-1.08a.869.869,0,1,1,1.683.424l-.265,1.056a.816.816,0,0,1-.742.669l.029-.113a.6.6,0,0,0,.441-.431l.358-1.421a.635.635,0,0,0-1.232-.31l-.362,1.444a.569.569,0,0,0,.135.531l-.034.133A.814.814,0,0,1,92.953,137.867Z" transform="translate(7718.397 3225.03)" fill="#fff"/>
    <path id="Path_4126" data-name="Path 4126" d="M95.528,138.454l.243-1.283a.593.593,0,0,1,.76-.527l.967.185-.173.141c-.515-.046-.511-.176-.783-.228a.378.378,0,0,0-.514.332l-.17.9a.73.73,0,0,1,.66-.165.823.823,0,0,1,.682.96.85.85,0,0,1-1.67-.317Zm1.379.42.052-.273a.6.6,0,0,0-1.173-.246l-.056.3a.6.6,0,0,0,1.177.224Z" transform="translate(7719.178 3225.194)" fill="#fff"/>
    <path id="Path_4127" data-name="Path 4127" d="M98.127,138.962l.144-1.107a.872.872,0,1,1,1.726.226l-.143,1.085a.821.821,0,0,1-.661.751l.016-.117a.594.594,0,0,0,.389-.48l.191-1.454a.636.636,0,0,0-1.261-.165l-.2,1.479a.574.574,0,0,0,.2.513l-.018.135A.816.816,0,0,1,98.127,138.962Z" transform="translate(7719.961 3225.321)" fill="#fff"/>
    <path id="Path_4128" data-name="Path 4128" d="M101.855,137.414l.007-.1c.433.077.641.321.622.608a.585.585,0,0,1-.5.54.514.514,0,0,1,.454.554l-.034.494a.736.736,0,0,1-.864.628c-.552-.039-.847-.356-.818-.779a1.128,1.128,0,0,1,.2-.531l.23.016a1.435,1.435,0,0,0-.16.506.6.6,0,0,0,.565.695.531.531,0,0,0,.61-.463l.044-.624a.393.393,0,0,0-.406-.459l-.256-.017.005-.086.248.017a.39.39,0,0,0,.419-.4l.013-.182C102.251,137.566,102.066,137.464,101.855,137.414Z" transform="translate(7720.746 3225.401)" fill="#fff"/>
    <path id="Path_4129" data-name="Path 4129" d="M103.6,139.536a.583.583,0,0,0,.578.631.557.557,0,0,0,.567-.6l.023-1.564a.5.5,0,0,0-.536-.5.465.465,0,0,0-.523.429.632.632,0,0,0,.047.247l-.268,0a.407.407,0,0,1-.01-.121.684.684,0,0,1,.764-.645.7.7,0,0,1,.76.691l-.021,1.414a.725.725,0,0,1-.808.739.761.761,0,0,1-.837-.77,1.2,1.2,0,0,1,.3-.747l.212,0A1.632,1.632,0,0,0,103.6,139.536Z" transform="translate(7721.533 3225.431)" fill="#fff"/>
    <path id="Path_4130" data-name="Path 4130" d="M106,139.415a.863.863,0,0,1,.856-.874l-.022-.487c-.009-.207-.234-.267-.424-.3a.659.659,0,0,1-.533.459l0-.082a.468.468,0,0,0,.338-.442.573.573,0,0,0-.1-.261l.259-.012a.684.684,0,0,1,.043.178c.336.057.641.185.657.507l.022.461a.838.838,0,0,1,.684.769.892.892,0,0,1-1.777.085Zm1.517.04-.01-.225a.624.624,0,1,0-1.246.059l.01.226a.624.624,0,1,0,1.246-.06Z" transform="translate(7722.294 3225.431)" fill="#fff"/>
    <path id="Path_4131" data-name="Path 4131" d="M108.69,139.3l-.118-1.11a.871.871,0,1,1,1.729-.183l.116,1.085a.82.82,0,0,1-.466.886l-.013-.117a.6.6,0,0,0,.265-.557l-.155-1.457a.636.636,0,1,0-1.265.134l.16,1.48a.571.571,0,0,0,.31.453l.016.135A.814.814,0,0,1,108.69,139.3Z" transform="translate(7723.106 3225.361)" fill="#fff"/>
    <path id="Path_4132" data-name="Path 4132" d="M112.7,138.329a.728.728,0,0,1,.22-.559l.207-.035c-.22.222-.288.349-.271.445.033.189.407.229.468.588.07.428-.3.735-.725.807a.765.765,0,0,1-.968-.6l-.254-1.508a.465.465,0,0,0-.4-.394l-.02-.109a.618.618,0,0,1,.657.47l.276,1.648a.561.561,0,0,0,.682.4.554.554,0,0,0,.506-.6C113.015,138.533,112.738,138.56,112.7,138.329Z" transform="translate(7723.825 3225.295)" fill="#fff"/>
    <path id="Path_4133" data-name="Path 4133" d="M117.15,138.541a.773.773,0,0,1-1-.485.91.91,0,0,1,.06-.6l.191-.053a1.066,1.066,0,0,0,0,.558.633.633,0,0,0,.8.47.5.5,0,0,0,.393-.63l-.206-.74c-.146-.526-1.124-.539-1.252-1a.567.567,0,0,1-.02-.144l.19-.053.021.072c.164.589,1.125.488,1.287,1.067l.172.617A.77.77,0,0,1,117.15,138.541Z" transform="translate(7725.377 3224.964)" fill="#fff"/>
    <path id="Path_4134" data-name="Path 4134" d="M118.895,135.145l-.034-.094c.429-.1.718.047.811.316a.585.585,0,0,1-.25.692.516.516,0,0,1,.634.336l.161.467a.735.735,0,0,1-.553.915.746.746,0,0,1-1.055-.4,1.115,1.115,0,0,1-.025-.565l.217-.074a1.491,1.491,0,0,0,.048.526.6.6,0,0,0,.792.423.533.533,0,0,0,.384-.663l-.2-.593a.392.392,0,0,0-.553-.264l-.243.083-.026-.081.234-.082a.391.391,0,0,0,.23-.532l-.06-.173C119.317,135.13,119.108,135.107,118.895,135.145Z" transform="translate(7726.114 3224.71)" fill="#fff"/>
    <path id="Path_4135" data-name="Path 4135" d="M121.17,136.564l-.261-.619c-.424-1,1.3-1.51,1.094-2l.245-.1.026.061c.261.618-1.614.826-1.141,1.948a.75.75,0,0,1,.437-.474.683.683,0,0,1,.779.142.718.718,0,0,1,.468-.667.84.84,0,0,1,1.086.438.813.813,0,0,1-.289,1.029l-.044-.108a.522.522,0,0,0,.187-.588l-.161-.38a.569.569,0,1,0-1.049.442l.173.414-.22.092-.174-.416a.541.541,0,0,0-.714-.314.59.59,0,0,0-.325.753l.167.394a.517.517,0,0,0,.545.278l.042.1A.717.717,0,0,1,121.17,136.564Z" transform="translate(7726.801 3224.357)" fill="#fff"/>
    <path id="Path_4136" data-name="Path 4136" d="M124.775,134.911a.584.584,0,0,0,.807.288.555.555,0,0,0,.22-.792l-.709-1.393a.5.5,0,0,0-.706-.187.465.465,0,0,0-.26.624.615.615,0,0,0,.156.2l-.239.122a.472.472,0,0,1-.065-.1.684.684,0,0,1,.373-.926.7.7,0,0,1,.994.254l.643,1.261a.724.724,0,0,1-.368,1.03.763.763,0,0,1-1.1-.289,1.2,1.2,0,0,1-.087-.8l.187-.1A1.656,1.656,0,0,0,124.775,134.911Z" transform="translate(7727.723 3223.993)" fill="#fff"/>
    <path id="Path_4137" data-name="Path 4137" d="M126.576,133.551a1.5,1.5,0,0,1-.167-.816l.18-.109a1.676,1.676,0,0,0,.208.787,1.179,1.179,0,0,0,2.044-1.116.78.78,0,0,0-1.141-.174c-.255.152-.454.389-.306.636a.461.461,0,0,0,.52.178l-.009.109c-.293.117-.583.108-.713-.109-.14-.235,0-.481.2-.669a.547.547,0,0,1-.617-.207.6.6,0,0,1,.3-.794.611.611,0,0,1,.843.113.518.518,0,0,1-.06.574.943.943,0,0,1,1.219.229c.333.554-.059,1.223-.663,1.583A1.284,1.284,0,0,1,126.576,133.551Zm1.141-2.05a.43.43,0,1,0-.738.442.393.393,0,0,0,.588.15A.4.4,0,0,0,127.717,131.5Z" transform="translate(7728.476 3223.547)" fill="#fff"/>
    <path id="Path_4138" data-name="Path 4138" d="M129.835,131.9l-.634-.915a.87.87,0,1,1,1.428-.99l.621.9a.819.819,0,0,1,.013,1l-.066-.1a.6.6,0,0,0-.034-.618l-.831-1.2a.635.635,0,0,0-1.045.722l.846,1.223a.574.574,0,0,0,.489.248l.078.112A.811.811,0,0,1,129.835,131.9Z" transform="translate(7729.26 3223.072)" fill="#fff"/>
    <path id="Path_4139" data-name="Path 4139" d="M132.278,130.107a2.685,2.685,0,0,0-.332.34l-.095-.117.412-.332a.951.951,0,0,1-.863-.291l-.129-.16a.76.76,0,0,1,.116-1.093.71.71,0,0,1,.693-.122.9.9,0,0,1,.34-.706.865.865,0,0,1,1.216.1.848.848,0,0,1-.178,1.194.866.866,0,0,1-1.209-.081.747.747,0,0,1-.14-.28.461.461,0,0,0-.657-.035.5.5,0,0,0-.077.736l.286.359c.587.729,2.17-.689,2.736.016l-.207.166C133.916,129.454,132.814,129.677,132.278,130.107Zm1.224-2.134-.142-.173a.622.622,0,1,0-.971.779l.139.176a.624.624,0,0,0,.973-.782Z" transform="translate(7729.886 3222.423)" fill="#fff"/>
    <path id="Path_4140" data-name="Path 4140" d="M135.982,127.991a.773.773,0,0,1-1.114.025.912.912,0,0,1-.219-.561l.146-.134a1.057,1.057,0,0,0,.252.5.633.633,0,0,0,.925.053.5.5,0,0,0,.061-.74l-.518-.565c-.368-.4-1.244.034-1.568-.317a.713.713,0,0,1-.083-.122l.147-.133.049.055c.414.45,1.223-.077,1.629.364l.432.47A.767.767,0,0,1,135.982,127.991Z" transform="translate(7730.721 3221.994)" fill="#fff"/>
    <path id="Path_4141" data-name="Path 4141" d="M137.46,124.434a.7.7,0,0,1,.9.082,1.04,1.04,0,0,1-.143,1.439,1.343,1.343,0,0,1-1.985-.061,2.021,2.021,0,0,1-.582-1.322l.131-.139a2.019,2.019,0,0,0,.653,1.285c.509.485,1.209.705,1.7.187a.825.825,0,0,0,.029-1.209.627.627,0,0,0-.92,0l-.109.112-.059-.056.243-.255a.357.357,0,0,0-.005-.527c-.342-.327-.794.354-1.127.038l.163-.17.008.009c.282.269.829-.364,1.153-.055C137.633,123.914,137.717,124.141,137.46,124.434Z" transform="translate(7731.256 3221.306)" fill="#fff"/>
    <path id="Path_4142" data-name="Path 4142" d="M138.932,123.911l-.852-.717a.87.87,0,1,1,1.118-1.33l.834.7a.818.818,0,0,1,.278.96l-.09-.074a.6.6,0,0,0-.2-.587l-1.121-.942a.635.635,0,0,0-.817.972l1.14.958a.569.569,0,0,0,.537.111l.105.088A.818.818,0,0,1,138.932,123.911Z" transform="translate(7731.882 3220.679)" fill="#fff"/>
    <path id="Path_4143" data-name="Path 4143" d="M141.77,121.541a.773.773,0,0,1-1.09.237.922.922,0,0,1-.323-.509l.118-.16a1.047,1.047,0,0,0,.343.442.636.636,0,0,0,.921-.125.5.5,0,0,0-.082-.739l-.617-.455c-.441-.325-1.219.269-1.605-.014a.974.974,0,0,1-.1-.1l.118-.161.06.044c.493.363,1.189-.31,1.672.046l.515.381A.766.766,0,0,1,141.77,121.541Z" transform="translate(7732.366 3220.171)" fill="#fff"/>
    <path id="Path_4144" data-name="Path 4144" d="M60.276,80.159l1.793-.286.783-1.638.825,1.617,1.8.236-1.283,1.285.332,1.785-1.618-.823-1.594.867.281-1.794Z" transform="translate(7708.573 3207.621)" fill="none" stroke="#fff" stroke-miterlimit="10" stroke-width="0.25"/>
    <path id="Path_4145" data-name="Path 4145" d="M58.809,86.482l1.735-.532.547-1.731L62.133,85.7l1.815-.016-1.092,1.451.577,1.722-1.717-.589-1.458,1.08.029-1.816Z" transform="translate(7708.132 3209.422)" fill="none" stroke="#fff" stroke-miterlimit="10" stroke-width="0.25"/>
    <path id="Path_4146" data-name="Path 4146" d="M58.2,92.927l1.644-.769.3-1.791,1.238,1.327,1.8-.269L62.3,93.014l.811,1.625-1.782-.345-1.294,1.273-.224-1.8Z" transform="translate(7707.951 3211.272)" fill="none" stroke="#fff" stroke-miterlimit="10" stroke-width="0.25"/>
    <path id="Path_4147" data-name="Path 4147" d="M58.509,99.386l1.521-.99.049-1.815,1.411,1.141,1.74-.516-.649,1.7,1.029,1.5L61.8,100.3l-1.1,1.441-.473-1.753Z" transform="translate(7708.042 3213.142)" fill="none" stroke="#fff" stroke-miterlimit="10" stroke-width="0.25"/>
    <path id="Path_4148" data-name="Path 4148" d="M59.707,105.736l1.369-1.192-.2-1.8,1.556.934,1.651-.753-.407,1.769,1.227,1.338-1.808.16-.893,1.58-.712-1.67Z" transform="translate(7708.402 3214.995)" fill="none" stroke="#fff" stroke-miterlimit="10" stroke-width="0.25"/>
    <path id="Path_4149" data-name="Path 4149" d="M150.106,80.992l-1.794-.279-.788-1.636-.819,1.62-1.8.243,1.287,1.28-.325,1.786,1.615-.828,1.6.861-.287-1.793Z" transform="translate(7734.043 3207.874)" fill="none" stroke="#fff" stroke-miterlimit="10" stroke-width="0.25"/>
    <path id="Path_4150" data-name="Path 4150" d="M151.582,87.311l-1.737-.526-.553-1.73-1.036,1.49-1.815-.01,1.1,1.447-.571,1.724,1.715-.6,1.462,1.075-.035-1.815Z" transform="translate(7734.504 3209.673)" fill="none" stroke="#fff" stroke-miterlimit="10" stroke-width="0.25"/>
    <path id="Path_4151" data-name="Path 4151" d="M152.172,93.754l-1.647-.763-.307-1.79-1.234,1.331-1.8-.262.885,1.585-.805,1.627,1.781-.351,1.3,1.268.218-1.8Z" transform="translate(7734.729 3211.523)" fill="none" stroke="#fff" stroke-miterlimit="10" stroke-width="0.25"/>
    <path id="Path_4152" data-name="Path 4152" d="M151.917,100.214l-1.525-.985-.055-1.815-1.407,1.146-1.742-.51.655,1.693-1.024,1.5,1.812-.1,1.109,1.437.467-1.755Z" transform="translate(7734.619 3213.393)" fill="none" stroke="#fff" stroke-miterlimit="10" stroke-width="0.25"/>
    <path id="Path_4153" data-name="Path 4153" d="M150.763,106.568l-1.373-1.187.2-1.8-1.553.939-1.654-.747.413,1.768-1.222,1.342,1.809.153.9,1.577.706-1.673Z" transform="translate(7734.244 3215.247)" fill="none" stroke="#fff" stroke-miterlimit="10" stroke-width="0.25"/>
    <path id="Path_4154" data-name="Path 4154" d="M131.152,76.234a4.461,4.461,0,0,1-1.715,1.258c-1.469.665-1.65,3.885-4.514,3.97a5.346,5.346,0,0,0-4.518,2.17s-2.485-2.087-2.908-3.851a6.508,6.508,0,0,1,.064-3.524Z" transform="translate(7725.732 3207.019)" fill="#fff"/>
    <g id="Path_4155" data-name="Path 4155" transform="translate(7724.953 3218.096)" stroke-miterlimit="10">
      <path d="M115.153,129.226h-.286s-.079-6.648-.1-8.031c-.017-1.327-.068-7-.068-8.154h.423c-.013,3.693,0,7.389.014,10.2Z" stroke="none"/>
      <path d="M 115.1531372070313 129.2261047363281 L 114.8669281005859 129.2261047363281 C 114.8669281005859 129.2261047363281 114.7875671386719 122.5782623291016 114.7706298828125 121.1953430175781 C 114.7537231445313 119.8683853149414 114.7030029296875 114.1975555419922 114.7030029296875 113.0410003662109 L 115.1258087158203 113.0410003662109 C 115.11279296875 116.7344055175781 115.1258087158203 120.4303894042969 115.1401214599609 123.2391357421875 L 115.1531372070313 129.2261047363281 Z" stroke="none" fill="#fff"/>
    </g>
    <path id="Path_4156" data-name="Path 4156" d="M102.243,74.444a8.718,8.718,0,0,1-1.686-3.483,8,8,0,0,1-.01-4.015,5.752,5.752,0,0,1,2.59-3.269,7.9,7.9,0,0,1,8,.06,5.754,5.754,0,0,1,2.549,3.306,7.671,7.671,0,0,1-.137,4.017,9.32,9.32,0,0,1-1.755,3.446,11.556,11.556,0,0,0,1.062-3.588,7.479,7.479,0,0,0-.26-3.519,6.245,6.245,0,0,0-10.964-.077,7.892,7.892,0,0,0-.373,3.52A10.6,10.6,0,0,0,102.243,74.444Z" transform="translate(7720.616 3202.921)" fill="#fff"/>
    <path id="Path_4157" data-name="Path 4157" d="M101.865,71c-.012-5.15,6.252-6.653,8.539-3.193" transform="translate(7721.09 3203.92)" fill="none" stroke="#fff" stroke-miterlimit="10" stroke-width="0.5"/>
    <g id="Path_4158" data-name="Path 4158" transform="translate(7719.215 3218.349)" fill="#fff" stroke-miterlimit="10">
      <path d="M96.039,113.882c-.13,7.09-.055,15.065-.055,15.065h-.349s.039-7.78.039-15.065Z" stroke="none"/>
      <path d="M 95.67503356933594 113.8820037841797 L 96.03928375244141 113.8820037841797 C 95.90919494628906 120.97216796875 95.98464965820313 128.9469909667969 95.98464965820313 128.9469909667969 L 95.63600921630859 128.9469909667969 C 95.63600921630859 128.9469909667969 95.67503356933594 121.1673126220703 95.67503356933594 113.8820037841797 Z" stroke="none" fill="#fff"/>
    </g>
    <g id="Path_4159" data-name="Path 4159" transform="translate(7716.263 3206.606)" fill="#fff" stroke-miterlimit="10">
      <path d="M108.515,75.538c0,.039-.013.065-.013.1a10.739,10.739,0,0,0-.091,2.029c.026,4.488-.833,4.241-1.8,4.761-.859.455-2.2.624-3.421,2.121a3.628,3.628,0,0,0-2.784-.156c-2.55.468-2.875,2.719-3.421,5.282a13.2,13.2,0,0,1-2.8,5.594,13.159,13.159,0,0,0-3.122,6.258c-2.316,1.262-3.122,3.239-3.643,5.386s.013,11.643.013,11.643-.807,4.553-.976,5.854c-.234,2.121,1.21,2.459,2.068,2.459,1.678,0,2.212-.507,2.29-1.574a22.914,22.914,0,0,0-.807-6.544c.013-1.7,4.475-12.1,3.239-13.035.924-.833,6.127-7.532,7.168-9.809,1-1.444.52-5.321.442-5.932a82.459,82.459,0,0,1,1.769,10.108,20.361,20.361,0,0,1-.247,6.765v.013a14.4,14.4,0,0,1-.6,1.457c-.013.026-.013.039-.026.065a31.815,31.815,0,0,1-1.392,3.135c-1.015,1.964-1.054,4.033-1.171,6.934-.026.637-.052,1.34-.078,2.095h-.507c0-.742-.013-1.457-.013-2.134-.026-6.219,1.678-8.131,2.745-10.512a4.742,4.742,0,0,0,.182-.455,9.03,9.03,0,0,0,.624-3.422c0-4.787-.2-7.168-.585-8.508-.013-.13-.221-.143-.286-.026-.9,1.951-6.114,8.664-6.9,10.356-.013,0-.013,0-.013.013a16.59,16.59,0,0,1-1.392,5.36c-.65,1.717-1.925,6.752-2.029,7.155a.141.141,0,0,0-.013.065,50.521,50.521,0,0,1,.624,6.14v.351a2.991,2.991,0,0,1-.039.338,2.479,2.479,0,0,1-2.615,2.016h-.663a2.288,2.288,0,0,1-2.394-1.7c-.013-.182-.026-.377-.026-.6a37.481,37.481,0,0,1,.846-6.583v-8.977c0-5.373,2.055-7.181,3.461-8.964.013-.013.013-.013.013-.039a37.429,37.429,0,0,1,4.137-6.934,9.816,9.816,0,0,0,1.678-4.02,8.8,8.8,0,0,1,2.628-5.178c1.171-.9,3.3-.911,4.007-.9a1.352,1.352,0,0,0,.455-.091l3.187-1.561a2.681,2.681,0,0,0,1.535-2.407l.039-4.475S108.267,75.317,108.515,75.538Z" stroke="none"/>
      <path d="M 107.8120193481445 74.86199951171875 C 107.8120193481445 74.86199951171875 108.2673492431641 75.31733703613281 108.5145263671875 75.53849029541016 C 108.5145263671875 75.57752990722656 108.5015411376953 75.60355377197266 108.5015411376953 75.64257049560547 C 108.423454284668 76.20197296142578 108.3714370727539 76.87847900390625 108.4104461669922 77.67204284667969 C 108.4364776611328 82.16032409667969 107.5778656005859 81.91314697265625 106.6151428222656 82.43351745605469 C 105.7565307617188 82.88885498046875 104.4165496826172 83.05796051025391 103.1936492919922 84.55405426025391 C 102.6919479370117 84.27931213378906 102.2340316772461 84.19101715087891 101.8074798583984 84.19101715087891 C 101.3049468994141 84.19101715087891 100.8459167480469 84.31350708007813 100.4096221923828 84.39794921875 C 97.85974884033203 84.86629486083984 97.53453063964844 87.11692810058594 96.98812866210938 89.67979431152344 C 96.41572570800781 92.25565338134766 94.85458374023438 94.66242980957031 94.19107818603516 95.27388000488281 C 93.52762603759766 95.87230682373047 91.51113891601563 98.66934204101563 91.06882476806641 101.5314178466797 C 88.75312805175781 102.7933654785156 87.94654846191406 104.7707824707031 87.42617797851563 106.9173355102539 C 86.90577697753906 109.0509185791016 87.43920135498047 118.5608291625977 87.43920135498047 118.5608291625977 C 87.43920135498047 118.5608291625977 86.63259887695313 123.1141510009766 86.46347808837891 124.4151153564453 C 86.22929382324219 126.53564453125 87.67335510253906 126.8739013671875 88.53196716308594 126.8739013671875 C 90.21021270751953 126.8739013671875 90.74358367919922 126.3665466308594 90.82163238525391 125.2997741699219 C 90.97775268554688 123.8947296142578 90.4833984375 120.0309143066406 90.01506042480469 118.755989074707 C 90.02808380126953 117.0517349243164 94.49031829833984 106.6571884155273 93.25442504882813 105.7204895019531 C 94.17810821533203 104.8878784179688 99.38188171386719 98.18801116943359 100.4226303100586 95.91132354736328 C 101.4243774414063 94.46727752685547 100.9430084228516 90.5904541015625 100.8649597167969 89.97901916503906 C 101.0470962524414 90.68154144287109 102.3480606079102 96.43171691894531 102.6342544555664 100.0873718261719 C 102.8163833618164 102.5331649780273 102.9594955444336 104.4455642700195 102.3870697021484 106.8523178100586 L 102.3870697021484 106.8653182983398 C 102.2569885253906 107.3466796875 101.9967956542969 107.8019943237305 101.7886352539063 108.3223876953125 C 101.7756195068359 108.3484115600586 101.7756195068359 108.3614196777344 101.7625961303711 108.3874206542969 C 101.3983383178711 109.3501358032227 100.9560241699219 110.3648681640625 100.3706130981445 111.522705078125 C 99.35587310791016 113.4871520996094 99.31684875488281 115.5556716918945 99.19975280761719 118.4567489624023 C 99.17371368408203 119.0942230224609 99.147705078125 119.7967376708984 99.12166595458984 120.5513000488281 L 98.61431884765625 120.5513000488281 C 98.61431884765625 119.8097534179688 98.60130310058594 119.0942230224609 98.60130310058594 118.4177398681641 C 98.57530212402344 112.1991958618164 100.279541015625 110.2868194580078 101.3463134765625 107.9060668945313 C 101.4113616943359 107.7629776000977 101.4764251708984 107.6068572998047 101.5284576416016 107.4507598876953 C 101.8927154541016 106.5140686035156 102.1529083251953 105.4602890014648 102.1529083251953 104.0292358398438 C 102.1529083251953 99.24176025390625 101.9577484130859 96.86102294921875 101.5674896240234 95.52104187011719 C 101.5604705810547 95.45088958740234 101.4966659545898 95.41477966308594 101.4291915893555 95.41477966308594 C 101.3715591430664 95.41477966308594 101.3112411499023 95.44110870361328 101.2812805175781 95.49504089355469 C 100.3836212158203 97.44645690917969 95.16680145263672 104.1593475341797 94.38623046875 105.8505706787109 C 94.37324523925781 105.8505706787109 94.37324523925781 105.8505706787109 94.37324523925781 105.8635864257813 C 94.37324523925781 107.6588897705078 93.61868286132813 109.4412078857422 92.98120880126953 111.2234802246094 C 92.33074188232422 112.9407348632813 91.05583190917969 117.9753952026367 90.95175170898438 118.3787002563477 C 90.93874359130859 118.4047241210938 90.93874359130859 118.4307479858398 90.93874359130859 118.4437713623047 C 91.0037841796875 118.755989074707 91.51113891601563 122.0864105224609 91.56318664550781 124.5842361450195 L 91.56318664550781 124.9354782104492 C 91.56318664550781 125.0395584106445 91.53717803955078 125.1696548461914 91.52415466308594 125.2737274169922 C 91.3680419921875 126.5096054077148 90.21021270751953 127.2902069091797 88.90924835205078 127.2902069091797 L 88.24577331542969 127.2902069091797 C 87.11393737792969 127.2902069091797 86.04716491699219 126.6657409667969 85.85202026367188 125.5859527587891 C 85.83899688720703 125.4038238525391 85.82598876953125 125.2086791992188 85.82598876953125 124.9875411987305 C 85.82598876953125 122.3856353759766 86.61959075927734 118.5608291625977 86.67160797119141 118.4047241210938 L 86.67160797119141 109.4281997680664 C 86.67160797119141 104.0552673339844 88.72711944580078 102.2469635009766 90.13214874267578 100.4646453857422 C 90.1451416015625 100.4516296386719 90.1451416015625 100.4516296386719 90.1451416015625 100.4256362915039 C 91.0037841796875 98.24003601074219 92.91618347167969 95.39096069335938 94.28215026855469 93.4915771484375 C 95.14078521728516 92.30770111083984 95.70021057128906 90.91571807861328 95.96038818359375 89.47163391113281 C 96.37669372558594 87.10392761230469 97.48249053955078 85.16548919677734 98.58831787109375 84.29386901855469 C 99.64626312255859 83.48277282714844 101.4901733398438 83.39394378662109 102.3542098999023 83.39394378662109 C 102.4464340209961 83.39394378662109 102.5274887084961 83.39495849609375 102.5952377319336 83.39620971679688 C 102.7513275146484 83.39620971679688 102.9074478149414 83.35717010498047 103.0505523681641 83.30515289306641 L 106.2378845214844 81.7440185546875 C 107.174560546875 81.30168151855469 107.7730102539063 80.35201263427734 107.7730102539063 79.33726501464844 L 107.8120193481445 74.86199951171875 Z" stroke="none" fill="#fff"/>
    </g>
    <g id="Path_4160" data-name="Path 4160" transform="translate(7722.757 3206.57)" fill="#fff" stroke-miterlimit="10">
      <path d="M134.375,82.535c-.676,1.145-3.968,5.334-6.96,5.412a.105.105,0,0,0-.117.091c.039,1.912.755,8.235.755,10.655,0,2.446-.846,8.612-2.225,8.612s-9.835-4.67-11.084-11.513a.16.16,0,0,0-.312-.026,1.672,1.672,0,0,0-.052.247c-.325,1.405-.325,3.838-.325,8.118a9.106,9.106,0,0,0,.585,3.369c.065.156.117.312.182.442,1.015,2.381,2.654,4.267,2.628,10.512v2.134h-.611c-.013-4.787-.286-7.715-1.314-9.8a24.641,24.641,0,0,1-1.275-2.277,11.984,11.984,0,0,1-.468-1.613,12.141,12.141,0,0,1-.364-2.9c-.078-10.186,1.418-13.543,1.6-13.92a15.115,15.115,0,0,0,1.366,8.365,16.424,16.424,0,0,0,7.4,7.48c1.834.859,2.485.716,3.005-1.418a29.659,29.659,0,0,0,.689-6.062,113.279,113.279,0,0,0-1.444-12.5c.091.169,1.028,1.834,2.355,1.132a12.286,12.286,0,0,0,3.708-2.654,14.167,14.167,0,0,0,2.186-2.94c.559-1.106.247-1.951-.338-1.808a2.851,2.851,0,0,0-1.652,1.236c-2.732,3.695-3.877,3.07-6.127,3.187-2.069.117-2.654,3.122-2.68,3.838-.052,1.275-.052,10.212.989,12.047a24.021,24.021,0,0,1-3.133-5.274c-1.106-2.316-1.828-3.458-2.075-5.37-.234-1.574-2.026-6.229-6.566-5.045-1.405-.976-2.342-1.2-3.591-2.108-2.212-1.587-1.5-4.15-1.47-6.414v-.026a1.248,1.248,0,0,0-.234-.676v-.013a3.109,3.109,0,0,0,.286-.3l.481-.013a.168.168,0,0,1,.169.117.078.078,0,0,1,.013.052v4.475a2.634,2.634,0,0,0,1.509,2.42l3.2,1.509a.807.807,0,0,0,.416.117c.69-.013,2.875.039,3.968.9a8.717,8.717,0,0,1,2.654,5.243,61.708,61.708,0,0,0,2.849,7.025.069.069,0,0,0,.13-.039V87.947s0-4.67,4.215-4.579c4.241.1,4.176-4.345,7.077-4.41C136.066,78.931,134.973,81.52,134.375,82.535Z" stroke="none"/>
      <path d="M 108.173583984375 74.74199676513672 C 108.2516174316406 74.74199676513672 108.3166809082031 74.78103637695313 108.3426818847656 74.85908508300781 C 108.3556823730469 74.87210083007813 108.3556823730469 74.89810943603516 108.3556823730469 74.91112518310547 L 108.3556823730469 79.38637542724609 C 108.3556823730469 80.42713165283203 108.9281005859375 81.37684631347656 109.8648071289063 81.80612945556641 L 113.0651245117188 83.31524658203125 C 113.208251953125 83.393310546875 113.3253173828125 83.43231964111328 113.4814147949219 83.43231964111328 C 113.5304412841797 83.431396484375 113.5870513916016 83.43080139160156 113.6502838134766 83.43080139160156 C 114.4762420654297 83.43080139160156 116.4342193603516 83.53240966796875 117.4493103027344 84.32998657226563 C 118.5941390991211 85.20162963867188 119.6869506835938 87.17906951904297 120.103271484375 89.57279968261719 C 120.311393737793 90.71765899658203 122.3668899536133 95.34901428222656 122.9523544311523 96.59793090820313 C 122.9631881713867 96.62503051757813 122.9875793457031 96.63858795166016 123.0123443603516 96.63858795166016 C 123.0470199584961 96.63858795166016 123.0824356079102 96.61202239990234 123.0824356079102 96.55889892578125 L 123.0824356079102 87.94660949707031 C 123.0824356079102 87.94660949707031 123.0830764770508 83.36643981933594 127.1766128540039 83.365966796875 C 127.2167282104492 83.36595916748047 127.2565994262695 83.36639404296875 127.2975006103516 83.36727905273438 C 127.3464279174805 83.36847686767578 127.3950805664063 83.36907196044922 127.44287109375 83.36907196044922 C 131.5377960205078 83.36907196044922 131.5070037841797 79.02136993408203 134.3746643066406 78.95707702636719 C 134.3830261230469 78.95694732666016 134.3915710449219 78.95688629150391 134.3998107910156 78.95688629150391 C 136.0553588867188 78.95688629150391 134.9701232910156 81.52496337890625 134.3746643066406 82.53466796875 C 133.6981811523438 83.67949676513672 130.4067687988281 87.86855316162109 127.4145660400391 87.94660949707031 C 127.3495559692383 87.94660949707031 127.2975006103516 87.98565673828125 127.2975006103516 88.03768920898438 C 127.3365325927734 89.95008850097656 128.0520324707031 96.27268981933594 128.0520324707031 98.69245910644531 C 128.0520324707031 101.1382369995117 127.206428527832 107.3047332763672 125.8274383544922 107.3047332763672 C 124.4614486694336 107.3047332763672 115.9922714233398 102.6343231201172 114.7433471679688 95.79133605957031 C 114.7293548583984 95.7003173828125 114.6512756347656 95.65074920654297 114.5760803222656 95.65074920654297 C 114.5115509033203 95.65074920654297 114.4491577148438 95.68722534179688 114.4311218261719 95.76531982421875 C 114.4050903320313 95.84336853027344 114.3921203613281 95.93444061279297 114.3790893554688 96.01249694824219 C 114.0538330078125 97.41751861572266 114.0538330078125 99.85030364990234 114.0538330078125 104.1304092407227 C 114.0538330078125 105.5354309082031 114.2880249023438 106.5761871337891 114.6392822265625 107.4998779296875 C 114.7043151855469 107.6559753417969 114.75634765625 107.8121032714844 114.8214111328125 107.9421997070313 C 115.8361434936523 110.3229370117188 117.4753494262695 112.2092971801758 117.4493103027344 118.453857421875 L 117.4493103027344 120.5874252319336 L 116.8378677368164 120.5874252319336 C 116.8248672485352 115.799919128418 116.5516586303711 112.8727874755859 115.5239334106445 110.7912750244141 C 115.185661315918 110.088752746582 114.4961853027344 109.2431411743164 114.2489929199219 108.5146255493164 C 114.0538330078125 107.9812088012695 113.8977355957031 107.4478302001953 113.7806396484375 106.9014358520508 C 113.5464782714844 105.9517364501953 113.4163818359375 104.9760360717773 113.4163818359375 104.0003204345703 C 113.3383178710938 93.81389617919922 114.8344116210938 90.45745849609375 115.0165557861328 90.08016967773438 C 114.9775161743164 90.49647521972656 114.3530578613281 93.87895202636719 116.3825454711914 98.44526672363281 C 117.9696884155273 101.9968566894531 121.3651809692383 104.7938995361328 123.7849502563477 105.9257202148438 C 124.4514389038086 106.2376937866211 124.9618301391602 106.41748046875 125.3662872314453 106.41748046875 C 126.0749816894531 106.41748046875 126.4588165283203 105.8660430908203 126.7901382446289 104.5076904296875 C 127.1934280395508 102.9335479736328 127.4926452636719 100.0714569091797 127.4796371459961 98.44526672363281 C 127.4666213989258 94.60746765136719 126.1136322021484 86.43753051757813 126.0355834960938 85.94315338134766 C 126.1109085083008 86.08307647705078 126.7651138305664 87.24700164794922 127.740104675293 87.24700164794922 C 127.9436721801758 87.24700164794922 128.1610870361328 87.19632720947266 128.3902893066406 87.07497406005859 C 130.0945434570313 86.42451477050781 131.7467346191406 84.77232360839844 132.0979919433594 84.42105865478516 C 132.7744750976563 83.67949676513672 133.7892456054688 82.50865173339844 134.2835693359375 81.48091125488281 C 134.8013305664063 80.45742797851563 134.5723419189453 79.65676879882813 134.0712432861328 79.65676879882813 C 134.0309295654297 79.65676879882813 133.9889373779297 79.66193389892578 133.9453430175781 79.67259216308594 C 133.2037963867188 79.85472106933594 132.7484741210938 80.29705810546875 132.2931518554688 80.90848541259766 C 129.5611572265625 84.60317993164063 128.4163208007813 83.97873687744141 126.1656951904297 84.09580993652344 C 124.0971603393555 84.21289825439453 123.5117492675781 87.21808624267578 123.485710144043 87.93362426757813 C 123.4336547851563 89.20854187011719 123.4336547851563 98.14605712890625 124.4744338989258 99.98039245605469 C 123.7849502563477 99.32991027832031 122.369514465332 96.91795349121094 121.3417587280273 94.70634460449219 C 120.2359390258789 92.39065551757813 119.5139236450195 91.24843597412109 119.2667465209961 89.33603668212891 C 119.0585098266602 87.93627166748047 117.6186218261719 84.100341796875 114.1098480224609 84.100341796875 C 113.6727294921875 84.100341796875 113.2038421630859 84.15980529785156 112.7008666992188 84.29095458984375 C 111.2958374023438 83.31524658203125 110.3591613769531 83.09408569335938 109.1102600097656 82.18341064453125 C 106.8986511230469 80.59625244140625 107.6141662597656 78.03340148925781 107.6401672363281 75.76974487304688 L 107.6401672363281 75.74373626708984 C 107.6401672363281 75.53556823730469 107.5621032714844 75.30141448974609 107.406005859375 75.06723022460938 L 107.406005859375 75.05422973632813 C 107.5100708007813 74.96316528320313 107.6011352539063 74.85908508300781 107.6921997070313 74.75499725341797 L 108.173583984375 74.74199676513672 Z" stroke="none" fill="#fff"/>
    </g>
    <path id="Path_4161" data-name="Path 4161" d="M101.865,69.83" transform="translate(7721.09 3205.092)" stroke="#020202" stroke-miterlimit="10" stroke-width="0.25" opacity="0.31"/>
    <path id="Path_4162" data-name="Path 4162" d="M101.693,71.183" transform="translate(7721.038 3205.499)" fill="#fff" stroke="#000" stroke-miterlimit="10" stroke-width="0.25" opacity="0.31"/>
    <path id="Path_4163" data-name="Path 4163" d="M103.578,75.6c-.1-.062-.2-.138-.3-.213v-.012Z" transform="translate(7721.514 3206.761)" fill="#fff"/>
    <path id="Path_4164" data-name="Path 4164" d="M98.857,86.54a3.344,3.344,0,0,0,6.671,0,3.28,3.28,0,0,1-.742,2.631,3.371,3.371,0,0,1-5.187,0A3.285,3.285,0,0,1,98.857,86.54Z" transform="translate(7720.172 3210.12)" fill="#fff"/>
    <path id="Path_4165" data-name="Path 4165" d="M107.056,86.54a3.345,3.345,0,0,0,6.673,0,3.285,3.285,0,0,1-.743,2.631,3.371,3.371,0,0,1-5.187,0A3.29,3.29,0,0,1,107.056,86.54Z" transform="translate(7722.64 3210.12)" fill="#fff"/>
    <g id="Path_4166" data-name="Path 4166" transform="translate(7721.349 3204.545)" stroke-miterlimit="10">
      <path d="M111.164,72.139a8.515,8.515,0,0,1-1.415,4.751,6.157,6.157,0,0,1-.7.877,3.936,3.936,0,0,1-2.783,1.43,4.54,4.54,0,0,1-2.846-1.492,5.092,5.092,0,0,1-.69-.777,6.083,6.083,0,0,0,.716.665,4.288,4.288,0,0,0,2.431,1.065,4.152,4.152,0,0,0,2.947-1.568,3.156,3.156,0,0,0,.274-.314,8.052,8.052,0,0,0,1.681-4.951c0-2.118-.816-3.234-1.931-3.81C110.161,68.542,111.164,69.695,111.164,72.139Z" stroke="none"/>
      <path d="M 108.8453674316406 68.01500701904297 C 110.1606063842773 68.54188537597656 111.1636505126953 69.69453430175781 111.1636505126953 72.13900756835938 C 111.1636505126953 73.96944427490234 110.600341796875 75.63597106933594 109.7482070922852 76.89007568359375 C 109.5348510742188 77.21529388427734 109.2967834472656 77.50410461425781 109.0457000732422 77.76691436767578 C 108.2182922363281 78.66976928710938 107.2152709960938 79.19664764404297 106.2629699707031 79.19664764404297 C 105.3731231689453 79.19664764404297 104.2816314697266 78.56958770751953 103.4165191650391 77.70446014404297 C 103.1537017822266 77.46638488769531 102.9286499023438 77.20360565185547 102.7269897460938 76.92781066894531 C 102.9403533935547 77.16587829589844 103.1914367675781 77.39093017578125 103.4425201416016 77.59259033203125 C 104.2191772460938 78.21833801269531 105.1350631713867 78.65805816650391 105.8740081787109 78.65805816650391 C 106.8900527954102 78.65805816650391 107.942497253418 78.06874084472656 108.8206481933594 77.09041595458984 C 108.9208221435547 76.990234375 109.0079803466797 76.89007568359375 109.0951385498047 76.77689361572266 C 110.0864715576172 75.52407836914063 110.7759704589844 73.76909637451172 110.7759704589844 71.82548522949219 C 110.7759704589844 69.70753479003906 109.9602813720703 68.59132385253906 108.8453674316406 68.01500701904297 Z" stroke="none" fill="#fff"/>
    </g>
    <path id="Path_4167" data-name="Path 4167" d="M107.973,113.882l-.039,15.091h-.312l-.325-15.091Z" transform="translate(7722.724 3218.349)" fill="#fff"/>
    <path id="Path_4168" data-name="Path 4168" d="M114.882,100.539c-.2.2-.39.377-.572.572a28.543,28.543,0,0,0-4.657,6.088,12.552,12.552,0,0,0-1.47,3.994l-.1,1.041-.013.95h-.833l-.026-.95c0-.377.039-.781.052-1.171a13.622,13.622,0,0,1,1.405-4.384,29.951,29.951,0,0,1,5.178-7.181,1.561,1.561,0,0,1,.143-.156l.716.755C114.765,100.253,114.817,100.409,114.882,100.539Z" transform="translate(7722.697 3213.973)" fill="#fff"/>
    <path id="Path_4169" data-name="Path 4169" d="M103.736,113.882l-.325,15.078h-.325l-.039-15.078Z" transform="translate(7721.445 3218.349)" fill="#fff"/>
    <path id="Path_4170" data-name="Path 4170" d="M105.442,112.237l-.026.95h-.833l-.026-.95-.1-1.054A12.221,12.221,0,0,0,103,107.19a29.767,29.767,0,0,0-4.657-6.088l-.143-.143c-.143-.13-.286-.273-.429-.416.052-.143.117-.286.169-.455l.729-.755a1.377,1.377,0,0,1,.13.156V99.5c.013-.013.013,0,.013,0a30.312,30.312,0,0,1,5.178,7.181,13.1,13.1,0,0,1,1.392,4.384C105.4,111.457,105.429,111.847,105.442,112.237Z" transform="translate(7719.855 3213.97)" fill="#fff"/>
    <path id="Path_4171" data-name="Path 4171" d="M134.3,110.789l-1.5-.182H90.676v-.455a.172.172,0,0,1,.2-.169h42.086a.311.311,0,0,1,.117.026Z" transform="translate(7717.723 3217.175)" fill="#fff"/>
    <path id="Path_4172" data-name="Path 4172" d="M136.756,112.377l-3.682,2.342a.182.182,0,0,1-.117.039H90.871a.192.192,0,0,1-.2-.2v-3.591h44.375l1.7,1.093A.2.2,0,0,1,136.756,112.377Z" transform="translate(7717.723 3217.473)" fill="#fff"/>
    <path id="Path_4173" data-name="Path 4173" d="M95.776,74.9" transform="translate(7719.257 3206.617)" stroke="#020202" stroke-miterlimit="10" stroke-width="1"/>
    <path id="Path_4174" data-name="Path 4174" d="M86.35,109.413v1.637l-4.4.785Z" transform="translate(7715.096 3217.004)" fill="#fff"/>
    <path id="Path_4175" data-name="Path 4175" d="M80.746,112.183l6.083-.874v4.081l-6.393-2.8a.128.128,0,0,1-.01-.232Z" transform="translate(7714.617 3217.574)" fill="#fff"/>
    <path id="Path_4176" data-name="Path 4176" d="M97.912,84.716l4.995-12.723L98.612,84.969Z" transform="translate(7719.9 3205.742)" fill="#fff"/>
    <path id="Path_4177" data-name="Path 4177" d="M113.268,84.8l-4.121-12.809,5.054,12.47Z" transform="translate(7723.281 3205.742)" fill="#fff"/>
  </g>
</svg>
