<svg xmlns="http://www.w3.org/2000/svg" width="193.204" height="68.845" viewBox="0 0 193.204 68.845">
  <g id="Group_3845" data-name="Group 3845" transform="translate(-54.627 -44.084)">
    <g id="Group_3741" data-name="Group 3741" transform="translate(130.467 63.89)">
      <path id="Path_4060" data-name="Path 4060" d="M169.882,81.959a4.5,4.5,0,0,1-2.193-.52,3.656,3.656,0,0,1-1.487-1.5,4.8,4.8,0,0,1-.533-2.329,5.619,5.619,0,0,1,.267-1.717,4.745,4.745,0,0,1,.805-1.518,3.907,3.907,0,0,1,1.351-1.085,4.2,4.2,0,0,1,1.89-.4,5.2,5.2,0,0,1,.9.081,5.327,5.327,0,0,1,.887.235,4.431,4.431,0,0,1,.775.366l-.05-.595h.682v2.838h-.446a2.6,2.6,0,0,0-.415-1.319,2.408,2.408,0,0,0-.948-.825,2.924,2.924,0,0,0-1.3-.285,2.693,2.693,0,0,0-1.233.291,3.189,3.189,0,0,0-1.016.818,3.9,3.9,0,0,0-.688,1.245,4.84,4.84,0,0,0-.247,1.586,4.937,4.937,0,0,0,.421,2.082,3.463,3.463,0,0,0,1.171,1.438,2.956,2.956,0,0,0,1.728.521,4.193,4.193,0,0,0,.7-.062,3.8,3.8,0,0,0,1.418-.558V78.031l-.434.025-.433.025v-.545h2.8v.409a.734.734,0,0,0-.533.18.962.962,0,0,0-.26.433,2.092,2.092,0,0,0-.087.5c-.009.161-.013.283-.013.365v1.9h-.334a2.764,2.764,0,0,0-.545.074,5.288,5.288,0,0,0-.794.248,4.747,4.747,0,0,1-.892.236A5.565,5.565,0,0,1,169.882,81.959Z" transform="translate(-165.012 -72.851)"/>
      <path id="Path_4061" data-name="Path 4061" d="M183.814,78.641a1.522,1.522,0,0,0-.149-.781.64.64,0,0,0-.471-.285,4.5,4.5,0,0,0-.856-.024l-.9.037v2.838c0,.223,0,.413-.007.57a3.1,3.1,0,0,1-.031.4l2.368-.037a2.563,2.563,0,0,0,.941-.18,1.236,1.236,0,0,0,.619-.589,2.477,2.477,0,0,0,.223-1.152h.422L185.9,81.85H179.5v-.409a.92.92,0,0,0,.645-.217.838.838,0,0,0,.192-.533c.013-.227.019-.485.019-.774V74.563q0-.247.012-.477c.009-.153.017-.291.025-.415l-.446.025-.446.025v-.545h5.96l.062,2.169h-.409a2.216,2.216,0,0,0-.223-1.109,1.1,1.1,0,0,0-.6-.508,2.394,2.394,0,0,0-.848-.118l-1.066.025a1.1,1.1,0,0,0-.657.174.711.711,0,0,0-.242.477,6.331,6.331,0,0,0-.043.825v1.983l2.33.012-.087-1.066h.545v2.6Z" transform="translate(-169.315 -72.94)"/>
      <path id="Path_4062" data-name="Path 4062" d="M194.94,81.959a4.721,4.721,0,0,1-2.021-.4,3.767,3.767,0,0,1-1.369-1.06,4.426,4.426,0,0,1-.774-1.469,5.448,5.448,0,0,1-.248-1.611,5.076,5.076,0,0,1,.26-1.58,4.586,4.586,0,0,1,.8-1.468,4.028,4.028,0,0,1,1.351-1.078,4.173,4.173,0,0,1,1.9-.409,4.415,4.415,0,0,1,1.971.409,3.972,3.972,0,0,1,1.37,1.084,4.8,4.8,0,0,1,.805,1.469,4.918,4.918,0,0,1,.267,1.573,5.045,5.045,0,0,1-.26,1.568,4.67,4.67,0,0,1-.8,1.475,4.021,4.021,0,0,1-1.345,1.084A4.17,4.17,0,0,1,194.94,81.959Zm.025-.508a2.631,2.631,0,0,0,1.338-.329,2.884,2.884,0,0,0,.948-.88,4.143,4.143,0,0,0,.57-1.227,4.908,4.908,0,0,0,.193-1.357,5.676,5.676,0,0,0-.211-1.524,4.853,4.853,0,0,0-.619-1.376,3.334,3.334,0,0,0-1.01-1,2.519,2.519,0,0,0-1.37-.378,2.629,2.629,0,0,0-1.345.335,2.934,2.934,0,0,0-.954.886,4.16,4.16,0,0,0-.57,1.227,4.956,4.956,0,0,0-.193,1.37,5.669,5.669,0,0,0,.193,1.425,5.009,5.009,0,0,0,.588,1.387,3.268,3.268,0,0,0,1,1.041A2.567,2.567,0,0,0,194.965,81.451Z" transform="translate(-172.745 -72.851)"/>
      <path id="Path_4063" data-name="Path 4063" d="M204.811,81.837v-.409a.918.918,0,0,0,.644-.217.838.838,0,0,0,.192-.533q.019-.34.019-.774V74.55q0-.247.012-.477t.025-.415l-.446.025-.446.025v-.545l1.407-.025q.712-.012,1.431.012a6.033,6.033,0,0,1,1.939.278,2.2,2.2,0,0,1,1.085.756,2,2,0,0,1,.346,1.184,2.536,2.536,0,0,1-.179.984,2.121,2.121,0,0,1-.694.9,3.473,3.473,0,0,1-1.444.595,1.741,1.741,0,0,1,.434.446q.186.273.421.632l.843,1.326q.211.335.409.6a1.569,1.569,0,0,0,.459.422,1.239,1.239,0,0,0,.644.155v.409H210.35a4.435,4.435,0,0,1-.6-.644q-.242-.322-.5-.731l-.83-1.326c-.107-.174-.229-.373-.365-.6a2.525,2.525,0,0,0-.465-.576c-.132.008-.271.012-.415.012s-.287,0-.427-.012v2.4c0,.223,0,.415-.006.576a3.274,3.274,0,0,1-.031.4c.1-.008.2-.014.3-.019s.2-.01.3-.019.2-.012.3-.012v.545Zm2.7-4.337a3.672,3.672,0,0,0,1.2-.223,1.7,1.7,0,0,0,.812-.632,1.981,1.981,0,0,0,.3-1.139,2.382,2.382,0,0,0-.13-.825,1.4,1.4,0,0,0-.4-.588,1.786,1.786,0,0,0-.694-.353,3.7,3.7,0,0,0-.991-.118.872.872,0,0,0-.639.186.776.776,0,0,0-.2.515c-.012.219-.019.477-.019.774v2.379l.378.025A2.847,2.847,0,0,0,207.513,77.5Z" transform="translate(-177.189 -72.927)"/>
      <path id="Path_4064" data-name="Path 4064" d="M220.176,81.959a4.5,4.5,0,0,1-2.193-.52,3.655,3.655,0,0,1-1.487-1.5,4.8,4.8,0,0,1-.533-2.329,5.618,5.618,0,0,1,.267-1.717,4.745,4.745,0,0,1,.805-1.518,3.907,3.907,0,0,1,1.351-1.085,4.205,4.205,0,0,1,1.89-.4,5.21,5.21,0,0,1,.9.081,5.3,5.3,0,0,1,.886.235,4.385,4.385,0,0,1,.775.366l-.05-.595h.681v2.838h-.446a2.6,2.6,0,0,0-.415-1.319,2.4,2.4,0,0,0-.948-.825,2.919,2.919,0,0,0-1.3-.285,2.692,2.692,0,0,0-1.233.291,3.189,3.189,0,0,0-1.016.818,3.9,3.9,0,0,0-.688,1.245,4.84,4.84,0,0,0-.247,1.586,4.937,4.937,0,0,0,.421,2.082,3.463,3.463,0,0,0,1.171,1.438,2.956,2.956,0,0,0,1.729.521,4.193,4.193,0,0,0,.7-.062,3.8,3.8,0,0,0,1.418-.558V78.031l-.434.025-.433.025v-.545h2.8v.409a.737.737,0,0,0-.533.18.966.966,0,0,0-.26.433,2.09,2.09,0,0,0-.087.5c-.009.161-.013.283-.013.365v1.9h-.334a2.764,2.764,0,0,0-.545.074,5.287,5.287,0,0,0-.794.248,4.748,4.748,0,0,1-.892.236A5.566,5.566,0,0,1,220.176,81.959Z" transform="translate(-180.658 -72.851)"/>
      <path id="Path_4065" data-name="Path 4065" d="M232.585,73.585a.876.876,0,0,0-.639.211.84.84,0,0,0-.2.533q-.018.335-.018.781v5.267c0,.223,0,.415-.007.576a3.269,3.269,0,0,1-.031.4l.446-.025.447-.025v.545H229.8v-.409a.92.92,0,0,0,.645-.217.838.838,0,0,0,.192-.533q.019-.34.019-.774V74.563q0-.247.012-.477c.009-.153.017-.291.025-.415l-.446.025-.446.025v-.545h2.789Z" transform="translate(-184.962 -72.94)"/>
      <path id="Path_4066" data-name="Path 4066" d="M234.724,81.744v-.409a.772.772,0,0,0,.57-.2,1.512,1.512,0,0,0,.328-.545q.13-.347.3-.806l2.553-6.952h.3l2.762,7.051c.067.174.141.4.224.669a1.876,1.876,0,0,1,.1.694l.422-.025.422-.025v.545h-2.838v-.409a.776.776,0,0,0,.619-.211.615.615,0,0,0,.111-.471,2.146,2.146,0,0,0-.124-.5l-.433-1.165-3.223.074-.433,1.325q-.087.3-.156.471c-.045.116-.1.244-.154.384l.49-.025.477-.025v.545ZM237,78.535h2.863l-.88-2.367q-.136-.384-.279-.762t-.278-.763H238.4q-.125.347-.254.694t-.266.706Z" transform="translate(-186.495 -72.834)"/>
      <path id="Path_4067" data-name="Path 4067" d="M253.872,82.048l-4.945-6.642c-.074-.1-.147-.2-.216-.291l-.217-.291h-.012l.037,5.3v.619q0,.31-.025.608l.446-.025.446-.025v.545h-2.268v-.409a.761.761,0,0,0,.552-.167.79.79,0,0,0,.217-.4,2.022,2.022,0,0,0,.05-.415l.012-5.961v-.83l-.409.025-.422.025v-.545h1.475L253.24,79.4q.161.211.316.421c.1.141.209.281.316.422h.012l.012-5.676q0-.247.012-.477t.025-.415l-.446.025-.446.025v-.545h2.28v.409a.852.852,0,0,0-.632.211.83.83,0,0,0-.186.533q-.012.335-.012.781l-.025,6.939Z" transform="translate(-190.35 -72.94)"/>
      <path id="Path_4068" data-name="Path 4068" d="M272.322,75.85a2.785,2.785,0,0,0-.812-1.809,2.479,2.479,0,0,0-1.766-.645,2.8,2.8,0,0,0-1.233.279,3.025,3.025,0,0,0-1.01.8,3.867,3.867,0,0,0-.681,1.252,5.1,5.1,0,0,0-.249,1.649,4.532,4.532,0,0,0,.447,2.057,3.463,3.463,0,0,0,1.2,1.387,2.985,2.985,0,0,0,1.673.5,3.7,3.7,0,0,0,1.586-.366,3.216,3.216,0,0,0,1.277-1.06l.322.26a4.369,4.369,0,0,1-1.153,1.128,3.942,3.942,0,0,1-1.233.539,4.992,4.992,0,0,1-1.122.143,4.262,4.262,0,0,1-1.7-.334,3.978,3.978,0,0,1-1.338-.936,4.19,4.19,0,0,1-.867-1.4,4.828,4.828,0,0,1-.3-1.729,5.581,5.581,0,0,1,.266-1.71,4.69,4.69,0,0,1,.8-1.5,3.845,3.845,0,0,1,1.345-1.066,4.254,4.254,0,0,1,1.89-.4,4.541,4.541,0,0,1,1.313.186,4.39,4.39,0,0,1,1.19.57l-.062-.669h.668V75.85Z" transform="translate(-196.025 -72.851)"/>
      <path id="Path_4069" data-name="Path 4069" d="M278.093,81.85v-.409a.917.917,0,0,0,.644-.217.838.838,0,0,0,.192-.533q.019-.34.019-.774V74.563q0-.247.012-.477t.025-.415l-.446.025-.446.025v-.545h2.789v.409a.875.875,0,0,0-.639.211.841.841,0,0,0-.2.533q-.018.335-.018.781v5.316c0,.223,0,.413-.007.57a3.226,3.226,0,0,1-.031.4l2.317-.037a1.486,1.486,0,0,0,1.184-.5,2.453,2.453,0,0,0,.4-1.573h.421l-.074,2.565Z" transform="translate(-199.987 -72.94)"/>
      <path id="Path_4070" data-name="Path 4070" d="M291.278,73.585a.873.873,0,0,0-.638.211.84.84,0,0,0-.2.533q-.018.335-.018.781v5.267c0,.223,0,.415-.007.576a3.155,3.155,0,0,1-.031.4l.446-.025.446-.025v.545h-2.789v-.409a.92.92,0,0,0,.645-.217.834.834,0,0,0,.192-.533q.02-.34.019-.774V74.563q0-.247.012-.477t.025-.415l-.446.025-.446.025v-.545h2.789Z" transform="translate(-203.221 -72.94)"/>
      <path id="Path_4071" data-name="Path 4071" d="M301.306,82.048l-4.945-6.642q-.112-.148-.217-.291l-.216-.291h-.013l.037,5.3v.619q0,.31-.024.608l.446-.025.446-.025v.545h-2.268v-.409a.761.761,0,0,0,.552-.167.789.789,0,0,0,.216-.4,1.976,1.976,0,0,0,.05-.415l.012-5.961v-.83l-.409.025-.421.025v-.545h1.475l4.647,6.221c.107.141.212.281.316.421s.208.281.316.422h.012l.013-5.676q0-.247.012-.477t.025-.415l-.446.025-.446.025v-.545h2.28v.409a.853.853,0,0,0-.632.211.825.825,0,0,0-.185.533q-.012.335-.012.781l-.025,6.939Z" transform="translate(-205.107 -72.94)"/>
      <path id="Path_4072" data-name="Path 4072" d="M311.011,73.585a.875.875,0,0,0-.639.211.836.836,0,0,0-.2.533q-.019.335-.019.781v5.267c0,.223,0,.415-.006.576a3.283,3.283,0,0,1-.031.4l.446-.025.447-.025v.545h-2.789v-.409a.918.918,0,0,0,.644-.217.838.838,0,0,0,.192-.533q.019-.34.019-.774V74.563q0-.247.012-.477t.025-.415l-.446.025-.446.025v-.545h2.789Z" transform="translate(-209.36 -72.94)"/>
      <path id="Path_4073" data-name="Path 4073" d="M320.888,75.85a2.784,2.784,0,0,0-.811-1.809,2.48,2.48,0,0,0-1.766-.645,2.8,2.8,0,0,0-1.233.279,3.032,3.032,0,0,0-1.01.8,3.869,3.869,0,0,0-.681,1.252,5.119,5.119,0,0,0-.248,1.649,4.541,4.541,0,0,0,.446,2.057,3.474,3.474,0,0,0,1.2,1.387,2.987,2.987,0,0,0,1.673.5,3.708,3.708,0,0,0,1.587-.366,3.21,3.21,0,0,0,1.276-1.06l.322.26a4.359,4.359,0,0,1-1.153,1.128,3.928,3.928,0,0,1-1.233.539,4.992,4.992,0,0,1-1.122.143,4.261,4.261,0,0,1-1.7-.334,3.98,3.98,0,0,1-1.339-.936,4.19,4.19,0,0,1-.867-1.4,4.828,4.828,0,0,1-.3-1.729,5.562,5.562,0,0,1,.267-1.71,4.678,4.678,0,0,1,.8-1.5,3.849,3.849,0,0,1,1.345-1.066,4.253,4.253,0,0,1,1.89-.4,4.538,4.538,0,0,1,1.313.186,4.39,4.39,0,0,1,1.19.57l-.062-.669h.669V75.85Z" transform="translate(-211.134 -72.851)"/>
      <path id="Path_4074" data-name="Path 4074" d="M331.547,75.713a3.109,3.109,0,0,0-.285-1.128,2.167,2.167,0,0,0-.718-.867,2.026,2.026,0,0,0-1.2-.335,1.54,1.54,0,0,0-1.177.434,1.434,1.434,0,0,0-.409,1.016,1.309,1.309,0,0,0,.3.874,2.758,2.758,0,0,0,.774.62q.477.267,1.01.514.471.211.942.453a4.977,4.977,0,0,1,.856.551,2.4,2.4,0,0,1,.613.738,2.132,2.132,0,0,1,.229,1.022,2.2,2.2,0,0,1-.341,1.214,2.293,2.293,0,0,1-.985.837,3.685,3.685,0,0,1-1.574.3,4.435,4.435,0,0,1-1.152-.161,3.5,3.5,0,0,1-1.053-.471l.062.533h-.645l-.074-2.639h.484a2.174,2.174,0,0,0,.756,1.654,2.568,2.568,0,0,0,1.673.564,2.194,2.194,0,0,0,.892-.18,1.521,1.521,0,0,0,.65-.527,1.6,1.6,0,0,0-.056-1.772,2.691,2.691,0,0,0-.768-.644q-.471-.273-1-.521-.471-.211-.929-.446a4.886,4.886,0,0,1-.836-.539,2.381,2.381,0,0,1-.608-.725,2.107,2.107,0,0,1-.229-1.016,2.417,2.417,0,0,1,.112-.694,2.062,2.062,0,0,1,.391-.713,2.026,2.026,0,0,1,.768-.557,3.088,3.088,0,0,1,1.246-.217,4.955,4.955,0,0,1,1.06.13,2.909,2.909,0,0,1,1.1.5l-.049-.533h.632v2.726Z" transform="translate(-215.112 -72.851)"/>
      <path id="Path_4075" data-name="Path 4075" d="M164.715,108.726v-.409a.772.772,0,0,0,.57-.2,1.51,1.51,0,0,0,.329-.546q.13-.346.3-.805l2.553-6.952h.3l2.763,7.051q.1.26.223.669a1.875,1.875,0,0,1,.1.694l.422-.025.421-.025v.545h-2.838v-.409a.776.776,0,0,0,.619-.211.613.613,0,0,0,.111-.471,2.147,2.147,0,0,0-.123-.5l-.433-1.165-3.223.074-.433,1.325c-.058.2-.109.356-.155.471s-.1.244-.155.384l.49-.025.477-.025v.545ZM167,105.517h2.862l-.88-2.367c-.09-.256-.184-.51-.279-.762s-.187-.506-.278-.763H168.4q-.124.347-.254.694t-.267.706Z" transform="translate(-164.715 -81.228)"/>
      <path id="Path_4076" data-name="Path 4076" d="M185.764,102.832a2.784,2.784,0,0,0-.811-1.809,2.48,2.48,0,0,0-1.766-.645,2.793,2.793,0,0,0-1.233.279,3.024,3.024,0,0,0-1.01.8,3.867,3.867,0,0,0-.681,1.252,5.115,5.115,0,0,0-.248,1.649,4.526,4.526,0,0,0,.446,2.056,3.471,3.471,0,0,0,1.2,1.388,2.986,2.986,0,0,0,1.673.5,3.707,3.707,0,0,0,1.587-.366,3.21,3.21,0,0,0,1.276-1.06l.322.26a4.369,4.369,0,0,1-1.153,1.128,3.929,3.929,0,0,1-1.233.539,4.992,4.992,0,0,1-1.122.143,4.262,4.262,0,0,1-1.7-.334,3.981,3.981,0,0,1-1.339-.936,4.186,4.186,0,0,1-.867-1.4,4.821,4.821,0,0,1-.3-1.728,5.559,5.559,0,0,1,.267-1.71,4.688,4.688,0,0,1,.8-1.5,3.849,3.849,0,0,1,1.345-1.065,4.254,4.254,0,0,1,1.89-.4,4.562,4.562,0,0,1,1.313.185,4.413,4.413,0,0,1,1.19.57l-.062-.669h.669v2.875Z" transform="translate(-169.097 -81.245)"/>
      <path id="Path_4077" data-name="Path 4077" d="M200.316,102.832a2.785,2.785,0,0,0-.812-1.809,2.479,2.479,0,0,0-1.766-.645,2.791,2.791,0,0,0-1.233.279,3.025,3.025,0,0,0-1.01.8,3.866,3.866,0,0,0-.681,1.252,5.115,5.115,0,0,0-.249,1.649,4.527,4.527,0,0,0,.447,2.056,3.471,3.471,0,0,0,1.2,1.388,2.985,2.985,0,0,0,1.673.5,3.7,3.7,0,0,0,1.586-.366,3.212,3.212,0,0,0,1.277-1.06l.322.26a4.37,4.37,0,0,1-1.153,1.128,3.936,3.936,0,0,1-1.233.539,4.992,4.992,0,0,1-1.122.143,4.265,4.265,0,0,1-1.7-.334,3.978,3.978,0,0,1-1.338-.936,4.186,4.186,0,0,1-.867-1.4,4.82,4.82,0,0,1-.3-1.728,5.579,5.579,0,0,1,.266-1.71,4.69,4.69,0,0,1,.8-1.5,3.849,3.849,0,0,1,1.345-1.065,4.254,4.254,0,0,1,1.89-.4,4.561,4.561,0,0,1,1.313.185,4.412,4.412,0,0,1,1.19.57l-.062-.669h.669v2.875Z" transform="translate(-173.624 -81.245)"/>
      <path id="Path_4078" data-name="Path 4078" d="M208.067,108.819v-.409a.918.918,0,0,0,.644-.217.834.834,0,0,0,.191-.533q.02-.34.019-.774v-5.353c0-.165,0-.324.012-.477s.017-.291.025-.415l-.446.025-.446.025v-.545l1.407-.025q.712-.012,1.431.012a6.031,6.031,0,0,1,1.939.279,2.2,2.2,0,0,1,1.084.756,2,2,0,0,1,.347,1.184,2.538,2.538,0,0,1-.179.984,2.121,2.121,0,0,1-.694.9,3.487,3.487,0,0,1-1.444.595,1.742,1.742,0,0,1,.434.446c.124.181.264.393.421.632l.843,1.326q.211.335.409.6a1.579,1.579,0,0,0,.459.422,1.239,1.239,0,0,0,.644.155v.409h-1.561a4.436,4.436,0,0,1-.6-.644q-.242-.322-.5-.731l-.83-1.326c-.107-.174-.229-.374-.365-.6a2.542,2.542,0,0,0-.465-.576q-.2.012-.415.012T210,104.94v2.4c0,.223,0,.415-.007.576a3.156,3.156,0,0,1-.03.4c.1-.008.2-.014.3-.019s.2-.01.3-.019.2-.012.3-.012v.545Zm2.7-4.337a3.672,3.672,0,0,0,1.2-.223,1.7,1.7,0,0,0,.812-.632,1.982,1.982,0,0,0,.3-1.14,2.381,2.381,0,0,0-.13-.824,1.408,1.408,0,0,0-.4-.588,1.786,1.786,0,0,0-.694-.353,3.7,3.7,0,0,0-.991-.118.871.871,0,0,0-.638.186.776.776,0,0,0-.2.515c-.012.219-.019.477-.019.774v2.379l.378.025A2.836,2.836,0,0,0,210.768,104.482Z" transform="translate(-178.202 -81.321)"/>
      <path id="Path_4079" data-name="Path 4079" d="M225.654,105.623a1.529,1.529,0,0,0-.149-.781.641.641,0,0,0-.471-.285,4.5,4.5,0,0,0-.855-.024l-.9.037v2.838c0,.224,0,.414-.007.57a3.229,3.229,0,0,1-.031.4l2.367-.037a2.564,2.564,0,0,0,.942-.18,1.239,1.239,0,0,0,.619-.589,2.478,2.478,0,0,0,.223-1.152h.422l-.074,2.416h-6.394v-.409a.92.92,0,0,0,.645-.217.838.838,0,0,0,.192-.533q.019-.34.019-.774v-5.353c0-.165,0-.324.012-.477s.017-.291.025-.415l-.446.025-.446.025v-.545h5.96l.062,2.168h-.409a2.215,2.215,0,0,0-.223-1.108,1.107,1.107,0,0,0-.6-.508,2.4,2.4,0,0,0-.848-.118l-1.066.025a1.1,1.1,0,0,0-.657.174.711.711,0,0,0-.242.477,6.322,6.322,0,0,0-.043.825v1.983l2.329.012-.087-1.066h.546v2.6Z" transform="translate(-182.331 -81.334)"/>
      <path id="Path_4080" data-name="Path 4080" d="M234.509,108.418a.92.92,0,0,0,.645-.217.842.842,0,0,0,.191-.533q.019-.34.019-.774V101.54c0-.165,0-.324.012-.477s.017-.291.025-.415l-.446.025-.446.025v-.545l2.924-.013a7.566,7.566,0,0,1,2.045.26,4.476,4.476,0,0,1,1.605.8,3.566,3.566,0,0,1,1.041,1.363,4.756,4.756,0,0,1,.365,1.939,4.552,4.552,0,0,1-.3,1.636,3.914,3.914,0,0,1-.892,1.381,4.277,4.277,0,0,1-1.48.955,5.522,5.522,0,0,1-2.051.353h-3.259Zm1.934-1.053c0,.223,0,.413-.007.57a3.232,3.232,0,0,1-.031.4q.335.012.614.019c.185,0,.343.006.471.006h.242a3.464,3.464,0,0,0,1.456-.3,3.294,3.294,0,0,0,1.115-.824,3.75,3.75,0,0,0,.719-1.239,4.966,4.966,0,0,0-.174-3.582,3.036,3.036,0,0,0-1.307-1.338,4.679,4.679,0,0,0-2.243-.477.872.872,0,0,0-.639.186.787.787,0,0,0-.2.52q-.019.335-.018.781Z" transform="translate(-186.428 -81.329)"/>
      <path id="Path_4081" data-name="Path 4081" d="M252.5,100.567a.874.874,0,0,0-.639.211.84.84,0,0,0-.2.533q-.018.335-.018.781v5.267c0,.223,0,.415-.007.576a3.147,3.147,0,0,1-.031.4l.446-.025.446-.025v.545h-2.789v-.409a.92.92,0,0,0,.645-.217.838.838,0,0,0,.192-.533c.013-.227.019-.485.019-.774v-5.353c0-.165,0-.324.012-.477s.017-.291.025-.415l-.446.025-.446.025v-.545H252.5Z" transform="translate(-191.156 -81.334)"/>
      <path id="Path_4082" data-name="Path 4082" d="M257.713,108.418a.92.92,0,0,0,.645-.217.838.838,0,0,0,.192-.533q.019-.34.019-.774V101.54c0-.165,0-.324.012-.477s.017-.291.025-.415l-.446.025-.446.025v-.545l2.924-.013a7.562,7.562,0,0,1,2.045.26,4.476,4.476,0,0,1,1.605.8,3.566,3.566,0,0,1,1.041,1.363,4.756,4.756,0,0,1,.365,1.939,4.553,4.553,0,0,1-.3,1.636,3.914,3.914,0,0,1-.892,1.381,4.277,4.277,0,0,1-1.48.955,5.521,5.521,0,0,1-2.05.353h-3.26Zm1.934-1.053c0,.223,0,.413-.007.57a3.225,3.225,0,0,1-.031.4q.335.012.614.019c.185,0,.343.006.471.006h.242a3.464,3.464,0,0,0,1.456-.3,3.293,3.293,0,0,0,1.115-.824,3.75,3.75,0,0,0,.719-1.239,4.966,4.966,0,0,0-.174-3.582,3.037,3.037,0,0,0-1.307-1.338,4.68,4.68,0,0,0-2.243-.477.873.873,0,0,0-.639.186.787.787,0,0,0-.2.52c-.012.223-.018.484-.018.781Z" transform="translate(-193.646 -81.329)"/>
      <path id="Path_4083" data-name="Path 4083" d="M271.707,108.726v-.409a.771.771,0,0,0,.57-.2,1.509,1.509,0,0,0,.329-.546q.13-.346.3-.805l2.553-6.952h.3l2.763,7.051q.1.26.223.669a1.893,1.893,0,0,1,.1.694l.422-.025.421-.025v.545H276.85v-.409a.776.776,0,0,0,.619-.211.616.616,0,0,0,.112-.471,2.185,2.185,0,0,0-.124-.5l-.433-1.165-3.223.074-.433,1.325c-.058.2-.11.356-.155.471s-.1.244-.155.384l.49-.025.477-.025v.545Zm2.281-3.209h2.862l-.88-2.367q-.136-.384-.28-.762t-.278-.763h-.025q-.124.347-.253.694t-.267.706Z" transform="translate(-198 -81.228)"/>
      <path id="Path_4084" data-name="Path 4084" d="M291.921,102.772a4.83,4.83,0,0,0-.149-1.215,1.273,1.273,0,0,0-.477-.725,1.637,1.637,0,0,0-.986-.229h-1.053l-.012,6.754q0,.334-.006.576a3.283,3.283,0,0,1-.031.4l.515-.025.514-.025v.545h-2.913v-.409a.876.876,0,0,0,.639-.223.888.888,0,0,0,.186-.539q.019-.341.019-.763l.012-6.283-1.277.012a1.192,1.192,0,0,0-1.1.52,3.164,3.164,0,0,0-.322,1.624h-.459l.074-2.614h7.225l.074,2.614Z" transform="translate(-202.141 -81.334)"/>
      <path id="Path_4085" data-name="Path 4085" d="M301.893,100.567a.872.872,0,0,0-.639.211.836.836,0,0,0-.2.533q-.019.335-.019.781v5.267c0,.223,0,.415-.006.576a3.284,3.284,0,0,1-.031.4l.446-.025.447-.025v.545H299.1v-.409a.918.918,0,0,0,.644-.217.838.838,0,0,0,.192-.533q.019-.34.019-.774v-5.353c0-.165,0-.324.012-.477s.017-.291.025-.415l-.446.025-.446.025v-.545h2.789Z" transform="translate(-206.523 -81.334)"/>
      <path id="Path_4086" data-name="Path 4086" d="M311.2,108.941a4.718,4.718,0,0,1-2.021-.4,3.76,3.76,0,0,1-1.369-1.06,4.426,4.426,0,0,1-.774-1.469,5.426,5.426,0,0,1-.249-1.611,5.078,5.078,0,0,1,.26-1.58,4.6,4.6,0,0,1,.8-1.468,4.041,4.041,0,0,1,1.351-1.078,4.176,4.176,0,0,1,1.9-.409,4.41,4.41,0,0,1,1.97.409,3.968,3.968,0,0,1,1.37,1.084,4.8,4.8,0,0,1,.805,1.469,4.917,4.917,0,0,1,.266,1.573,5.046,5.046,0,0,1-.26,1.568,4.643,4.643,0,0,1-.8,1.474,4.021,4.021,0,0,1-1.345,1.085A4.17,4.17,0,0,1,311.2,108.941Zm.025-.508a2.633,2.633,0,0,0,1.338-.329,2.885,2.885,0,0,0,.948-.88,4.161,4.161,0,0,0,.57-1.227,4.909,4.909,0,0,0,.193-1.357,5.675,5.675,0,0,0-.211-1.524,4.85,4.85,0,0,0-.619-1.376,3.334,3.334,0,0,0-1.01-1,2.519,2.519,0,0,0-1.37-.378,2.628,2.628,0,0,0-1.344.335,2.943,2.943,0,0,0-.955.886,4.192,4.192,0,0,0-.57,1.227,4.981,4.981,0,0,0-.192,1.37,5.7,5.7,0,0,0,.192,1.425A5.029,5.029,0,0,0,308.78,107a3.268,3.268,0,0,0,1,1.041A2.568,2.568,0,0,0,311.221,108.433Z" transform="translate(-208.912 -81.245)"/>
      <path id="Path_4087" data-name="Path 4087" d="M329.836,109.03l-4.945-6.642c-.074-.1-.147-.2-.216-.291l-.217-.291h-.012l.036,5.3v.619c0,.207-.008.409-.024.608l.446-.025.446-.025v.545h-2.268v-.409a.761.761,0,0,0,.552-.167.783.783,0,0,0,.216-.4,1.98,1.98,0,0,0,.05-.415l.012-5.961v-.83l-.409.025-.422.025v-.545h1.475l4.647,6.221q.161.211.316.421c.1.141.209.281.316.422h.012l.013-5.676c0-.165,0-.324.012-.477s.016-.291.025-.415l-.446.025-.446.025v-.545h2.28v.409a.85.85,0,0,0-.632.211.829.829,0,0,0-.185.533q-.012.335-.012.781l-.025,6.939Z" transform="translate(-213.983 -81.334)"/>
    </g>
    <g id="Group_3748" data-name="Group 3748" transform="translate(54.627 44.084)">
      <g id="Group_3744" data-name="Group 3744">
        <g id="Ellipse_26" data-name="Ellipse 26" fill="none" stroke="#000" stroke-miterlimit="10" stroke-width="1">
          <circle cx="34.422" cy="34.422" r="34.422" stroke="none"/>
          <circle cx="34.422" cy="34.422" r="33.922" fill="none"/>
        </g>
        <g id="Ellipse_27" data-name="Ellipse 27" transform="translate(6.884 6.884)" fill="none" stroke="#000" stroke-miterlimit="10" stroke-width="0.75">
          <circle cx="27.538" cy="27.538" r="27.538" stroke="none"/>
          <circle cx="27.538" cy="27.538" r="27.163" fill="none"/>
        </g>
        <g id="Ellipse_28" data-name="Ellipse 28" transform="translate(8.606 8.606)" fill="none" stroke="#000" stroke-miterlimit="10" stroke-width="0.25">
          <circle cx="25.817" cy="25.817" r="25.817" stroke="none"/>
          <circle cx="25.817" cy="25.817" r="25.692" fill="none"/>
        </g>
        <g id="Group_3742" data-name="Group 3742" transform="translate(11.642 3.358)">
          <path id="Path_4088" data-name="Path 4088" d="M72.785,64.029a.628.628,0,0,1-.3.187.607.607,0,0,1-.339-.014.885.885,0,0,1-.331-.2l-.024-.022a.852.852,0,0,1-.219-.314.636.636,0,0,1-.035-.333.584.584,0,0,1,.151-.293.8.8,0,0,1,.214-.169.686.686,0,0,1,.213-.071l.2.183-.07.074-.164-.14a.458.458,0,0,0-.15.056.694.694,0,0,0-.158.132.445.445,0,0,0-.119.241.528.528,0,0,0,.034.279.739.739,0,0,0,.189.268l.025.023a.818.818,0,0,0,.282.18.509.509,0,0,0,.283.021.49.49,0,0,0,.25-.152.671.671,0,0,0,.121-.168.755.755,0,0,0,.061-.154l-.278-.261-.205.214-.07-.066.284-.3.386.361a.78.78,0,0,1-.223.446Z" transform="translate(-71.527 -53.262)"/>
          <path id="Path_4089" data-name="Path 4089" d="M74.183,62.441l-.059-.063.108-.119-.848-.905-.127.1-.059-.063.754-.708.216.23-.073.069-.156-.152-.47.441.373.4.423-.4.067.072-.424.4.413.44.492-.462-.143-.167.073-.068.216.23Z" transform="translate(-72.046 -52.606)"/>
          <path id="Path_4090" data-name="Path 4090" d="M76.8,60.3a.571.571,0,0,1-.225.117.537.537,0,0,1-.241.006.709.709,0,0,1-.24-.1,1,1,0,0,1-.223-.2l-.012-.014a1,1,0,0,1-.156-.257.679.679,0,0,1-.053-.256.53.53,0,0,1,.05-.236.58.58,0,0,1,.158-.2.594.594,0,0,1,.227-.119.54.54,0,0,1,.242,0,.685.685,0,0,1,.24.1,1.03,1.03,0,0,1,.221.2l.012.014a1.028,1.028,0,0,1,.158.256.665.665,0,0,1,.054.254.534.534,0,0,1-.05.236A.6.6,0,0,1,76.8,60.3Zm-.066-.08a.441.441,0,0,0,.154-.227.477.477,0,0,0-.014-.273.878.878,0,0,0-.167-.29l-.013-.017a.9.9,0,0,0-.252-.218.485.485,0,0,0-.266-.065.438.438,0,0,0-.253.107.43.43,0,0,0-.149.225.494.494,0,0,0,.012.274.841.841,0,0,0,.163.29l.014.016a.86.86,0,0,0,.254.218.5.5,0,0,0,.269.064A.431.431,0,0,0,76.732,60.217Z" transform="translate(-72.808 -52.088)"/>
          <path id="Path_4091" data-name="Path 4091" d="M78.492,58.864l-.05-.071.123-.1-.723-1.009-.139.083-.05-.07.494-.353a.661.661,0,0,1,.238-.115.356.356,0,0,1,.211.013.4.4,0,0,1,.17.142.364.364,0,0,1,.074.2.353.353,0,0,1-.056.2.641.641,0,0,1-.173.179l-.276.2.327.457.139-.083.05.071Zm-.215-.782.257-.184a.425.425,0,0,0,.183-.229.262.262,0,0,0-.048-.222.271.271,0,0,0-.2-.124.412.412,0,0,0-.265.1l-.265.191Zm1,.218-.668-.4.1-.07.585.344.1-.062.051.071Z" transform="translate(-73.433 -51.526)"/>
          <path id="Path_4092" data-name="Path 4092" d="M81.538,56.889a.617.617,0,0,1-.34.1.6.6,0,0,1-.323-.1.869.869,0,0,1-.267-.283l-.017-.027a.831.831,0,0,1-.13-.361.616.616,0,0,1,.052-.33.574.574,0,0,1,.222-.245.809.809,0,0,1,.251-.109.733.733,0,0,1,.225-.012l.141.228-.087.054-.123-.178a.474.474,0,0,0-.159.016.686.686,0,0,0-.187.085.449.449,0,0,0-.178.2.53.53,0,0,0-.04.279.731.731,0,0,0,.112.308l.017.028a.816.816,0,0,0,.227.247.5.5,0,0,0,.267.094.485.485,0,0,0,.28-.081.73.73,0,0,0,.162-.13.816.816,0,0,0,.1-.134l-.2-.324-.254.152-.05-.081.353-.218.277.449a.79.79,0,0,1-.112.186A.822.822,0,0,1,81.538,56.889Z" transform="translate(-74.305 -50.999)"/>
          <path id="Path_4093" data-name="Path 4093" d="M83.287,55.881l-.042-.075.136-.089-.6-1.088-.148.066-.041-.076.387-.212.041.076-.134.089.6,1.088.147-.067.041.076Z" transform="translate(-74.969 -50.653)"/>
          <path id="Path_4094" data-name="Path 4094" d="M84.984,55.05l-.038-.078.093-.052-.125-1.436.1-.049,1.042.993.1-.039.037.076-.32.154-.037-.077.11-.063-.249-.241-.582.28.033.346.118-.047.037.077Zm.121-.641.513-.246-.541-.525-.043-.044-.006,0,.007.061Z" transform="translate(-75.691 -50.351)"/>
          <path id="Path_4095" data-name="Path 4095" d="M87.523,53.661l-.032-.08.145-.072-.458-1.153-.154.048-.032-.081.149-.06.111-.044,1.223.848,0,0-.42-1.057-.161.05-.032-.081.259-.1.15-.059.032.081-.145.072.493,1.246-.1.041L87.322,52.4l0,0,.422,1.062.161-.051.032.081Z" transform="translate(-76.337 -49.846)"/>
          <path id="Path_4096" data-name="Path 4096" d="M92.711,52.019a.652.652,0,0,1-.371.008.593.593,0,0,1-.283-.189.9.9,0,0,1-.174-.344l0-.018a.86.86,0,0,1-.028-.387.608.608,0,0,1,.142-.309.6.6,0,0,1,.3-.18.716.716,0,0,1,.258-.029.641.641,0,0,1,.214.058l.075.27-.1.027-.072-.218a.644.644,0,0,0-.1-.029.5.5,0,0,0-.112,0,.62.62,0,0,0-.136.025.474.474,0,0,0-.24.15.523.523,0,0,0-.112.26.8.8,0,0,0,.028.332l.006.02a.806.806,0,0,0,.151.3.5.5,0,0,0,.236.161.531.531,0,0,0,.3,0,.644.644,0,0,0,.162-.07.467.467,0,0,0,.121-.1l-.049-.211.1-.028.078.276a.658.658,0,0,1-.167.137A.886.886,0,0,1,92.711,52.019Z" transform="translate(-77.846 -49.459)"/>
          <path id="Path_4097" data-name="Path 4097" d="M94.65,51.53l-.018-.084.156-.046-.262-1.214-.161.021-.019-.085.158-.034.116-.025.157-.034.019.085-.154.046.261,1.215.592-.128-.039-.229.1-.021.07.323Z" transform="translate(-78.626 -49.291)"/>
          <path id="Path_4098" data-name="Path 4098" d="M97.18,51.033l-.014-.085.156-.039-.2-1.226-.161.014-.014-.086.435-.072.014.086-.158.039.2,1.226.162-.014.014.085Z" transform="translate(-79.435 -49.139)"/>
          <path id="Path_4099" data-name="Path 4099" d="M98.895,50.726l-.01-.085.159-.03-.134-1.235-.161,0-.01-.087.161-.018.119-.012.952,1.142.006,0-.122-1.13-.169.006-.01-.087.278-.03.161-.018.008.086-.158.03.145,1.333-.11.012-.962-1.146-.006,0,.124,1.136.169-.006.009.085Z" transform="translate(-79.992 -49.016)"/>
          <path id="Path_4100" data-name="Path 4100" d="M101.987,50.5l0-.085.159-.022-.065-1.24-.163,0,0-.087.441-.024,0,.087-.161.021.067,1.24.161,0,0,.086Z" transform="translate(-80.979 -48.982)"/>
          <path id="Path_4101" data-name="Path 4101" d="M104.427,50.441a.658.658,0,0,1-.36-.093.578.578,0,0,1-.22-.258.9.9,0,0,1-.075-.379v-.019a.881.881,0,0,1,.078-.38.588.588,0,0,1,.553-.353.714.714,0,0,1,.256.041.652.652,0,0,1,.19.114v.28h-.1l-.01-.23a.536.536,0,0,0-.092-.054.457.457,0,0,0-.106-.035.679.679,0,0,0-.137-.012.477.477,0,0,0-.273.08.518.518,0,0,0-.178.221.805.805,0,0,0-.061.327v.021a.827.827,0,0,0,.063.333.5.5,0,0,0,.185.218.527.527,0,0,0,.289.076.671.671,0,0,0,.176-.023.535.535,0,0,0,.143-.061l.01-.218h.1v.287a.717.717,0,0,1-.2.087A.95.95,0,0,1,104.427,50.441Z" transform="translate(-81.557 -48.958)"/>
          <path id="Path_4102" data-name="Path 4102" d="M107,50.518a.844.844,0,0,1-.474-.183l.016-.278.1.006v.225a.713.713,0,0,0,.176.092.7.7,0,0,0,.188.038.525.525,0,0,0,.2-.023.306.306,0,0,0,.136-.09.238.238,0,0,0,.056-.142.25.25,0,0,0-.03-.141.314.314,0,0,0-.117-.113,1.092,1.092,0,0,0-.226-.1,1.112,1.112,0,0,1-.251-.11.371.371,0,0,1-.138-.139.343.343,0,0,1-.036-.185.323.323,0,0,1,.069-.186.373.373,0,0,1,.168-.121.6.6,0,0,1,.243-.032.715.715,0,0,1,.256.059.624.624,0,0,1,.187.123l-.016.256-.1-.006,0-.2a.461.461,0,0,0-.143-.087.6.6,0,0,0-.191-.041.452.452,0,0,0-.184.024.287.287,0,0,0-.123.087.23.23,0,0,0-.049.132.237.237,0,0,0,.025.13.268.268,0,0,0,.106.1,1.175,1.175,0,0,0,.22.094.89.89,0,0,1,.343.183.335.335,0,0,1,.1.276.321.321,0,0,1-.074.2.416.416,0,0,1-.182.123A.656.656,0,0,1,107,50.518Z" transform="translate(-82.414 -48.983)"/>
          <path id="Path_4103" data-name="Path 4103" d="M110.591,50.886l.014-.085.105.01.723-1.248.111.019.283,1.412.1.024-.014.085-.351-.058.014-.084.126.012-.066-.34-.637-.1-.172.3.123.029-.013.085Zm.468-.455.561.092-.143-.74-.01-.061h-.006l-.029.054Z" transform="translate(-83.679 -49.147)"/>
          <path id="Path_4104" data-name="Path 4104" d="M114.172,51.573a.659.659,0,0,1-.33-.172.587.587,0,0,1-.156-.3.909.909,0,0,1,.012-.386l0-.019a.891.891,0,0,1,.161-.353.611.611,0,0,1,.273-.2.59.59,0,0,1,.347-.016.692.692,0,0,1,.239.1.638.638,0,0,1,.16.153l-.063.273-.1-.022.042-.226a.487.487,0,0,0-.076-.074.454.454,0,0,0-.1-.059.643.643,0,0,0-.13-.042.459.459,0,0,0-.284.016.518.518,0,0,0-.223.175.771.771,0,0,0-.134.3l-.006.021a.782.782,0,0,0-.012.339.484.484,0,0,0,.13.254.527.527,0,0,0,.265.141.7.7,0,0,0,.176.017.5.5,0,0,0,.153-.026l.059-.21.1.022-.064.28a.667.667,0,0,1-.213.04A.889.889,0,0,1,114.172,51.573Z" transform="translate(-84.637 -49.315)"/>
          <path id="Path_4105" data-name="Path 4105" d="M116.849,52.292a.652.652,0,0,1-.318-.193.586.586,0,0,1-.137-.311.922.922,0,0,1,.037-.385l.006-.018a.9.9,0,0,1,.184-.342.624.624,0,0,1,.285-.185.6.6,0,0,1,.347.007.7.7,0,0,1,.234.113.607.607,0,0,1,.149.163l-.08.269-.1-.029.056-.223a.624.624,0,0,0-.072-.08.466.466,0,0,0-.092-.064.731.731,0,0,0-.127-.051.465.465,0,0,0-.284,0,.51.51,0,0,0-.234.161.794.794,0,0,0-.154.295l-.006.02a.8.8,0,0,0-.033.338.489.489,0,0,0,.113.262.514.514,0,0,0,.255.156.645.645,0,0,0,.174.029.51.51,0,0,0,.155-.017L117.28,52l.1.029-.083.275a.7.7,0,0,1-.215.026A.925.925,0,0,1,116.849,52.292Z" transform="translate(-85.482 -49.542)"/>
          <path id="Path_4106" data-name="Path 4106" d="M118.722,52.842l.03-.082.156.044.433-1.164-.147-.068.03-.081.57.211a.678.678,0,0,1,.229.134.357.357,0,0,1,.106.181.39.39,0,0,1-.022.22.345.345,0,0,1-.324.24.647.647,0,0,1-.246-.043l-.321-.116-.2.526.147.069-.03.081Zm.528-.616.3.11a.419.419,0,0,0,.293.024A.261.261,0,0,0,120,52.2a.272.272,0,0,0-.008-.234.417.417,0,0,0-.227-.167l-.309-.114Zm.38.953-.039-.778.11.04.041.677.109.049-.031.083Z" transform="translate(-86.209 -49.746)"/>
          <path id="Path_4107" data-name="Path 4107" d="M121.358,53.875l.035-.079.152.054.507-1.133-.142-.077.035-.08.944.423-.128.288-.092-.041.08-.2-.588-.263-.223.5.53.237-.041.09-.53-.238-.247.55.617.276.1-.2.092.041-.129.288Z" transform="translate(-87.029 -50.079)"/>
          <path id="Path_4108" data-name="Path 4108" d="M123.8,55.023l.04-.076.149.064.578-1.1-.136-.087.041-.077.144.075.349.185a.565.565,0,0,1,.244.232.619.619,0,0,1,.076.324.806.806,0,0,1-.1.36l-.011.021a.821.821,0,0,1-.238.287.626.626,0,0,1-.311.121.566.566,0,0,1-.327-.069Zm.294.043.245.13a.442.442,0,0,0,.27.051.543.543,0,0,0,.258-.111.74.74,0,0,0,.2-.245l.011-.023a.717.717,0,0,0,.088-.3.518.518,0,0,0-.055-.273.442.442,0,0,0-.2-.193l-.245-.129Z" transform="translate(-87.79 -50.448)"/>
          <path id="Path_4109" data-name="Path 4109" d="M126.257,56.379l.043-.074.145.071.634-1.066-.131-.094.043-.075.38.226-.044.075-.145-.072-.635,1.067.132.094-.044.073Z" transform="translate(-88.553 -50.882)"/>
          <path id="Path_4110" data-name="Path 4110" d="M127.744,57.3l.048-.072.141.079.69-1.032-.127-.1.048-.072.134.09.329.22a.581.581,0,0,1,.218.256.634.634,0,0,1,.042.331.8.8,0,0,1-.138.347l-.013.02a.8.8,0,0,1-.268.259.615.615,0,0,1-.32.089.567.567,0,0,1-.318-.1Zm.288.073.229.154a.443.443,0,0,0,.263.079.541.541,0,0,0,.269-.083.73.73,0,0,0,.226-.223l.014-.021a.738.738,0,0,0,.121-.293.53.53,0,0,0-.028-.278.446.446,0,0,0-.174-.212l-.231-.154Z" transform="translate(-89.016 -51.181)"/>
          <path id="Path_4111" data-name="Path 4111" d="M129.941,58.994l.052-.068.089.059,1.224-.759.09.069-.417,1.379.081.07-.053.068-.281-.216.052-.068.106.07.1-.331-.513-.393-.294.185.1.084-.052.069Zm.627-.18.451.345.223-.72.021-.058,0,0-.052.034Z" transform="translate(-89.699 -51.841)"/>
          <path id="Path_4112" data-name="Path 4112" d="M132.505,60.782l.056-.065.131.1.814-.941-.305-.265-.154.158-.073-.063.207-.24.867.751-.207.239-.073-.063.134-.175-.306-.265-.814.941.114.115-.056.065Z" transform="translate(-90.497 -52.225)"/>
          <path id="Path_4113" data-name="Path 4113" d="M134.175,62.409l.059-.062.125.1.86-.895-.107-.121.06-.063.318.306-.06.063-.125-.1-.86.9.107.121-.06.062Z" transform="translate(-91.016 -52.819)"/>
          <path id="Path_4114" data-name="Path 4114" d="M135.916,64.205a.565.565,0,0,1-.13-.216.534.534,0,0,1-.021-.24.673.673,0,0,1,.085-.247.959.959,0,0,1,.189-.234l.014-.013a.994.994,0,0,1,.246-.174.7.7,0,0,1,.252-.069.538.538,0,0,1,.239.036.567.567,0,0,1,.207.145.574.574,0,0,1,.134.219.557.557,0,0,1,.02.241.684.684,0,0,1-.087.245,1.057,1.057,0,0,1-.189.234l-.014.013a1.044,1.044,0,0,1-.246.174.694.694,0,0,1-.25.071.551.551,0,0,1-.239-.037A.582.582,0,0,1,135.916,64.205Zm.076-.07a.436.436,0,0,0,.237.139.484.484,0,0,0,.271-.031.9.9,0,0,0,.278-.185l.016-.014a.9.9,0,0,0,.2-.266.5.5,0,0,0,.048-.269.471.471,0,0,0-.355-.38.5.5,0,0,0-.273.03.842.842,0,0,0-.279.182l-.015.014a.872.872,0,0,0-.2.267.494.494,0,0,0-.046.271A.424.424,0,0,0,135.993,64.135Z" transform="translate(-91.509 -53.33)"/>
          <path id="Path_4115" data-name="Path 4115" d="M137.328,65.775l.068-.054.112.117.964-.783-.092-.134.067-.054.1.125.075.092-.442,1.42,0,0,.882-.717-.1-.138.068-.055.176.217.1.126-.068.054-.112-.117-1.04.845-.07-.086.441-1.429-.005,0-.887.721.1.138-.067.054Z" transform="translate(-91.997 -53.907)"/>
        </g>
        <g id="Group_3743" data-name="Group 3743" transform="translate(8.443 51.322)">
          <path id="Path_4116" data-name="Path 4116" d="M68.256,118.749l.056-.039a.377.377,0,0,1-.116.444l-.624.432a.386.386,0,0,1-.569-.128c-.165-.238-.152-.458,0-.563a.4.4,0,0,1,.242-.065l.065.094a.547.547,0,0,0-.214.078.275.275,0,0,0-.053.427.282.282,0,0,0,.393.1l.424-.292a.325.325,0,0,0,.023-.431c-.1-.144-.21-.153-.3-.093a.247.247,0,0,0-.066.076l-.073-.105a.28.28,0,0,1,.066-.068c.131-.09.305.011.4.148a.5.5,0,0,1,.089.373l.159-.111A.268.268,0,0,0,68.256,118.749Z" transform="translate(-66.883 -118.582)"/>
          <path id="Path_4117" data-name="Path 4117" d="M68.538,121.483a.408.408,0,0,1,.036-.589.477.477,0,0,1,.3-.091l.065.083a.563.563,0,0,0-.273.112.335.335,0,0,0-.068.486.263.263,0,0,0,.386.064l.32-.249c.228-.177.037-.657.237-.814a.469.469,0,0,1,.066-.038l.064.083-.03.024c-.256.2-.012.649-.262.843l-.267.208A.405.405,0,0,1,68.538,121.483Z" transform="translate(-67.364 -119.162)"/>
          <path id="Path_4118" data-name="Path 4118" d="M70.211,123.009l.265-.237c.431-.384.98.394,1.188.208l.094.105-.026.023c-.266.237-.689-.668-1.171-.239a.4.4,0,0,1,.311.138.362.362,0,0,1,.062.415.382.382,0,0,1,.415.121.447.447,0,0,1-.035.621.433.433,0,0,1-.565.03l.045-.042a.277.277,0,0,0,.328-.006l.164-.145a.3.3,0,0,0-.4-.452l-.178.158-.083-.094.179-.16a.286.286,0,0,0,.036-.411.313.313,0,0,0-.433-.035l-.169.151a.275.275,0,0,0-.047.321l-.041.038A.379.379,0,0,1,70.211,123.009Z" transform="translate(-67.877 -119.852)"/>
          <path id="Path_4119" data-name="Path 4119" d="M72.786,125.514l.368-.386a.463.463,0,0,1,.8.4.4.4,0,0,1,.418.094.431.431,0,0,1-.024.649l-.368.386a.431.431,0,0,1-.646.055l-.017-.016.034-.036.018.017a.311.311,0,0,0,.453-.034l.5-.53a.306.306,0,1,0-.44-.42l-.437.459a.462.462,0,1,1-.667-.637Zm.509.623.5-.53a.337.337,0,1,0-.488-.466l-.506.531a.337.337,0,0,0,.488.465Z" transform="translate(-68.673 -120.567)"/>
          <path id="Path_4120" data-name="Path 4120" d="M75.953,128.294a.472.472,0,0,1,.267-.154l.083.068a.725.725,0,0,0-.247.181.35.35,0,0,0,.069.5.325.325,0,0,0,.477-.053l.537-.669a.205.205,0,0,0-.03-.287.208.208,0,0,0-.291.029l-.2.254-.1-.078.223-.276c.072-.088.082-.159.037-.195-.122-.1-.384.215-.611.033a.176.176,0,0,1-.037-.267.3.3,0,0,1,.265-.105l.141.114a.386.386,0,0,0-.365.092.067.067,0,0,0,.01.106c.132.106.419-.178.589-.041a.207.207,0,0,1,.066.256.281.281,0,0,1,.3.037.318.318,0,0,1,.053.468l-.473.588a.413.413,0,0,1-.618.035A.461.461,0,0,1,75.953,128.294Z" transform="translate(-69.681 -121.285)"/>
          <path id="Path_4121" data-name="Path 4121" d="M78.573,130.31a1.736,1.736,0,0,0-.382-.2l.058-.085.351.236a.565.565,0,0,1-.019-.654.4.4,0,0,1,.575-.12.328.328,0,0,1,.15.375.339.339,0,0,1,.528.367.341.341,0,0,1,.408-.011.386.386,0,0,1,.114.551.459.459,0,0,1-.583.15l.032-.048a.294.294,0,0,0,.369-.082l.108-.161a.267.267,0,1,0-.443-.3l-.111.165-.1-.069.116-.173a.257.257,0,1,0-.426-.287l-.116.173-.1-.069.107-.159a.273.273,0,1,0-.453-.305l-.1.156c-.174.258.083.539.353.829.4.424.507.632.42.861l-.142-.1C79.426,131.1,79.018,130.609,78.573,130.31Z" transform="translate(-70.401 -121.952)"/>
          <path id="Path_4122" data-name="Path 4122" d="M81.9,132.516l.29-.516a.462.462,0,1,1,.805.452l-.284.506a.435.435,0,0,1-.475.239l.03-.054a.317.317,0,0,0,.287-.159l.382-.679a.338.338,0,1,0-.589-.33l-.386.689a.3.3,0,0,0-.006.292l-.036.063A.433.433,0,0,1,81.9,132.516Z" transform="translate(-71.533 -122.675)"/>
          <path id="Path_4123" data-name="Path 4123" d="M87.093,133.991l.019-.048c.2.114.265.273.2.411a.31.31,0,0,1-.343.183.273.273,0,0,1,.129.357l-.1.24a.39.39,0,0,1-.541.162c-.269-.116-.361-.327-.271-.533a.592.592,0,0,1,.192-.23l.112.048a.764.764,0,0,0-.169.224.317.317,0,0,0,.161.447.282.282,0,0,0,.386-.124l.132-.305a.208.208,0,0,0-.123-.3l-.125-.054.019-.042.121.053a.208.208,0,0,0,.279-.127l.039-.089C87.263,134.136,87.189,134.053,87.093,133.991Z" transform="translate(-72.878 -123.361)"/>
          <path id="Path_4124" data-name="Path 4124" d="M89.1,135.77a1.737,1.737,0,0,0-.424-.093l.034-.1.4.136a.564.564,0,0,1-.192-.628.406.406,0,0,1,.526-.269.329.329,0,0,1,.245.323.34.34,0,0,1,.608.216.343.343,0,0,1,.393-.118.387.387,0,0,1,.256.5.459.459,0,0,1-.526.3l.019-.054a.293.293,0,0,0,.335-.178l.061-.185a.268.268,0,1,0-.508-.171l-.063.188-.118-.04.067-.2a.258.258,0,1,0-.488-.165l-.066.2-.118-.039.061-.183a.275.275,0,0,0-.173-.349.273.273,0,0,0-.346.174l-.061.178c-.1.3.225.5.562.709.5.307.658.479.635.724l-.163-.056C90.14,136.311,89.614,135.942,89.1,135.77Z" transform="translate(-73.664 -123.626)"/>
          <path id="Path_4125" data-name="Path 4125" d="M92.937,137.027l.143-.572a.46.46,0,1,1,.891.225l-.141.559a.432.432,0,0,1-.393.354l.015-.06a.315.315,0,0,0,.234-.228l.189-.752a.336.336,0,0,0-.652-.164l-.192.765a.3.3,0,0,0,.072.281l-.018.07A.431.431,0,0,1,92.937,137.027Z" transform="translate(-74.982 -124.026)"/>
          <path id="Path_4126" data-name="Path 4126" d="M95.521,137.6l.129-.679a.314.314,0,0,1,.4-.279l.512.1-.092.074c-.273-.024-.271-.093-.415-.121a.2.2,0,0,0-.272.176l-.09.478a.387.387,0,0,1,.349-.087.436.436,0,0,1,.361.508.45.45,0,0,1-.885-.168Zm.73.223.028-.145a.317.317,0,0,0-.621-.13l-.03.156a.317.317,0,0,0,.623.118Z" transform="translate(-75.79 -124.196)"/>
          <path id="Path_4127" data-name="Path 4127" d="M98.122,138.063l.076-.586a.462.462,0,1,1,.914.12l-.076.575a.435.435,0,0,1-.35.4l.008-.062a.315.315,0,0,0,.206-.254l.1-.77a.337.337,0,1,0-.668-.087l-.1.783a.3.3,0,0,0,.1.271l-.01.072A.432.432,0,0,1,98.122,138.063Z" transform="translate(-76.6 -124.328)"/>
          <path id="Path_4128" data-name="Path 4128" d="M101.322,137.368l0-.052c.229.041.34.17.329.322a.31.31,0,0,1-.264.286.272.272,0,0,1,.24.293l-.018.262a.39.39,0,0,1-.457.333c-.292-.021-.448-.189-.433-.413a.6.6,0,0,1,.1-.281l.122.008a.76.76,0,0,0-.085.268.317.317,0,0,0,.3.368.281.281,0,0,0,.323-.245l.023-.331a.208.208,0,0,0-.215-.243l-.136-.009,0-.045.132.009a.207.207,0,0,0,.222-.212l.007-.1C101.531,137.448,101.433,137.395,101.322,137.368Z" transform="translate(-77.41 -124.41)"/>
          <path id="Path_4129" data-name="Path 4129" d="M103.48,138.539a.308.308,0,0,0,.306.334.3.3,0,0,0,.3-.316l.012-.828a.263.263,0,0,0-.284-.262.246.246,0,0,0-.277.227.335.335,0,0,0,.025.131l-.142,0a.215.215,0,0,1-.006-.064.362.362,0,0,1,.4-.342.373.373,0,0,1,.4.366l-.011.749a.384.384,0,0,1-.428.391.4.4,0,0,1-.443-.408.633.633,0,0,1,.156-.4l.112,0A.864.864,0,0,0,103.48,138.539Z" transform="translate(-78.225 -124.442)"/>
          <path id="Path_4130" data-name="Path 4130" d="M105.937,138.474a.457.457,0,0,1,.453-.463l-.012-.258c0-.11-.124-.141-.225-.159a.349.349,0,0,1-.282.243l0-.043a.248.248,0,0,0,.179-.234.3.3,0,0,0-.052-.138l.137-.006a.362.362,0,0,1,.023.094c.178.03.34.1.348.269l.012.244a.444.444,0,0,1,.362.407.472.472,0,0,1-.941.045Zm.8.021-.005-.119a.33.33,0,1,0-.66.031l.006.12a.33.33,0,1,0,.66-.032Z" transform="translate(-79.011 -124.441)"/>
          <path id="Path_4131" data-name="Path 4131" d="M108.631,138.3l-.063-.588a.461.461,0,1,1,.916-.1l.061.575a.434.434,0,0,1-.247.469l-.007-.062a.315.315,0,0,0,.141-.295l-.082-.772a.337.337,0,1,0-.67.071l.085.784a.3.3,0,0,0,.164.24l.008.072A.431.431,0,0,1,108.631,138.3Z" transform="translate(-79.85 -124.369)"/>
          <path id="Path_4132" data-name="Path 4132" d="M111.879,137.687a.385.385,0,0,1,.116-.3l.11-.019c-.116.118-.152.185-.143.236.017.1.216.121.248.311.037.227-.16.389-.384.427a.4.4,0,0,1-.513-.317l-.134-.8a.246.246,0,0,0-.214-.209l-.01-.058a.327.327,0,0,1,.348.249l.146.873a.3.3,0,0,0,.361.213.293.293,0,0,0,.268-.316C112.045,137.795,111.9,137.809,111.879,137.687Z" transform="translate(-80.593 -124.301)"/>
          <path id="Path_4133" data-name="Path 4133" d="M116.662,137.282a.409.409,0,0,1-.531-.257.482.482,0,0,1,.032-.318l.1-.028a.565.565,0,0,0,0,.3.335.335,0,0,0,.424.249.264.264,0,0,0,.208-.333l-.109-.392c-.077-.278-.6-.285-.663-.529a.3.3,0,0,1-.01-.076l.1-.028.011.038c.087.312.6.258.681.565l.091.327A.408.408,0,0,1,116.662,137.282Z" transform="translate(-82.198 -123.959)"/>
          <path id="Path_4134" data-name="Path 4134" d="M118.737,135.086l-.018-.05c.227-.051.38.025.429.167a.31.31,0,0,1-.132.367.273.273,0,0,1,.336.178l.085.247a.389.389,0,0,1-.293.484.4.4,0,0,1-.559-.212.591.591,0,0,1-.013-.3l.115-.039a.79.79,0,0,0,.025.278.318.318,0,0,0,.42.224.282.282,0,0,0,.2-.351l-.108-.314a.208.208,0,0,0-.293-.14l-.129.044-.014-.043.124-.043a.207.207,0,0,0,.122-.282l-.032-.092C118.961,135.079,118.85,135.066,118.737,135.086Z" transform="translate(-82.959 -123.696)"/>
          <path id="Path_4135" data-name="Path 4135" d="M121.015,135.285l-.138-.328c-.225-.531.688-.8.579-1.057l.129-.054.014.032c.138.327-.855.437-.6,1.031a.4.4,0,0,1,.231-.251.362.362,0,0,1,.413.075.38.38,0,0,1,.248-.353.445.445,0,0,1,.575.232.43.43,0,0,1-.153.545l-.023-.057a.276.276,0,0,0,.1-.311l-.085-.2a.3.3,0,1,0-.555.234l.092.219-.116.049-.092-.22a.286.286,0,0,0-.378-.166.312.312,0,0,0-.172.4l.088.209a.274.274,0,0,0,.289.147l.022.052A.379.379,0,0,1,121.015,135.285Z" transform="translate(-83.669 -123.331)"/>
          <path id="Path_4136" data-name="Path 4136" d="M124.366,133.841a.309.309,0,0,0,.427.152.294.294,0,0,0,.116-.42l-.375-.738a.264.264,0,0,0-.374-.1.246.246,0,0,0-.138.331.325.325,0,0,0,.083.1l-.127.065a.251.251,0,0,1-.034-.054.362.362,0,0,1,.2-.491.372.372,0,0,1,.526.134l.34.668a.384.384,0,0,1-.195.546.4.4,0,0,1-.582-.153.633.633,0,0,1-.046-.422l.1-.052A.877.877,0,0,0,124.366,133.841Z" transform="translate(-84.622 -122.955)"/>
          <path id="Path_4137" data-name="Path 4137" d="M126.5,132.424a.8.8,0,0,1-.088-.432l.1-.058a.888.888,0,0,0,.11.417.624.624,0,0,0,1.082-.591.413.413,0,0,0-.6-.092c-.135.081-.24.206-.162.337a.244.244,0,0,0,.276.094l0,.058c-.155.062-.309.057-.378-.058s0-.255.107-.354a.29.29,0,0,1-.327-.11.32.32,0,0,1,.156-.42.323.323,0,0,1,.446.06.274.274,0,0,1-.032.3.5.5,0,0,1,.645.121c.176.293-.031.648-.351.838A.68.68,0,0,1,126.5,132.424Zm.6-1.086a.228.228,0,1,0-.391.234.208.208,0,0,0,.311.079A.21.21,0,0,0,127.1,131.338Z" transform="translate(-85.401 -122.493)"/>
          <path id="Path_4138" data-name="Path 4138" d="M129.449,130.8l-.335-.484a.461.461,0,1,1,.756-.524l.329.475a.434.434,0,0,1,.007.529l-.035-.051a.317.317,0,0,0-.018-.327l-.44-.637a.336.336,0,1,0-.553.382l.448.648a.3.3,0,0,0,.259.132l.041.059A.429.429,0,0,1,129.449,130.8Z" transform="translate(-86.212 -122.002)"/>
          <path id="Path_4139" data-name="Path 4139" d="M131.72,128.844a1.421,1.421,0,0,0-.176.18l-.05-.062.218-.176a.5.5,0,0,1-.457-.154l-.068-.085a.4.4,0,0,1,.061-.579.376.376,0,0,1,.367-.065.476.476,0,0,1,.18-.374.458.458,0,0,1,.644.052.449.449,0,0,1-.094.632.458.458,0,0,1-.64-.043.4.4,0,0,1-.074-.148.244.244,0,0,0-.348-.019.267.267,0,0,0-.041.39l.152.19c.311.386,1.149-.365,1.449.008l-.11.088C132.588,128.5,132,128.616,131.72,128.844Zm.648-1.13-.075-.092a.33.33,0,1,0-.514.413l.074.093a.331.331,0,0,0,.515-.414Z" transform="translate(-86.858 -121.332)"/>
          <path id="Path_4140" data-name="Path 4140" d="M134.986,127.052a.409.409,0,0,1-.59.013.483.483,0,0,1-.116-.3l.077-.071a.56.56,0,0,0,.134.264.335.335,0,0,0,.49.028.264.264,0,0,0,.032-.392l-.274-.3c-.195-.212-.659.018-.83-.168a.377.377,0,0,1-.044-.065l.078-.07.026.029c.219.238.648-.041.863.193l.229.249A.406.406,0,0,1,134.986,127.052Z" transform="translate(-87.721 -120.888)"/>
          <path id="Path_4141" data-name="Path 4141" d="M136.606,124.092a.37.37,0,0,1,.474.043.551.551,0,0,1-.076.762.711.711,0,0,1-1.051-.032,1.07,1.07,0,0,1-.308-.7l.07-.074a1.069,1.069,0,0,0,.346.681c.269.257.64.373.9.1a.437.437,0,0,0,.015-.64.332.332,0,0,0-.487,0l-.058.059-.031-.03.129-.135a.189.189,0,0,0,0-.279c-.181-.173-.42.187-.6.02l.086-.09,0,0c.149.143.439-.193.61-.029C136.7,123.817,136.742,123.937,136.606,124.092Z" transform="translate(-88.275 -120.177)"/>
          <path id="Path_4142" data-name="Path 4142" d="M138.365,122.835l-.451-.38a.461.461,0,1,1,.592-.7l.442.371a.433.433,0,0,1,.147.508l-.048-.039a.316.316,0,0,0-.1-.311l-.594-.5a.336.336,0,0,0-.433.515l.6.507a.3.3,0,0,0,.285.059l.056.047A.433.433,0,0,1,138.365,122.835Z" transform="translate(-88.922 -119.529)"/>
          <path id="Path_4143" data-name="Path 4143" d="M140.623,120.787a.409.409,0,0,1-.577.125.488.488,0,0,1-.171-.269l.063-.085a.554.554,0,0,0,.182.234.337.337,0,0,0,.488-.066.264.264,0,0,0-.043-.391l-.327-.241c-.234-.172-.645.143-.85-.008a.516.516,0,0,1-.055-.054l.063-.085.032.023c.261.192.63-.164.885.024l.273.2A.406.406,0,0,1,140.623,120.787Z" transform="translate(-89.422 -119.004)"/>
        </g>
        <path id="Path_4144" data-name="Path 4144" d="M60.276,79.254l.949-.151.414-.868.437.856.953.125-.679.68.176.945-.857-.436-.844.459.149-.95Z" transform="translate(-56.384 -54.708)" fill="none" stroke="#000" stroke-miterlimit="10" stroke-width="0.25"/>
        <path id="Path_4145" data-name="Path 4145" d="M58.809,85.417l.919-.282.29-.917.552.787L61.53,85l-.578.768.305.912-.909-.312-.772.572.015-.961Z" transform="translate(-55.928 -56.57)" fill="none" stroke="#000" stroke-miterlimit="10" stroke-width="0.25"/>
        <path id="Path_4146" data-name="Path 4146" d="M58.2,91.723l.871-.407.159-.948.656.7.951-.142-.465.841.429.86-.944-.183-.685.674-.119-.954Z" transform="translate(-55.74 -58.483)" fill="none" stroke="#000" stroke-miterlimit="10" stroke-width="0.25"/>
        <path id="Path_4147" data-name="Path 4147" d="M58.509,98.066l.806-.524.026-.961.747.6.921-.273-.344.9.545.792-.96-.049-.585.763-.25-.928Z" transform="translate(-55.834 -60.416)" fill="none" stroke="#000" stroke-miterlimit="10" stroke-width="0.25"/>
        <path id="Path_4148" data-name="Path 4148" d="M59.707,104.326l.725-.631-.108-.955.824.495.874-.4-.216.937.65.709-.957.085-.473.837-.377-.884Z" transform="translate(-56.207 -62.332)" fill="none" stroke="#000" stroke-miterlimit="10" stroke-width="0.25"/>
      </g>
      <path id="Path_4149" data-name="Path 4149" d="M147.66,80.092l-.95-.148-.418-.866-.434.858-.953.129.682.678-.172.946.855-.439.846.456-.152-.949Z" transform="translate(-82.712 -54.97)" fill="none" stroke="#000" stroke-miterlimit="10" stroke-width="0.25"/>
      <path id="Path_4150" data-name="Path 4150" d="M149.163,86.25l-.92-.279-.293-.916-.549.789-.961-.005.581.766-.3.913.908-.315.774.569-.018-.961Z" transform="translate(-83.189 -56.83)" fill="none" stroke="#000" stroke-miterlimit="10" stroke-width="0.25"/>
      <path id="Path_4151" data-name="Path 4151" d="M149.828,92.553l-.872-.4-.163-.948-.653.7-.951-.139.468.84-.426.862.943-.186.687.672.115-.955Z" transform="translate(-83.422 -58.742)" fill="none" stroke="#000" stroke-miterlimit="10" stroke-width="0.25"/>
      <path id="Path_4152" data-name="Path 4152" d="M149.519,98.9l-.807-.521-.029-.961-.745.607-.922-.27.347.9-.542.794.96-.053.587.761.247-.929Z" transform="translate(-83.308 -60.675)" fill="none" stroke="#000" stroke-miterlimit="10" stroke-width="0.25"/>
      <path id="Path_4153" data-name="Path 4153" d="M148.321,105.161l-.727-.629.1-.956-.822.5-.876-.4.219.936-.647.711.958.081.476.835.374-.886Z" transform="translate(-82.919 -62.592)" fill="none" stroke="#000" stroke-miterlimit="10" stroke-width="0.25"/>
      <g id="Group_3747" data-name="Group 3747" transform="translate(17.726 12.77)">
        <path id="Path_4154" data-name="Path 4154" d="M124.632,76.234a2.362,2.362,0,0,1-.908.666c-.778.352-.874,2.057-2.391,2.1a2.831,2.831,0,0,0-2.393,1.149,5.368,5.368,0,0,1-1.54-2.039,3.446,3.446,0,0,1,.034-1.866Z" transform="translate(-91.848 -66.855)"/>
        <g id="Group_3746" data-name="Group 3746">
          <g id="Path_4155" data-name="Path 4155" transform="translate(-91.042 -78.306)" stroke-miterlimit="10">
            <path d="M114.941,121.612h-.152s-.042-3.52-.051-4.253c-.009-.7-.036-3.706-.036-4.318h.224c-.007,1.956,0,3.913.008,5.4Z" stroke="none"/>
            <path d="M 114.9413528442383 121.6116333007813 L 114.7898178100586 121.6116333007813 C 114.7898178100586 121.6116333007813 114.7477874755859 118.0913391113281 114.7388076782227 117.3590240478516 C 114.729850769043 116.6563568115234 114.7030029296875 113.6534271240234 114.7030029296875 113.0410003662109 L 114.9268951416016 113.0410003662109 C 114.9199905395508 114.9967803955078 114.9268951416016 116.9539642333984 114.9344711303711 118.4412994384766 L 114.9413528442383 121.6116333007813 Z" stroke="none" fill="#020202"/>
          </g>
          <g id="Group_3745" data-name="Group 3745">
            <path id="Path_4156" data-name="Path 4156" d="M101.326,68.881a4.617,4.617,0,0,1-.893-1.844,4.238,4.238,0,0,1-.006-2.126A3.046,3.046,0,0,1,101.8,63.18a4.181,4.181,0,0,1,4.235.032,3.047,3.047,0,0,1,1.35,1.75,4.063,4.063,0,0,1-.072,2.127,4.935,4.935,0,0,1-.929,1.825,6.12,6.12,0,0,0,.562-1.9,3.961,3.961,0,0,0-.138-1.863A3.307,3.307,0,0,0,101,65.11a4.179,4.179,0,0,0-.2,1.864A5.61,5.61,0,0,0,101.326,68.881Z" transform="translate(-86.559 -62.62)"/>
            <path id="Path_4157" data-name="Path 4157" d="M101.865,68.619a2.532,2.532,0,0,1,4.522-1.691" transform="translate(-87.048 -63.653)" fill="none" stroke="#020202" stroke-miterlimit="10" stroke-width="0.5"/>
            <g id="Path_4158" data-name="Path 4158" transform="translate(-85.11 -78.567)" stroke-miterlimit="10">
              <path d="M95.85,113.882c-.069,3.755-.029,7.978-.029,7.978h-.185s.021-4.12.021-7.978Z" stroke="none"/>
              <path d="M 95.65666961669922 113.8819961547852 L 95.84956359863281 113.8819961547852 C 95.78067016601563 117.6365203857422 95.82062530517578 121.859489440918 95.82062530517578 121.859489440918 L 95.63600158691406 121.859489440918 C 95.63600158691406 121.859489440918 95.65666961669922 117.7398529052734 95.65666961669922 113.8819961547852 Z" stroke="none" fill="#020202"/>
            </g>
            <g id="Path_4159" data-name="Path 4159" transform="translate(-82.058 -66.428)" stroke-miterlimit="10">
              <path d="M97.84,75.22c0,.021-.007.034-.007.055a5.686,5.686,0,0,0-.048,1.075c.014,2.377-.441,2.246-.951,2.521a4.1,4.1,0,0,0-1.812,1.123,1.921,1.921,0,0,0-1.474-.083c-1.35.248-1.522,1.44-1.812,2.8a6.991,6.991,0,0,1-1.481,2.962A6.969,6.969,0,0,0,88.6,88.984a3.957,3.957,0,0,0-1.929,2.852A44.964,44.964,0,0,0,86.68,98s-.427,2.411-.517,3.1c-.124,1.123.641,1.3,1.1,1.3.889,0,1.171-.269,1.212-.834a12.133,12.133,0,0,0-.427-3.465c.007-.9,2.37-6.407,1.715-6.9a34.273,34.273,0,0,0,3.8-5.194c.53-.765.276-2.818.234-3.141a43.667,43.667,0,0,1,.937,5.353A10.782,10.782,0,0,1,94.6,91.8v.007a7.63,7.63,0,0,1-.317.772c-.007.014-.007.021-.014.034a16.842,16.842,0,0,1-.737,1.66,8.432,8.432,0,0,0-.62,3.672c-.014.338-.028.71-.041,1.109H92.6c0-.393-.007-.772-.007-1.13a9.924,9.924,0,0,1,1.454-5.566,2.514,2.514,0,0,0,.1-.241,4.782,4.782,0,0,0,.331-1.812,18.736,18.736,0,0,0-.31-4.505c-.007-.069-.117-.076-.152-.014-.475,1.033-3.238,4.588-3.651,5.484-.007,0-.007,0-.007.007a8.785,8.785,0,0,1-.737,2.838c-.344.909-1.02,3.575-1.075,3.789a.075.075,0,0,0-.007.034,26.749,26.749,0,0,1,.331,3.252v.186a1.583,1.583,0,0,1-.021.179,1.313,1.313,0,0,1-1.385,1.068h-.351a1.211,1.211,0,0,1-1.268-.9c-.007-.1-.014-.2-.014-.317a19.846,19.846,0,0,1,.448-3.486V93.166a6.234,6.234,0,0,1,1.832-4.747c.007-.007.007-.007.007-.021A19.82,19.82,0,0,1,90.3,84.727a5.2,5.2,0,0,0,.889-2.129,4.659,4.659,0,0,1,1.392-2.742,3.811,3.811,0,0,1,2.122-.475.716.716,0,0,0,.241-.048l1.688-.827a1.42,1.42,0,0,0,.813-1.274l.021-2.37S97.71,75.1,97.84,75.22Z" stroke="none"/>
              <path d="M 97.46844482421875 74.86199951171875 C 97.46844482421875 74.86199951171875 97.70954895019531 75.10311126708984 97.84043884277344 75.22023010253906 C 97.84043884277344 75.24089050292969 97.83357238769531 75.25468444824219 97.83357238769531 75.27534484863281 C 97.79222106933594 75.57158660888672 97.76466369628906 75.92980194091797 97.78533172607422 76.35003662109375 C 97.79911804199219 78.72675323486328 97.34444427490234 78.59586334228516 96.83464050292969 78.87142181396484 C 96.37997436523438 79.11253356933594 95.67040252685547 79.20207977294922 95.02283477783203 79.99434661865234 C 94.75716400146484 79.84884643554688 94.51466369628906 79.80208587646484 94.28878784179688 79.80208587646484 C 94.02267456054688 79.80208587646484 93.77960968017578 79.86695098876953 93.548583984375 79.91165924072266 C 92.19834136962891 80.15966033935547 92.02610778808594 81.35145568847656 91.73677062988281 82.70860290527344 C 91.43366241455078 84.07262420654297 90.60697937011719 85.34709930419922 90.25562286376953 85.67089080810547 C 89.90430450439453 85.98777008056641 88.83650207519531 87.46891021728516 88.60226440429688 88.98448944091797 C 87.37601470947266 89.65274047851563 86.94889831542969 90.69985961914063 86.67335510253906 91.83655548095703 C 86.39777374267578 92.96636199951172 86.68024444580078 98.00223541259766 86.68024444580078 98.00223541259766 C 86.68024444580078 98.00223541259766 86.25312042236328 100.4133911132813 86.16355895996094 101.1023025512695 C 86.03954315185547 102.225212097168 86.80424499511719 102.4043121337891 87.25890350341797 102.4043121337891 C 88.14759826660156 102.4043121337891 88.43003845214844 102.1356506347656 88.47137451171875 101.5707550048828 C 88.55405426025391 100.8267364501953 88.29227447509766 98.78069305419922 88.04425811767578 98.10556030273438 C 88.05115509033203 97.20310974121094 90.41407775878906 91.69877624511719 89.75962829589844 91.20276641845703 C 90.24874877929688 90.76187133789063 93.00434875488281 87.21401977539063 93.55548095703125 86.00844573974609 C 94.08594512939453 85.24375915527344 93.83103179931641 83.19082641601563 93.78970336914063 82.86705017089844 C 93.88615417480469 83.23905944824219 94.57505798339844 86.28400421142578 94.72662353515625 88.21982574462891 C 94.82305908203125 89.51496124267578 94.89884185791016 90.52764129638672 94.59571838378906 91.8021240234375 L 94.59571838378906 91.80900573730469 C 94.52683258056641 92.06390380859375 94.38905334472656 92.30500030517578 94.27882385253906 92.58057403564453 C 94.27193450927734 92.59435272216797 94.27193450927734 92.60124206542969 94.26504516601563 92.61502075195313 C 94.07215881347656 93.12480926513672 93.83792877197266 93.66215515136719 93.52792358398438 94.27527618408203 C 92.99057769775391 95.31551361083984 92.96992492675781 96.41088104248047 92.90791320800781 97.94712066650391 C 92.89413452148438 98.28467559814453 92.88034820556641 98.65668487548828 92.86656951904297 99.05625152587891 L 92.59790802001953 99.05625152587891 C 92.59790802001953 98.66358947753906 92.59100341796875 98.28467559814453 92.59100341796875 97.92645263671875 C 92.57723999023438 94.63349914550781 93.47969055175781 93.62082672119141 94.04460144042969 92.36012268066406 C 94.07904815673828 92.28433990478516 94.11349487304688 92.20167541503906 94.14105987548828 92.11902618408203 C 94.33393859863281 91.62300109863281 94.47171783447266 91.06497955322266 94.47171783447266 90.30718994140625 C 94.47171783447266 87.77203369140625 94.36837005615234 86.51134490966797 94.16171264648438 85.80176544189453 C 94.15799713134766 85.76461791992188 94.12422180175781 85.74549865722656 94.08849334716797 85.74549865722656 C 94.05796813964844 85.74549865722656 94.02603149414063 85.75943756103516 94.01016235351563 85.78800201416016 C 93.53481292724609 86.82135009765625 90.77230072021484 90.37609100341797 90.35896301269531 91.27165985107422 C 90.35208892822266 91.27165985107422 90.35208892822266 91.27165985107422 90.35208892822266 91.27854919433594 C 90.35208892822266 92.22923278808594 89.9525146484375 93.17303466796875 89.61495208740234 94.11683654785156 C 89.27050018310547 95.02617645263672 88.59539031982422 97.69222259521484 88.54026794433594 97.90578460693359 C 88.53337860107422 97.91956329345703 88.53337860107422 97.93334197998047 88.53337860107422 97.94024658203125 C 88.56781768798828 98.10556030273438 88.83650207519531 99.86916351318359 88.86404418945313 101.1918563842773 L 88.86404418945313 101.3778762817383 C 88.86404418945313 101.4329605102539 88.85028076171875 101.5018539428711 88.8433837890625 101.5569763183594 C 88.76071166992188 102.21142578125 88.14759826660156 102.6247863769531 87.45869445800781 102.6247863769531 L 87.10735321044922 102.6247863769531 C 86.50800323486328 102.6247863769531 85.943115234375 102.2940902709961 85.83977508544922 101.7222900390625 C 85.83287811279297 101.6258544921875 85.82598876953125 101.5225219726563 85.82598876953125 101.4054107666016 C 85.82598876953125 100.0276031494141 86.24620819091797 98.00223541259766 86.27378082275391 97.91956329345703 L 86.27378082275391 93.16613006591797 C 86.27378082275391 90.32097625732422 87.36224365234375 89.36339569091797 88.10626983642578 88.41959381103516 C 88.11314392089844 88.41268920898438 88.11314392089844 88.41268920898438 88.11314392089844 88.39893341064453 C 88.56781768798828 87.24156951904297 89.58052062988281 85.73287963867188 90.30384826660156 84.72709655761719 C 90.758544921875 84.10018157958984 91.05477142333984 83.36305999755859 91.19254302978516 82.59837341308594 C 91.41299438476563 81.34458160400391 91.99855041503906 80.31809997558594 92.58412933349609 79.85654449462891 C 93.14439392089844 79.42701721191406 94.12093353271484 79.3800048828125 94.57843780517578 79.3800048828125 C 94.62723541259766 79.3800048828125 94.67009735107422 79.38053894042969 94.70594787597656 79.38120269775391 C 94.78861236572266 79.38120269775391 94.87128448486328 79.36053466796875 94.94705963134766 79.33296966552734 L 96.63487243652344 78.50629425048828 C 97.13088226318359 78.27206420898438 97.44778442382813 77.76918029785156 97.44778442382813 77.23181915283203 L 97.46844482421875 74.86199951171875 Z" stroke="none" fill="#020202"/>
            </g>
            <g id="Path_4160" data-name="Path 4160" transform="translate(-88.772 -66.391)" stroke-miterlimit="10">
              <path d="M121.687,78.869c-.358.606-2.1,2.825-3.686,2.866a.056.056,0,0,0-.062.048c.021,1.013.4,4.361.4,5.642s-.448,4.561-1.178,4.561-5.208-2.473-5.869-6.1a.085.085,0,0,0-.165-.014.886.886,0,0,0-.028.131,24.679,24.679,0,0,0-.172,4.3,4.822,4.822,0,0,0,.31,1.784c.034.083.062.165.1.234a10.238,10.238,0,0,1,1.392,5.566v1.13H112.4c-.007-2.535-.152-4.085-.7-5.187a13.051,13.051,0,0,1-.675-1.206,6.347,6.347,0,0,1-.248-.854,6.429,6.429,0,0,1-.193-1.536c-.041-5.394.751-7.171.847-7.371a8,8,0,0,0,.723,4.43,8.7,8.7,0,0,0,3.92,3.961c.971.455,1.316.379,1.591-.751a15.7,15.7,0,0,0,.365-3.21,59.982,59.982,0,0,0-.765-6.62c.048.09.544.971,1.247.6a6.506,6.506,0,0,0,1.963-1.405,7.5,7.5,0,0,0,1.157-1.557c.3-.586.131-1.033-.179-.958a1.509,1.509,0,0,0-.875.654c-1.447,1.956-2.053,1.626-3.245,1.688-1.1.062-1.405,1.653-1.419,2.032-.028.675-.028,5.408.524,6.379a12.72,12.72,0,0,1-1.659-2.793,8.92,8.92,0,0,1-1.1-2.844c-.124-.834-1.073-3.3-3.477-2.672-.744-.517-1.24-.634-1.9-1.116-1.171-.84-.792-2.2-.778-3.4v-.014a.661.661,0,0,0-.124-.358v-.007a1.645,1.645,0,0,0,.152-.158l.255-.007a.089.089,0,0,1,.09.062.041.041,0,0,1,.007.028V77.2a1.4,1.4,0,0,0,.8,1.281l1.695.8a.427.427,0,0,0,.22.062,3.87,3.87,0,0,1,2.1.475A4.616,4.616,0,0,1,114.13,82.6a32.677,32.677,0,0,0,1.509,3.72.036.036,0,0,0,.069-.021V81.734s0-2.473,2.232-2.425,2.211-2.3,3.748-2.335C122.583,76.96,122,78.331,121.687,78.869Z" stroke="none"/>
              <path d="M 107.8124542236328 74.74200439453125 C 107.8537826538086 74.74200439453125 107.8882369995117 74.76267242431641 107.9020080566406 74.80399322509766 C 107.9088973999023 74.81089019775391 107.9088973999023 74.82466888427734 107.9088973999023 74.83155059814453 L 107.9088973999023 77.20137023925781 C 107.9088973999023 77.75249481201172 108.2120132446289 78.25539398193359 108.7080230712891 78.48271942138672 L 110.402717590332 79.2818603515625 C 110.4785079956055 79.32320404052734 110.5405044555664 79.3438720703125 110.623161315918 79.3438720703125 C 110.6491241455078 79.3433837890625 110.6791687011719 79.34306335449219 110.7126541137695 79.34306335449219 C 111.1500244140625 79.34306335449219 112.1867828369141 79.39686584472656 112.7243270874023 79.81920623779297 C 113.3305511474609 80.28076171875 113.9092330932617 81.32789611816406 114.1296920776367 82.59548187255859 C 114.2398910522461 83.20173645019531 115.3283615112305 85.65421295166016 115.6383972167969 86.31555938720703 C 115.6441268920898 86.32991027832031 115.6570434570313 86.33708953857422 115.6701583862305 86.33708953857422 C 115.6885147094727 86.33708953857422 115.707275390625 86.32302093505859 115.707275390625 86.29489135742188 L 115.707275390625 81.73435211181641 C 115.707275390625 81.73435211181641 115.7076187133789 79.30897521972656 117.8753128051758 79.3087158203125 C 117.8965530395508 79.3087158203125 117.9176635742188 79.30894470214844 117.939323425293 79.30941009521484 C 117.9652328491211 79.31005096435547 117.9910049438477 79.31036376953125 118.0163116455078 79.31036376953125 C 120.1847305297852 79.31036376953125 120.1684036254883 77.00809478759766 121.6869430541992 76.97405242919922 C 121.6913681030273 76.97398376464844 121.6959075927734 76.97394561767578 121.7002639770508 76.97394561767578 C 122.5769424438477 76.97394561767578 122.0022659301758 78.33383178710938 121.6869430541992 78.86852264404297 C 121.328727722168 79.47475433349609 119.5857925415039 81.69302368164063 118.0013122558594 81.73435211181641 C 117.9668731689453 81.73435211181641 117.939323425293 81.75502014160156 117.939323425293 81.78256988525391 C 117.9599838256836 82.79527282714844 118.3388748168945 86.14334106445313 118.3388748168945 87.42469024658203 C 118.3388748168945 88.71982574462891 117.8910980224609 91.9852294921875 117.1608505249023 91.9852294921875 C 116.4375152587891 91.9852294921875 111.952751159668 89.51206970214844 111.2913970947266 85.88843536376953 C 111.2839889526367 85.84023284912109 111.2426528930664 85.81398773193359 111.2028350830078 85.81398773193359 C 111.1686630249023 85.81398773193359 111.135612487793 85.83330535888672 111.1260681152344 85.87467193603516 C 111.1122970581055 85.91600036621094 111.1054077148438 85.96421051025391 111.0985107421875 86.00555419921875 C 110.9262847900391 86.74956512451172 110.9262847900391 88.03781890869141 110.9262847900391 90.30431365966797 C 110.9262847900391 91.04830932617188 111.0503005981445 91.59943389892578 111.2363052368164 92.08856201171875 C 111.2707214355469 92.17121887207031 111.2982940673828 92.25390625 111.3327407836914 92.32279205322266 C 111.8700942993164 93.58349609375 112.7381057739258 94.58238983154297 112.7243270874023 97.88911437988281 L 112.7243270874023 99.01891326904297 L 112.4005355834961 99.01891326904297 C 112.3936538696289 96.48374938964844 112.2489776611328 94.93373107910156 111.7047576904297 93.83148956298828 C 111.5256271362305 93.45948028564453 111.1605224609375 93.01169586181641 111.0296173095703 92.62591552734375 C 110.9262847900391 92.34345245361328 110.8436279296875 92.06100463867188 110.781623840332 91.77165985107422 C 110.6576232910156 91.26877593994141 110.5887145996094 90.75210571289063 110.5887145996094 90.23542022705078 C 110.5473861694336 84.84131622314453 111.3396224975586 83.06394195556641 111.4360809326172 82.86416625976563 C 111.4154052734375 83.08460235595703 111.0847320556641 84.87575531005859 112.159423828125 87.29380035400391 C 112.9998779296875 89.17449951171875 114.7979125976563 90.6556396484375 116.0792922973633 91.25498199462891 C 116.4322204589844 91.42018890380859 116.7024917602539 91.51539611816406 116.9166717529297 91.51539611816406 C 117.2919464111328 91.51539611816406 117.4952011108398 91.223388671875 117.6706314086914 90.50408935546875 C 117.8842163085938 89.67052459716797 118.0426559448242 88.15492248535156 118.0357666015625 87.29380035400391 C 118.0288619995117 85.26153564453125 117.3124237060547 80.93522644042969 117.2710647583008 80.67343902587891 C 117.3109664916992 80.74753570556641 117.6574020385742 81.36388397216797 118.173698425293 81.36388397216797 C 118.2815017700195 81.36388397216797 118.3966217041016 81.33705139160156 118.5179977416992 81.27278900146484 C 119.4204406738281 80.92832946777344 120.2953414916992 80.05343627929688 120.4813537597656 79.867431640625 C 120.8395767211914 79.47475433349609 121.3769378662109 78.85474395751953 121.6387176513672 78.31051635742188 C 121.9128952026367 77.76854705810547 121.7916259765625 77.34456634521484 121.5262832641602 77.34456634521484 C 121.5049285888672 77.34456634521484 121.4826965332031 77.34729766845703 121.4596176147461 77.35294342041016 C 121.0669326782227 77.44937896728516 120.825813293457 77.68360900878906 120.5847015380859 78.00740051269531 C 119.1380081176758 79.96388244628906 118.5317764282227 79.63320159912109 117.339973449707 79.69520568847656 C 116.2446136474609 79.75720977783203 115.9346008300781 81.34857177734375 115.9208374023438 81.72748565673828 C 115.8932647705078 82.40259552001953 115.8932647705078 87.13535308837891 116.4443817138672 88.10670471191406 C 116.0792922973633 87.76225280761719 115.3297576904297 86.48502349853516 114.785514831543 85.31388092041016 C 114.199951171875 84.08765411376953 113.8176116943359 83.48279571533203 113.6867141723633 82.47011566162109 C 113.5764541625977 81.72887420654297 112.8139724731445 79.69760131835938 110.9559478759766 79.69760131835938 C 110.7244720458984 79.69760131835938 110.4761657714844 79.72909545898438 110.2098236083984 79.79854583740234 C 109.4658279418945 79.2818603515625 108.9698028564453 79.16474151611328 108.3084716796875 78.68252563476563 C 107.137321472168 77.84205627441406 107.516227722168 76.48492431640625 107.5299911499023 75.28623199462891 L 107.5299911499023 75.2724609375 C 107.5299911499023 75.16222381591797 107.4886779785156 75.03823089599609 107.4059829711914 74.91421508789063 L 107.4059829711914 74.90734100341797 C 107.4611053466797 74.85911560058594 107.5093307495117 74.80399322509766 107.5575408935547 74.74888610839844 L 107.8124542236328 74.74200439453125 Z" stroke="none" fill="#020202"/>
            </g>
            <path id="Path_4161" data-name="Path 4161" d="M101.865,69.83" transform="translate(-87.048 -64.863)" stroke="#020202" stroke-miterlimit="10" stroke-width="0.25" opacity="0.31"/>
            <path id="Path_4162" data-name="Path 4162" d="M101.693,71.183" transform="translate(-86.994 -65.284)" fill="#fff" stroke="#000" stroke-miterlimit="10" stroke-width="0.25" opacity="0.31"/>
            <path id="Path_4163" data-name="Path 4163" d="M103.436,75.5c-.053-.033-.106-.073-.159-.113v-.006Z" transform="translate(-87.487 -66.589)" fill="#fff"/>
            <path id="Path_4164" data-name="Path 4164" d="M98.838,86.54a1.771,1.771,0,0,0,3.533,0,1.737,1.737,0,0,1-.393,1.393,1.785,1.785,0,0,1-2.747,0A1.74,1.74,0,0,1,98.838,86.54Z" transform="translate(-86.1 -70.061)"/>
            <path id="Path_4165" data-name="Path 4165" d="M107.037,86.54a1.771,1.771,0,0,0,3.533,0,1.74,1.74,0,0,1-.393,1.393,1.785,1.785,0,0,1-2.747,0A1.742,1.742,0,0,1,107.037,86.54Z" transform="translate(-88.65 -70.061)"/>
            <g id="Path_4166" data-name="Path 4166" transform="translate(-87.316 -64.298)" stroke-miterlimit="10">
              <path d="M107.195,70.2a4.509,4.509,0,0,1-.75,2.516,3.26,3.26,0,0,1-.372.464,2.084,2.084,0,0,1-1.474.757,2.4,2.4,0,0,1-1.507-.79,2.7,2.7,0,0,1-.365-.411,3.219,3.219,0,0,0,.379.352,2.271,2.271,0,0,0,1.288.564,2.2,2.2,0,0,0,1.56-.83,1.671,1.671,0,0,0,.145-.166,4.264,4.264,0,0,0,.89-2.622,2.035,2.035,0,0,0-1.022-2.018A2.061,2.061,0,0,1,107.195,70.2Z" stroke="none"/>
              <path d="M 105.9669036865234 68.01499176025391 C 106.6633758544922 68.29400634765625 107.1945190429688 68.90437316894531 107.1945190429688 70.19882202148438 C 107.1945190429688 71.16810607910156 106.8962249755859 72.05058288574219 106.4450073242188 72.71469879150391 C 106.3320236206055 72.88690185546875 106.2059478759766 73.03985595703125 106.072998046875 73.17900848388672 C 105.6348495483398 73.6571044921875 105.1036987304688 73.93610382080078 104.5994262695313 73.93610382080078 C 104.1282196044922 73.93610382080078 103.5502395629883 73.60406494140625 103.0921173095703 73.14593505859375 C 102.9529495239258 73.01986694335938 102.8337631225586 72.88071441650391 102.7269744873047 72.73466491699219 C 102.8399658203125 72.86074829101563 102.9729156494141 72.97991180419922 103.1058731079102 73.08669281005859 C 103.5171661376953 73.41805267333984 104.0021438598633 73.65090179443359 104.3934478759766 73.65090179443359 C 104.9314880371094 73.65090179443359 105.4888000488281 73.33883666992188 105.9538040161133 72.82078552246094 C 106.0068664550781 72.76773834228516 106.0530090332031 72.71469879150391 106.0991668701172 72.65475463867188 C 106.6241149902344 71.99134826660156 106.9892272949219 71.06201171875 106.9892272949219 70.03279876708984 C 106.9892272949219 68.9112548828125 106.5572738647461 68.32018280029297 105.9669036865234 68.01499176025391 Z" stroke="none" fill="#000"/>
            </g>
            <path id="Path_4167" data-name="Path 4167" d="M107.654,113.882l-.021,7.991h-.165l-.172-7.991Z" transform="translate(-88.738 -78.567)"/>
            <path id="Path_4168" data-name="Path 4168" d="M111.271,99.976c-.1.1-.207.2-.3.3A15.115,15.115,0,0,0,108.5,103.5a6.647,6.647,0,0,0-.778,2.115l-.055.551-.007.5h-.441l-.014-.5c0-.2.021-.413.028-.62a7.214,7.214,0,0,1,.744-2.322,15.861,15.861,0,0,1,2.742-3.8.825.825,0,0,1,.076-.083l.379.4C111.209,99.824,111.236,99.907,111.271,99.976Z" transform="translate(-88.71 -74.044)"/>
            <path id="Path_4169" data-name="Path 4169" d="M103.411,113.882l-.172,7.984h-.172l-.021-7.984Z" transform="translate(-87.415 -78.567)"/>
            <path id="Path_4170" data-name="Path 4170" d="M101.831,106.166l-.014.5h-.441l-.014-.5-.055-.558a6.471,6.471,0,0,0-.772-2.115,15.762,15.762,0,0,0-2.466-3.224l-.076-.076c-.076-.069-.152-.145-.227-.22.028-.076.062-.152.09-.241l.386-.4a.73.73,0,0,1,.069.083v.007c.007-.007.007,0,.007,0a16.051,16.051,0,0,1,2.742,3.8,6.936,6.936,0,0,1,.737,2.322C101.81,105.753,101.824,105.959,101.831,106.166Z" transform="translate(-85.773 -74.041)"/>
            <path id="Path_4171" data-name="Path 4171" d="M113.775,110.409l-.792-.1H90.676v-.241a.091.091,0,0,1,.1-.09h22.286a.165.165,0,0,1,.062.014Z" transform="translate(-83.567 -77.354)"/>
            <path id="Path_4172" data-name="Path 4172" d="M115.077,111.716l-1.95,1.24a.1.1,0,0,1-.062.021H90.779a.1.1,0,0,1-.1-.1v-1.9h23.5l.9.579A.1.1,0,0,1,115.077,111.716Z" transform="translate(-83.567 -77.662)"/>
            <path id="Path_4173" data-name="Path 4173" d="M95.776,74.9" transform="translate(-85.154 -66.44)" stroke="#020202" stroke-miterlimit="10" stroke-width="1"/>
            <path id="Path_4174" data-name="Path 4174" d="M84.279,109.413v.867l-2.331.416Z" transform="translate(-80.852 -77.177)"/>
            <path id="Path_4175" data-name="Path 4175" d="M80.563,111.772l3.221-.463v2.161L80.4,111.988a.068.068,0,0,1-.006-.123Z" transform="translate(-80.357 -77.767)"/>
            <path id="Path_4176" data-name="Path 4176" d="M97.912,78.73l2.645-6.738-2.274,6.871Z" transform="translate(-85.818 -65.536)" fill="#020202"/>
            <path id="Path_4177" data-name="Path 4177" d="M111.329,78.776l-2.182-6.783,2.676,6.6Z" transform="translate(-89.313 -65.536)" fill="#020202"/>
          </g>
        </g>
      </g>
    </g>
  </g>
</svg>
