<svg xmlns="http://www.w3.org/2000/svg" width="134.703" height="20.847" viewBox="0 0 134.703 20.847">
  <g id="Group_276" data-name="Group 276" transform="translate(0.75 0.75)">
    <path id="star" d="M12.172,2l3.143,6.368L22.344,9.4l-5.086,4.954,1.2,7-6.286-3.306L5.886,21.347l1.2-7L2,9.4,9.029,8.368Z" transform="translate(-2 -2)" fill="#ffb41d" stroke="#ffb41d" stroke-linecap="round" stroke-linejoin="round" stroke-width="1.5"/>
    <path id="star-2" data-name="star" d="M12.172,2l3.143,6.368L22.344,9.4l-5.086,4.954,1.2,7-6.286-3.306L5.886,21.347l1.2-7L2,9.4,9.029,8.368Z" transform="translate(27.021 -2)" fill="#ffb41d" stroke="#ffb41d" stroke-linecap="round" stroke-linejoin="round" stroke-width="1.5"/>
    <path id="star-3" data-name="star" d="M12.172,2l3.143,6.368L22.344,9.4l-5.086,4.954,1.2,7-6.286-3.306L5.886,21.347l1.2-7L2,9.4,9.029,8.368Z" transform="translate(54.43 -2)" fill="#ffb41d" stroke="#ffb41d" stroke-linecap="round" stroke-linejoin="round" stroke-width="1.5"/>
    <path id="star-4" data-name="star" d="M12.172,2l3.143,6.368L22.344,9.4l-5.086,4.954,1.2,7-6.286-3.306L5.886,21.347l1.2-7L2,9.4,9.029,8.368Z" transform="translate(83.45 -2)" fill="#ffb41d" stroke="#ffb41d" stroke-linecap="round" stroke-linejoin="round" stroke-width="1.5"/>
    <path id="star-5" data-name="star" d="M12.172,2l3.143,6.368L22.344,9.4l-5.086,4.954,1.2,7-6.286-3.306L5.886,21.347l1.2-7L2,9.4,9.029,8.368Z" transform="translate(110.859 -2)" fill="#ffb41d" stroke="#ffb41d" stroke-linecap="round" stroke-linejoin="round" stroke-width="1.5"/>
  </g>
</svg>
