<svg id="Group_3846" data-name="Group 3846" xmlns="http://www.w3.org/2000/svg" width="22.997" height="22.997" viewBox="0 0 22.997 22.997">
  <path id="Path_82" data-name="Path 82" d="M211.4,209.2a2.2,2.2,0,1,1-2.2-2.2A2.2,2.2,0,0,1,211.4,209.2Zm0,0" transform="translate(-197.703 -197.702)" fill="#f46f30"/>
  <g id="Group_222" data-name="Group 222">
    <path id="Path_83" data-name="Path 83" d="M146.045,137.008a2.186,2.186,0,0,0-1.253-1.253,3.652,3.652,0,0,0-1.226-.227c-.7-.032-.905-.039-2.668-.039s-1.972.007-2.668.038a3.655,3.655,0,0,0-1.226.227,2.187,2.187,0,0,0-1.253,1.253,3.654,3.654,0,0,0-.227,1.226c-.032.7-.039.905-.039,2.668s.007,1.972.039,2.668a3.653,3.653,0,0,0,.227,1.226A2.186,2.186,0,0,0,137,146.049a3.647,3.647,0,0,0,1.226.227c.7.032.9.038,2.668.038s1.972-.007,2.668-.038a3.647,3.647,0,0,0,1.226-.227,2.186,2.186,0,0,0,1.253-1.253,3.655,3.655,0,0,0,.227-1.226c.032-.7.038-.905.038-2.668s-.007-1.972-.038-2.668A3.649,3.649,0,0,0,146.045,137.008Zm-5.147,7.285a3.391,3.391,0,1,1,3.39-3.391A3.39,3.39,0,0,1,140.9,144.292Zm3.525-6.123a.792.792,0,1,1,.792-.792A.792.792,0,0,1,144.422,138.169Zm0,0" transform="translate(-129.399 -129.403)" fill="#f46f30"/>
    <path id="Path_84" data-name="Path 84" d="M11.5,0A11.5,11.5,0,1,0,23,11.5,11.5,11.5,0,0,0,11.5,0Zm6.563,14.221a4.844,4.844,0,0,1-.307,1.6,3.376,3.376,0,0,1-1.931,1.931,4.848,4.848,0,0,1-1.6.307c-.7.032-.929.04-2.722.04s-2.018-.008-2.722-.04a4.848,4.848,0,0,1-1.6-.307,3.376,3.376,0,0,1-1.931-1.931,4.843,4.843,0,0,1-.307-1.6c-.032-.7-.04-.929-.04-2.722s.008-2.018.04-2.722a4.845,4.845,0,0,1,.307-1.6A3.378,3.378,0,0,1,7.174,5.243a4.849,4.849,0,0,1,1.6-.307c.7-.032.929-.04,2.722-.04s2.018.008,2.722.04a4.85,4.85,0,0,1,1.6.307,3.377,3.377,0,0,1,1.931,1.931,4.844,4.844,0,0,1,.307,1.6c.032.7.04.929.04,2.722S18.094,13.517,18.061,14.221Zm0,0" fill="#f46f30"/>
  </g>
</svg>
