<svg id="user-3-line_3_" data-name="user-3-line (3)" xmlns="http://www.w3.org/2000/svg" width="17.863" height="17.863" viewBox="0 0 17.863 17.863">
  <path id="Path_4270" data-name="Path 4270" d="M0,0H17.863V17.863H0Z" fill="none"/>
  <path id="Path_4271" data-name="Path 4271" d="M15.909,16.63H14.42V15.142a2.233,2.233,0,0,0-2.233-2.233H7.722a2.233,2.233,0,0,0-2.233,2.233V16.63H4V15.142A3.722,3.722,0,0,1,7.722,11.42h4.466a3.722,3.722,0,0,1,3.722,3.722Zm-5.954-6.7A4.466,4.466,0,1,1,14.42,5.466,4.466,4.466,0,0,1,9.954,9.932Zm0-1.489A2.977,2.977,0,1,0,6.977,5.466,2.977,2.977,0,0,0,9.954,8.443Z" transform="translate(-1.023 -0.256)" fill="#fff"/>
</svg>
