<svg xmlns="http://www.w3.org/2000/svg" width="133" height="133" viewBox="0 0 133 133">
  <g id="Group_3908" data-name="Group 3908" transform="translate(-1190 -1475)">
    <g id="email_2_" data-name="email (2)" transform="translate(1223.25 1510.625)">
      <path id="Path_4260" data-name="Path 4260" d="M66.051,41.995h0l-8.5-5.633V17.532a1.1,1.1,0,0,0-1.1-1.1H10.091a1.1,1.1,0,0,0-1.1,1.1V36.363l-8.5,5.632h0A1.1,1.1,0,0,0,0,42.913v34.13a1.1,1.1,0,0,0,1.1,1.1h64.34a1.1,1.1,0,0,0,1.1-1.1V42.913A1.1,1.1,0,0,0,66.051,41.995ZM8.989,45.849,5.532,44.015H8.989ZM2.2,44.745,27.549,58.19,2.2,74.99Zm31.068,12.3,28.514,18.9H4.758Zm5.723,1.149L64.34,44.745V74.991ZM57.554,44.015h3.459L57.554,45.85Zm4.231-2.2H57.554V39.006ZM55.35,18.634V47.019L36.9,56.8l-3.023-2a1.1,1.1,0,0,0-1.218,0l-3.023,2L11.193,47.018V18.634H55.35ZM8.989,41.811H4.759l4.23-2.8Z" transform="translate(0 -16.43)" fill="#6d6e72"/>
      <path id="Path_4261" data-name="Path 4261" d="M169.044,97.04h8.781a1.1,1.1,0,1,0,0-2.2h-8.781a7.687,7.687,0,0,1-7.679-7.679v-.325a7.679,7.679,0,0,1,15.357,0v.813a1.662,1.662,0,0,1-3.325,0V86.1a4.769,4.769,0,1,0-1.625,3.577,3.865,3.865,0,0,0,7.154-2.033v-.813a9.883,9.883,0,0,0-19.766,0v.325A9.894,9.894,0,0,0,169.044,97.04Zm-.407-8.383a2.557,2.557,0,1,1,2.556-2.556A2.559,2.559,0,0,1,168.637,88.657Z" transform="translate(-135.772 -68.056)" fill="#6d6e72"/>
    </g>
    <g id="Ellipse_58" data-name="Ellipse 58" transform="translate(1190 1475)" fill="none" stroke="#6d6e72" stroke-width="2">
      <circle cx="66.5" cy="66.5" r="66.5" stroke="none"/>
      <circle cx="66.5" cy="66.5" r="65.5" fill="none"/>
    </g>
  </g>
</svg>
