<svg id="sync" xmlns="http://www.w3.org/2000/svg" xmlns:xlink="http://www.w3.org/1999/xlink" width="45.029" height="45.029" viewBox="0 0 45.029 45.029">
  <defs>
    <linearGradient id="linear-gradient" x1="0.5" y1="1" x2="0.5" gradientUnits="objectBoundingBox">
      <stop offset="0" stop-color="#eb9797"/>
      <stop offset="1" stop-color="#f5db5c"/>
    </linearGradient>
  </defs>
  <g id="Group_3816" data-name="Group 3816">
    <path id="Path_4246" data-name="Path 4246" d="M21.084,37.119A14.619,14.619,0,0,1,7.915,22.6,14.926,14.926,0,0,1,14.37,10.366l1.724,2.3a1.32,1.32,0,0,0,2.335-.472L21.068,1.639A1.32,1.32,0,0,0,19.788,0H9.234A1.32,1.32,0,0,0,8.179,2.111l1.428,1.9A22.781,22.781,0,0,0,0,22.6a22.513,22.513,0,0,0,19.5,22.33,1.319,1.319,0,0,0,1.45-.988l1.3-5.191A1.32,1.32,0,0,0,21.084,37.119ZM39.414,7.575A22.259,22.259,0,0,0,25.529.1a1.319,1.319,0,0,0-1.45.988l-1.3,5.191A1.32,1.32,0,0,0,23.945,7.91,14.676,14.676,0,0,1,30.66,34.665l-1.726-2.3a1.32,1.32,0,0,0-2.335.472L23.961,43.389a1.32,1.32,0,0,0,1.28,1.639H35.794a1.32,1.32,0,0,0,1.055-2.111l-1.428-1.9A22.645,22.645,0,0,0,39.414,7.575Z" fill="url(#linear-gradient)"/>
  </g>
</svg>
