<svg xmlns="http://www.w3.org/2000/svg" width="16" height="16" viewBox="0 0 16 16">
  <g id="Group_383" data-name="Group 383" transform="translate(-307 -2617)">
    <g id="phone-call" transform="translate(309.5 2619.488)">
      <g id="Group_213" data-name="Group 213" transform="translate(0 0)">
        <path id="Path_86" data-name="Path 86" d="M11.251,8.09,9.712,6.552a1.023,1.023,0,0,0-1.7.385A1.047,1.047,0,0,1,6.8,7.6,4.744,4.744,0,0,1,3.944,4.739,1,1,0,0,1,4.6,3.53a1.023,1.023,0,0,0,.385-1.7L3.449.288a1.1,1.1,0,0,0-1.483,0L.922,1.332c-1.044,1.1.11,4.011,2.692,6.593s5.494,3.791,6.593,2.692l1.044-1.044A1.1,1.1,0,0,0,11.251,8.09Z" transform="translate(-0.539 0)" fill="#37ddc9"/>
      </g>
    </g>
    <rect id="Rectangle_472" data-name="Rectangle 472" width="16" height="16" transform="translate(307 2617)" fill="none"/>
  </g>
</svg>
