<svg id="Group_223" data-name="Group 223" xmlns="http://www.w3.org/2000/svg" width="20" height="20" viewBox="0 0 20 20">
  <path id="Path_82" data-name="Path 82" d="M210.913,208.957A1.957,1.957,0,1,1,208.957,207,1.957,1.957,0,0,1,210.913,208.957Zm0,0" transform="translate(-198.957 -198.957)"/>
  <g id="Group_222" data-name="Group 222" transform="translate(0)">
    <path id="Path_83" data-name="Path 83" d="M144.872,136.839a1.944,1.944,0,0,0-1.114-1.114,3.247,3.247,0,0,0-1.09-.2c-.619-.028-.8-.034-2.372-.034s-1.753.006-2.372.034a3.249,3.249,0,0,0-1.09.2,1.945,1.945,0,0,0-1.114,1.114,3.249,3.249,0,0,0-.2,1.09c-.028.619-.034.8-.034,2.372s.006,1.753.034,2.372a3.248,3.248,0,0,0,.2,1.09,1.944,1.944,0,0,0,1.114,1.114,3.243,3.243,0,0,0,1.09.2c.619.028.8.034,2.372.034s1.753-.006,2.372-.034a3.243,3.243,0,0,0,1.09-.2,1.944,1.944,0,0,0,1.114-1.114,3.25,3.25,0,0,0,.2-1.09c.028-.619.034-.8.034-2.372s-.006-1.753-.034-2.372A3.243,3.243,0,0,0,144.872,136.839Zm-4.576,6.476a3.014,3.014,0,1,1,3.014-3.014A3.014,3.014,0,0,1,140.3,143.315Zm3.133-5.443a.7.7,0,1,1,.7-.7A.7.7,0,0,1,143.43,137.872Zm0,0" transform="translate(-130.297 -130.3)"/>
    <path id="Path_84" data-name="Path 84" d="M10,0A10,10,0,1,0,20,10,10,10,0,0,0,10,0Zm5.708,12.367a4.213,4.213,0,0,1-.267,1.394,2.936,2.936,0,0,1-1.679,1.679,4.216,4.216,0,0,1-1.394.267c-.612.028-.808.035-2.367.035s-1.755-.007-2.368-.035a4.216,4.216,0,0,1-1.394-.267,2.936,2.936,0,0,1-1.679-1.679,4.212,4.212,0,0,1-.267-1.394c-.028-.612-.035-.808-.035-2.368s.007-1.755.035-2.367a4.213,4.213,0,0,1,.267-1.394,2.938,2.938,0,0,1,1.68-1.679,4.217,4.217,0,0,1,1.394-.267c.612-.028.808-.035,2.367-.035s1.755.007,2.367.035a4.218,4.218,0,0,1,1.394.267,2.937,2.937,0,0,1,1.679,1.68,4.212,4.212,0,0,1,.267,1.394c.028.612.034.808.034,2.367S15.736,11.755,15.708,12.367Zm0,0"/>
  </g>
</svg>